<?xml version="1.0" encoding="UTF-8" standalone="no"?>
<svg width="611px" height="250px" viewBox="0 0 611 250"
 xmlns="http://www.w3.org/2000/svg" xmlns:xlink="http://www.w3.org/1999/xlink" version="1.2" baseProfile="tiny">
<title>Sweetness</title>
<desc>Generated by MuseScore 2.1.0</desc>
<path class="" stroke="#000000" stroke-width="0.63" stroke-linecap="round" stroke-linejoin="round" fill-rule="evenodd" d="M67.0795,157.269 C119.275,132.811 353.565,149.452 401.78,181.043 C353.463,150.889 119.173,134.248 67.0795,157.269"/>
<path class="" stroke="#000000" stroke-width="0.63" stroke-linecap="round" stroke-linejoin="round" fill-rule="evenodd" d="M305.707,15.8406 C314.965,8.08363 342.742,8.08363 352.001,15.8406 C342.742,9.52408 314.965,9.52408 305.707,15.8406"/>
<path class="" stroke="#000000" stroke-width="0.63" stroke-linecap="round" stroke-linejoin="round" fill-rule="evenodd" d="M405.407,24.8434 C414.666,17.0865 442.442,17.0865 451.701,24.8434 C442.442,18.5269 414.666,18.5269 405.407,24.8434"/>
<path class="" stroke="#000000" stroke-width="0.63" stroke-linecap="round" stroke-linejoin="round" fill-rule="evenodd" d="M533.239,14.4902 C552.058,-1.91728 589.695,-1.91728 608.514,14.4902 C589.695,-0.476823 552.058,-0.476823 533.239,14.4902"/>
<path class="" stroke="#000000" stroke-width="0.63" stroke-linecap="round" stroke-linejoin="round" fill-rule="evenodd" d="M318.235,185.589 C332.733,173.851 376.227,173.851 390.725,185.589 C376.227,175.291 332.733,175.291 318.235,185.589"/>
<path class="" stroke="#000000" stroke-width="0.63" stroke-linecap="round" stroke-linejoin="round" fill-rule="evenodd" d="M318.235,201.704 C332.733,212.002 376.227,212.002 390.725,201.704 C376.227,213.443 332.733,213.443 318.235,201.704"/>
<polyline class="" stroke="#000000" stroke-width="0.72" stroke-linejoin="bevel" points="2.18306,31.5956 226.955,31.5956"/>
<polyline class="" stroke="#000000" stroke-width="0.72" stroke-linejoin="bevel" points="2.18306,40.5984 226.955,40.5984"/>
<polyline class="" stroke="#000000" stroke-width="0.72" stroke-linejoin="bevel" points="2.18306,49.6012 226.955,49.6012"/>
<polyline class="" stroke="#000000" stroke-width="0.72" stroke-linejoin="bevel" points="2.18306,58.6041 226.955,58.6041"/>
<polyline class="" stroke="#000000" stroke-width="0.72" stroke-linejoin="bevel" points="2.18306,67.6069 226.955,67.6069"/>
<polyline class="" stroke="#000000" stroke-width="0.72" stroke-linejoin="bevel" points="226.955,31.5956 608.514,31.5956"/>
<polyline class="" stroke="#000000" stroke-width="0.72" stroke-linejoin="bevel" points="226.955,40.5984 608.514,40.5984"/>
<polyline class="" stroke="#000000" stroke-width="0.72" stroke-linejoin="bevel" points="226.955,49.6012 608.514,49.6012"/>
<polyline class="" stroke="#000000" stroke-width="0.72" stroke-linejoin="bevel" points="226.955,58.6041 608.514,58.6041"/>
<polyline class="" stroke="#000000" stroke-width="0.72" stroke-linejoin="bevel" points="226.955,67.6069 608.514,67.6069"/>
<polyline class="" stroke="#000000" stroke-width="0.72" stroke-linejoin="bevel" points="2.18306,175.641 382.061,175.641"/>
<polyline class="" stroke="#000000" stroke-width="0.72" stroke-linejoin="bevel" points="2.18306,184.644 382.061,184.644"/>
<polyline class="" stroke="#000000" stroke-width="0.72" stroke-linejoin="bevel" points="2.18306,193.647 382.061,193.647"/>
<polyline class="" stroke="#000000" stroke-width="0.72" stroke-linejoin="bevel" points="2.18306,202.649 382.061,202.649"/>
<polyline class="" stroke="#000000" stroke-width="0.72" stroke-linejoin="bevel" points="2.18306,211.652 382.061,211.652"/>
<polyline class="" stroke="#000000" stroke-width="0.72" stroke-linejoin="bevel" points="382.061,175.641 608.514,175.641"/>
<polyline class="" stroke="#000000" stroke-width="0.72" stroke-linejoin="bevel" points="382.061,184.644 608.514,184.644"/>
<polyline class="" stroke="#000000" stroke-width="0.72" stroke-linejoin="bevel" points="382.061,193.647 608.514,193.647"/>
<polyline class="" stroke="#000000" stroke-width="0.72" stroke-linejoin="bevel" points="382.061,202.649 608.514,202.649"/>
<polyline class="" stroke="#000000" stroke-width="0.72" stroke-linejoin="bevel" points="382.061,211.652 608.514,211.652"/>
<polyline class="" stroke="#000000" stroke-width="1.44" stroke-linejoin="bevel" points="226.235,31.5956 226.235,67.6069"/>
<polyline class="" stroke="#000000" stroke-width="1.44" stroke-linejoin="bevel" points="607.794,31.5956 607.794,67.6069"/>
<polyline class="" stroke="#000000" stroke-width="1.44" stroke-linejoin="bevel" points="381.341,175.641 381.341,211.652"/>
<polyline class="" stroke="#000000" stroke-width="1.44" stroke-linejoin="bevel" points="607.794,175.641 607.794,211.652"/>
<polyline class="" stroke="#000000" stroke-width="1.44" stroke-linecap="square" stroke-linejoin="bevel" points="295.301,22.5927 312.556,22.5927"/>
<polyline class="" stroke="#000000" stroke-width="1.44" stroke-linecap="square" stroke-linejoin="bevel" points="345.152,22.5927 362.406,22.5927"/>
<polyline class="" stroke="#000000" stroke-width="1.44" stroke-linecap="square" stroke-linejoin="bevel" points="524.612,22.5927 541.867,22.5927"/>
<polyline class="" stroke="#000000" stroke-width="1.17" stroke-linecap="round" stroke-linejoin="bevel" points="119.733,33.2864 119.733,63.1055"/>
<polyline class="" stroke="#000000" stroke-width="1.17" stroke-linecap="round" stroke-linejoin="bevel" points="160.643,33.2864 160.643,63.1055"/>
<polyline class="" stroke="#000000" stroke-width="1.17" stroke-linecap="round" stroke-linejoin="bevel" points="298.587,24.2836 298.587,57.1036"/>
<polyline class="" stroke="#000000" stroke-width="1.17" stroke-linecap="round" stroke-linejoin="bevel" points="248.737,28.785 248.737,56.3533"/>
<polyline class="" stroke="#000000" stroke-width="1.17" stroke-linecap="round" stroke-linejoin="bevel" points="348.438,24.2836 348.438,57.8538"/>
<polyline class="" stroke="#000000" stroke-width="1.17" stroke-linecap="round" stroke-linejoin="bevel" points="448.138,33.2864 448.138,63.1055"/>
<polyline class="" stroke="#000000" stroke-width="1.17" stroke-linecap="round" stroke-linejoin="bevel" points="398.288,33.2864 398.288,58.6041"/>
<polyline class="" stroke="#000000" stroke-width="1.17" stroke-linecap="round" stroke-linejoin="bevel" points="527.898,24.2836 527.898,63.1055"/>
<polyline class="" stroke="#000000" stroke-width="1.17" stroke-linecap="round" stroke-linejoin="bevel" points="59.6465,172.83 59.6465,211.652"/>
<polyline class="" stroke="#000000" stroke-width="1.17" stroke-linecap="round" stroke-linejoin="bevel" points="135.307,177.332 135.307,218.404"/>
<polyline class="" stroke="#000000" stroke-width="1.17" stroke-linecap="round" stroke-linejoin="bevel" points="210.968,181.833 210.968,213.903"/>
<polyline class="" stroke="#000000" stroke-width="1.17" stroke-linecap="round" stroke-linejoin="bevel" points="305.545,190.836 305.545,225.156"/>
<polyline class="" stroke="#000000" stroke-width="1.17" stroke-linecap="round" stroke-linejoin="bevel" points="258.257,177.332 258.257,211.652"/>
<path class="" transform="matrix(1.80057,0,0,1.80057,119.148,31.5956)" d="M4.39453,-2.75391 C5.01953,-2.75391 5.54688,-2.59115 5.97656,-2.26562 C6.38021,-1.91406 6.58203,-1.47135 6.58203,-0.9375 C6.58203,-0.0390625 6.11979,0.800781 5.19531,1.58203 C4.25781,2.36328 3.25521,2.75391 2.1875,2.75391 C1.5625,2.75391 1.03516,2.59115 0.605469,2.26562 C0.201823,1.91406 0,1.47135 0,0.9375 C0,0.0390625 0.46875,-0.800781 1.40625,-1.58203 C2.31771,-2.36328 3.3138,-2.75391 4.39453,-2.75391"/>
<path class="" transform="matrix(1.80057,0,0,1.80057,160.058,31.5956)" d="M4.39453,-2.75391 C5.01953,-2.75391 5.54688,-2.59115 5.97656,-2.26562 C6.38021,-1.91406 6.58203,-1.47135 6.58203,-0.9375 C6.58203,-0.0390625 6.11979,0.800781 5.19531,1.58203 C4.25781,2.36328 3.25521,2.75391 2.1875,2.75391 C1.5625,2.75391 1.03516,2.59115 0.605469,2.26562 C0.201823,1.91406 0,1.47135 0,0.9375 C0,0.0390625 0.46875,-0.800781 1.40625,-1.58203 C2.31771,-2.36328 3.3138,-2.75391 4.39453,-2.75391"/>
<path class="" transform="matrix(1.80057,0,0,1.80057,298.002,22.5927)" d="M4.39453,-2.75391 C5.01953,-2.75391 5.54688,-2.59115 5.97656,-2.26562 C6.38021,-1.91406 6.58203,-1.47135 6.58203,-0.9375 C6.58203,-0.0390625 6.11979,0.800781 5.19531,1.58203 C4.25781,2.36328 3.25521,2.75391 2.1875,2.75391 C1.5625,2.75391 1.03516,2.59115 0.605469,2.26562 C0.201823,1.91406 0,1.47135 0,0.9375 C0,0.0390625 0.46875,-0.800781 1.40625,-1.58203 C2.31771,-2.36328 3.3138,-2.75391 4.39453,-2.75391"/>
<path class="" transform="matrix(1.80057,0,0,1.80057,248.152,27.0941)" d="M4.39453,-2.75391 C5.01953,-2.75391 5.54688,-2.59115 5.97656,-2.26562 C6.38021,-1.91406 6.58203,-1.47135 6.58203,-0.9375 C6.58203,-0.0390625 6.11979,0.800781 5.19531,1.58203 C4.25781,2.36328 3.25521,2.75391 2.1875,2.75391 C1.5625,2.75391 1.03516,2.59115 0.605469,2.26562 C0.201823,1.91406 0,1.47135 0,0.9375 C0,0.0390625 0.46875,-0.800781 1.40625,-1.58203 C2.31771,-2.36328 3.3138,-2.75391 4.39453,-2.75391"/>
<path class="" transform="matrix(1.80057,0,0,1.80057,347.852,22.5927)" d="M4.39453,-2.75391 C5.01953,-2.75391 5.54688,-2.59115 5.97656,-2.26562 C6.38021,-1.91406 6.58203,-1.47135 6.58203,-0.9375 C6.58203,-0.0390625 6.11979,0.800781 5.19531,1.58203 C4.25781,2.36328 3.25521,2.75391 2.1875,2.75391 C1.5625,2.75391 1.03516,2.59115 0.605469,2.26562 C0.201823,1.91406 0,1.47135 0,0.9375 C0,0.0390625 0.46875,-0.800781 1.40625,-1.58203 C2.31771,-2.36328 3.3138,-2.75391 4.39453,-2.75391"/>
<path class="" transform="matrix(1.80057,0,0,1.80057,447.553,31.5956)" d="M4.39453,-2.75391 C5.01953,-2.75391 5.54688,-2.59115 5.97656,-2.26562 C6.38021,-1.91406 6.58203,-1.47135 6.58203,-0.9375 C6.58203,-0.0390625 6.11979,0.800781 5.19531,1.58203 C4.25781,2.36328 3.25521,2.75391 2.1875,2.75391 C1.5625,2.75391 1.03516,2.59115 0.605469,2.26562 C0.201823,1.91406 0,1.47135 0,0.9375 C0,0.0390625 0.46875,-0.800781 1.40625,-1.58203 C2.31771,-2.36328 3.3138,-2.75391 4.39453,-2.75391"/>
<path class="" transform="matrix(1.80057,0,0,1.80057,397.703,31.5956)" d="M4.39453,-2.75391 C5.01953,-2.75391 5.54688,-2.59115 5.97656,-2.26562 C6.38021,-1.91406 6.58203,-1.47135 6.58203,-0.9375 C6.58203,-0.0390625 6.11979,0.800781 5.19531,1.58203 C4.25781,2.36328 3.25521,2.75391 2.1875,2.75391 C1.5625,2.75391 1.03516,2.59115 0.605469,2.26562 C0.201823,1.91406 0,1.47135 0,0.9375 C0,0.0390625 0.46875,-0.800781 1.40625,-1.58203 C2.31771,-2.36328 3.3138,-2.75391 4.39453,-2.75391"/>
<path class="" transform="matrix(1.80057,0,0,1.80057,527.313,22.5927)" d="M4.39453,-2.75391 C5.01953,-2.75391 5.54688,-2.59115 5.97656,-2.26562 C6.38021,-1.91406 6.58203,-1.47135 6.58203,-0.9375 C6.58203,-0.0390625 6.11979,0.800781 5.19531,1.58203 C4.25781,2.36328 3.25521,2.75391 2.1875,2.75391 C1.5625,2.75391 1.03516,2.59115 0.605469,2.26562 C0.201823,1.91406 0,1.47135 0,0.9375 C0,0.0390625 0.46875,-0.800781 1.40625,-1.58203 C2.31771,-2.36328 3.3138,-2.75391 4.39453,-2.75391"/>
<path class="" transform="matrix(1.80057,0,0,1.80057,527.313,31.5956)" d="M4.39453,-2.75391 C5.01953,-2.75391 5.54688,-2.59115 5.97656,-2.26562 C6.38021,-1.91406 6.58203,-1.47135 6.58203,-0.9375 C6.58203,-0.0390625 6.11979,0.800781 5.19531,1.58203 C4.25781,2.36328 3.25521,2.75391 2.1875,2.75391 C1.5625,2.75391 1.03516,2.59115 0.605469,2.26562 C0.201823,1.91406 0,1.47135 0,0.9375 C0,0.0390625 0.46875,-0.800781 1.40625,-1.58203 C2.31771,-2.36328 3.3138,-2.75391 4.39453,-2.75391"/>
<path class="" transform="matrix(1.80057,0,0,1.80057,59.0613,171.139)" d="M4.39453,-2.75391 C5.01953,-2.75391 5.54688,-2.59115 5.97656,-2.26562 C6.38021,-1.91406 6.58203,-1.47135 6.58203,-0.9375 C6.58203,-0.0390625 6.11979,0.800781 5.19531,1.58203 C4.25781,2.36328 3.25521,2.75391 2.1875,2.75391 C1.5625,2.75391 1.03516,2.59115 0.605469,2.26562 C0.201823,1.91406 0,1.47135 0,0.9375 C0,0.0390625 0.46875,-0.800781 1.40625,-1.58203 C2.31771,-2.36328 3.3138,-2.75391 4.39453,-2.75391"/>
<path class="" transform="matrix(1.80057,0,0,1.80057,59.0613,180.142)" d="M4.39453,-2.75391 C5.01953,-2.75391 5.54688,-2.59115 5.97656,-2.26562 C6.38021,-1.91406 6.58203,-1.47135 6.58203,-0.9375 C6.58203,-0.0390625 6.11979,0.800781 5.19531,1.58203 C4.25781,2.36328 3.25521,2.75391 2.1875,2.75391 C1.5625,2.75391 1.03516,2.59115 0.605469,2.26562 C0.201823,1.91406 0,1.47135 0,0.9375 C0,0.0390625 0.46875,-0.800781 1.40625,-1.58203 C2.31771,-2.36328 3.3138,-2.75391 4.39453,-2.75391"/>
<path class="" transform="matrix(1.80057,0,0,1.80057,134.722,175.641)" d="M4.39453,-2.75391 C5.01953,-2.75391 5.54688,-2.59115 5.97656,-2.26562 C6.38021,-1.91406 6.58203,-1.47135 6.58203,-0.9375 C6.58203,-0.0390625 6.11979,0.800781 5.19531,1.58203 C4.25781,2.36328 3.25521,2.75391 2.1875,2.75391 C1.5625,2.75391 1.03516,2.59115 0.605469,2.26562 C0.201823,1.91406 0,1.47135 0,0.9375 C0,0.0390625 0.46875,-0.800781 1.40625,-1.58203 C2.31771,-2.36328 3.3138,-2.75391 4.39453,-2.75391"/>
<path class="" transform="matrix(1.80057,0,0,1.80057,134.722,189.145)" d="M4.39453,-2.75391 C5.01953,-2.75391 5.54688,-2.59115 5.97656,-2.26562 C6.38021,-1.91406 6.58203,-1.47135 6.58203,-0.9375 C6.58203,-0.0390625 6.11979,0.800781 5.19531,1.58203 C4.25781,2.36328 3.25521,2.75391 2.1875,2.75391 C1.5625,2.75391 1.03516,2.59115 0.605469,2.26562 C0.201823,1.91406 0,1.47135 0,0.9375 C0,0.0390625 0.46875,-0.800781 1.40625,-1.58203 C2.31771,-2.36328 3.3138,-2.75391 4.39453,-2.75391"/>
<path class="" transform="matrix(1.80057,0,0,1.80057,210.383,180.142)" d="M4.39453,-2.75391 C5.01953,-2.75391 5.54688,-2.59115 5.97656,-2.26562 C6.38021,-1.91406 6.58203,-1.47135 6.58203,-0.9375 C6.58203,-0.0390625 6.11979,0.800781 5.19531,1.58203 C4.25781,2.36328 3.25521,2.75391 2.1875,2.75391 C1.5625,2.75391 1.03516,2.59115 0.605469,2.26562 C0.201823,1.91406 0,1.47135 0,0.9375 C0,0.0390625 0.46875,-0.800781 1.40625,-1.58203 C2.31771,-2.36328 3.3138,-2.75391 4.39453,-2.75391"/>
<path class="" transform="matrix(1.80057,0,0,1.80057,210.383,189.145)" d="M4.39453,-2.75391 C5.01953,-2.75391 5.54688,-2.59115 5.97656,-2.26562 C6.38021,-1.91406 6.58203,-1.47135 6.58203,-0.9375 C6.58203,-0.0390625 6.11979,0.800781 5.19531,1.58203 C4.25781,2.36328 3.25521,2.75391 2.1875,2.75391 C1.5625,2.75391 1.03516,2.59115 0.605469,2.26562 C0.201823,1.91406 0,1.47135 0,0.9375 C0,0.0390625 0.46875,-0.800781 1.40625,-1.58203 C2.31771,-2.36328 3.3138,-2.75391 4.39453,-2.75391"/>
<path class="" transform="matrix(1.80057,0,0,1.80057,304.959,189.145)" d="M4.39453,-2.75391 C5.01953,-2.75391 5.54688,-2.59115 5.97656,-2.26562 C6.38021,-1.91406 6.58203,-1.47135 6.58203,-0.9375 C6.58203,-0.0390625 6.11979,0.800781 5.19531,1.58203 C4.25781,2.36328 3.25521,2.75391 2.1875,2.75391 C1.5625,2.75391 1.03516,2.59115 0.605469,2.26562 C0.201823,1.91406 0,1.47135 0,0.9375 C0,0.0390625 0.46875,-0.800781 1.40625,-1.58203 C2.31771,-2.36328 3.3138,-2.75391 4.39453,-2.75391"/>
<path class="" transform="matrix(1.80057,0,0,1.80057,304.959,198.148)" d="M4.39453,-2.75391 C5.01953,-2.75391 5.54688,-2.59115 5.97656,-2.26562 C6.38021,-1.91406 6.58203,-1.47135 6.58203,-0.9375 C6.58203,-0.0390625 6.11979,0.800781 5.19531,1.58203 C4.25781,2.36328 3.25521,2.75391 2.1875,2.75391 C1.5625,2.75391 1.03516,2.59115 0.605469,2.26562 C0.201823,1.91406 0,1.47135 0,0.9375 C0,0.0390625 0.46875,-0.800781 1.40625,-1.58203 C2.31771,-2.36328 3.3138,-2.75391 4.39453,-2.75391"/>
<path class="" transform="matrix(1.80057,0,0,1.80057,257.671,175.641)" d="M4.39453,-2.75391 C5.01953,-2.75391 5.54688,-2.59115 5.97656,-2.26562 C6.38021,-1.91406 6.58203,-1.47135 6.58203,-0.9375 C6.58203,-0.0390625 6.11979,0.800781 5.19531,1.58203 C4.25781,2.36328 3.25521,2.75391 2.1875,2.75391 C1.5625,2.75391 1.03516,2.59115 0.605469,2.26562 C0.201823,1.91406 0,1.47135 0,0.9375 C0,0.0390625 0.46875,-0.800781 1.40625,-1.58203 C2.31771,-2.36328 3.3138,-2.75391 4.39453,-2.75391"/>
<path class="" transform="matrix(1.80057,0,0,1.80057,257.671,184.644)" d="M4.39453,-2.75391 C5.01953,-2.75391 5.54688,-2.59115 5.97656,-2.26562 C6.38021,-1.91406 6.58203,-1.47135 6.58203,-0.9375 C6.58203,-0.0390625 6.11979,0.800781 5.19531,1.58203 C4.25781,2.36328 3.25521,2.75391 2.1875,2.75391 C1.5625,2.75391 1.03516,2.59115 0.605469,2.26562 C0.201823,1.91406 0,1.47135 0,0.9375 C0,0.0390625 0.46875,-0.800781 1.40625,-1.58203 C2.31771,-2.36328 3.3138,-2.75391 4.39453,-2.75391"/>
<path class="" transform="matrix(1.80057,0,0,1.80057,392.864,189.145)" d="M4.29688,-2.24609 C3.82812,-2.24609 3.48958,-2.08333 3.28125,-1.75781 C3.04688,-1.44531 2.92969,-1.02214 2.92969,-0.488281 C2.92969,0.123698 3.09245,0.651042 3.41797,1.09375 C3.74349,1.52344 4.10156,1.82292 4.49219,1.99219 C4.84375,2.16146 5.21484,2.24609 5.60547,2.24609 C6.0612,2.24609 6.40625,2.08333 6.64062,1.75781 C6.86198,1.43229 6.97266,1.00911 6.97266,0.488281 C6.97266,-0.123698 6.8099,-0.651042 6.48438,-1.09375 C6.15885,-1.51042 5.80729,-1.8099 5.42969,-1.99219 C5.05208,-2.16146 4.67448,-2.24609 4.29688,-2.24609 M4.96094,-2.75391 C6.36719,-2.75391 7.53906,-2.48047 8.47656,-1.93359 C9.42708,-1.38672 9.90234,-0.742188 9.90234,0 C9.90234,0.794271 9.41406,1.44531 8.4375,1.95312 C7.46094,2.48698 6.30208,2.75391 4.96094,2.75391 C3.58073,2.75391 2.40885,2.48047 1.44531,1.93359 C0.481771,1.38672 0,0.742188 0,0 C0,-0.794271 0.494792,-1.44531 1.48438,-1.95312 C2.46094,-2.48698 3.61979,-2.75391 4.96094,-2.75391"/>
<path class="" transform="matrix(1.80057,0,0,1.80057,392.864,198.148)" d="M4.29688,-2.24609 C3.82812,-2.24609 3.48958,-2.08333 3.28125,-1.75781 C3.04688,-1.44531 2.92969,-1.02214 2.92969,-0.488281 C2.92969,0.123698 3.09245,0.651042 3.41797,1.09375 C3.74349,1.52344 4.10156,1.82292 4.49219,1.99219 C4.84375,2.16146 5.21484,2.24609 5.60547,2.24609 C6.0612,2.24609 6.40625,2.08333 6.64062,1.75781 C6.86198,1.43229 6.97266,1.00911 6.97266,0.488281 C6.97266,-0.123698 6.8099,-0.651042 6.48438,-1.09375 C6.15885,-1.51042 5.80729,-1.8099 5.42969,-1.99219 C5.05208,-2.16146 4.67448,-2.24609 4.29688,-2.24609 M4.96094,-2.75391 C6.36719,-2.75391 7.53906,-2.48047 8.47656,-1.93359 C9.42708,-1.38672 9.90234,-0.742188 9.90234,0 C9.90234,0.794271 9.41406,1.44531 8.4375,1.95312 C7.46094,2.48698 6.30208,2.75391 4.96094,2.75391 C3.58073,2.75391 2.40885,2.48047 1.44531,1.93359 C0.481771,1.38672 0,0.742188 0,0 C0,-0.794271 0.494792,-1.44531 1.48438,-1.95312 C2.46094,-2.48698 3.61979,-2.75391 4.96094,-2.75391"/>
<path class="" transform="matrix(1.80057,0,0,1.80057,7.94488,58.6041)" d="M7.34375,-5.11719 C7.34375,-5.11719 7.38281,-5.11719 7.46094,-5.11719 C7.51302,-5.13021 7.55859,-5.13672 7.59766,-5.13672 C9.05599,-5.13672 10.2539,-4.6224 11.1914,-3.59375 C12.1289,-2.57812 12.5977,-1.39323 12.5977,-0.0390625 C12.5977,1.64062 11.901,3.00781 10.5078,4.0625 C10.1432,4.34896 9.66797,4.58333 9.08203,4.76562 C9.14714,5.61198 9.17969,6.29557 9.17969,6.81641 C9.17969,6.92057 9.16667,7.29818 9.14062,7.94922 C9.08854,9.16016 8.67188,10.2083 7.89062,11.0938 C7.13542,11.9661 6.19792,12.4023 5.07812,12.4023 C4.02344,12.4023 3.125,12.0312 2.38281,11.2891 C1.64062,10.5339 1.26953,9.6224 1.26953,8.55469 C1.26953,7.99479 1.48438,7.51953 1.91406,7.12891 C2.35677,6.73828 2.87109,6.54297 3.45703,6.54297 C3.97786,6.54297 4.41406,6.74479 4.76562,7.14844 C5.13021,7.52604 5.3125,7.99479 5.3125,8.55469 C5.3125,9.0625 5.13021,9.4987 4.76562,9.86328 C4.40104,10.2279 3.96484,10.4102 3.45703,10.4102 C3.2487,10.4102 3.04688,10.3711 2.85156,10.293 C3.42448,11.1393 4.1862,11.5625 5.13672,11.5625 C6.03516,11.5625 6.77083,11.1979 7.34375,10.4688 C7.94271,9.71354 8.26823,8.83464 8.32031,7.83203 C8.34635,7.20703 8.35938,6.84896 8.35938,6.75781 C8.35938,6.02865 8.33333,5.42969 8.28125,4.96094 C7.63021,5.0651 7.05078,5.11719 6.54297,5.11719 C4.73307,5.11719 3.1901,4.40104 1.91406,2.96875 C0.664062,1.52344 0.0390625,-0.195312 0.0390625,-2.1875 C0.0390625,-2.60417 0.078125,-3.02734 0.15625,-3.45703 C0.234375,-3.80859 0.332031,-4.19271 0.449219,-4.60938 C0.514323,-4.84375 0.690104,-5.22135 0.976562,-5.74219 C1.08073,-5.89844 1.19792,-6.09375 1.32812,-6.32812 C1.45833,-6.5625 1.54948,-6.71875 1.60156,-6.79688 C1.73177,-7.05729 1.98568,-7.40885 2.36328,-7.85156 C2.46745,-7.96875 2.57487,-8.09896 2.68555,-8.24219 C2.79622,-8.38542 2.89062,-8.5026 2.96875,-8.59375 C3.04688,-8.6849 3.10547,-8.75651 3.14453,-8.80859 C3.18359,-8.86068 3.47656,-9.20573 4.02344,-9.84375 C4.15365,-9.97396 4.2806,-10.1139 4.4043,-10.2637 C4.52799,-10.4134 4.62891,-10.5306 4.70703,-10.6152 C4.78516,-10.6999 4.84375,-10.7617 4.88281,-10.8008 C4.41406,-12.3503 4.12109,-13.5872 4.00391,-14.5117 C3.91276,-15.2539 3.86719,-16.2695 3.86719,-17.5586 C3.86719,-18.6914 4.1276,-19.7526 4.64844,-20.7422 C5.15625,-21.7708 5.86589,-22.6107 6.77734,-23.2617 C6.84245,-23.3008 6.90755,-23.3203 6.97266,-23.3203 C7.0638,-23.3203 7.12891,-23.3008 7.16797,-23.2617 C7.87109,-22.4154 8.47656,-21.3151 8.98438,-19.9609 C9.50521,-18.6068 9.76562,-17.3763 9.76562,-16.2695 C9.76562,-15.0195 9.46615,-13.8477 8.86719,-12.7539 C8.1901,-11.5951 7.31771,-10.3971 6.25,-9.16016 C6.52344,-8.30078 6.88802,-6.95312 7.34375,-5.11719 M9.00391,3.96484 C9.68099,3.71745 10.2083,3.29427 10.5859,2.69531 C11.0026,2.1224 11.2109,1.47786 11.2109,0.761719 C11.2109,-0.16276 10.8984,-0.983073 10.2734,-1.69922 C9.63542,-2.44141 8.82161,-2.85807 7.83203,-2.94922 C8.39193,-0.201823 8.78255,2.10286 9.00391,3.96484 M1.44531,-0.546875 C1.44531,0.742188 1.96615,1.875 3.00781,2.85156 C4.07552,3.80208 5.27344,4.27734 6.60156,4.27734 C7.14844,4.27734 7.68229,4.23828 8.20312,4.16016 C7.99479,2.18099 7.58464,-0.188802 6.97266,-2.94922 C6.23047,-2.87109 5.63802,-2.61068 5.19531,-2.16797 C4.76562,-1.71224 4.55078,-1.19792 4.55078,-0.625 C4.55078,0.364583 5.07812,1.16536 6.13281,1.77734 C6.22396,1.86849 6.26953,1.96615 6.26953,2.07031 C6.26953,2.17448 6.22396,2.27214 6.13281,2.36328 C6.05469,2.45443 5.95703,2.5 5.83984,2.5 C5.82682,2.5 5.76823,2.48698 5.66406,2.46094 C4.92188,2.05729 4.34896,1.53646 3.94531,0.898438 C3.56771,0.221354 3.37891,-0.46224 3.37891,-1.15234 C3.37891,-2.05078 3.65885,-2.86458 4.21875,-3.59375 C4.80469,-4.32292 5.56641,-4.79167 6.50391,-5 C6.13932,-6.45833 5.83984,-7.59766 5.60547,-8.41797 C5.39714,-8.18359 5.14648,-7.90039 4.85352,-7.56836 C4.56055,-7.23633 4.38802,-7.03776 4.33594,-6.97266 C3.86719,-6.36068 3.50911,-5.88542 3.26172,-5.54688 C2.81901,-4.9349 2.49349,-4.40755 2.28516,-3.96484 C2.0638,-3.47005 1.86849,-2.92969 1.69922,-2.34375 C1.52995,-1.78385 1.44531,-1.1849 1.44531,-0.546875 M7.96875,-20.4102 C6.99219,-19.9284 6.22396,-19.2383 5.66406,-18.3398 C5.09115,-17.4154 4.80469,-16.4193 4.80469,-15.3516 C4.80469,-14.4141 5.03906,-13.151 5.50781,-11.5625 C6.44531,-12.6953 7.14844,-13.7435 7.61719,-14.707 C8.11198,-15.7227 8.35938,-16.7839 8.35938,-17.8906 C8.35938,-18.724 8.22917,-19.5638 7.96875,-20.4102"/>
<path class="" transform="matrix(1.80057,0,0,1.80057,7.94488,202.649)" d="M7.34375,-5.11719 C7.34375,-5.11719 7.38281,-5.11719 7.46094,-5.11719 C7.51302,-5.13021 7.55859,-5.13672 7.59766,-5.13672 C9.05599,-5.13672 10.2539,-4.6224 11.1914,-3.59375 C12.1289,-2.57812 12.5977,-1.39323 12.5977,-0.0390625 C12.5977,1.64062 11.901,3.00781 10.5078,4.0625 C10.1432,4.34896 9.66797,4.58333 9.08203,4.76562 C9.14714,5.61198 9.17969,6.29557 9.17969,6.81641 C9.17969,6.92057 9.16667,7.29818 9.14062,7.94922 C9.08854,9.16016 8.67188,10.2083 7.89062,11.0938 C7.13542,11.9661 6.19792,12.4023 5.07812,12.4023 C4.02344,12.4023 3.125,12.0312 2.38281,11.2891 C1.64062,10.5339 1.26953,9.6224 1.26953,8.55469 C1.26953,7.99479 1.48438,7.51953 1.91406,7.12891 C2.35677,6.73828 2.87109,6.54297 3.45703,6.54297 C3.97786,6.54297 4.41406,6.74479 4.76562,7.14844 C5.13021,7.52604 5.3125,7.99479 5.3125,8.55469 C5.3125,9.0625 5.13021,9.4987 4.76562,9.86328 C4.40104,10.2279 3.96484,10.4102 3.45703,10.4102 C3.2487,10.4102 3.04688,10.3711 2.85156,10.293 C3.42448,11.1393 4.1862,11.5625 5.13672,11.5625 C6.03516,11.5625 6.77083,11.1979 7.34375,10.4688 C7.94271,9.71354 8.26823,8.83464 8.32031,7.83203 C8.34635,7.20703 8.35938,6.84896 8.35938,6.75781 C8.35938,6.02865 8.33333,5.42969 8.28125,4.96094 C7.63021,5.0651 7.05078,5.11719 6.54297,5.11719 C4.73307,5.11719 3.1901,4.40104 1.91406,2.96875 C0.664062,1.52344 0.0390625,-0.195312 0.0390625,-2.1875 C0.0390625,-2.60417 0.078125,-3.02734 0.15625,-3.45703 C0.234375,-3.80859 0.332031,-4.19271 0.449219,-4.60938 C0.514323,-4.84375 0.690104,-5.22135 0.976562,-5.74219 C1.08073,-5.89844 1.19792,-6.09375 1.32812,-6.32812 C1.45833,-6.5625 1.54948,-6.71875 1.60156,-6.79688 C1.73177,-7.05729 1.98568,-7.40885 2.36328,-7.85156 C2.46745,-7.96875 2.57487,-8.09896 2.68555,-8.24219 C2.79622,-8.38542 2.89062,-8.5026 2.96875,-8.59375 C3.04688,-8.6849 3.10547,-8.75651 3.14453,-8.80859 C3.18359,-8.86068 3.47656,-9.20573 4.02344,-9.84375 C4.15365,-9.97396 4.2806,-10.1139 4.4043,-10.2637 C4.52799,-10.4134 4.62891,-10.5306 4.70703,-10.6152 C4.78516,-10.6999 4.84375,-10.7617 4.88281,-10.8008 C4.41406,-12.3503 4.12109,-13.5872 4.00391,-14.5117 C3.91276,-15.2539 3.86719,-16.2695 3.86719,-17.5586 C3.86719,-18.6914 4.1276,-19.7526 4.64844,-20.7422 C5.15625,-21.7708 5.86589,-22.6107 6.77734,-23.2617 C6.84245,-23.3008 6.90755,-23.3203 6.97266,-23.3203 C7.0638,-23.3203 7.12891,-23.3008 7.16797,-23.2617 C7.87109,-22.4154 8.47656,-21.3151 8.98438,-19.9609 C9.50521,-18.6068 9.76562,-17.3763 9.76562,-16.2695 C9.76562,-15.0195 9.46615,-13.8477 8.86719,-12.7539 C8.1901,-11.5951 7.31771,-10.3971 6.25,-9.16016 C6.52344,-8.30078 6.88802,-6.95312 7.34375,-5.11719 M9.00391,3.96484 C9.68099,3.71745 10.2083,3.29427 10.5859,2.69531 C11.0026,2.1224 11.2109,1.47786 11.2109,0.761719 C11.2109,-0.16276 10.8984,-0.983073 10.2734,-1.69922 C9.63542,-2.44141 8.82161,-2.85807 7.83203,-2.94922 C8.39193,-0.201823 8.78255,2.10286 9.00391,3.96484 M1.44531,-0.546875 C1.44531,0.742188 1.96615,1.875 3.00781,2.85156 C4.07552,3.80208 5.27344,4.27734 6.60156,4.27734 C7.14844,4.27734 7.68229,4.23828 8.20312,4.16016 C7.99479,2.18099 7.58464,-0.188802 6.97266,-2.94922 C6.23047,-2.87109 5.63802,-2.61068 5.19531,-2.16797 C4.76562,-1.71224 4.55078,-1.19792 4.55078,-0.625 C4.55078,0.364583 5.07812,1.16536 6.13281,1.77734 C6.22396,1.86849 6.26953,1.96615 6.26953,2.07031 C6.26953,2.17448 6.22396,2.27214 6.13281,2.36328 C6.05469,2.45443 5.95703,2.5 5.83984,2.5 C5.82682,2.5 5.76823,2.48698 5.66406,2.46094 C4.92188,2.05729 4.34896,1.53646 3.94531,0.898438 C3.56771,0.221354 3.37891,-0.46224 3.37891,-1.15234 C3.37891,-2.05078 3.65885,-2.86458 4.21875,-3.59375 C4.80469,-4.32292 5.56641,-4.79167 6.50391,-5 C6.13932,-6.45833 5.83984,-7.59766 5.60547,-8.41797 C5.39714,-8.18359 5.14648,-7.90039 4.85352,-7.56836 C4.56055,-7.23633 4.38802,-7.03776 4.33594,-6.97266 C3.86719,-6.36068 3.50911,-5.88542 3.26172,-5.54688 C2.81901,-4.9349 2.49349,-4.40755 2.28516,-3.96484 C2.0638,-3.47005 1.86849,-2.92969 1.69922,-2.34375 C1.52995,-1.78385 1.44531,-1.1849 1.44531,-0.546875 M7.96875,-20.4102 C6.99219,-19.9284 6.22396,-19.2383 5.66406,-18.3398 C5.09115,-17.4154 4.80469,-16.4193 4.80469,-15.3516 C4.80469,-14.4141 5.03906,-13.151 5.50781,-11.5625 C6.44531,-12.6953 7.14844,-13.7435 7.61719,-14.707 C8.11198,-15.7227 8.35938,-16.7839 8.35938,-17.8906 C8.35938,-18.724 8.22917,-19.5638 7.96875,-20.4102"/>
<path class="" transform="matrix(1.80057,0,0,1.80057,35.3219,49.6012)" d="M0.917969,-0.820312 L0.917969,0.722656 C0.917969,1.26953 0.94401,1.70573 0.996094,2.03125 C1.42578,1.66667 1.73177,1.39323 1.91406,1.21094 C2.1224,1.0026 2.33073,0.716146 2.53906,0.351562 C2.7474,-0.0130208 2.85156,-0.377604 2.85156,-0.742188 C2.85156,-1.10677 2.77344,-1.41927 2.61719,-1.67969 C2.46094,-1.9401 2.2526,-2.07031 1.99219,-2.07031 C1.67969,-2.07031 1.41927,-1.95312 1.21094,-1.71875 C1.01562,-1.45833 0.917969,-1.15885 0.917969,-0.820312 M0.0976562,2.75391 L-0.15625,-9.14062 C0.0260417,-9.24479 0.208333,-9.29688 0.390625,-9.29688 C0.572917,-9.29688 0.755208,-9.24479 0.9375,-9.14062 L0.78125,-2.24609 C1.3151,-2.70182 1.92708,-2.92969 2.61719,-2.92969 C3.125,-2.92969 3.54818,-2.72135 3.88672,-2.30469 C4.22526,-1.88802 4.39453,-1.41276 4.39453,-0.878906 C4.39453,-0.540365 4.28385,-0.182292 4.0625,0.195312 C3.85417,0.546875 3.63281,0.820312 3.39844,1.01562 C3.26823,1.11979 2.9362,1.38021 2.40234,1.79688 C2.24609,1.91406 2.06055,2.05078 1.8457,2.20703 C1.63086,2.36328 1.4974,2.46094 1.44531,2.5 C1.35417,2.55208 1.26953,2.65625 1.19141,2.8125 C1.10026,2.94271 0.996094,3.05339 0.878906,3.14453 C0.78776,3.22266 0.677083,3.26172 0.546875,3.26172 C0.416667,3.26172 0.3125,3.21615 0.234375,3.125 C0.143229,3.03385 0.0976562,2.91016 0.0976562,2.75391"/>
<path class="" transform="matrix(1.80057,0,0,1.80057,35.3219,193.647)" d="M0.917969,-0.820312 L0.917969,0.722656 C0.917969,1.26953 0.94401,1.70573 0.996094,2.03125 C1.42578,1.66667 1.73177,1.39323 1.91406,1.21094 C2.1224,1.0026 2.33073,0.716146 2.53906,0.351562 C2.7474,-0.0130208 2.85156,-0.377604 2.85156,-0.742188 C2.85156,-1.10677 2.77344,-1.41927 2.61719,-1.67969 C2.46094,-1.9401 2.2526,-2.07031 1.99219,-2.07031 C1.67969,-2.07031 1.41927,-1.95312 1.21094,-1.71875 C1.01562,-1.45833 0.917969,-1.15885 0.917969,-0.820312 M0.0976562,2.75391 L-0.15625,-9.14062 C0.0260417,-9.24479 0.208333,-9.29688 0.390625,-9.29688 C0.572917,-9.29688 0.755208,-9.24479 0.9375,-9.14062 L0.78125,-2.24609 C1.3151,-2.70182 1.92708,-2.92969 2.61719,-2.92969 C3.125,-2.92969 3.54818,-2.72135 3.88672,-2.30469 C4.22526,-1.88802 4.39453,-1.41276 4.39453,-0.878906 C4.39453,-0.540365 4.28385,-0.182292 4.0625,0.195312 C3.85417,0.546875 3.63281,0.820312 3.39844,1.01562 C3.26823,1.11979 2.9362,1.38021 2.40234,1.79688 C2.24609,1.91406 2.06055,2.05078 1.8457,2.20703 C1.63086,2.36328 1.4974,2.46094 1.44531,2.5 C1.35417,2.55208 1.26953,2.65625 1.19141,2.8125 C1.10026,2.94271 0.996094,3.05339 0.878906,3.14453 C0.78776,3.22266 0.677083,3.26172 0.546875,3.26172 C0.416667,3.26172 0.3125,3.21615 0.234375,3.125 C0.143229,3.03385 0.0976562,2.91016 0.0976562,2.75391"/>
<path class="" transform="matrix(1.80057,0,0,1.80057,47.8978,40.5984)" d="M4.49219,-4.74609 C4.88281,-4.74609 5.21484,-4.79167 5.48828,-4.88281 C5.76172,-4.97396 5.9375,-5.01953 6.01562,-5.01953 C6.10677,-5.01953 6.17839,-4.99349 6.23047,-4.94141 C6.26953,-4.90234 6.29557,-4.85677 6.30859,-4.80469 C6.30859,-4.77865 6.29557,-4.73958 6.26953,-4.6875 L0.585938,1.91406 L3.92578,1.91406 L3.92578,-0.703125 C3.92578,-0.872396 3.97135,-1.01562 4.0625,-1.13281 C4.21875,-1.26302 4.34896,-1.34115 4.45312,-1.36719 C4.6224,-1.44531 4.83073,-1.6276 5.07812,-1.91406 C5.28646,-2.14844 5.53385,-2.55859 5.82031,-3.14453 C5.85938,-3.22266 5.91797,-3.26172 5.99609,-3.26172 C6.15234,-3.26172 6.24349,-3.17057 6.26953,-2.98828 L6.26953,1.91406 L7.69531,1.91406 C7.8776,1.91406 7.98177,2.01172 8.00781,2.20703 C8.00781,2.40234 7.90365,2.5 7.69531,2.5 L6.26953,2.5 L6.26953,2.65625 C6.26953,3.17708 6.39974,3.61979 6.66016,3.98438 C6.95964,4.34896 7.3112,4.53125 7.71484,4.53125 C7.87109,4.53125 7.94922,4.60938 7.94922,4.76562 C7.94922,4.92188 7.87109,5 7.71484,5 C7.44141,5 6.9987,4.96094 6.38672,4.88281 C5.82682,4.79167 5.39062,4.74609 5.07812,4.74609 C4.7526,4.74609 4.31641,4.79167 3.76953,4.88281 C3.18359,4.96094 2.7474,5 2.46094,5 C2.30469,5 2.22656,4.92188 2.22656,4.76562 C2.22656,4.60938 2.30469,4.53125 2.46094,4.53125 C2.86458,4.53125 3.21615,4.34896 3.51562,3.98438 C3.78906,3.61979 3.92578,3.17708 3.92578,2.65625 L3.92578,2.5 L0.585938,2.5 C0.364583,2.5 0.208333,2.44792 0.117188,2.34375 C0.0130208,2.26562 -0.0390625,2.16146 -0.0390625,2.03125 C-0.0390625,1.99219 0.0585938,1.85547 0.253906,1.62109 C0.47526,1.36068 0.709635,1.04167 0.957031,0.664062 C1.24349,0.221354 1.51693,-0.234375 1.77734,-0.703125 C2.0638,-1.23698 2.29167,-1.84896 2.46094,-2.53906 C2.65625,-3.24219 2.75391,-3.95833 2.75391,-4.6875 C2.75391,-4.89583 2.84505,-5 3.02734,-5 C3.06641,-5 3.15104,-4.98047 3.28125,-4.94141 C3.32031,-4.92839 3.40169,-4.90885 3.52539,-4.88281 C3.64909,-4.85677 3.75,-4.83073 3.82812,-4.80469 C4.0625,-4.76562 4.28385,-4.74609 4.49219,-4.74609"/>
<path class="" transform="matrix(1.80057,0,0,1.80057,47.8978,58.6041)" d="M4.49219,-4.74609 C4.88281,-4.74609 5.21484,-4.79167 5.48828,-4.88281 C5.76172,-4.97396 5.9375,-5.01953 6.01562,-5.01953 C6.10677,-5.01953 6.17839,-4.99349 6.23047,-4.94141 C6.26953,-4.90234 6.29557,-4.85677 6.30859,-4.80469 C6.30859,-4.77865 6.29557,-4.73958 6.26953,-4.6875 L0.585938,1.91406 L3.92578,1.91406 L3.92578,-0.703125 C3.92578,-0.872396 3.97135,-1.01562 4.0625,-1.13281 C4.21875,-1.26302 4.34896,-1.34115 4.45312,-1.36719 C4.6224,-1.44531 4.83073,-1.6276 5.07812,-1.91406 C5.28646,-2.14844 5.53385,-2.55859 5.82031,-3.14453 C5.85938,-3.22266 5.91797,-3.26172 5.99609,-3.26172 C6.15234,-3.26172 6.24349,-3.17057 6.26953,-2.98828 L6.26953,1.91406 L7.69531,1.91406 C7.8776,1.91406 7.98177,2.01172 8.00781,2.20703 C8.00781,2.40234 7.90365,2.5 7.69531,2.5 L6.26953,2.5 L6.26953,2.65625 C6.26953,3.17708 6.39974,3.61979 6.66016,3.98438 C6.95964,4.34896 7.3112,4.53125 7.71484,4.53125 C7.87109,4.53125 7.94922,4.60938 7.94922,4.76562 C7.94922,4.92188 7.87109,5 7.71484,5 C7.44141,5 6.9987,4.96094 6.38672,4.88281 C5.82682,4.79167 5.39062,4.74609 5.07812,4.74609 C4.7526,4.74609 4.31641,4.79167 3.76953,4.88281 C3.18359,4.96094 2.7474,5 2.46094,5 C2.30469,5 2.22656,4.92188 2.22656,4.76562 C2.22656,4.60938 2.30469,4.53125 2.46094,4.53125 C2.86458,4.53125 3.21615,4.34896 3.51562,3.98438 C3.78906,3.61979 3.92578,3.17708 3.92578,2.65625 L3.92578,2.5 L0.585938,2.5 C0.364583,2.5 0.208333,2.44792 0.117188,2.34375 C0.0130208,2.26562 -0.0390625,2.16146 -0.0390625,2.03125 C-0.0390625,1.99219 0.0585938,1.85547 0.253906,1.62109 C0.47526,1.36068 0.709635,1.04167 0.957031,0.664062 C1.24349,0.221354 1.51693,-0.234375 1.77734,-0.703125 C2.0638,-1.23698 2.29167,-1.84896 2.46094,-2.53906 C2.65625,-3.24219 2.75391,-3.95833 2.75391,-4.6875 C2.75391,-4.89583 2.84505,-5 3.02734,-5 C3.06641,-5 3.15104,-4.98047 3.28125,-4.94141 C3.32031,-4.92839 3.40169,-4.90885 3.52539,-4.88281 C3.64909,-4.85677 3.75,-4.83073 3.82812,-4.80469 C4.0625,-4.76562 4.28385,-4.74609 4.49219,-4.74609"/>
<path class="" transform="matrix(1.80057,0,0,1.80057,78.2373,49.6012)" d="M1.40625,-4.10156 C1.78385,-4.10156 2.07031,-3.9974 2.26562,-3.78906 C2.46094,-3.55469 2.5651,-3.33333 2.57812,-3.125 C2.60417,-2.92969 2.66927,-2.70833 2.77344,-2.46094 C2.89062,-2.2526 3.04036,-2.14844 3.22266,-2.14844 C3.36589,-2.14844 3.58073,-2.3112 3.86719,-2.63672 C4.1276,-2.92318 4.31641,-3.17708 4.43359,-3.39844 C4.4987,-3.52865 4.58984,-3.59375 4.70703,-3.59375 L4.72656,-3.59375 C4.85677,-3.58073 4.94792,-3.51562 5,-3.39844 L2.53906,5 C2.40885,5.13021 2.22656,5.19531 1.99219,5.19531 C1.75781,5.19531 1.57552,5.13021 1.44531,5 L3.78906,-1.52344 C2.95573,-1.22396 2.2526,-1.07422 1.67969,-1.07422 C1.21094,-1.07422 0.807292,-1.22396 0.46875,-1.52344 C0.117188,-1.8099 -0.0585938,-2.1875 -0.0585938,-2.65625 C-0.0585938,-3.0599 0.0846354,-3.39844 0.371094,-3.67188 C0.657552,-3.95833 1.0026,-4.10156 1.40625,-4.10156"/>
<path class="" fill-rule="evenodd" d="M248.152,54.1026 L398.873,56.371 L398.873,60.8724 L248.152,58.6041 L248.152,54.1026 "/>
<path class="" fill-rule="evenodd" d="M210.383,211.652 L258.842,209.346 L258.842,213.847 L210.383,216.154 L210.383,211.652 "/>
<path class="" transform="matrix(1.80057,0,0,1.80057,119.148,63.1055)" d="M4.55078,-14.4727 C4.85026,-14.4727 5.16927,-13.9844 5.50781,-13.0078 C5.83333,-12.0443 5.99609,-11.1263 5.99609,-10.2539 C5.99609,-9.51172 5.8138,-8.77604 5.44922,-8.04688 C5.07161,-7.26562 4.6224,-6.58854 4.10156,-6.01562 L2.5,-4.21875 C2.00521,-3.64583 1.5625,-2.98177 1.17188,-2.22656 C0.807292,-1.4974 0.625,-0.755208 0.625,0 L0,0 L0,-5 L0.625,-5 C0.976562,-5.22135 1.4974,-5.57292 2.1875,-6.05469 C2.5,-6.28906 2.96875,-6.67969 3.59375,-7.22656 C4.10156,-7.69531 4.48568,-8.17708 4.74609,-8.67188 C5.01953,-9.19271 5.15625,-9.72005 5.15625,-10.2539 C5.15625,-11.4909 4.79818,-12.7214 4.08203,-13.9453 C4.08203,-13.9453 4.08203,-13.9714 4.08203,-14.0234 C4.08203,-14.1406 4.12109,-14.2383 4.19922,-14.3164 C4.30339,-14.4206 4.42057,-14.4727 4.55078,-14.4727"/>
<path class="" d="M157.856,97.4182 C157.496,96.3516 157.219,95.6816 157.026,95.4082 C156.833,95.1349 156.516,94.9716 156.076,94.9182 L156.076,94.6182 L160.136,94.6182 L160.136,94.9182 C159.669,94.9849 159.359,95.0649 159.206,95.1582 C159.053,95.2516 158.976,95.4116 158.976,95.6382 C158.976,95.8116 159.089,96.2049 159.316,96.8182 L160.996,101.298 L162.796,96.8582 C163.023,96.2982 163.136,95.8582 163.136,95.5382 C163.136,95.3649 163.076,95.2349 162.956,95.1482 C162.836,95.0616 162.603,94.9849 162.256,94.9182 L162.256,94.6182 L164.716,94.6182 L164.716,94.9182 C164.516,94.9849 164.373,95.0782 164.286,95.1982 C164.199,95.3182 164.069,95.5849 163.896,95.9982 L161.136,102.918 C160.869,103.572 160.683,103.898 160.576,103.898 C160.469,103.898 160.309,103.612 160.096,103.038 L158.276,98.3182 L156.036,103.118 C155.796,103.638 155.629,103.898 155.536,103.898 C155.429,103.898 155.256,103.605 155.016,103.018 L152.316,96.1782 C152.116,95.6716 151.949,95.3416 151.816,95.1882 C151.683,95.0349 151.496,94.9449 151.256,94.9182 L151.256,94.6182 L154.856,94.6182 L154.856,94.9182 C154.509,94.9582 154.269,95.0249 154.136,95.1182 C154.003,95.2116 153.936,95.3649 153.936,95.5782 C153.936,95.7782 153.976,95.9782 154.056,96.1782 L156.036,101.398 L157.856,97.4182 M165.312,101.678 C165.312,101.438 165.339,101.215 165.392,101.008 C165.446,100.802 165.539,100.608 165.672,100.428 C165.806,100.248 165.932,100.085 166.052,99.9382 C166.172,99.7916 166.352,99.6416 166.592,99.4882 C166.832,99.3349 167.032,99.2082 167.192,99.1082 C167.352,99.0082 167.596,98.8882 167.922,98.7482 C168.249,98.6082 168.499,98.5016 168.672,98.4282 C168.846,98.3549 169.119,98.2449 169.492,98.0982 C169.866,97.9516 170.139,97.8449 170.312,97.7782 L170.312,96.5582 C170.312,95.4516 169.806,94.8982 168.792,94.8982 C168.392,94.8982 168.052,94.9949 167.772,95.1882 C167.492,95.3816 167.352,95.6116 167.352,95.8782 C167.352,95.9849 167.369,96.1316 167.402,96.3182 C167.436,96.5049 167.452,96.6249 167.452,96.6782 C167.452,96.9049 167.362,97.1016 167.182,97.2682 C167.002,97.4349 166.792,97.5182 166.552,97.5182 C166.326,97.5182 166.126,97.4316 165.952,97.2582 C165.779,97.0849 165.692,96.8849 165.692,96.6582 C165.692,96.0316 166.016,95.5016 166.662,95.0682 C167.309,94.6349 168.106,94.4182 169.052,94.4182 C170.146,94.4182 170.899,94.6816 171.312,95.2082 C171.726,95.7349 171.932,96.5382 171.932,97.6182 L171.932,101.518 C171.932,101.958 171.976,102.262 172.062,102.428 C172.149,102.595 172.306,102.678 172.532,102.678 C172.812,102.678 173.106,102.552 173.412,102.298 L173.412,102.818 C173.066,103.205 172.762,103.468 172.502,103.608 C172.242,103.748 171.946,103.818 171.612,103.818 C171.199,103.818 170.896,103.705 170.702,103.478 C170.509,103.252 170.386,102.878 170.332,102.358 C169.186,103.332 168.212,103.818 167.412,103.818 C166.799,103.818 166.296,103.618 165.902,103.218 C165.509,102.818 165.312,102.305 165.312,101.678 M170.312,101.158 L170.312,98.2582 C169.112,98.6982 168.272,99.1249 167.792,99.5382 C167.312,99.9516 167.072,100.452 167.072,101.038 C167.072,101.585 167.206,101.992 167.472,102.258 C167.739,102.525 168.026,102.658 168.332,102.658 C168.786,102.658 169.272,102.505 169.792,102.198 C170.006,102.078 170.146,101.952 170.212,101.818 C170.279,101.685 170.312,101.465 170.312,101.158 M178.86,94.8182 C178.873,94.8182 178.98,94.7516 179.18,94.6182 L179.4,94.6182 L179.48,97.3382 L179.18,97.3382 C178.953,96.4449 178.673,95.8116 178.34,95.4382 C178.007,95.0649 177.553,94.8782 176.98,94.8782 C176.527,94.8782 176.157,95.0049 175.87,95.2582 C175.583,95.5116 175.44,95.8382 175.44,96.2382 C175.44,96.8116 175.727,97.2649 176.3,97.5982 L178.46,98.8782 C179.06,99.2382 179.49,99.6016 179.75,99.9682 C180.01,100.335 180.14,100.765 180.14,101.258 C180.14,101.952 179.863,102.552 179.31,103.058 C178.757,103.565 178.093,103.818 177.32,103.818 C176.987,103.818 176.54,103.758 175.98,103.638 C175.42,103.518 175.073,103.458 174.94,103.458 C174.74,103.458 174.587,103.538 174.48,103.698 L174.22,103.698 L174.22,100.578 L174.54,100.578 C174.753,101.512 175.007,102.172 175.3,102.558 C175.727,103.105 176.32,103.378 177.08,103.378 C177.587,103.378 177.99,103.248 178.29,102.988 C178.59,102.728 178.74,102.378 178.74,101.938 C178.74,101.338 178.393,100.838 177.7,100.438 L176.54,99.7782 C175.687,99.2982 175.083,98.8382 174.73,98.3982 C174.377,97.9582 174.2,97.4582 174.2,96.8982 C174.2,96.1782 174.457,95.5882 174.97,95.1282 C175.483,94.6682 176.133,94.4382 176.92,94.4382 C177.36,94.4382 177.773,94.5016 178.16,94.6282 C178.547,94.7549 178.78,94.8182 178.86,94.8182"/>
<path class="" d="M124.048,101.438 L124.048,92.5582 C124.048,91.8249 123.938,91.3549 123.718,91.1482 C123.498,90.9416 122.962,90.8116 122.108,90.7582 L122.108,90.3782 L128.048,90.3782 L128.048,90.7582 C127.208,90.7982 126.672,90.9249 126.438,91.1382 C126.205,91.3516 126.088,91.8249 126.088,92.5582 L126.088,101.438 C126.088,102.172 126.208,102.648 126.448,102.868 C126.688,103.088 127.222,103.212 128.048,103.238 L128.048,103.618 L122.108,103.618 L122.108,103.238 C122.948,103.212 123.482,103.092 123.708,102.878 C123.935,102.665 124.048,102.185 124.048,101.438"/>
<path class="" d="M291.597,95.6582 L291.597,95.3182 C292.584,95.0249 293.504,94.7249 294.357,94.4182 L294.497,94.4582 L294.497,96.0382 C295.177,95.3982 295.714,94.9682 296.107,94.7482 C296.501,94.5282 296.931,94.4182 297.397,94.4182 C298.131,94.4182 298.707,94.6816 299.127,95.2082 C299.547,95.7349 299.757,96.4716 299.757,97.4182 L299.757,101.998 C299.757,102.492 299.837,102.822 299.997,102.988 C300.157,103.155 300.484,103.265 300.977,103.318 L300.977,103.618 L296.817,103.618 L296.817,103.318 C297.324,103.278 297.661,103.145 297.827,102.918 C297.994,102.692 298.077,102.265 298.077,101.638 L298.077,97.4582 C298.077,96.1649 297.591,95.5182 296.617,95.5182 C296.284,95.5182 295.977,95.5949 295.697,95.7482 C295.417,95.9016 295.037,96.2049 294.557,96.6582 L294.557,102.278 C294.557,102.638 294.651,102.892 294.837,103.038 C295.024,103.185 295.371,103.278 295.877,103.318 L295.877,103.618 L291.637,103.618 L291.637,103.318 C292.144,103.278 292.477,103.162 292.637,102.968 C292.797,102.775 292.877,102.392 292.877,101.818 L292.877,96.8582 C292.877,96.3649 292.824,96.0282 292.717,95.8482 C292.611,95.6682 292.417,95.5782 292.137,95.5782 C291.884,95.5782 291.704,95.6049 291.597,95.6582 M302.403,95.7582 C302.11,95.7582 301.83,95.7782 301.563,95.8182 L301.563,95.5182 C302.496,95.2516 303.53,94.8849 304.663,94.4182 L304.743,94.4782 L304.743,101.578 C304.743,102.298 304.826,102.755 304.993,102.948 C305.16,103.142 305.57,103.265 306.223,103.318 L306.223,103.618 L301.483,103.618 L301.483,103.318 C302.176,103.278 302.613,103.158 302.793,102.958 C302.973,102.758 303.063,102.298 303.063,101.578 L303.063,96.9382 C303.063,96.4982 303.013,96.1916 302.913,96.0182 C302.813,95.8449 302.643,95.7582 302.403,95.7582 M303.723,89.9582 C304.016,89.9582 304.263,90.0582 304.463,90.2582 C304.663,90.4582 304.763,90.6982 304.763,90.9782 C304.763,91.2716 304.663,91.5149 304.463,91.7082 C304.263,91.9016 304.016,91.9982 303.723,91.9982 C303.443,91.9982 303.206,91.8982 303.013,91.6982 C302.82,91.4982 302.723,91.2582 302.723,90.9782 C302.723,90.6982 302.823,90.4582 303.023,90.2582 C303.223,90.0582 303.456,89.9582 303.723,89.9582 M306.91,95.6582 L306.91,95.3182 C307.897,95.0249 308.817,94.7249 309.67,94.4182 L309.81,94.4582 L309.81,96.0382 C310.49,95.3982 311.027,94.9682 311.42,94.7482 C311.813,94.5282 312.243,94.4182 312.71,94.4182 C313.443,94.4182 314.02,94.6816 314.44,95.2082 C314.86,95.7349 315.07,96.4716 315.07,97.4182 L315.07,101.998 C315.07,102.492 315.15,102.822 315.31,102.988 C315.47,103.155 315.797,103.265 316.29,103.318 L316.29,103.618 L312.13,103.618 L312.13,103.318 C312.637,103.278 312.973,103.145 313.14,102.918 C313.307,102.692 313.39,102.265 313.39,101.638 L313.39,97.4582 C313.39,96.1649 312.903,95.5182 311.93,95.5182 C311.597,95.5182 311.29,95.5949 311.01,95.7482 C310.73,95.9016 310.35,96.2049 309.87,96.6582 L309.87,102.278 C309.87,102.638 309.963,102.892 310.15,103.038 C310.337,103.185 310.683,103.278 311.19,103.318 L311.19,103.618 L306.95,103.618 L306.95,103.318 C307.457,103.278 307.79,103.162 307.95,102.968 C308.11,102.775 308.19,102.392 308.19,101.818 L308.19,96.8582 C308.19,96.3649 308.137,96.0282 308.03,95.8482 C307.923,95.6682 307.73,95.5782 307.45,95.5782 C307.197,95.5782 307.017,95.6049 306.91,95.6582"/>
<path class="" d="M243.126,94.8182 C243.139,94.8182 243.246,94.7516 243.446,94.6182 L243.666,94.6182 L243.746,97.3382 L243.446,97.3382 C243.219,96.4449 242.939,95.8116 242.606,95.4382 C242.273,95.0649 241.819,94.8782 241.246,94.8782 C240.793,94.8782 240.423,95.0049 240.136,95.2582 C239.849,95.5116 239.706,95.8382 239.706,96.2382 C239.706,96.8116 239.993,97.2649 240.566,97.5982 L242.726,98.8782 C243.326,99.2382 243.756,99.6016 244.016,99.9682 C244.276,100.335 244.406,100.765 244.406,101.258 C244.406,101.952 244.129,102.552 243.576,103.058 C243.023,103.565 242.359,103.818 241.586,103.818 C241.253,103.818 240.806,103.758 240.246,103.638 C239.686,103.518 239.339,103.458 239.206,103.458 C239.006,103.458 238.853,103.538 238.746,103.698 L238.486,103.698 L238.486,100.578 L238.806,100.578 C239.019,101.512 239.273,102.172 239.566,102.558 C239.993,103.105 240.586,103.378 241.346,103.378 C241.853,103.378 242.256,103.248 242.556,102.988 C242.856,102.728 243.006,102.378 243.006,101.938 C243.006,101.338 242.659,100.838 241.966,100.438 L240.806,99.7782 C239.953,99.2982 239.349,98.8382 238.996,98.3982 C238.643,97.9582 238.466,97.4582 238.466,96.8982 C238.466,96.1782 238.723,95.5882 239.236,95.1282 C239.749,94.6682 240.399,94.4382 241.186,94.4382 C241.626,94.4382 242.039,94.5016 242.426,94.6282 C242.813,94.7549 243.046,94.8182 243.126,94.8182 M245.374,95.7582 L245.374,95.4382 C246.214,95.1849 247.174,94.8449 248.254,94.4182 L248.374,94.4582 L248.374,95.9982 C249.227,94.9449 250.187,94.4182 251.254,94.4182 C252.227,94.4182 253.027,94.8182 253.654,95.6182 C254.281,96.4182 254.594,97.4382 254.594,98.6782 C254.594,100.132 254.191,101.352 253.384,102.338 C252.577,103.325 251.581,103.818 250.394,103.818 C249.967,103.818 249.611,103.758 249.324,103.638 C249.037,103.518 248.721,103.292 248.374,102.958 L248.374,106.098 C248.374,106.725 248.481,107.128 248.694,107.308 C248.907,107.488 249.387,107.585 250.134,107.598 L250.134,107.958 L245.294,107.958 L245.294,107.618 C245.881,107.565 246.261,107.452 246.434,107.278 C246.607,107.105 246.694,106.758 246.694,106.238 L246.694,96.8782 C246.694,96.4116 246.641,96.1049 246.534,95.9582 C246.427,95.8116 246.207,95.7382 245.874,95.7382 C245.661,95.7382 245.494,95.7449 245.374,95.7582 M248.374,96.9382 L248.374,101.858 C248.374,102.152 248.604,102.445 249.064,102.738 C249.524,103.032 249.987,103.178 250.454,103.178 C251.174,103.178 251.757,102.835 252.204,102.148 C252.651,101.462 252.874,100.565 252.874,99.4582 C252.874,98.2982 252.651,97.3682 252.204,96.6682 C251.757,95.9682 251.161,95.6182 250.414,95.6182 C249.947,95.6182 249.491,95.7649 249.044,96.0582 C248.597,96.3516 248.374,96.6449 248.374,96.9382 M256.334,95.7582 C256.041,95.7582 255.761,95.7782 255.494,95.8182 L255.494,95.5182 C256.427,95.2516 257.461,94.8849 258.594,94.4182 L258.674,94.4782 L258.674,101.578 C258.674,102.298 258.757,102.755 258.924,102.948 C259.091,103.142 259.501,103.265 260.154,103.318 L260.154,103.618 L255.414,103.618 L255.414,103.318 C256.107,103.278 256.544,103.158 256.724,102.958 C256.904,102.758 256.994,102.298 256.994,101.578 L256.994,96.9382 C256.994,96.4982 256.944,96.1916 256.844,96.0182 C256.744,95.8449 256.574,95.7582 256.334,95.7582 M257.654,89.9582 C257.947,89.9582 258.194,90.0582 258.394,90.2582 C258.594,90.4582 258.694,90.6982 258.694,90.9782 C258.694,91.2716 258.594,91.5149 258.394,91.7082 C258.194,91.9016 257.947,91.9982 257.654,91.9982 C257.374,91.9982 257.137,91.8982 256.944,91.6982 C256.751,91.4982 256.654,91.2582 256.654,90.9782 C256.654,90.6982 256.754,90.4582 256.954,90.2582 C257.154,90.0582 257.387,89.9582 257.654,89.9582 M260.841,95.6582 L260.841,95.3182 C261.828,95.0249 262.748,94.7249 263.601,94.4182 L263.741,94.4582 L263.741,96.0382 C264.421,95.3982 264.958,94.9682 265.351,94.7482 C265.744,94.5282 266.174,94.4182 266.641,94.4182 C267.374,94.4182 267.951,94.6816 268.371,95.2082 C268.791,95.7349 269.001,96.4716 269.001,97.4182 L269.001,101.998 C269.001,102.492 269.081,102.822 269.241,102.988 C269.401,103.155 269.728,103.265 270.221,103.318 L270.221,103.618 L266.061,103.618 L266.061,103.318 C266.568,103.278 266.904,103.145 267.071,102.918 C267.238,102.692 267.321,102.265 267.321,101.638 L267.321,97.4582 C267.321,96.1649 266.834,95.5182 265.861,95.5182 C265.528,95.5182 265.221,95.5949 264.941,95.7482 C264.661,95.9016 264.281,96.2049 263.801,96.6582 L263.801,102.278 C263.801,102.638 263.894,102.892 264.081,103.038 C264.268,103.185 264.614,103.278 265.121,103.318 L265.121,103.618 L260.881,103.618 L260.881,103.318 C261.388,103.278 261.721,103.162 261.881,102.968 C262.041,102.775 262.121,102.392 262.121,101.818 L262.121,96.8582 C262.121,96.3649 262.068,96.0282 261.961,95.8482 C261.854,95.6682 261.661,95.5782 261.381,95.5782 C261.128,95.5782 260.948,95.6049 260.841,95.6582"/>
<path class="" d="M393.702,92.0182 C393.489,92.0182 393.305,91.9416 393.152,91.7882 C392.999,91.6349 392.879,91.4616 392.792,91.2682 C392.705,91.0749 392.572,90.9016 392.392,90.7482 C392.212,90.5949 391.995,90.5182 391.742,90.5182 C390.982,90.5182 390.602,91.1116 390.602,92.2982 L390.602,94.6182 L393.062,94.6182 L393.062,95.2582 L390.622,95.2582 L390.622,101.538 C390.622,102.285 390.729,102.762 390.942,102.968 C391.155,103.175 391.669,103.292 392.482,103.318 L392.482,103.618 L387.282,103.618 L387.282,103.318 C388.002,103.278 388.459,103.155 388.652,102.948 C388.845,102.742 388.942,102.272 388.942,101.538 L388.942,95.2582 L387.302,95.2582 L387.302,94.6182 L388.942,94.6182 C388.969,93.1249 389.249,91.9749 389.782,91.1682 C390.315,90.3616 391.209,89.9582 392.462,89.9582 C393.062,89.9582 393.559,90.0749 393.952,90.3082 C394.345,90.5416 394.542,90.8382 394.542,91.1982 C394.542,91.4249 394.459,91.6182 394.292,91.7782 C394.125,91.9382 393.929,92.0182 393.702,92.0182 M400.555,96.3782 C400.355,96.3782 400.109,96.2616 399.815,96.0282 C399.522,95.7949 399.329,95.6782 399.235,95.6782 C398.969,95.6782 398.669,95.8716 398.335,96.2582 C398.002,96.6449 397.835,96.9982 397.835,97.3182 L397.835,101.818 C397.835,102.392 397.949,102.778 398.175,102.978 C398.402,103.178 398.855,103.292 399.535,103.318 L399.535,103.618 L394.735,103.618 L394.735,103.318 C395.375,103.198 395.772,103.065 395.925,102.918 C396.079,102.772 396.155,102.445 396.155,101.938 L396.155,96.9382 C396.155,96.4982 396.105,96.1882 396.005,96.0082 C395.905,95.8282 395.729,95.7382 395.475,95.7382 C395.262,95.7382 395.029,95.7649 394.775,95.8182 L394.775,95.4982 C395.842,95.1516 396.829,94.7916 397.735,94.4182 L397.835,94.4582 L397.835,96.2982 C398.329,95.5916 398.749,95.1016 399.095,94.8282 C399.442,94.5549 399.822,94.4182 400.235,94.4182 C400.582,94.4182 400.852,94.5116 401.045,94.6982 C401.239,94.8849 401.335,95.1449 401.335,95.4782 C401.335,95.7582 401.265,95.9782 401.125,96.1382 C400.985,96.2982 400.795,96.3782 400.555,96.3782 M403.366,98.0782 C403.393,98.9182 403.506,99.6416 403.706,100.248 C403.906,100.855 404.166,101.308 404.486,101.608 C404.806,101.908 405.129,102.122 405.456,102.248 C405.783,102.375 406.126,102.438 406.486,102.438 C407.126,102.438 407.683,102.278 408.156,101.958 C408.629,101.638 409.106,101.098 409.586,100.338 L409.906,100.478 C409.493,101.558 408.919,102.385 408.186,102.958 C407.453,103.532 406.613,103.818 405.666,103.818 C404.519,103.818 403.609,103.415 402.936,102.608 C402.263,101.802 401.926,100.712 401.926,99.3382 C401.926,97.8582 402.316,96.6682 403.096,95.7682 C403.876,94.8682 404.879,94.4182 406.106,94.4182 C407.119,94.4182 407.906,94.7216 408.466,95.3282 C409.026,95.9349 409.379,96.8516 409.526,98.0782 L403.366,98.0782 M403.406,97.4382 L407.486,97.4382 C407.353,96.5716 407.146,95.9716 406.866,95.6382 C406.586,95.3049 406.139,95.1382 405.526,95.1382 C404.326,95.1382 403.619,95.9049 403.406,97.4382 M412.241,98.0782 C412.268,98.9182 412.381,99.6416 412.581,100.248 C412.781,100.855 413.041,101.308 413.361,101.608 C413.681,101.908 414.004,102.122 414.331,102.248 C414.658,102.375 415.001,102.438 415.361,102.438 C416.001,102.438 416.558,102.278 417.031,101.958 C417.504,101.638 417.981,101.098 418.461,100.338 L418.781,100.478 C418.368,101.558 417.794,102.385 417.061,102.958 C416.328,103.532 415.488,103.818 414.541,103.818 C413.394,103.818 412.484,103.415 411.811,102.608 C411.138,101.802 410.801,100.712 410.801,99.3382 C410.801,97.8582 411.191,96.6682 411.971,95.7682 C412.751,94.8682 413.754,94.4182 414.981,94.4182 C415.994,94.4182 416.781,94.7216 417.341,95.3282 C417.901,95.9349 418.254,96.8516 418.401,98.0782 L412.241,98.0782 M412.281,97.4382 L416.361,97.4382 C416.228,96.5716 416.021,95.9716 415.741,95.6382 C415.461,95.3049 415.014,95.1382 414.401,95.1382 C413.201,95.1382 412.494,95.9049 412.281,97.4382 M422.016,103.658 C422.016,103.658 421.963,103.672 421.856,103.698 C421.736,103.725 421.609,103.738 421.476,103.738 C421.116,103.738 420.829,103.648 420.616,103.468 C420.403,103.288 420.296,103.038 420.296,102.718 C420.296,102.385 420.406,102.112 420.626,101.898 C420.846,101.685 421.129,101.578 421.476,101.578 C421.929,101.578 422.309,101.748 422.616,102.088 C422.923,102.428 423.076,102.852 423.076,103.358 C423.076,103.958 422.869,104.538 422.456,105.098 C422.043,105.658 421.503,106.105 420.836,106.438 L420.656,106.058 C421.749,105.312 422.296,104.605 422.296,103.938 C422.296,103.752 422.203,103.658 422.016,103.658"/>
<path class="" d="M533.021,97.4182 C532.661,96.3516 532.384,95.6816 532.191,95.4082 C531.998,95.1349 531.681,94.9716 531.241,94.9182 L531.241,94.6182 L535.301,94.6182 L535.301,94.9182 C534.834,94.9849 534.524,95.0649 534.371,95.1582 C534.218,95.2516 534.141,95.4116 534.141,95.6382 C534.141,95.8116 534.254,96.2049 534.481,96.8182 L536.161,101.298 L537.961,96.8582 C538.188,96.2982 538.301,95.8582 538.301,95.5382 C538.301,95.3649 538.241,95.2349 538.121,95.1482 C538.001,95.0616 537.768,94.9849 537.421,94.9182 L537.421,94.6182 L539.881,94.6182 L539.881,94.9182 C539.681,94.9849 539.538,95.0782 539.451,95.1982 C539.364,95.3182 539.234,95.5849 539.061,95.9982 L536.301,102.918 C536.034,103.572 535.848,103.898 535.741,103.898 C535.634,103.898 535.474,103.612 535.261,103.038 L533.441,98.3182 L531.201,103.118 C530.961,103.638 530.794,103.898 530.701,103.898 C530.594,103.898 530.421,103.605 530.181,103.018 L527.481,96.1782 C527.281,95.6716 527.114,95.3416 526.981,95.1882 C526.848,95.0349 526.661,94.9449 526.421,94.9182 L526.421,94.6182 L530.021,94.6182 L530.021,94.9182 C529.674,94.9582 529.434,95.0249 529.301,95.1182 C529.168,95.2116 529.101,95.3649 529.101,95.5782 C529.101,95.7782 529.141,95.9782 529.221,96.1782 L531.201,101.398 L533.021,97.4182 M543.137,96.7582 L543.137,101.578 C543.137,102.272 543.217,102.718 543.377,102.918 C543.537,103.118 543.91,103.252 544.497,103.318 L544.497,103.618 L540.177,103.618 L540.177,103.318 C540.75,103.238 541.107,103.105 541.247,102.918 C541.387,102.732 541.457,102.285 541.457,101.578 L541.457,92.1582 C541.457,91.7316 541.4,91.4516 541.287,91.3182 C541.174,91.1849 540.924,91.1182 540.537,91.1182 C540.444,91.1182 540.33,91.1316 540.197,91.1582 L540.197,90.8382 C541.144,90.5849 542.09,90.2916 543.037,89.9582 L543.137,90.0182 L543.137,96.0982 C543.59,95.4982 544.047,95.0682 544.507,94.8082 C544.967,94.5482 545.49,94.4182 546.077,94.4182 C547.717,94.4182 548.537,95.4782 548.537,97.5982 L548.537,101.578 C548.537,102.272 548.6,102.708 548.727,102.888 C548.854,103.068 549.19,103.212 549.737,103.318 L549.737,103.618 L545.497,103.618 L545.497,103.318 C546.07,103.265 546.44,103.132 546.607,102.918 C546.774,102.705 546.857,102.258 546.857,101.578 L546.857,97.6182 C546.857,96.2049 546.357,95.4982 545.357,95.4982 C544.97,95.4982 544.607,95.5949 544.267,95.7882 C543.927,95.9816 543.55,96.3049 543.137,96.7582 M554.85,94.4182 C556.13,94.4182 557.184,94.8449 558.01,95.6982 C558.837,96.5516 559.25,97.6316 559.25,98.9382 C559.25,100.325 558.824,101.485 557.97,102.418 C557.117,103.352 556.064,103.818 554.81,103.818 C553.557,103.818 552.514,103.368 551.68,102.468 C550.847,101.568 550.43,100.445 550.43,99.0982 C550.43,97.7249 550.84,96.6016 551.66,95.7282 C552.48,94.8549 553.544,94.4182 554.85,94.4182 M552.23,98.1182 C552.23,99.5449 552.49,100.758 553.01,101.758 C553.53,102.758 554.21,103.258 555.05,103.258 C555.797,103.258 556.384,102.938 556.81,102.298 C557.237,101.658 557.45,100.772 557.45,99.6382 C557.45,98.2649 557.184,97.1449 556.65,96.2782 C556.117,95.4116 555.43,94.9782 554.59,94.9782 C553.884,94.9782 553.314,95.2649 552.88,95.8382 C552.447,96.4116 552.23,97.1716 552.23,98.1182 M560.243,101.678 C560.243,101.438 560.269,101.215 560.323,101.008 C560.376,100.802 560.469,100.608 560.603,100.428 C560.736,100.248 560.863,100.085 560.983,99.9382 C561.103,99.7916 561.283,99.6416 561.523,99.4882 C561.763,99.3349 561.963,99.2082 562.123,99.1082 C562.283,99.0082 562.526,98.8882 562.853,98.7482 C563.179,98.6082 563.429,98.5016 563.603,98.4282 C563.776,98.3549 564.049,98.2449 564.423,98.0982 C564.796,97.9516 565.069,97.8449 565.243,97.7782 L565.243,96.5582 C565.243,95.4516 564.736,94.8982 563.723,94.8982 C563.323,94.8982 562.983,94.9949 562.703,95.1882 C562.423,95.3816 562.283,95.6116 562.283,95.8782 C562.283,95.9849 562.299,96.1316 562.333,96.3182 C562.366,96.5049 562.383,96.6249 562.383,96.6782 C562.383,96.9049 562.293,97.1016 562.113,97.2682 C561.933,97.4349 561.723,97.5182 561.483,97.5182 C561.256,97.5182 561.056,97.4316 560.883,97.2582 C560.709,97.0849 560.623,96.8849 560.623,96.6582 C560.623,96.0316 560.946,95.5016 561.593,95.0682 C562.239,94.6349 563.036,94.4182 563.983,94.4182 C565.076,94.4182 565.829,94.6816 566.243,95.2082 C566.656,95.7349 566.863,96.5382 566.863,97.6182 L566.863,101.518 C566.863,101.958 566.906,102.262 566.993,102.428 C567.079,102.595 567.236,102.678 567.463,102.678 C567.743,102.678 568.036,102.552 568.343,102.298 L568.343,102.818 C567.996,103.205 567.693,103.468 567.433,103.608 C567.173,103.748 566.876,103.818 566.543,103.818 C566.129,103.818 565.826,103.705 565.633,103.478 C565.439,103.252 565.316,102.878 565.263,102.358 C564.116,103.332 563.143,103.818 562.343,103.818 C561.729,103.818 561.226,103.618 560.833,103.218 C560.439,102.818 560.243,102.305 560.243,101.678 M565.243,101.158 L565.243,98.2582 C564.043,98.6982 563.203,99.1249 562.723,99.5382 C562.243,99.9516 562.003,100.452 562.003,101.038 C562.003,101.585 562.136,101.992 562.403,102.258 C562.669,102.525 562.956,102.658 563.263,102.658 C563.716,102.658 564.203,102.505 564.723,102.198 C564.936,102.078 565.076,101.952 565.143,101.818 C565.209,101.685 565.243,101.465 565.243,101.158"/>
<path class="" d="M306.556,238.464 C307.836,238.464 308.889,238.89 309.716,239.744 C310.543,240.597 310.956,241.677 310.956,242.984 C310.956,244.37 310.529,245.53 309.676,246.464 C308.823,247.397 307.769,247.864 306.516,247.864 C305.263,247.864 304.219,247.414 303.386,246.514 C302.553,245.614 302.136,244.49 302.136,243.144 C302.136,241.77 302.546,240.647 303.366,239.774 C304.186,238.9 305.249,238.464 306.556,238.464 M303.936,242.164 C303.936,243.59 304.196,244.804 304.716,245.804 C305.236,246.804 305.916,247.304 306.756,247.304 C307.503,247.304 308.089,246.984 308.516,246.344 C308.943,245.704 309.156,244.817 309.156,243.684 C309.156,242.31 308.889,241.19 308.356,240.324 C307.823,239.457 307.136,239.024 306.296,239.024 C305.589,239.024 305.019,239.31 304.586,239.884 C304.153,240.457 303.936,241.217 303.936,242.164 M311.948,245.724 C311.948,245.484 311.975,245.26 312.028,245.054 C312.082,244.847 312.175,244.654 312.308,244.474 C312.442,244.294 312.568,244.13 312.688,243.984 C312.808,243.837 312.988,243.687 313.228,243.534 C313.468,243.38 313.668,243.254 313.828,243.154 C313.988,243.054 314.232,242.934 314.558,242.794 C314.885,242.654 315.135,242.547 315.308,242.474 C315.482,242.4 315.755,242.29 316.128,242.144 C316.502,241.997 316.775,241.89 316.948,241.824 L316.948,240.604 C316.948,239.497 316.442,238.944 315.428,238.944 C315.028,238.944 314.688,239.04 314.408,239.234 C314.128,239.427 313.988,239.657 313.988,239.924 C313.988,240.03 314.005,240.177 314.038,240.364 C314.072,240.55 314.088,240.67 314.088,240.724 C314.088,240.95 313.998,241.147 313.818,241.314 C313.638,241.48 313.428,241.564 313.188,241.564 C312.962,241.564 312.762,241.477 312.588,241.304 C312.415,241.13 312.328,240.93 312.328,240.704 C312.328,240.077 312.652,239.547 313.298,239.114 C313.945,238.68 314.742,238.464 315.688,238.464 C316.782,238.464 317.535,238.727 317.948,239.254 C318.362,239.78 318.568,240.584 318.568,241.664 L318.568,245.564 C318.568,246.004 318.612,246.307 318.698,246.474 C318.785,246.64 318.942,246.724 319.168,246.724 C319.448,246.724 319.742,246.597 320.048,246.344 L320.048,246.864 C319.702,247.25 319.398,247.514 319.138,247.654 C318.878,247.794 318.582,247.864 318.248,247.864 C317.835,247.864 317.532,247.75 317.338,247.524 C317.145,247.297 317.022,246.924 316.968,246.404 C315.822,247.377 314.848,247.864 314.048,247.864 C313.435,247.864 312.932,247.664 312.538,247.264 C312.145,246.864 311.948,246.35 311.948,245.724 M316.948,245.204 L316.948,242.304 C315.748,242.744 314.908,243.17 314.428,243.584 C313.948,243.997 313.708,244.497 313.708,245.084 C313.708,245.63 313.842,246.037 314.108,246.304 C314.375,246.57 314.662,246.704 314.968,246.704 C315.422,246.704 315.908,246.55 316.428,246.244 C316.642,246.124 316.782,245.997 316.848,245.864 C316.915,245.73 316.948,245.51 316.948,245.204"/>
<polyline class="" fill="none" stroke="#000000" stroke-width="1.35" stroke-linejoin="bevel" points="277.293,98.126 284.495,98.126"/>
<polyline class="" fill="none" stroke="#000000" stroke-width="1.35" stroke-linejoin="bevel" points="585.092,98.126 592.294,98.126"/>
<polyline class="" fill="none" stroke="#000000" stroke-width="1.35" stroke-linejoin="bevel" points="168.645,242.171 175.847,242.171"/>
</svg>
