<?xml version="1.0" encoding="UTF-8" standalone="no"?>
<svg width="611px" height="279px" viewBox="0 0 611 279"
 xmlns="http://www.w3.org/2000/svg" xmlns:xlink="http://www.w3.org/1999/xlink" version="1.2" baseProfile="tiny">
<title>Sweetness</title>
<desc>Generated by MuseScore 2.1.0</desc>
<path class="" stroke="#000000" stroke-width="0.71" stroke-linecap="round" stroke-linejoin="round" fill-rule="evenodd" d="M315.974,16.3443 C324.839,8.79778 351.433,8.79778 360.298,16.3443 C351.433,10.4165 324.839,10.4165 315.974,16.3443"/>
<path class="" stroke="#000000" stroke-width="0.71" stroke-linecap="round" stroke-linejoin="round" fill-rule="evenodd" d="M412.613,26.4611 C421.477,18.9146 448.071,18.9146 456.936,26.4611 C448.071,20.5333 421.477,20.5333 412.613,26.4611"/>
<path class="" stroke="#000000" stroke-width="0.71" stroke-linecap="round" stroke-linejoin="round" fill-rule="evenodd" d="M536.244,14.8267 C554.312,-2.22784 590.446,-2.22784 608.514,14.8267 C590.446,-0.609145 554.312,-0.609145 536.244,14.8267"/>
<path class="" stroke="#000000" stroke-width="0.71" stroke-linecap="round" stroke-linejoin="round" fill-rule="evenodd" d="M75.1099,175.274 C125.193,149.308 347.126,168.008 392.157,201.988 C346.99,169.621 125.057,150.921 75.1099,175.274"/>
<path class="" stroke="#000000" stroke-width="0.71" stroke-linecap="round" stroke-linejoin="round" fill-rule="evenodd" d="M312.173,207.098 C325.685,196.019 366.222,196.019 379.734,207.098 C366.222,197.638 325.685,197.638 312.173,207.098"/>
<path class="" stroke="#000000" stroke-width="0.71" stroke-linecap="round" stroke-linejoin="round" fill-rule="evenodd" d="M312.173,225.206 C325.685,234.666 366.222,234.666 379.734,225.206 C366.222,236.285 325.685,236.285 312.173,225.206"/>
<polyline class="" stroke="#000000" stroke-width="0.81" stroke-linejoin="bevel" points="2.18306,34.0488 235.556,34.0488"/>
<polyline class="" stroke="#000000" stroke-width="0.81" stroke-linejoin="bevel" points="2.18306,44.1656 235.556,44.1656"/>
<polyline class="" stroke="#000000" stroke-width="0.81" stroke-linejoin="bevel" points="2.18306,54.2825 235.556,54.2825"/>
<polyline class="" stroke="#000000" stroke-width="0.81" stroke-linejoin="bevel" points="2.18306,64.3993 235.556,64.3993"/>
<polyline class="" stroke="#000000" stroke-width="0.81" stroke-linejoin="bevel" points="2.18306,74.5162 235.556,74.5162"/>
<polyline class="" stroke="#000000" stroke-width="0.81" stroke-linejoin="bevel" points="235.556,34.0488 608.514,34.0488"/>
<polyline class="" stroke="#000000" stroke-width="0.81" stroke-linejoin="bevel" points="235.556,44.1656 608.514,44.1656"/>
<polyline class="" stroke="#000000" stroke-width="0.81" stroke-linejoin="bevel" points="235.556,54.2825 608.514,54.2825"/>
<polyline class="" stroke="#000000" stroke-width="0.81" stroke-linejoin="bevel" points="235.556,64.3993 608.514,64.3993"/>
<polyline class="" stroke="#000000" stroke-width="0.81" stroke-linejoin="bevel" points="235.556,74.5162 608.514,74.5162"/>
<polyline class="" stroke="#000000" stroke-width="0.81" stroke-linejoin="bevel" points="2.18306,195.918 369.998,195.918"/>
<polyline class="" stroke="#000000" stroke-width="0.81" stroke-linejoin="bevel" points="2.18306,206.035 369.998,206.035"/>
<polyline class="" stroke="#000000" stroke-width="0.81" stroke-linejoin="bevel" points="2.18306,216.152 369.998,216.152"/>
<polyline class="" stroke="#000000" stroke-width="0.81" stroke-linejoin="bevel" points="2.18306,226.269 369.998,226.269"/>
<polyline class="" stroke="#000000" stroke-width="0.81" stroke-linejoin="bevel" points="2.18306,236.386 369.998,236.386"/>
<polyline class="" stroke="#000000" stroke-width="0.81" stroke-linejoin="bevel" points="369.998,195.918 608.514,195.918"/>
<polyline class="" stroke="#000000" stroke-width="0.81" stroke-linejoin="bevel" points="369.998,206.035 608.514,206.035"/>
<polyline class="" stroke="#000000" stroke-width="0.81" stroke-linejoin="bevel" points="369.998,216.152 608.514,216.152"/>
<polyline class="" stroke="#000000" stroke-width="0.81" stroke-linejoin="bevel" points="369.998,226.269 608.514,226.269"/>
<polyline class="" stroke="#000000" stroke-width="0.81" stroke-linejoin="bevel" points="369.998,236.386 608.514,236.386"/>
<polyline class="" stroke="#000000" stroke-width="1.62" stroke-linejoin="bevel" points="234.747,34.0488 234.747,74.5162"/>
<polyline class="" stroke="#000000" stroke-width="1.62" stroke-linejoin="bevel" points="607.704,34.0488 607.704,74.5162"/>
<polyline class="" stroke="#000000" stroke-width="1.62" stroke-linejoin="bevel" points="369.189,195.918 369.189,236.386"/>
<polyline class="" stroke="#000000" stroke-width="1.62" stroke-linejoin="bevel" points="607.704,195.918 607.704,236.386"/>
<polyline class="" stroke="#000000" stroke-width="1.62" stroke-linecap="square" stroke-linejoin="bevel" points="304.282,23.9319 323.671,23.9319"/>
<polyline class="" stroke="#000000" stroke-width="1.62" stroke-linecap="square" stroke-linejoin="bevel" points="352.601,23.9319 371.99,23.9319"/>
<polyline class="" stroke="#000000" stroke-width="1.62" stroke-linecap="square" stroke-linejoin="bevel" points="526.549,23.9319 545.939,23.9319"/>
<polyline class="" stroke="#000000" stroke-width="1.32" stroke-linecap="round" stroke-linejoin="bevel" points="259.655,30.8904 259.655,61.8701"/>
<polyline class="" stroke="#000000" stroke-width="1.32" stroke-linecap="round" stroke-linejoin="bevel" points="128.942,35.9488 128.942,69.4577"/>
<polyline class="" stroke="#000000" stroke-width="1.32" stroke-linecap="round" stroke-linejoin="bevel" points="169.578,35.9488 169.578,69.4577"/>
<polyline class="" stroke="#000000" stroke-width="1.32" stroke-linecap="round" stroke-linejoin="bevel" points="356.293,25.832 356.293,63.5562"/>
<polyline class="" stroke="#000000" stroke-width="1.32" stroke-linecap="round" stroke-linejoin="bevel" points="307.974,25.832 307.974,62.7132"/>
<polyline class="" stroke="#000000" stroke-width="1.32" stroke-linecap="round" stroke-linejoin="bevel" points="530.242,25.832 530.242,69.4577"/>
<polyline class="" stroke="#000000" stroke-width="1.32" stroke-linecap="round" stroke-linejoin="bevel" points="452.932,35.9488 452.932,69.4577"/>
<polyline class="" stroke="#000000" stroke-width="1.32" stroke-linecap="round" stroke-linejoin="bevel" points="404.612,35.9488 404.612,64.3993"/>
<polyline class="" stroke="#000000" stroke-width="1.32" stroke-linecap="round" stroke-linejoin="bevel" points="66.757,192.76 66.757,236.386"/>
<polyline class="" stroke="#000000" stroke-width="1.32" stroke-linecap="round" stroke-linejoin="bevel" points="137.882,197.818 137.882,243.973"/>
<polyline class="" stroke="#000000" stroke-width="1.32" stroke-linecap="round" stroke-linejoin="bevel" points="209.007,202.877 209.007,238.915"/>
<polyline class="" stroke="#000000" stroke-width="1.32" stroke-linecap="round" stroke-linejoin="bevel" points="297.912,212.994 297.912,251.561"/>
<polyline class="" stroke="#000000" stroke-width="1.32" stroke-linecap="round" stroke-linejoin="bevel" points="253.459,197.818 253.459,236.386"/>
<path class="" transform="matrix(2.02337,0,0,2.02337,128.284,34.0488)" d="M4.39453,-2.75391 C5.01953,-2.75391 5.54688,-2.59115 5.97656,-2.26562 C6.38021,-1.91406 6.58203,-1.47135 6.58203,-0.9375 C6.58203,-0.0390625 6.11979,0.800781 5.19531,1.58203 C4.25781,2.36328 3.25521,2.75391 2.1875,2.75391 C1.5625,2.75391 1.03516,2.59115 0.605469,2.26562 C0.201823,1.91406 0,1.47135 0,0.9375 C0,0.0390625 0.46875,-0.800781 1.40625,-1.58203 C2.31771,-2.36328 3.3138,-2.75391 4.39453,-2.75391"/>
<path class="" transform="matrix(2.02337,0,0,2.02337,168.92,34.0488)" d="M4.39453,-2.75391 C5.01953,-2.75391 5.54688,-2.59115 5.97656,-2.26562 C6.38021,-1.91406 6.58203,-1.47135 6.58203,-0.9375 C6.58203,-0.0390625 6.11979,0.800781 5.19531,1.58203 C4.25781,2.36328 3.25521,2.75391 2.1875,2.75391 C1.5625,2.75391 1.03516,2.59115 0.605469,2.26562 C0.201823,1.91406 0,1.47135 0,0.9375 C0,0.0390625 0.46875,-0.800781 1.40625,-1.58203 C2.31771,-2.36328 3.3138,-2.75391 4.39453,-2.75391"/>
<path class="" transform="matrix(2.02337,0,0,2.02337,258.998,28.9903)" d="M4.39453,-2.75391 C5.01953,-2.75391 5.54688,-2.59115 5.97656,-2.26562 C6.38021,-1.91406 6.58203,-1.47135 6.58203,-0.9375 C6.58203,-0.0390625 6.11979,0.800781 5.19531,1.58203 C4.25781,2.36328 3.25521,2.75391 2.1875,2.75391 C1.5625,2.75391 1.03516,2.59115 0.605469,2.26562 C0.201823,1.91406 0,1.47135 0,0.9375 C0,0.0390625 0.46875,-0.800781 1.40625,-1.58203 C2.31771,-2.36328 3.3138,-2.75391 4.39453,-2.75391"/>
<path class="" transform="matrix(2.02337,0,0,2.02337,355.636,23.9319)" d="M4.39453,-2.75391 C5.01953,-2.75391 5.54688,-2.59115 5.97656,-2.26562 C6.38021,-1.91406 6.58203,-1.47135 6.58203,-0.9375 C6.58203,-0.0390625 6.11979,0.800781 5.19531,1.58203 C4.25781,2.36328 3.25521,2.75391 2.1875,2.75391 C1.5625,2.75391 1.03516,2.59115 0.605469,2.26562 C0.201823,1.91406 0,1.47135 0,0.9375 C0,0.0390625 0.46875,-0.800781 1.40625,-1.58203 C2.31771,-2.36328 3.3138,-2.75391 4.39453,-2.75391"/>
<path class="" transform="matrix(2.02337,0,0,2.02337,307.317,23.9319)" d="M4.39453,-2.75391 C5.01953,-2.75391 5.54688,-2.59115 5.97656,-2.26562 C6.38021,-1.91406 6.58203,-1.47135 6.58203,-0.9375 C6.58203,-0.0390625 6.11979,0.800781 5.19531,1.58203 C4.25781,2.36328 3.25521,2.75391 2.1875,2.75391 C1.5625,2.75391 1.03516,2.59115 0.605469,2.26562 C0.201823,1.91406 0,1.47135 0,0.9375 C0,0.0390625 0.46875,-0.800781 1.40625,-1.58203 C2.31771,-2.36328 3.3138,-2.75391 4.39453,-2.75391"/>
<path class="" transform="matrix(2.02337,0,0,2.02337,452.274,34.0488)" d="M4.39453,-2.75391 C5.01953,-2.75391 5.54688,-2.59115 5.97656,-2.26562 C6.38021,-1.91406 6.58203,-1.47135 6.58203,-0.9375 C6.58203,-0.0390625 6.11979,0.800781 5.19531,1.58203 C4.25781,2.36328 3.25521,2.75391 2.1875,2.75391 C1.5625,2.75391 1.03516,2.59115 0.605469,2.26562 C0.201823,1.91406 0,1.47135 0,0.9375 C0,0.0390625 0.46875,-0.800781 1.40625,-1.58203 C2.31771,-2.36328 3.3138,-2.75391 4.39453,-2.75391"/>
<path class="" transform="matrix(2.02337,0,0,2.02337,403.955,34.0488)" d="M4.39453,-2.75391 C5.01953,-2.75391 5.54688,-2.59115 5.97656,-2.26562 C6.38021,-1.91406 6.58203,-1.47135 6.58203,-0.9375 C6.58203,-0.0390625 6.11979,0.800781 5.19531,1.58203 C4.25781,2.36328 3.25521,2.75391 2.1875,2.75391 C1.5625,2.75391 1.03516,2.59115 0.605469,2.26562 C0.201823,1.91406 0,1.47135 0,0.9375 C0,0.0390625 0.46875,-0.800781 1.40625,-1.58203 C2.31771,-2.36328 3.3138,-2.75391 4.39453,-2.75391"/>
<path class="" transform="matrix(2.02337,0,0,2.02337,529.585,23.9319)" d="M4.39453,-2.75391 C5.01953,-2.75391 5.54688,-2.59115 5.97656,-2.26562 C6.38021,-1.91406 6.58203,-1.47135 6.58203,-0.9375 C6.58203,-0.0390625 6.11979,0.800781 5.19531,1.58203 C4.25781,2.36328 3.25521,2.75391 2.1875,2.75391 C1.5625,2.75391 1.03516,2.59115 0.605469,2.26562 C0.201823,1.91406 0,1.47135 0,0.9375 C0,0.0390625 0.46875,-0.800781 1.40625,-1.58203 C2.31771,-2.36328 3.3138,-2.75391 4.39453,-2.75391"/>
<path class="" transform="matrix(2.02337,0,0,2.02337,529.585,34.0488)" d="M4.39453,-2.75391 C5.01953,-2.75391 5.54688,-2.59115 5.97656,-2.26562 C6.38021,-1.91406 6.58203,-1.47135 6.58203,-0.9375 C6.58203,-0.0390625 6.11979,0.800781 5.19531,1.58203 C4.25781,2.36328 3.25521,2.75391 2.1875,2.75391 C1.5625,2.75391 1.03516,2.59115 0.605469,2.26562 C0.201823,1.91406 0,1.47135 0,0.9375 C0,0.0390625 0.46875,-0.800781 1.40625,-1.58203 C2.31771,-2.36328 3.3138,-2.75391 4.39453,-2.75391"/>
<path class="" transform="matrix(2.02337,0,0,2.02337,66.0994,190.86)" d="M4.39453,-2.75391 C5.01953,-2.75391 5.54688,-2.59115 5.97656,-2.26562 C6.38021,-1.91406 6.58203,-1.47135 6.58203,-0.9375 C6.58203,-0.0390625 6.11979,0.800781 5.19531,1.58203 C4.25781,2.36328 3.25521,2.75391 2.1875,2.75391 C1.5625,2.75391 1.03516,2.59115 0.605469,2.26562 C0.201823,1.91406 0,1.47135 0,0.9375 C0,0.0390625 0.46875,-0.800781 1.40625,-1.58203 C2.31771,-2.36328 3.3138,-2.75391 4.39453,-2.75391"/>
<path class="" transform="matrix(2.02337,0,0,2.02337,66.0994,200.977)" d="M4.39453,-2.75391 C5.01953,-2.75391 5.54688,-2.59115 5.97656,-2.26562 C6.38021,-1.91406 6.58203,-1.47135 6.58203,-0.9375 C6.58203,-0.0390625 6.11979,0.800781 5.19531,1.58203 C4.25781,2.36328 3.25521,2.75391 2.1875,2.75391 C1.5625,2.75391 1.03516,2.59115 0.605469,2.26562 C0.201823,1.91406 0,1.47135 0,0.9375 C0,0.0390625 0.46875,-0.800781 1.40625,-1.58203 C2.31771,-2.36328 3.3138,-2.75391 4.39453,-2.75391"/>
<path class="" transform="matrix(2.02337,0,0,2.02337,137.224,195.918)" d="M4.39453,-2.75391 C5.01953,-2.75391 5.54688,-2.59115 5.97656,-2.26562 C6.38021,-1.91406 6.58203,-1.47135 6.58203,-0.9375 C6.58203,-0.0390625 6.11979,0.800781 5.19531,1.58203 C4.25781,2.36328 3.25521,2.75391 2.1875,2.75391 C1.5625,2.75391 1.03516,2.59115 0.605469,2.26562 C0.201823,1.91406 0,1.47135 0,0.9375 C0,0.0390625 0.46875,-0.800781 1.40625,-1.58203 C2.31771,-2.36328 3.3138,-2.75391 4.39453,-2.75391"/>
<path class="" transform="matrix(2.02337,0,0,2.02337,137.224,211.094)" d="M4.39453,-2.75391 C5.01953,-2.75391 5.54688,-2.59115 5.97656,-2.26562 C6.38021,-1.91406 6.58203,-1.47135 6.58203,-0.9375 C6.58203,-0.0390625 6.11979,0.800781 5.19531,1.58203 C4.25781,2.36328 3.25521,2.75391 2.1875,2.75391 C1.5625,2.75391 1.03516,2.59115 0.605469,2.26562 C0.201823,1.91406 0,1.47135 0,0.9375 C0,0.0390625 0.46875,-0.800781 1.40625,-1.58203 C2.31771,-2.36328 3.3138,-2.75391 4.39453,-2.75391"/>
<path class="" transform="matrix(2.02337,0,0,2.02337,208.349,200.977)" d="M4.39453,-2.75391 C5.01953,-2.75391 5.54688,-2.59115 5.97656,-2.26562 C6.38021,-1.91406 6.58203,-1.47135 6.58203,-0.9375 C6.58203,-0.0390625 6.11979,0.800781 5.19531,1.58203 C4.25781,2.36328 3.25521,2.75391 2.1875,2.75391 C1.5625,2.75391 1.03516,2.59115 0.605469,2.26562 C0.201823,1.91406 0,1.47135 0,0.9375 C0,0.0390625 0.46875,-0.800781 1.40625,-1.58203 C2.31771,-2.36328 3.3138,-2.75391 4.39453,-2.75391"/>
<path class="" transform="matrix(2.02337,0,0,2.02337,208.349,211.094)" d="M4.39453,-2.75391 C5.01953,-2.75391 5.54688,-2.59115 5.97656,-2.26562 C6.38021,-1.91406 6.58203,-1.47135 6.58203,-0.9375 C6.58203,-0.0390625 6.11979,0.800781 5.19531,1.58203 C4.25781,2.36328 3.25521,2.75391 2.1875,2.75391 C1.5625,2.75391 1.03516,2.59115 0.605469,2.26562 C0.201823,1.91406 0,1.47135 0,0.9375 C0,0.0390625 0.46875,-0.800781 1.40625,-1.58203 C2.31771,-2.36328 3.3138,-2.75391 4.39453,-2.75391"/>
<path class="" transform="matrix(2.02337,0,0,2.02337,297.255,211.094)" d="M4.39453,-2.75391 C5.01953,-2.75391 5.54688,-2.59115 5.97656,-2.26562 C6.38021,-1.91406 6.58203,-1.47135 6.58203,-0.9375 C6.58203,-0.0390625 6.11979,0.800781 5.19531,1.58203 C4.25781,2.36328 3.25521,2.75391 2.1875,2.75391 C1.5625,2.75391 1.03516,2.59115 0.605469,2.26562 C0.201823,1.91406 0,1.47135 0,0.9375 C0,0.0390625 0.46875,-0.800781 1.40625,-1.58203 C2.31771,-2.36328 3.3138,-2.75391 4.39453,-2.75391"/>
<path class="" transform="matrix(2.02337,0,0,2.02337,297.255,221.21)" d="M4.39453,-2.75391 C5.01953,-2.75391 5.54688,-2.59115 5.97656,-2.26562 C6.38021,-1.91406 6.58203,-1.47135 6.58203,-0.9375 C6.58203,-0.0390625 6.11979,0.800781 5.19531,1.58203 C4.25781,2.36328 3.25521,2.75391 2.1875,2.75391 C1.5625,2.75391 1.03516,2.59115 0.605469,2.26562 C0.201823,1.91406 0,1.47135 0,0.9375 C0,0.0390625 0.46875,-0.800781 1.40625,-1.58203 C2.31771,-2.36328 3.3138,-2.75391 4.39453,-2.75391"/>
<path class="" transform="matrix(2.02337,0,0,2.02337,252.802,195.918)" d="M4.39453,-2.75391 C5.01953,-2.75391 5.54688,-2.59115 5.97656,-2.26562 C6.38021,-1.91406 6.58203,-1.47135 6.58203,-0.9375 C6.58203,-0.0390625 6.11979,0.800781 5.19531,1.58203 C4.25781,2.36328 3.25521,2.75391 2.1875,2.75391 C1.5625,2.75391 1.03516,2.59115 0.605469,2.26562 C0.201823,1.91406 0,1.47135 0,0.9375 C0,0.0390625 0.46875,-0.800781 1.40625,-1.58203 C2.31771,-2.36328 3.3138,-2.75391 4.39453,-2.75391"/>
<path class="" transform="matrix(2.02337,0,0,2.02337,252.802,206.035)" d="M4.39453,-2.75391 C5.01953,-2.75391 5.54688,-2.59115 5.97656,-2.26562 C6.38021,-1.91406 6.58203,-1.47135 6.58203,-0.9375 C6.58203,-0.0390625 6.11979,0.800781 5.19531,1.58203 C4.25781,2.36328 3.25521,2.75391 2.1875,2.75391 C1.5625,2.75391 1.03516,2.59115 0.605469,2.26562 C0.201823,1.91406 0,1.47135 0,0.9375 C0,0.0390625 0.46875,-0.800781 1.40625,-1.58203 C2.31771,-2.36328 3.3138,-2.75391 4.39453,-2.75391"/>
<path class="" transform="matrix(2.02337,0,0,2.02337,382.139,211.094)" d="M4.29688,-2.24609 C3.82812,-2.24609 3.48958,-2.08333 3.28125,-1.75781 C3.04688,-1.44531 2.92969,-1.02214 2.92969,-0.488281 C2.92969,0.123698 3.09245,0.651042 3.41797,1.09375 C3.74349,1.52344 4.10156,1.82292 4.49219,1.99219 C4.84375,2.16146 5.21484,2.24609 5.60547,2.24609 C6.0612,2.24609 6.40625,2.08333 6.64062,1.75781 C6.86198,1.43229 6.97266,1.00911 6.97266,0.488281 C6.97266,-0.123698 6.8099,-0.651042 6.48438,-1.09375 C6.15885,-1.51042 5.80729,-1.8099 5.42969,-1.99219 C5.05208,-2.16146 4.67448,-2.24609 4.29688,-2.24609 M4.96094,-2.75391 C6.36719,-2.75391 7.53906,-2.48047 8.47656,-1.93359 C9.42708,-1.38672 9.90234,-0.742188 9.90234,0 C9.90234,0.794271 9.41406,1.44531 8.4375,1.95312 C7.46094,2.48698 6.30208,2.75391 4.96094,2.75391 C3.58073,2.75391 2.40885,2.48047 1.44531,1.93359 C0.481771,1.38672 0,0.742188 0,0 C0,-0.794271 0.494792,-1.44531 1.48438,-1.95312 C2.46094,-2.48698 3.61979,-2.75391 4.96094,-2.75391"/>
<path class="" transform="matrix(2.02337,0,0,2.02337,382.139,221.21)" d="M4.29688,-2.24609 C3.82812,-2.24609 3.48958,-2.08333 3.28125,-1.75781 C3.04688,-1.44531 2.92969,-1.02214 2.92969,-0.488281 C2.92969,0.123698 3.09245,0.651042 3.41797,1.09375 C3.74349,1.52344 4.10156,1.82292 4.49219,1.99219 C4.84375,2.16146 5.21484,2.24609 5.60547,2.24609 C6.0612,2.24609 6.40625,2.08333 6.64062,1.75781 C6.86198,1.43229 6.97266,1.00911 6.97266,0.488281 C6.97266,-0.123698 6.8099,-0.651042 6.48438,-1.09375 C6.15885,-1.51042 5.80729,-1.8099 5.42969,-1.99219 C5.05208,-2.16146 4.67448,-2.24609 4.29688,-2.24609 M4.96094,-2.75391 C6.36719,-2.75391 7.53906,-2.48047 8.47656,-1.93359 C9.42708,-1.38672 9.90234,-0.742188 9.90234,0 C9.90234,0.794271 9.41406,1.44531 8.4375,1.95312 C7.46094,2.48698 6.30208,2.75391 4.96094,2.75391 C3.58073,2.75391 2.40885,2.48047 1.44531,1.93359 C0.481771,1.38672 0,0.742188 0,0 C0,-0.794271 0.494792,-1.44531 1.48438,-1.95312 C2.46094,-2.48698 3.61979,-2.75391 4.96094,-2.75391"/>
<path class="" transform="matrix(2.02337,0,0,2.02337,8.65785,64.3993)" d="M7.34375,-5.11719 C7.34375,-5.11719 7.38281,-5.11719 7.46094,-5.11719 C7.51302,-5.13021 7.55859,-5.13672 7.59766,-5.13672 C9.05599,-5.13672 10.2539,-4.6224 11.1914,-3.59375 C12.1289,-2.57812 12.5977,-1.39323 12.5977,-0.0390625 C12.5977,1.64062 11.901,3.00781 10.5078,4.0625 C10.1432,4.34896 9.66797,4.58333 9.08203,4.76562 C9.14714,5.61198 9.17969,6.29557 9.17969,6.81641 C9.17969,6.92057 9.16667,7.29818 9.14062,7.94922 C9.08854,9.16016 8.67188,10.2083 7.89062,11.0938 C7.13542,11.9661 6.19792,12.4023 5.07812,12.4023 C4.02344,12.4023 3.125,12.0312 2.38281,11.2891 C1.64062,10.5339 1.26953,9.6224 1.26953,8.55469 C1.26953,7.99479 1.48438,7.51953 1.91406,7.12891 C2.35677,6.73828 2.87109,6.54297 3.45703,6.54297 C3.97786,6.54297 4.41406,6.74479 4.76562,7.14844 C5.13021,7.52604 5.3125,7.99479 5.3125,8.55469 C5.3125,9.0625 5.13021,9.4987 4.76562,9.86328 C4.40104,10.2279 3.96484,10.4102 3.45703,10.4102 C3.2487,10.4102 3.04688,10.3711 2.85156,10.293 C3.42448,11.1393 4.1862,11.5625 5.13672,11.5625 C6.03516,11.5625 6.77083,11.1979 7.34375,10.4688 C7.94271,9.71354 8.26823,8.83464 8.32031,7.83203 C8.34635,7.20703 8.35938,6.84896 8.35938,6.75781 C8.35938,6.02865 8.33333,5.42969 8.28125,4.96094 C7.63021,5.0651 7.05078,5.11719 6.54297,5.11719 C4.73307,5.11719 3.1901,4.40104 1.91406,2.96875 C0.664062,1.52344 0.0390625,-0.195312 0.0390625,-2.1875 C0.0390625,-2.60417 0.078125,-3.02734 0.15625,-3.45703 C0.234375,-3.80859 0.332031,-4.19271 0.449219,-4.60938 C0.514323,-4.84375 0.690104,-5.22135 0.976562,-5.74219 C1.08073,-5.89844 1.19792,-6.09375 1.32812,-6.32812 C1.45833,-6.5625 1.54948,-6.71875 1.60156,-6.79688 C1.73177,-7.05729 1.98568,-7.40885 2.36328,-7.85156 C2.46745,-7.96875 2.57487,-8.09896 2.68555,-8.24219 C2.79622,-8.38542 2.89062,-8.5026 2.96875,-8.59375 C3.04688,-8.6849 3.10547,-8.75651 3.14453,-8.80859 C3.18359,-8.86068 3.47656,-9.20573 4.02344,-9.84375 C4.15365,-9.97396 4.2806,-10.1139 4.4043,-10.2637 C4.52799,-10.4134 4.62891,-10.5306 4.70703,-10.6152 C4.78516,-10.6999 4.84375,-10.7617 4.88281,-10.8008 C4.41406,-12.3503 4.12109,-13.5872 4.00391,-14.5117 C3.91276,-15.2539 3.86719,-16.2695 3.86719,-17.5586 C3.86719,-18.6914 4.1276,-19.7526 4.64844,-20.7422 C5.15625,-21.7708 5.86589,-22.6107 6.77734,-23.2617 C6.84245,-23.3008 6.90755,-23.3203 6.97266,-23.3203 C7.0638,-23.3203 7.12891,-23.3008 7.16797,-23.2617 C7.87109,-22.4154 8.47656,-21.3151 8.98438,-19.9609 C9.50521,-18.6068 9.76562,-17.3763 9.76562,-16.2695 C9.76562,-15.0195 9.46615,-13.8477 8.86719,-12.7539 C8.1901,-11.5951 7.31771,-10.3971 6.25,-9.16016 C6.52344,-8.30078 6.88802,-6.95312 7.34375,-5.11719 M9.00391,3.96484 C9.68099,3.71745 10.2083,3.29427 10.5859,2.69531 C11.0026,2.1224 11.2109,1.47786 11.2109,0.761719 C11.2109,-0.16276 10.8984,-0.983073 10.2734,-1.69922 C9.63542,-2.44141 8.82161,-2.85807 7.83203,-2.94922 C8.39193,-0.201823 8.78255,2.10286 9.00391,3.96484 M1.44531,-0.546875 C1.44531,0.742188 1.96615,1.875 3.00781,2.85156 C4.07552,3.80208 5.27344,4.27734 6.60156,4.27734 C7.14844,4.27734 7.68229,4.23828 8.20312,4.16016 C7.99479,2.18099 7.58464,-0.188802 6.97266,-2.94922 C6.23047,-2.87109 5.63802,-2.61068 5.19531,-2.16797 C4.76562,-1.71224 4.55078,-1.19792 4.55078,-0.625 C4.55078,0.364583 5.07812,1.16536 6.13281,1.77734 C6.22396,1.86849 6.26953,1.96615 6.26953,2.07031 C6.26953,2.17448 6.22396,2.27214 6.13281,2.36328 C6.05469,2.45443 5.95703,2.5 5.83984,2.5 C5.82682,2.5 5.76823,2.48698 5.66406,2.46094 C4.92188,2.05729 4.34896,1.53646 3.94531,0.898438 C3.56771,0.221354 3.37891,-0.46224 3.37891,-1.15234 C3.37891,-2.05078 3.65885,-2.86458 4.21875,-3.59375 C4.80469,-4.32292 5.56641,-4.79167 6.50391,-5 C6.13932,-6.45833 5.83984,-7.59766 5.60547,-8.41797 C5.39714,-8.18359 5.14648,-7.90039 4.85352,-7.56836 C4.56055,-7.23633 4.38802,-7.03776 4.33594,-6.97266 C3.86719,-6.36068 3.50911,-5.88542 3.26172,-5.54688 C2.81901,-4.9349 2.49349,-4.40755 2.28516,-3.96484 C2.0638,-3.47005 1.86849,-2.92969 1.69922,-2.34375 C1.52995,-1.78385 1.44531,-1.1849 1.44531,-0.546875 M7.96875,-20.4102 C6.99219,-19.9284 6.22396,-19.2383 5.66406,-18.3398 C5.09115,-17.4154 4.80469,-16.4193 4.80469,-15.3516 C4.80469,-14.4141 5.03906,-13.151 5.50781,-11.5625 C6.44531,-12.6953 7.14844,-13.7435 7.61719,-14.707 C8.11198,-15.7227 8.35938,-16.7839 8.35938,-17.8906 C8.35938,-18.724 8.22917,-19.5638 7.96875,-20.4102"/>
<path class="" transform="matrix(2.02337,0,0,2.02337,8.65785,226.269)" d="M7.34375,-5.11719 C7.34375,-5.11719 7.38281,-5.11719 7.46094,-5.11719 C7.51302,-5.13021 7.55859,-5.13672 7.59766,-5.13672 C9.05599,-5.13672 10.2539,-4.6224 11.1914,-3.59375 C12.1289,-2.57812 12.5977,-1.39323 12.5977,-0.0390625 C12.5977,1.64062 11.901,3.00781 10.5078,4.0625 C10.1432,4.34896 9.66797,4.58333 9.08203,4.76562 C9.14714,5.61198 9.17969,6.29557 9.17969,6.81641 C9.17969,6.92057 9.16667,7.29818 9.14062,7.94922 C9.08854,9.16016 8.67188,10.2083 7.89062,11.0938 C7.13542,11.9661 6.19792,12.4023 5.07812,12.4023 C4.02344,12.4023 3.125,12.0312 2.38281,11.2891 C1.64062,10.5339 1.26953,9.6224 1.26953,8.55469 C1.26953,7.99479 1.48438,7.51953 1.91406,7.12891 C2.35677,6.73828 2.87109,6.54297 3.45703,6.54297 C3.97786,6.54297 4.41406,6.74479 4.76562,7.14844 C5.13021,7.52604 5.3125,7.99479 5.3125,8.55469 C5.3125,9.0625 5.13021,9.4987 4.76562,9.86328 C4.40104,10.2279 3.96484,10.4102 3.45703,10.4102 C3.2487,10.4102 3.04688,10.3711 2.85156,10.293 C3.42448,11.1393 4.1862,11.5625 5.13672,11.5625 C6.03516,11.5625 6.77083,11.1979 7.34375,10.4688 C7.94271,9.71354 8.26823,8.83464 8.32031,7.83203 C8.34635,7.20703 8.35938,6.84896 8.35938,6.75781 C8.35938,6.02865 8.33333,5.42969 8.28125,4.96094 C7.63021,5.0651 7.05078,5.11719 6.54297,5.11719 C4.73307,5.11719 3.1901,4.40104 1.91406,2.96875 C0.664062,1.52344 0.0390625,-0.195312 0.0390625,-2.1875 C0.0390625,-2.60417 0.078125,-3.02734 0.15625,-3.45703 C0.234375,-3.80859 0.332031,-4.19271 0.449219,-4.60938 C0.514323,-4.84375 0.690104,-5.22135 0.976562,-5.74219 C1.08073,-5.89844 1.19792,-6.09375 1.32812,-6.32812 C1.45833,-6.5625 1.54948,-6.71875 1.60156,-6.79688 C1.73177,-7.05729 1.98568,-7.40885 2.36328,-7.85156 C2.46745,-7.96875 2.57487,-8.09896 2.68555,-8.24219 C2.79622,-8.38542 2.89062,-8.5026 2.96875,-8.59375 C3.04688,-8.6849 3.10547,-8.75651 3.14453,-8.80859 C3.18359,-8.86068 3.47656,-9.20573 4.02344,-9.84375 C4.15365,-9.97396 4.2806,-10.1139 4.4043,-10.2637 C4.52799,-10.4134 4.62891,-10.5306 4.70703,-10.6152 C4.78516,-10.6999 4.84375,-10.7617 4.88281,-10.8008 C4.41406,-12.3503 4.12109,-13.5872 4.00391,-14.5117 C3.91276,-15.2539 3.86719,-16.2695 3.86719,-17.5586 C3.86719,-18.6914 4.1276,-19.7526 4.64844,-20.7422 C5.15625,-21.7708 5.86589,-22.6107 6.77734,-23.2617 C6.84245,-23.3008 6.90755,-23.3203 6.97266,-23.3203 C7.0638,-23.3203 7.12891,-23.3008 7.16797,-23.2617 C7.87109,-22.4154 8.47656,-21.3151 8.98438,-19.9609 C9.50521,-18.6068 9.76562,-17.3763 9.76562,-16.2695 C9.76562,-15.0195 9.46615,-13.8477 8.86719,-12.7539 C8.1901,-11.5951 7.31771,-10.3971 6.25,-9.16016 C6.52344,-8.30078 6.88802,-6.95312 7.34375,-5.11719 M9.00391,3.96484 C9.68099,3.71745 10.2083,3.29427 10.5859,2.69531 C11.0026,2.1224 11.2109,1.47786 11.2109,0.761719 C11.2109,-0.16276 10.8984,-0.983073 10.2734,-1.69922 C9.63542,-2.44141 8.82161,-2.85807 7.83203,-2.94922 C8.39193,-0.201823 8.78255,2.10286 9.00391,3.96484 M1.44531,-0.546875 C1.44531,0.742188 1.96615,1.875 3.00781,2.85156 C4.07552,3.80208 5.27344,4.27734 6.60156,4.27734 C7.14844,4.27734 7.68229,4.23828 8.20312,4.16016 C7.99479,2.18099 7.58464,-0.188802 6.97266,-2.94922 C6.23047,-2.87109 5.63802,-2.61068 5.19531,-2.16797 C4.76562,-1.71224 4.55078,-1.19792 4.55078,-0.625 C4.55078,0.364583 5.07812,1.16536 6.13281,1.77734 C6.22396,1.86849 6.26953,1.96615 6.26953,2.07031 C6.26953,2.17448 6.22396,2.27214 6.13281,2.36328 C6.05469,2.45443 5.95703,2.5 5.83984,2.5 C5.82682,2.5 5.76823,2.48698 5.66406,2.46094 C4.92188,2.05729 4.34896,1.53646 3.94531,0.898438 C3.56771,0.221354 3.37891,-0.46224 3.37891,-1.15234 C3.37891,-2.05078 3.65885,-2.86458 4.21875,-3.59375 C4.80469,-4.32292 5.56641,-4.79167 6.50391,-5 C6.13932,-6.45833 5.83984,-7.59766 5.60547,-8.41797 C5.39714,-8.18359 5.14648,-7.90039 4.85352,-7.56836 C4.56055,-7.23633 4.38802,-7.03776 4.33594,-6.97266 C3.86719,-6.36068 3.50911,-5.88542 3.26172,-5.54688 C2.81901,-4.9349 2.49349,-4.40755 2.28516,-3.96484 C2.0638,-3.47005 1.86849,-2.92969 1.69922,-2.34375 C1.52995,-1.78385 1.44531,-1.1849 1.44531,-0.546875 M7.96875,-20.4102 C6.99219,-19.9284 6.22396,-19.2383 5.66406,-18.3398 C5.09115,-17.4154 4.80469,-16.4193 4.80469,-15.3516 C4.80469,-14.4141 5.03906,-13.151 5.50781,-11.5625 C6.44531,-12.6953 7.14844,-13.7435 7.61719,-14.707 C8.11198,-15.7227 8.35938,-16.7839 8.35938,-17.8906 C8.35938,-18.724 8.22917,-19.5638 7.96875,-20.4102"/>
<path class="" transform="matrix(2.02337,0,0,2.02337,39.4226,54.2825)" d="M0.917969,-0.820312 L0.917969,0.722656 C0.917969,1.26953 0.94401,1.70573 0.996094,2.03125 C1.42578,1.66667 1.73177,1.39323 1.91406,1.21094 C2.1224,1.0026 2.33073,0.716146 2.53906,0.351562 C2.7474,-0.0130208 2.85156,-0.377604 2.85156,-0.742188 C2.85156,-1.10677 2.77344,-1.41927 2.61719,-1.67969 C2.46094,-1.9401 2.2526,-2.07031 1.99219,-2.07031 C1.67969,-2.07031 1.41927,-1.95312 1.21094,-1.71875 C1.01562,-1.45833 0.917969,-1.15885 0.917969,-0.820312 M0.0976562,2.75391 L-0.15625,-9.14062 C0.0260417,-9.24479 0.208333,-9.29688 0.390625,-9.29688 C0.572917,-9.29688 0.755208,-9.24479 0.9375,-9.14062 L0.78125,-2.24609 C1.3151,-2.70182 1.92708,-2.92969 2.61719,-2.92969 C3.125,-2.92969 3.54818,-2.72135 3.88672,-2.30469 C4.22526,-1.88802 4.39453,-1.41276 4.39453,-0.878906 C4.39453,-0.540365 4.28385,-0.182292 4.0625,0.195312 C3.85417,0.546875 3.63281,0.820312 3.39844,1.01562 C3.26823,1.11979 2.9362,1.38021 2.40234,1.79688 C2.24609,1.91406 2.06055,2.05078 1.8457,2.20703 C1.63086,2.36328 1.4974,2.46094 1.44531,2.5 C1.35417,2.55208 1.26953,2.65625 1.19141,2.8125 C1.10026,2.94271 0.996094,3.05339 0.878906,3.14453 C0.78776,3.22266 0.677083,3.26172 0.546875,3.26172 C0.416667,3.26172 0.3125,3.21615 0.234375,3.125 C0.143229,3.03385 0.0976562,2.91016 0.0976562,2.75391"/>
<path class="" transform="matrix(2.02337,0,0,2.02337,39.4226,216.152)" d="M0.917969,-0.820312 L0.917969,0.722656 C0.917969,1.26953 0.94401,1.70573 0.996094,2.03125 C1.42578,1.66667 1.73177,1.39323 1.91406,1.21094 C2.1224,1.0026 2.33073,0.716146 2.53906,0.351562 C2.7474,-0.0130208 2.85156,-0.377604 2.85156,-0.742188 C2.85156,-1.10677 2.77344,-1.41927 2.61719,-1.67969 C2.46094,-1.9401 2.2526,-2.07031 1.99219,-2.07031 C1.67969,-2.07031 1.41927,-1.95312 1.21094,-1.71875 C1.01562,-1.45833 0.917969,-1.15885 0.917969,-0.820312 M0.0976562,2.75391 L-0.15625,-9.14062 C0.0260417,-9.24479 0.208333,-9.29688 0.390625,-9.29688 C0.572917,-9.29688 0.755208,-9.24479 0.9375,-9.14062 L0.78125,-2.24609 C1.3151,-2.70182 1.92708,-2.92969 2.61719,-2.92969 C3.125,-2.92969 3.54818,-2.72135 3.88672,-2.30469 C4.22526,-1.88802 4.39453,-1.41276 4.39453,-0.878906 C4.39453,-0.540365 4.28385,-0.182292 4.0625,0.195312 C3.85417,0.546875 3.63281,0.820312 3.39844,1.01562 C3.26823,1.11979 2.9362,1.38021 2.40234,1.79688 C2.24609,1.91406 2.06055,2.05078 1.8457,2.20703 C1.63086,2.36328 1.4974,2.46094 1.44531,2.5 C1.35417,2.55208 1.26953,2.65625 1.19141,2.8125 C1.10026,2.94271 0.996094,3.05339 0.878906,3.14453 C0.78776,3.22266 0.677083,3.26172 0.546875,3.26172 C0.416667,3.26172 0.3125,3.21615 0.234375,3.125 C0.143229,3.03385 0.0976562,2.91016 0.0976562,2.75391"/>
<path class="" transform="matrix(2.02337,0,0,2.02337,53.5545,44.1656)" d="M4.49219,-4.74609 C4.88281,-4.74609 5.21484,-4.79167 5.48828,-4.88281 C5.76172,-4.97396 5.9375,-5.01953 6.01562,-5.01953 C6.10677,-5.01953 6.17839,-4.99349 6.23047,-4.94141 C6.26953,-4.90234 6.29557,-4.85677 6.30859,-4.80469 C6.30859,-4.77865 6.29557,-4.73958 6.26953,-4.6875 L0.585938,1.91406 L3.92578,1.91406 L3.92578,-0.703125 C3.92578,-0.872396 3.97135,-1.01562 4.0625,-1.13281 C4.21875,-1.26302 4.34896,-1.34115 4.45312,-1.36719 C4.6224,-1.44531 4.83073,-1.6276 5.07812,-1.91406 C5.28646,-2.14844 5.53385,-2.55859 5.82031,-3.14453 C5.85938,-3.22266 5.91797,-3.26172 5.99609,-3.26172 C6.15234,-3.26172 6.24349,-3.17057 6.26953,-2.98828 L6.26953,1.91406 L7.69531,1.91406 C7.8776,1.91406 7.98177,2.01172 8.00781,2.20703 C8.00781,2.40234 7.90365,2.5 7.69531,2.5 L6.26953,2.5 L6.26953,2.65625 C6.26953,3.17708 6.39974,3.61979 6.66016,3.98438 C6.95964,4.34896 7.3112,4.53125 7.71484,4.53125 C7.87109,4.53125 7.94922,4.60938 7.94922,4.76562 C7.94922,4.92188 7.87109,5 7.71484,5 C7.44141,5 6.9987,4.96094 6.38672,4.88281 C5.82682,4.79167 5.39062,4.74609 5.07812,4.74609 C4.7526,4.74609 4.31641,4.79167 3.76953,4.88281 C3.18359,4.96094 2.7474,5 2.46094,5 C2.30469,5 2.22656,4.92188 2.22656,4.76562 C2.22656,4.60938 2.30469,4.53125 2.46094,4.53125 C2.86458,4.53125 3.21615,4.34896 3.51562,3.98438 C3.78906,3.61979 3.92578,3.17708 3.92578,2.65625 L3.92578,2.5 L0.585938,2.5 C0.364583,2.5 0.208333,2.44792 0.117188,2.34375 C0.0130208,2.26562 -0.0390625,2.16146 -0.0390625,2.03125 C-0.0390625,1.99219 0.0585938,1.85547 0.253906,1.62109 C0.47526,1.36068 0.709635,1.04167 0.957031,0.664062 C1.24349,0.221354 1.51693,-0.234375 1.77734,-0.703125 C2.0638,-1.23698 2.29167,-1.84896 2.46094,-2.53906 C2.65625,-3.24219 2.75391,-3.95833 2.75391,-4.6875 C2.75391,-4.89583 2.84505,-5 3.02734,-5 C3.06641,-5 3.15104,-4.98047 3.28125,-4.94141 C3.32031,-4.92839 3.40169,-4.90885 3.52539,-4.88281 C3.64909,-4.85677 3.75,-4.83073 3.82812,-4.80469 C4.0625,-4.76562 4.28385,-4.74609 4.49219,-4.74609"/>
<path class="" transform="matrix(2.02337,0,0,2.02337,53.5545,64.3993)" d="M4.49219,-4.74609 C4.88281,-4.74609 5.21484,-4.79167 5.48828,-4.88281 C5.76172,-4.97396 5.9375,-5.01953 6.01562,-5.01953 C6.10677,-5.01953 6.17839,-4.99349 6.23047,-4.94141 C6.26953,-4.90234 6.29557,-4.85677 6.30859,-4.80469 C6.30859,-4.77865 6.29557,-4.73958 6.26953,-4.6875 L0.585938,1.91406 L3.92578,1.91406 L3.92578,-0.703125 C3.92578,-0.872396 3.97135,-1.01562 4.0625,-1.13281 C4.21875,-1.26302 4.34896,-1.34115 4.45312,-1.36719 C4.6224,-1.44531 4.83073,-1.6276 5.07812,-1.91406 C5.28646,-2.14844 5.53385,-2.55859 5.82031,-3.14453 C5.85938,-3.22266 5.91797,-3.26172 5.99609,-3.26172 C6.15234,-3.26172 6.24349,-3.17057 6.26953,-2.98828 L6.26953,1.91406 L7.69531,1.91406 C7.8776,1.91406 7.98177,2.01172 8.00781,2.20703 C8.00781,2.40234 7.90365,2.5 7.69531,2.5 L6.26953,2.5 L6.26953,2.65625 C6.26953,3.17708 6.39974,3.61979 6.66016,3.98438 C6.95964,4.34896 7.3112,4.53125 7.71484,4.53125 C7.87109,4.53125 7.94922,4.60938 7.94922,4.76562 C7.94922,4.92188 7.87109,5 7.71484,5 C7.44141,5 6.9987,4.96094 6.38672,4.88281 C5.82682,4.79167 5.39062,4.74609 5.07812,4.74609 C4.7526,4.74609 4.31641,4.79167 3.76953,4.88281 C3.18359,4.96094 2.7474,5 2.46094,5 C2.30469,5 2.22656,4.92188 2.22656,4.76562 C2.22656,4.60938 2.30469,4.53125 2.46094,4.53125 C2.86458,4.53125 3.21615,4.34896 3.51562,3.98438 C3.78906,3.61979 3.92578,3.17708 3.92578,2.65625 L3.92578,2.5 L0.585938,2.5 C0.364583,2.5 0.208333,2.44792 0.117188,2.34375 C0.0130208,2.26562 -0.0390625,2.16146 -0.0390625,2.03125 C-0.0390625,1.99219 0.0585938,1.85547 0.253906,1.62109 C0.47526,1.36068 0.709635,1.04167 0.957031,0.664062 C1.24349,0.221354 1.51693,-0.234375 1.77734,-0.703125 C2.0638,-1.23698 2.29167,-1.84896 2.46094,-2.53906 C2.65625,-3.24219 2.75391,-3.95833 2.75391,-4.6875 C2.75391,-4.89583 2.84505,-5 3.02734,-5 C3.06641,-5 3.15104,-4.98047 3.28125,-4.94141 C3.32031,-4.92839 3.40169,-4.90885 3.52539,-4.88281 C3.64909,-4.85677 3.75,-4.83073 3.82812,-4.80469 C4.0625,-4.76562 4.28385,-4.74609 4.49219,-4.74609"/>
<path class="" transform="matrix(2.02337,0,0,2.02337,87.6483,54.2825)" d="M1.40625,-4.10156 C1.78385,-4.10156 2.07031,-3.9974 2.26562,-3.78906 C2.46094,-3.55469 2.5651,-3.33333 2.57812,-3.125 C2.60417,-2.92969 2.66927,-2.70833 2.77344,-2.46094 C2.89062,-2.2526 3.04036,-2.14844 3.22266,-2.14844 C3.36589,-2.14844 3.58073,-2.3112 3.86719,-2.63672 C4.1276,-2.92318 4.31641,-3.17708 4.43359,-3.39844 C4.4987,-3.52865 4.58984,-3.59375 4.70703,-3.59375 L4.72656,-3.59375 C4.85677,-3.58073 4.94792,-3.51562 5,-3.39844 L2.53906,5 C2.40885,5.13021 2.22656,5.19531 1.99219,5.19531 C1.75781,5.19531 1.57552,5.13021 1.44531,5 L3.78906,-1.52344 C2.95573,-1.22396 2.2526,-1.07422 1.67969,-1.07422 C1.21094,-1.07422 0.807292,-1.22396 0.46875,-1.52344 C0.117188,-1.8099 -0.0585938,-2.1875 -0.0585938,-2.65625 C-0.0585938,-3.0599 0.0846354,-3.39844 0.371094,-3.67188 C0.657552,-3.95833 1.0026,-4.10156 1.40625,-4.10156"/>
<path class="" fill-rule="evenodd" d="M258.998,59.3409 L405.27,61.893 L405.27,66.9515 L258.998,64.3993 L258.998,59.3409 "/>
<path class="" fill-rule="evenodd" d="M208.349,236.386 L254.117,233.782 L254.117,238.84 L208.349,241.444 L208.349,236.386 "/>
<path class="" transform="matrix(2.02337,0,0,2.02337,128.284,69.4577)" d="M4.55078,-14.4727 C4.85026,-14.4727 5.16927,-13.9844 5.50781,-13.0078 C5.83333,-12.0443 5.99609,-11.1263 5.99609,-10.2539 C5.99609,-9.51172 5.8138,-8.77604 5.44922,-8.04688 C5.07161,-7.26562 4.6224,-6.58854 4.10156,-6.01562 L2.5,-4.21875 C2.00521,-3.64583 1.5625,-2.98177 1.17188,-2.22656 C0.807292,-1.4974 0.625,-0.755208 0.625,0 L0,0 L0,-5 L0.625,-5 C0.976562,-5.22135 1.4974,-5.57292 2.1875,-6.05469 C2.5,-6.28906 2.96875,-6.67969 3.59375,-7.22656 C4.10156,-7.69531 4.48568,-8.17708 4.74609,-8.67188 C5.01953,-9.19271 5.15625,-9.72005 5.15625,-10.2539 C5.15625,-11.4909 4.79818,-12.7214 4.08203,-13.9453 C4.08203,-13.9453 4.08203,-13.9714 4.08203,-14.0234 C4.08203,-14.1406 4.12109,-14.2383 4.19922,-14.3164 C4.30339,-14.4206 4.42057,-14.4727 4.55078,-14.4727"/>
<path class="" d="M133.814,112.586 L133.814,102.818 C133.814,102.011 133.693,101.494 133.451,101.267 C133.209,101.039 132.619,100.896 131.68,100.838 L131.68,100.42 L138.214,100.42 L138.214,100.838 C137.29,100.882 136.7,101.021 136.443,101.256 C136.187,101.49 136.058,102.011 136.058,102.818 L136.058,112.586 C136.058,113.392 136.19,113.917 136.454,114.159 C136.718,114.401 137.305,114.536 138.214,114.566 L138.214,114.984 L131.68,114.984 L131.68,114.566 C132.604,114.536 133.191,114.404 133.44,114.17 C133.69,113.935 133.814,113.407 133.814,112.586"/>
<path class="" d="M166.637,108.164 C166.241,106.99 165.937,106.253 165.724,105.953 C165.512,105.652 165.163,105.472 164.679,105.414 L164.679,105.084 L169.145,105.084 L169.145,105.414 C168.632,105.487 168.291,105.575 168.122,105.678 C167.954,105.78 167.869,105.956 167.869,106.206 C167.869,106.396 167.994,106.829 168.243,107.504 L170.091,112.432 L172.071,107.548 C172.321,106.932 172.445,106.448 172.445,106.096 C172.445,105.905 172.379,105.762 172.247,105.667 C172.115,105.571 171.859,105.487 171.477,105.414 L171.477,105.084 L174.183,105.084 L174.183,105.414 C173.963,105.487 173.806,105.59 173.71,105.722 C173.615,105.854 173.472,106.147 173.281,106.602 L170.245,114.214 C169.952,114.932 169.747,115.292 169.629,115.292 C169.512,115.292 169.336,114.976 169.101,114.346 L167.099,109.154 L164.635,114.434 C164.371,115.006 164.188,115.292 164.085,115.292 C163.968,115.292 163.777,114.969 163.513,114.324 L160.543,106.8 C160.323,106.242 160.14,105.879 159.993,105.711 C159.847,105.542 159.641,105.443 159.377,105.414 L159.377,105.084 L163.337,105.084 L163.337,105.414 C162.956,105.458 162.692,105.531 162.545,105.634 C162.399,105.736 162.325,105.905 162.325,106.14 C162.325,106.36 162.369,106.58 162.457,106.8 L164.635,112.542 L166.637,108.164 M174.833,112.85 C174.833,112.586 174.862,112.34 174.921,112.113 C174.98,111.885 175.082,111.673 175.229,111.475 C175.376,111.277 175.515,111.097 175.647,110.936 C175.779,110.774 175.977,110.609 176.241,110.441 C176.505,110.272 176.725,110.133 176.901,110.023 C177.077,109.913 177.345,109.781 177.704,109.627 C178.063,109.473 178.338,109.355 178.529,109.275 C178.72,109.194 179.02,109.073 179.431,108.912 C179.842,108.75 180.142,108.633 180.333,108.56 L180.333,107.218 C180.333,106 179.776,105.392 178.661,105.392 C178.221,105.392 177.847,105.498 177.539,105.711 C177.231,105.923 177.077,106.176 177.077,106.47 C177.077,106.587 177.095,106.748 177.132,106.954 C177.169,107.159 177.187,107.291 177.187,107.35 C177.187,107.599 177.088,107.815 176.89,107.999 C176.692,108.182 176.461,108.274 176.197,108.274 C175.948,108.274 175.728,108.178 175.537,107.988 C175.346,107.797 175.251,107.577 175.251,107.328 C175.251,106.638 175.607,106.055 176.318,105.579 C177.029,105.102 177.906,104.864 178.947,104.864 C180.15,104.864 180.978,105.153 181.433,105.733 C181.888,106.312 182.115,107.196 182.115,108.384 L182.115,112.674 C182.115,113.158 182.163,113.491 182.258,113.675 C182.353,113.858 182.526,113.95 182.775,113.95 C183.083,113.95 183.406,113.81 183.743,113.532 L183.743,114.104 C183.362,114.529 183.028,114.819 182.742,114.973 C182.456,115.127 182.13,115.204 181.763,115.204 C181.308,115.204 180.975,115.079 180.762,114.83 C180.549,114.58 180.414,114.17 180.355,113.598 C179.094,114.668 178.023,115.204 177.143,115.204 C176.468,115.204 175.915,114.984 175.482,114.544 C175.049,114.104 174.833,113.539 174.833,112.85 M180.333,112.278 L180.333,109.088 C179.013,109.572 178.089,110.041 177.561,110.496 C177.033,110.95 176.769,111.5 176.769,112.146 C176.769,112.747 176.916,113.194 177.209,113.488 C177.502,113.781 177.818,113.928 178.155,113.928 C178.654,113.928 179.189,113.759 179.761,113.422 C179.996,113.29 180.15,113.15 180.223,113.004 C180.296,112.857 180.333,112.615 180.333,112.278 M189.741,105.304 C189.756,105.304 189.873,105.23 190.093,105.084 L190.335,105.084 L190.423,108.076 L190.093,108.076 C189.844,107.093 189.536,106.396 189.169,105.986 C188.803,105.575 188.304,105.37 187.673,105.37 C187.175,105.37 186.768,105.509 186.452,105.788 C186.137,106.066 185.979,106.426 185.979,106.866 C185.979,107.496 186.295,107.995 186.925,108.362 L189.301,109.77 C189.961,110.166 190.434,110.565 190.72,110.969 C191.006,111.372 191.149,111.845 191.149,112.388 C191.149,113.15 190.845,113.81 190.236,114.368 C189.628,114.925 188.898,115.204 188.047,115.204 C187.681,115.204 187.189,115.138 186.573,115.006 C185.957,114.874 185.576,114.808 185.429,114.808 C185.209,114.808 185.041,114.896 184.923,115.072 L184.637,115.072 L184.637,111.64 L184.989,111.64 C185.224,112.666 185.503,113.392 185.825,113.818 C186.295,114.419 186.947,114.72 187.783,114.72 C188.341,114.72 188.784,114.577 189.114,114.291 C189.444,114.005 189.609,113.62 189.609,113.136 C189.609,112.476 189.228,111.926 188.465,111.486 L187.189,110.76 C186.251,110.232 185.587,109.726 185.198,109.242 C184.81,108.758 184.615,108.208 184.615,107.592 C184.615,106.8 184.898,106.151 185.462,105.645 C186.027,105.139 186.742,104.886 187.607,104.886 C188.091,104.886 188.546,104.955 188.971,105.095 C189.397,105.234 189.653,105.304 189.741,105.304"/>
<path class="" d="M300.4,106.228 L300.4,105.854 C301.485,105.531 302.497,105.201 303.436,104.864 L303.59,104.908 L303.59,106.646 C304.338,105.942 304.928,105.469 305.361,105.227 C305.793,104.985 306.266,104.864 306.78,104.864 C307.586,104.864 308.221,105.153 308.683,105.733 C309.145,106.312 309.376,107.122 309.376,108.164 L309.376,113.202 C309.376,113.744 309.464,114.107 309.64,114.291 C309.816,114.474 310.175,114.595 310.718,114.654 L310.718,114.984 L306.142,114.984 L306.142,114.654 C306.699,114.61 307.069,114.463 307.253,114.214 C307.436,113.964 307.528,113.495 307.528,112.806 L307.528,108.208 C307.528,106.785 306.992,106.074 305.922,106.074 C305.555,106.074 305.218,106.158 304.91,106.327 C304.602,106.495 304.184,106.829 303.656,107.328 L303.656,113.51 C303.656,113.906 303.758,114.184 303.964,114.346 C304.169,114.507 304.55,114.61 305.108,114.654 L305.108,114.984 L300.444,114.984 L300.444,114.654 C301.001,114.61 301.368,114.481 301.544,114.269 C301.72,114.056 301.808,113.634 301.808,113.004 L301.808,107.548 C301.808,107.005 301.749,106.635 301.632,106.437 C301.514,106.239 301.302,106.14 300.994,106.14 C300.715,106.14 300.517,106.169 300.4,106.228 M312.294,106.338 C311.971,106.338 311.663,106.36 311.37,106.404 L311.37,106.074 C312.396,105.78 313.533,105.377 314.78,104.864 L314.868,104.93 L314.868,112.74 C314.868,113.532 314.959,114.034 315.143,114.247 C315.326,114.459 315.777,114.595 316.496,114.654 L316.496,114.984 L311.282,114.984 L311.282,114.654 C312.044,114.61 312.525,114.478 312.723,114.258 C312.921,114.038 313.02,113.532 313.02,112.74 L313.02,107.636 C313.02,107.152 312.965,106.814 312.855,106.624 C312.745,106.433 312.558,106.338 312.294,106.338 M313.746,99.9576 C314.068,99.9576 314.34,100.068 314.56,100.288 C314.78,100.508 314.89,100.772 314.89,101.08 C314.89,101.402 314.78,101.67 314.56,101.883 C314.34,102.095 314.068,102.202 313.746,102.202 C313.438,102.202 313.177,102.092 312.965,101.872 C312.752,101.652 312.646,101.388 312.646,101.08 C312.646,100.772 312.756,100.508 312.976,100.288 C313.196,100.068 313.452,99.9576 313.746,99.9576 M317.259,106.228 L317.259,105.854 C318.344,105.531 319.356,105.201 320.295,104.864 L320.449,104.908 L320.449,106.646 C321.197,105.942 321.787,105.469 322.22,105.227 C322.653,104.985 323.126,104.864 323.639,104.864 C324.446,104.864 325.08,105.153 325.542,105.733 C326.004,106.312 326.235,107.122 326.235,108.164 L326.235,113.202 C326.235,113.744 326.323,114.107 326.499,114.291 C326.675,114.474 327.034,114.595 327.577,114.654 L327.577,114.984 L323.001,114.984 L323.001,114.654 C323.558,114.61 323.929,114.463 324.112,114.214 C324.295,113.964 324.387,113.495 324.387,112.806 L324.387,108.208 C324.387,106.785 323.852,106.074 322.781,106.074 C322.414,106.074 322.077,106.158 321.769,106.327 C321.461,106.495 321.043,106.829 320.515,107.328 L320.515,113.51 C320.515,113.906 320.618,114.184 320.823,114.346 C321.028,114.507 321.41,114.61 321.967,114.654 L321.967,114.984 L317.303,114.984 L317.303,114.654 C317.86,114.61 318.227,114.481 318.403,114.269 C318.579,114.056 318.667,113.634 318.667,113.004 L318.667,107.548 C318.667,107.005 318.608,106.635 318.491,106.437 C318.374,106.239 318.161,106.14 317.853,106.14 C317.574,106.14 317.376,106.169 317.259,106.228"/>
<path class="" d="M253.6,105.304 C253.615,105.304 253.732,105.23 253.952,105.084 L254.194,105.084 L254.282,108.076 L253.952,108.076 C253.703,107.093 253.395,106.396 253.028,105.986 C252.662,105.575 252.163,105.37 251.532,105.37 C251.034,105.37 250.627,105.509 250.311,105.788 C249.996,106.066 249.838,106.426 249.838,106.866 C249.838,107.496 250.154,107.995 250.784,108.362 L253.16,109.77 C253.82,110.166 254.293,110.565 254.579,110.969 C254.865,111.372 255.008,111.845 255.008,112.388 C255.008,113.15 254.704,113.81 254.095,114.368 C253.487,114.925 252.757,115.204 251.906,115.204 C251.54,115.204 251.048,115.138 250.432,115.006 C249.816,114.874 249.435,114.808 249.288,114.808 C249.068,114.808 248.9,114.896 248.782,115.072 L248.496,115.072 L248.496,111.64 L248.848,111.64 C249.083,112.666 249.362,113.392 249.684,113.818 C250.154,114.419 250.806,114.72 251.642,114.72 C252.2,114.72 252.643,114.577 252.973,114.291 C253.303,114.005 253.468,113.62 253.468,113.136 C253.468,112.476 253.087,111.926 252.324,111.486 L251.048,110.76 C250.11,110.232 249.446,109.726 249.057,109.242 C248.669,108.758 248.474,108.208 248.474,107.592 C248.474,106.8 248.757,106.151 249.321,105.645 C249.886,105.139 250.601,104.886 251.466,104.886 C251.95,104.886 252.405,104.955 252.83,105.095 C253.256,105.234 253.512,105.304 253.6,105.304 M256.075,106.338 L256.075,105.986 C256.999,105.707 258.055,105.333 259.243,104.864 L259.375,104.908 L259.375,106.602 C260.313,105.443 261.369,104.864 262.543,104.864 C263.613,104.864 264.493,105.304 265.183,106.184 C265.872,107.064 266.217,108.186 266.217,109.55 C266.217,111.148 265.773,112.49 264.886,113.576 C263.998,114.661 262.902,115.204 261.597,115.204 C261.127,115.204 260.735,115.138 260.42,115.006 C260.104,114.874 259.756,114.624 259.375,114.258 L259.375,117.712 C259.375,118.401 259.492,118.845 259.727,119.043 C259.961,119.241 260.489,119.347 261.311,119.362 L261.311,119.758 L255.987,119.758 L255.987,119.384 C256.632,119.325 257.05,119.2 257.241,119.01 C257.431,118.819 257.527,118.438 257.527,117.866 L257.527,107.57 C257.527,107.056 257.468,106.719 257.351,106.558 C257.233,106.396 256.991,106.316 256.625,106.316 C256.39,106.316 256.207,106.323 256.075,106.338 M259.375,107.636 L259.375,113.048 C259.375,113.37 259.628,113.693 260.134,114.016 C260.64,114.338 261.149,114.5 261.663,114.5 C262.455,114.5 263.096,114.122 263.588,113.367 C264.079,112.611 264.325,111.625 264.325,110.408 C264.325,109.132 264.079,108.109 263.588,107.339 C263.096,106.569 262.44,106.184 261.619,106.184 C261.105,106.184 260.603,106.345 260.112,106.668 C259.62,106.99 259.375,107.313 259.375,107.636 M268.131,106.338 C267.808,106.338 267.5,106.36 267.207,106.404 L267.207,106.074 C268.233,105.78 269.37,105.377 270.617,104.864 L270.705,104.93 L270.705,112.74 C270.705,113.532 270.796,114.034 270.98,114.247 C271.163,114.459 271.614,114.595 272.333,114.654 L272.333,114.984 L267.119,114.984 L267.119,114.654 C267.881,114.61 268.362,114.478 268.56,114.258 C268.758,114.038 268.857,113.532 268.857,112.74 L268.857,107.636 C268.857,107.152 268.802,106.814 268.692,106.624 C268.582,106.433 268.395,106.338 268.131,106.338 M269.583,99.9576 C269.905,99.9576 270.177,100.068 270.397,100.288 C270.617,100.508 270.727,100.772 270.727,101.08 C270.727,101.402 270.617,101.67 270.397,101.883 C270.177,102.095 269.905,102.202 269.583,102.202 C269.275,102.202 269.014,102.092 268.802,101.872 C268.589,101.652 268.483,101.388 268.483,101.08 C268.483,100.772 268.593,100.508 268.813,100.288 C269.033,100.068 269.289,99.9576 269.583,99.9576 M273.096,106.228 L273.096,105.854 C274.181,105.531 275.193,105.201 276.132,104.864 L276.286,104.908 L276.286,106.646 C277.034,105.942 277.624,105.469 278.057,105.227 C278.49,104.985 278.963,104.864 279.476,104.864 C280.283,104.864 280.917,105.153 281.379,105.733 C281.841,106.312 282.072,107.122 282.072,108.164 L282.072,113.202 C282.072,113.744 282.16,114.107 282.336,114.291 C282.512,114.474 282.871,114.595 283.414,114.654 L283.414,114.984 L278.838,114.984 L278.838,114.654 C279.395,114.61 279.766,114.463 279.949,114.214 C280.132,113.964 280.224,113.495 280.224,112.806 L280.224,108.208 C280.224,106.785 279.689,106.074 278.618,106.074 C278.251,106.074 277.914,106.158 277.606,106.327 C277.298,106.495 276.88,106.829 276.352,107.328 L276.352,113.51 C276.352,113.906 276.455,114.184 276.66,114.346 C276.865,114.507 277.247,114.61 277.804,114.654 L277.804,114.984 L273.14,114.984 L273.14,114.654 C273.697,114.61 274.064,114.481 274.24,114.269 C274.416,114.056 274.504,113.634 274.504,113.004 L274.504,107.548 C274.504,107.005 274.445,106.635 274.328,106.437 C274.211,106.239 273.998,106.14 273.69,106.14 C273.411,106.14 273.213,106.169 273.096,106.228"/>
<path class="" d="M399.74,102.224 C399.506,102.224 399.304,102.139 399.135,101.971 C398.967,101.802 398.835,101.611 398.739,101.399 C398.644,101.186 398.497,100.995 398.299,100.827 C398.101,100.658 397.863,100.574 397.584,100.574 C396.748,100.574 396.33,101.226 396.33,102.532 L396.33,105.084 L399.036,105.084 L399.036,105.788 L396.352,105.788 L396.352,112.696 C396.352,113.517 396.47,114.041 396.704,114.269 C396.939,114.496 397.504,114.624 398.398,114.654 L398.398,114.984 L392.678,114.984 L392.678,114.654 C393.47,114.61 393.973,114.474 394.185,114.247 C394.398,114.019 394.504,113.502 394.504,112.696 L394.504,105.788 L392.7,105.788 L392.7,105.084 L394.504,105.084 C394.534,103.441 394.842,102.176 395.428,101.289 C396.015,100.401 396.998,99.9576 398.376,99.9576 C399.036,99.9576 399.583,100.086 400.015,100.343 C400.448,100.599 400.664,100.926 400.664,101.322 C400.664,101.571 400.573,101.784 400.389,101.96 C400.206,102.136 399.99,102.224 399.74,102.224 M407.283,107.02 C407.063,107.02 406.792,106.891 406.469,106.635 C406.147,106.378 405.934,106.25 405.831,106.25 C405.538,106.25 405.208,106.462 404.841,106.888 C404.475,107.313 404.291,107.702 404.291,108.054 L404.291,113.004 C404.291,113.634 404.416,114.06 404.665,114.28 C404.915,114.5 405.413,114.624 406.161,114.654 L406.161,114.984 L400.881,114.984 L400.881,114.654 C401.585,114.522 402.022,114.375 402.19,114.214 C402.359,114.052 402.443,113.693 402.443,113.136 L402.443,107.636 C402.443,107.152 402.388,106.811 402.278,106.613 C402.168,106.415 401.974,106.316 401.695,106.316 C401.461,106.316 401.204,106.345 400.925,106.404 L400.925,106.052 C402.099,105.67 403.184,105.274 404.181,104.864 L404.291,104.908 L404.291,106.932 C404.834,106.154 405.296,105.615 405.677,105.315 C406.059,105.014 406.477,104.864 406.931,104.864 C407.313,104.864 407.61,104.966 407.822,105.172 C408.035,105.377 408.141,105.663 408.141,106.03 C408.141,106.338 408.064,106.58 407.91,106.756 C407.756,106.932 407.547,107.02 407.283,107.02 M410.374,108.89 C410.403,109.814 410.528,110.609 410.748,111.277 C410.968,111.944 411.254,112.443 411.606,112.773 C411.958,113.103 412.313,113.337 412.673,113.477 C413.032,113.616 413.41,113.686 413.806,113.686 C414.51,113.686 415.122,113.51 415.643,113.158 C416.163,112.806 416.688,112.212 417.216,111.376 L417.568,111.53 C417.113,112.718 416.482,113.627 415.676,114.258 C414.869,114.888 413.945,115.204 412.904,115.204 C411.642,115.204 410.641,114.76 409.901,113.873 C409.16,112.985 408.79,111.786 408.79,110.276 C408.79,108.648 409.219,107.339 410.077,106.349 C410.935,105.359 412.038,104.864 413.388,104.864 C414.502,104.864 415.368,105.197 415.984,105.865 C416.6,106.532 416.988,107.54 417.15,108.89 L410.374,108.89 M410.418,108.186 L414.906,108.186 C414.759,107.232 414.532,106.572 414.224,106.206 C413.916,105.839 413.424,105.656 412.75,105.656 C411.43,105.656 410.652,106.499 410.418,108.186 M420.139,108.89 C420.169,109.814 420.293,110.609 420.513,111.277 C420.733,111.944 421.019,112.443 421.371,112.773 C421.723,113.103 422.079,113.337 422.438,113.477 C422.798,113.616 423.175,113.686 423.571,113.686 C424.275,113.686 424.888,113.51 425.408,113.158 C425.929,112.806 426.453,112.212 426.981,111.376 L427.333,111.53 C426.879,112.718 426.248,113.627 425.441,114.258 C424.635,114.888 423.711,115.204 422.669,115.204 C421.408,115.204 420.407,114.76 419.666,113.873 C418.926,112.985 418.555,111.786 418.555,110.276 C418.555,108.648 418.984,107.339 419.842,106.349 C420.7,105.359 421.804,104.864 423.153,104.864 C424.268,104.864 425.133,105.197 425.749,105.865 C426.365,106.532 426.754,107.54 426.915,108.89 L420.139,108.89 M420.183,108.186 L424.671,108.186 C424.525,107.232 424.297,106.572 423.989,106.206 C423.681,105.839 423.19,105.656 422.515,105.656 C421.195,105.656 420.418,106.499 420.183,108.186 M430.895,115.028 C430.895,115.028 430.836,115.042 430.719,115.072 C430.587,115.101 430.448,115.116 430.301,115.116 C429.905,115.116 429.59,115.017 429.355,114.819 C429.12,114.621 429.003,114.346 429.003,113.994 C429.003,113.627 429.124,113.326 429.366,113.092 C429.608,112.857 429.92,112.74 430.301,112.74 C430.8,112.74 431.218,112.927 431.555,113.301 C431.892,113.675 432.061,114.14 432.061,114.698 C432.061,115.358 431.834,115.996 431.379,116.612 C430.924,117.228 430.33,117.719 429.597,118.086 L429.399,117.668 C430.602,116.846 431.203,116.069 431.203,115.336 C431.203,115.13 431.1,115.028 430.895,115.028"/>
<path class="" d="M535.962,108.164 C535.566,106.99 535.262,106.253 535.049,105.953 C534.837,105.652 534.488,105.472 534.004,105.414 L534.004,105.084 L538.47,105.084 L538.47,105.414 C537.957,105.487 537.616,105.575 537.447,105.678 C537.279,105.78 537.194,105.956 537.194,106.206 C537.194,106.396 537.319,106.829 537.568,107.504 L539.416,112.432 L541.396,107.548 C541.646,106.932 541.77,106.448 541.77,106.096 C541.77,105.905 541.704,105.762 541.572,105.667 C541.44,105.571 541.184,105.487 540.802,105.414 L540.802,105.084 L543.508,105.084 L543.508,105.414 C543.288,105.487 543.131,105.59 543.035,105.722 C542.94,105.854 542.797,106.147 542.606,106.602 L539.57,114.214 C539.277,114.932 539.072,115.292 538.954,115.292 C538.837,115.292 538.661,114.976 538.426,114.346 L536.424,109.154 L533.96,114.434 C533.696,115.006 533.513,115.292 533.41,115.292 C533.293,115.292 533.102,114.969 532.838,114.324 L529.868,106.8 C529.648,106.242 529.465,105.879 529.318,105.711 C529.172,105.542 528.966,105.443 528.702,105.414 L528.702,105.084 L532.662,105.084 L532.662,105.414 C532.281,105.458 532.017,105.531 531.87,105.634 C531.724,105.736 531.65,105.905 531.65,106.14 C531.65,106.36 531.694,106.58 531.782,106.8 L533.96,112.542 L535.962,108.164 M547.084,107.438 L547.084,112.74 C547.084,113.502 547.172,113.994 547.348,114.214 C547.524,114.434 547.935,114.58 548.58,114.654 L548.58,114.984 L543.828,114.984 L543.828,114.654 C544.459,114.566 544.851,114.419 545.005,114.214 C545.159,114.008 545.236,113.517 545.236,112.74 L545.236,102.378 C545.236,101.908 545.174,101.6 545.049,101.454 C544.924,101.307 544.649,101.234 544.224,101.234 C544.121,101.234 543.997,101.248 543.85,101.278 L543.85,100.926 C544.891,100.647 545.933,100.324 546.974,99.9576 L547.084,100.024 L547.084,106.712 C547.583,106.052 548.085,105.579 548.591,105.293 C549.097,105.007 549.673,104.864 550.318,104.864 C552.122,104.864 553.024,106.03 553.024,108.362 L553.024,112.74 C553.024,113.502 553.094,113.983 553.233,114.181 C553.372,114.379 553.743,114.536 554.344,114.654 L554.344,114.984 L549.68,114.984 L549.68,114.654 C550.311,114.595 550.718,114.448 550.901,114.214 C551.084,113.979 551.176,113.488 551.176,112.74 L551.176,108.384 C551.176,106.829 550.626,106.052 549.526,106.052 C549.101,106.052 548.701,106.158 548.327,106.371 C547.953,106.583 547.539,106.939 547.084,107.438 M559.973,104.864 C561.381,104.864 562.54,105.333 563.449,106.272 C564.358,107.21 564.813,108.398 564.813,109.836 C564.813,111.361 564.344,112.637 563.405,113.664 C562.466,114.69 561.308,115.204 559.929,115.204 C558.55,115.204 557.403,114.709 556.486,113.719 C555.569,112.729 555.111,111.493 555.111,110.012 C555.111,108.501 555.562,107.265 556.464,106.305 C557.366,105.344 558.536,104.864 559.973,104.864 M557.091,108.934 C557.091,110.503 557.377,111.838 557.949,112.938 C558.521,114.038 559.269,114.588 560.193,114.588 C561.014,114.588 561.66,114.236 562.129,113.532 C562.598,112.828 562.833,111.852 562.833,110.606 C562.833,109.095 562.54,107.863 561.953,106.91 C561.366,105.956 560.611,105.48 559.687,105.48 C558.91,105.48 558.283,105.795 557.806,106.426 C557.329,107.056 557.091,107.892 557.091,108.934 M565.908,112.85 C565.908,112.586 565.937,112.34 565.996,112.113 C566.055,111.885 566.157,111.673 566.304,111.475 C566.451,111.277 566.59,111.097 566.722,110.936 C566.854,110.774 567.052,110.609 567.316,110.441 C567.58,110.272 567.8,110.133 567.976,110.023 C568.152,109.913 568.42,109.781 568.779,109.627 C569.138,109.473 569.413,109.355 569.604,109.275 C569.795,109.194 570.095,109.073 570.506,108.912 C570.917,108.75 571.217,108.633 571.408,108.56 L571.408,107.218 C571.408,106 570.851,105.392 569.736,105.392 C569.296,105.392 568.922,105.498 568.614,105.711 C568.306,105.923 568.152,106.176 568.152,106.47 C568.152,106.587 568.17,106.748 568.207,106.954 C568.244,107.159 568.262,107.291 568.262,107.35 C568.262,107.599 568.163,107.815 567.965,107.999 C567.767,108.182 567.536,108.274 567.272,108.274 C567.023,108.274 566.803,108.178 566.612,107.988 C566.421,107.797 566.326,107.577 566.326,107.328 C566.326,106.638 566.682,106.055 567.393,105.579 C568.104,105.102 568.981,104.864 570.022,104.864 C571.225,104.864 572.053,105.153 572.508,105.733 C572.963,106.312 573.19,107.196 573.19,108.384 L573.19,112.674 C573.19,113.158 573.238,113.491 573.333,113.675 C573.428,113.858 573.601,113.95 573.85,113.95 C574.158,113.95 574.481,113.81 574.818,113.532 L574.818,114.104 C574.437,114.529 574.103,114.819 573.817,114.973 C573.531,115.127 573.205,115.204 572.838,115.204 C572.383,115.204 572.05,115.079 571.837,114.83 C571.624,114.58 571.489,114.17 571.43,113.598 C570.169,114.668 569.098,115.204 568.218,115.204 C567.543,115.204 566.99,114.984 566.557,114.544 C566.124,114.104 565.908,113.539 565.908,112.85 M571.408,112.278 L571.408,109.088 C570.088,109.572 569.164,110.041 568.636,110.496 C568.108,110.95 567.844,111.5 567.844,112.146 C567.844,112.747 567.991,113.194 568.284,113.488 C568.577,113.781 568.893,113.928 569.23,113.928 C569.729,113.928 570.264,113.759 570.836,113.422 C571.071,113.29 571.225,113.15 571.298,113.004 C571.371,112.857 571.408,112.615 571.408,112.278"/>
<path class="" d="M299.155,266.733 C300.563,266.733 301.721,267.202 302.631,268.141 C303.54,269.08 303.995,270.268 303.995,271.705 C303.995,273.23 303.525,274.506 302.587,275.533 C301.648,276.56 300.489,277.073 299.111,277.073 C297.732,277.073 296.584,276.578 295.668,275.588 C294.751,274.598 294.293,273.362 294.293,271.881 C294.293,270.37 294.744,269.135 295.646,268.174 C296.548,267.213 297.717,266.733 299.155,266.733 M296.273,270.803 C296.273,272.372 296.559,273.707 297.131,274.807 C297.703,275.907 298.451,276.457 299.375,276.457 C300.196,276.457 300.841,276.105 301.311,275.401 C301.78,274.697 302.015,273.722 302.015,272.475 C302.015,270.964 301.721,269.732 301.135,268.779 C300.548,267.826 299.793,267.349 298.869,267.349 C298.091,267.349 297.464,267.664 296.988,268.295 C296.511,268.926 296.273,269.762 296.273,270.803 M305.09,274.719 C305.09,274.455 305.119,274.209 305.178,273.982 C305.236,273.755 305.339,273.542 305.486,273.344 C305.632,273.146 305.772,272.966 305.904,272.805 C306.036,272.644 306.234,272.479 306.498,272.31 C306.762,272.141 306.982,272.002 307.158,271.892 C307.334,271.782 307.601,271.65 307.961,271.496 C308.32,271.342 308.595,271.225 308.786,271.144 C308.976,271.063 309.277,270.942 309.688,270.781 C310.098,270.62 310.399,270.502 310.59,270.429 L310.59,269.087 C310.59,267.87 310.032,267.261 308.918,267.261 C308.478,267.261 308.104,267.367 307.796,267.58 C307.488,267.793 307.334,268.046 307.334,268.339 C307.334,268.456 307.352,268.618 307.389,268.823 C307.425,269.028 307.444,269.16 307.444,269.219 C307.444,269.468 307.345,269.685 307.147,269.868 C306.949,270.051 306.718,270.143 306.454,270.143 C306.204,270.143 305.984,270.048 305.794,269.857 C305.603,269.666 305.508,269.446 305.508,269.197 C305.508,268.508 305.863,267.925 306.575,267.448 C307.286,266.971 308.162,266.733 309.204,266.733 C310.406,266.733 311.235,267.023 311.69,267.602 C312.144,268.181 312.372,269.065 312.372,270.253 L312.372,274.543 C312.372,275.027 312.419,275.361 312.515,275.544 C312.61,275.727 312.782,275.819 313.032,275.819 C313.34,275.819 313.662,275.68 314,275.401 L314,275.973 C313.618,276.398 313.285,276.688 312.999,276.842 C312.713,276.996 312.386,277.073 312.02,277.073 C311.565,277.073 311.231,276.948 311.019,276.699 C310.806,276.45 310.67,276.039 310.612,275.467 C309.35,276.538 308.28,277.073 307.4,277.073 C306.725,277.073 306.171,276.853 305.739,276.413 C305.306,275.973 305.09,275.408 305.09,274.719 M310.59,274.147 L310.59,270.957 C309.27,271.441 308.346,271.91 307.818,272.365 C307.29,272.82 307.026,273.37 307.026,274.015 C307.026,274.616 307.172,275.064 307.466,275.357 C307.759,275.65 308.074,275.797 308.412,275.797 C308.91,275.797 309.446,275.628 310.018,275.291 C310.252,275.159 310.406,275.02 310.48,274.873 C310.553,274.726 310.59,274.484 310.59,274.147"/>
<polyline class="" fill="none" stroke="#000000" stroke-width="1.52" stroke-linejoin="bevel" points="287.848,108.937 295.942,108.937"/>
<polyline class="" fill="none" stroke="#000000" stroke-width="1.52" stroke-linejoin="bevel" points="587.919,108.937 596.013,108.937"/>
<polyline class="" fill="none" stroke="#000000" stroke-width="1.52" stroke-linejoin="bevel" points="166.765,270.806 174.859,270.806"/>
</svg>
