<?xml version="1.0" encoding="UTF-8" standalone="no"?>
<svg width="611px" height="367px" viewBox="0 0 611 367"
 xmlns="http://www.w3.org/2000/svg" xmlns:xlink="http://www.w3.org/1999/xlink" version="1.2" baseProfile="tiny">
<title>Sweetness</title>
<desc>Generated by MuseScore 2.1.0</desc>
<path class="" stroke="#000000" stroke-width="0.94" stroke-linecap="round" stroke-linejoin="round" fill-rule="evenodd" d="M332.598,18.0959 C340.651,10.9004 364.812,10.9004 372.865,18.0959 C364.812,13.0502 340.651,13.0502 332.598,18.0959"/>
<path class="" stroke="#000000" stroke-width="0.94" stroke-linecap="round" stroke-linejoin="round" fill-rule="evenodd" d="M423.746,31.5321 C431.799,24.3366 455.96,24.3366 464.013,31.5321 C455.96,26.4864 431.799,26.4864 423.746,31.5321"/>
<path class="" stroke="#000000" stroke-width="0.94" stroke-linecap="round" stroke-linejoin="round" fill-rule="evenodd" d="M539.585,16.0804 C556.817,-2.70589 591.282,-2.70589 608.514,16.0804 C591.282,-0.556092 556.817,-0.556092 539.585,16.0804"/>
<path class="" stroke="#000000" stroke-width="0.94" stroke-linecap="round" stroke-linejoin="round" fill-rule="evenodd" d="M99.0374,229.17 C150.696,198.046 372.744,222.882 416.249,264.651 C372.505,225.018 150.457,200.182 99.0374,229.17"/>
<path class="" stroke="#000000" stroke-width="0.94" stroke-linecap="round" stroke-linejoin="round" fill-rule="evenodd" d="M334.459,271.436 C347.517,260.437 386.691,260.437 399.749,271.436 C386.691,262.587 347.517,262.587 334.459,271.436"/>
<path class="" stroke="#000000" stroke-width="0.94" stroke-linecap="round" stroke-linejoin="round" fill-rule="evenodd" d="M334.459,295.486 C347.517,304.336 386.691,304.336 399.749,295.486 C386.691,306.485 347.517,306.485 334.459,295.486"/>
<polyline class="" stroke="#000000" stroke-width="1.07" stroke-linejoin="bevel" points="2.18306,41.6093 242.657,41.6093"/>
<polyline class="" stroke="#000000" stroke-width="1.07" stroke-linejoin="bevel" points="2.18306,55.0455 242.657,55.0455"/>
<polyline class="" stroke="#000000" stroke-width="1.07" stroke-linejoin="bevel" points="2.18306,68.4817 242.657,68.4817"/>
<polyline class="" stroke="#000000" stroke-width="1.07" stroke-linejoin="bevel" points="2.18306,81.9179 242.657,81.9179"/>
<polyline class="" stroke="#000000" stroke-width="1.07" stroke-linejoin="bevel" points="2.18306,95.3541 242.657,95.3541"/>
<polyline class="" stroke="#000000" stroke-width="1.07" stroke-linejoin="bevel" points="242.657,41.6093 608.514,41.6093"/>
<polyline class="" stroke="#000000" stroke-width="1.07" stroke-linejoin="bevel" points="242.657,55.0455 608.514,55.0455"/>
<polyline class="" stroke="#000000" stroke-width="1.07" stroke-linejoin="bevel" points="242.657,68.4817 608.514,68.4817"/>
<polyline class="" stroke="#000000" stroke-width="1.07" stroke-linejoin="bevel" points="242.657,81.9179 608.514,81.9179"/>
<polyline class="" stroke="#000000" stroke-width="1.07" stroke-linejoin="bevel" points="242.657,95.3541 608.514,95.3541"/>
<polyline class="" stroke="#000000" stroke-width="1.07" stroke-linejoin="bevel" points="2.18306,256.589 386.819,256.589"/>
<polyline class="" stroke="#000000" stroke-width="1.07" stroke-linejoin="bevel" points="2.18306,270.025 386.819,270.025"/>
<polyline class="" stroke="#000000" stroke-width="1.07" stroke-linejoin="bevel" points="2.18306,283.461 386.819,283.461"/>
<polyline class="" stroke="#000000" stroke-width="1.07" stroke-linejoin="bevel" points="2.18306,296.897 386.819,296.897"/>
<polyline class="" stroke="#000000" stroke-width="1.07" stroke-linejoin="bevel" points="2.18306,310.334 386.819,310.334"/>
<polyline class="" stroke="#000000" stroke-width="1.07" stroke-linejoin="bevel" points="386.819,256.589 608.514,256.589"/>
<polyline class="" stroke="#000000" stroke-width="1.07" stroke-linejoin="bevel" points="386.819,270.025 608.514,270.025"/>
<polyline class="" stroke="#000000" stroke-width="1.07" stroke-linejoin="bevel" points="386.819,283.461 608.514,283.461"/>
<polyline class="" stroke="#000000" stroke-width="1.07" stroke-linejoin="bevel" points="386.819,296.897 608.514,296.897"/>
<polyline class="" stroke="#000000" stroke-width="1.07" stroke-linejoin="bevel" points="386.819,310.334 608.514,310.334"/>
<polyline class="" stroke="#000000" stroke-width="2.15" stroke-linejoin="bevel" points="241.582,41.6093 241.582,95.3541"/>
<polyline class="" stroke="#000000" stroke-width="2.15" stroke-linejoin="bevel" points="607.439,41.6093 607.439,95.3541"/>
<polyline class="" stroke="#000000" stroke-width="2.15" stroke-linejoin="bevel" points="385.744,256.589 385.744,310.334"/>
<polyline class="" stroke="#000000" stroke-width="2.15" stroke-linejoin="bevel" points="607.439,256.589 607.439,310.334"/>
<polyline class="" stroke="#000000" stroke-width="2.15" stroke-linecap="square" stroke-linejoin="bevel" points="362.643,28.173 388.394,28.173"/>
<polyline class="" stroke="#000000" stroke-width="2.15" stroke-linecap="square" stroke-linejoin="bevel" points="317.069,28.173 342.82,28.173"/>
<polyline class="" stroke="#000000" stroke-width="2.15" stroke-linecap="square" stroke-linejoin="bevel" points="526.709,28.173 552.461,28.173"/>
<polyline class="" stroke="#000000" stroke-width="1.75" stroke-linecap="round" stroke-linejoin="bevel" points="151.235,44.1328 151.235,88.636"/>
<polyline class="" stroke="#000000" stroke-width="1.75" stroke-linecap="round" stroke-linejoin="bevel" points="185.906,44.1328 185.906,88.636"/>
<polyline class="" stroke="#000000" stroke-width="1.75" stroke-linecap="round" stroke-linejoin="bevel" points="275.302,37.4147 275.302,78.5589"/>
<polyline class="" stroke="#000000" stroke-width="1.75" stroke-linecap="round" stroke-linejoin="bevel" points="367.547,30.6966 367.547,80.8072"/>
<polyline class="" stroke="#000000" stroke-width="1.75" stroke-linecap="round" stroke-linejoin="bevel" points="321.973,30.6966 321.973,79.6964"/>
<polyline class="" stroke="#000000" stroke-width="1.75" stroke-linecap="round" stroke-linejoin="bevel" points="458.695,44.1328 458.695,88.636"/>
<polyline class="" stroke="#000000" stroke-width="1.75" stroke-linecap="round" stroke-linejoin="bevel" points="413.121,44.1328 413.121,81.9179"/>
<polyline class="" stroke="#000000" stroke-width="1.75" stroke-linecap="round" stroke-linejoin="bevel" points="531.614,30.6966 531.614,88.636"/>
<polyline class="" stroke="#000000" stroke-width="1.75" stroke-linecap="round" stroke-linejoin="bevel" points="87.9439,252.394 87.9439,310.334"/>
<polyline class="" stroke="#000000" stroke-width="1.75" stroke-linecap="round" stroke-linejoin="bevel" points="227.991,265.83 227.991,313.693"/>
<polyline class="" stroke="#000000" stroke-width="1.75" stroke-linecap="round" stroke-linejoin="bevel" points="157.967,259.112 157.967,320.411"/>
<polyline class="" stroke="#000000" stroke-width="1.75" stroke-linecap="round" stroke-linejoin="bevel" points="271.755,259.112 271.755,310.334"/>
<polyline class="" stroke="#000000" stroke-width="1.75" stroke-linecap="round" stroke-linejoin="bevel" points="315.52,279.267 315.52,330.488"/>
<path class="" transform="matrix(2.68724,0,0,2.68724,150.361,41.6093)" d="M4.39453,-2.75391 C5.01953,-2.75391 5.54688,-2.59115 5.97656,-2.26562 C6.38021,-1.91406 6.58203,-1.47135 6.58203,-0.9375 C6.58203,-0.0390625 6.11979,0.800781 5.19531,1.58203 C4.25781,2.36328 3.25521,2.75391 2.1875,2.75391 C1.5625,2.75391 1.03516,2.59115 0.605469,2.26562 C0.201823,1.91406 0,1.47135 0,0.9375 C0,0.0390625 0.46875,-0.800781 1.40625,-1.58203 C2.31771,-2.36328 3.3138,-2.75391 4.39453,-2.75391"/>
<path class="" transform="matrix(2.68724,0,0,2.68724,185.033,41.6093)" d="M4.39453,-2.75391 C5.01953,-2.75391 5.54688,-2.59115 5.97656,-2.26562 C6.38021,-1.91406 6.58203,-1.47135 6.58203,-0.9375 C6.58203,-0.0390625 6.11979,0.800781 5.19531,1.58203 C4.25781,2.36328 3.25521,2.75391 2.1875,2.75391 C1.5625,2.75391 1.03516,2.59115 0.605469,2.26562 C0.201823,1.91406 0,1.47135 0,0.9375 C0,0.0390625 0.46875,-0.800781 1.40625,-1.58203 C2.31771,-2.36328 3.3138,-2.75391 4.39453,-2.75391"/>
<path class="" transform="matrix(2.68724,0,0,2.68724,274.428,34.8912)" d="M4.39453,-2.75391 C5.01953,-2.75391 5.54688,-2.59115 5.97656,-2.26562 C6.38021,-1.91406 6.58203,-1.47135 6.58203,-0.9375 C6.58203,-0.0390625 6.11979,0.800781 5.19531,1.58203 C4.25781,2.36328 3.25521,2.75391 2.1875,2.75391 C1.5625,2.75391 1.03516,2.59115 0.605469,2.26562 C0.201823,1.91406 0,1.47135 0,0.9375 C0,0.0390625 0.46875,-0.800781 1.40625,-1.58203 C2.31771,-2.36328 3.3138,-2.75391 4.39453,-2.75391"/>
<path class="" transform="matrix(2.68724,0,0,2.68724,366.674,28.173)" d="M4.39453,-2.75391 C5.01953,-2.75391 5.54688,-2.59115 5.97656,-2.26562 C6.38021,-1.91406 6.58203,-1.47135 6.58203,-0.9375 C6.58203,-0.0390625 6.11979,0.800781 5.19531,1.58203 C4.25781,2.36328 3.25521,2.75391 2.1875,2.75391 C1.5625,2.75391 1.03516,2.59115 0.605469,2.26562 C0.201823,1.91406 0,1.47135 0,0.9375 C0,0.0390625 0.46875,-0.800781 1.40625,-1.58203 C2.31771,-2.36328 3.3138,-2.75391 4.39453,-2.75391"/>
<path class="" transform="matrix(2.68724,0,0,2.68724,321.1,28.173)" d="M4.39453,-2.75391 C5.01953,-2.75391 5.54688,-2.59115 5.97656,-2.26562 C6.38021,-1.91406 6.58203,-1.47135 6.58203,-0.9375 C6.58203,-0.0390625 6.11979,0.800781 5.19531,1.58203 C4.25781,2.36328 3.25521,2.75391 2.1875,2.75391 C1.5625,2.75391 1.03516,2.59115 0.605469,2.26562 C0.201823,1.91406 0,1.47135 0,0.9375 C0,0.0390625 0.46875,-0.800781 1.40625,-1.58203 C2.31771,-2.36328 3.3138,-2.75391 4.39453,-2.75391"/>
<path class="" transform="matrix(2.68724,0,0,2.68724,457.822,41.6093)" d="M4.39453,-2.75391 C5.01953,-2.75391 5.54688,-2.59115 5.97656,-2.26562 C6.38021,-1.91406 6.58203,-1.47135 6.58203,-0.9375 C6.58203,-0.0390625 6.11979,0.800781 5.19531,1.58203 C4.25781,2.36328 3.25521,2.75391 2.1875,2.75391 C1.5625,2.75391 1.03516,2.59115 0.605469,2.26562 C0.201823,1.91406 0,1.47135 0,0.9375 C0,0.0390625 0.46875,-0.800781 1.40625,-1.58203 C2.31771,-2.36328 3.3138,-2.75391 4.39453,-2.75391"/>
<path class="" transform="matrix(2.68724,0,0,2.68724,412.248,41.6093)" d="M4.39453,-2.75391 C5.01953,-2.75391 5.54688,-2.59115 5.97656,-2.26562 C6.38021,-1.91406 6.58203,-1.47135 6.58203,-0.9375 C6.58203,-0.0390625 6.11979,0.800781 5.19531,1.58203 C4.25781,2.36328 3.25521,2.75391 2.1875,2.75391 C1.5625,2.75391 1.03516,2.59115 0.605469,2.26562 C0.201823,1.91406 0,1.47135 0,0.9375 C0,0.0390625 0.46875,-0.800781 1.40625,-1.58203 C2.31771,-2.36328 3.3138,-2.75391 4.39453,-2.75391"/>
<path class="" transform="matrix(2.68724,0,0,2.68724,530.74,28.173)" d="M4.39453,-2.75391 C5.01953,-2.75391 5.54688,-2.59115 5.97656,-2.26562 C6.38021,-1.91406 6.58203,-1.47135 6.58203,-0.9375 C6.58203,-0.0390625 6.11979,0.800781 5.19531,1.58203 C4.25781,2.36328 3.25521,2.75391 2.1875,2.75391 C1.5625,2.75391 1.03516,2.59115 0.605469,2.26562 C0.201823,1.91406 0,1.47135 0,0.9375 C0,0.0390625 0.46875,-0.800781 1.40625,-1.58203 C2.31771,-2.36328 3.3138,-2.75391 4.39453,-2.75391"/>
<path class="" transform="matrix(2.68724,0,0,2.68724,530.74,41.6093)" d="M4.39453,-2.75391 C5.01953,-2.75391 5.54688,-2.59115 5.97656,-2.26562 C6.38021,-1.91406 6.58203,-1.47135 6.58203,-0.9375 C6.58203,-0.0390625 6.11979,0.800781 5.19531,1.58203 C4.25781,2.36328 3.25521,2.75391 2.1875,2.75391 C1.5625,2.75391 1.03516,2.59115 0.605469,2.26562 C0.201823,1.91406 0,1.47135 0,0.9375 C0,0.0390625 0.46875,-0.800781 1.40625,-1.58203 C2.31771,-2.36328 3.3138,-2.75391 4.39453,-2.75391"/>
<path class="" transform="matrix(2.68724,0,0,2.68724,87.0706,249.871)" d="M4.39453,-2.75391 C5.01953,-2.75391 5.54688,-2.59115 5.97656,-2.26562 C6.38021,-1.91406 6.58203,-1.47135 6.58203,-0.9375 C6.58203,-0.0390625 6.11979,0.800781 5.19531,1.58203 C4.25781,2.36328 3.25521,2.75391 2.1875,2.75391 C1.5625,2.75391 1.03516,2.59115 0.605469,2.26562 C0.201823,1.91406 0,1.47135 0,0.9375 C0,0.0390625 0.46875,-0.800781 1.40625,-1.58203 C2.31771,-2.36328 3.3138,-2.75391 4.39453,-2.75391"/>
<path class="" transform="matrix(2.68724,0,0,2.68724,87.0706,263.307)" d="M4.39453,-2.75391 C5.01953,-2.75391 5.54688,-2.59115 5.97656,-2.26562 C6.38021,-1.91406 6.58203,-1.47135 6.58203,-0.9375 C6.58203,-0.0390625 6.11979,0.800781 5.19531,1.58203 C4.25781,2.36328 3.25521,2.75391 2.1875,2.75391 C1.5625,2.75391 1.03516,2.59115 0.605469,2.26562 C0.201823,1.91406 0,1.47135 0,0.9375 C0,0.0390625 0.46875,-0.800781 1.40625,-1.58203 C2.31771,-2.36328 3.3138,-2.75391 4.39453,-2.75391"/>
<path class="" transform="matrix(2.68724,0,0,2.68724,227.117,263.307)" d="M4.39453,-2.75391 C5.01953,-2.75391 5.54688,-2.59115 5.97656,-2.26562 C6.38021,-1.91406 6.58203,-1.47135 6.58203,-0.9375 C6.58203,-0.0390625 6.11979,0.800781 5.19531,1.58203 C4.25781,2.36328 3.25521,2.75391 2.1875,2.75391 C1.5625,2.75391 1.03516,2.59115 0.605469,2.26562 C0.201823,1.91406 0,1.47135 0,0.9375 C0,0.0390625 0.46875,-0.800781 1.40625,-1.58203 C2.31771,-2.36328 3.3138,-2.75391 4.39453,-2.75391"/>
<path class="" transform="matrix(2.68724,0,0,2.68724,227.117,276.743)" d="M4.39453,-2.75391 C5.01953,-2.75391 5.54688,-2.59115 5.97656,-2.26562 C6.38021,-1.91406 6.58203,-1.47135 6.58203,-0.9375 C6.58203,-0.0390625 6.11979,0.800781 5.19531,1.58203 C4.25781,2.36328 3.25521,2.75391 2.1875,2.75391 C1.5625,2.75391 1.03516,2.59115 0.605469,2.26562 C0.201823,1.91406 0,1.47135 0,0.9375 C0,0.0390625 0.46875,-0.800781 1.40625,-1.58203 C2.31771,-2.36328 3.3138,-2.75391 4.39453,-2.75391"/>
<path class="" transform="matrix(2.68724,0,0,2.68724,157.094,256.589)" d="M4.39453,-2.75391 C5.01953,-2.75391 5.54688,-2.59115 5.97656,-2.26562 C6.38021,-1.91406 6.58203,-1.47135 6.58203,-0.9375 C6.58203,-0.0390625 6.11979,0.800781 5.19531,1.58203 C4.25781,2.36328 3.25521,2.75391 2.1875,2.75391 C1.5625,2.75391 1.03516,2.59115 0.605469,2.26562 C0.201823,1.91406 0,1.47135 0,0.9375 C0,0.0390625 0.46875,-0.800781 1.40625,-1.58203 C2.31771,-2.36328 3.3138,-2.75391 4.39453,-2.75391"/>
<path class="" transform="matrix(2.68724,0,0,2.68724,157.094,276.743)" d="M4.39453,-2.75391 C5.01953,-2.75391 5.54688,-2.59115 5.97656,-2.26562 C6.38021,-1.91406 6.58203,-1.47135 6.58203,-0.9375 C6.58203,-0.0390625 6.11979,0.800781 5.19531,1.58203 C4.25781,2.36328 3.25521,2.75391 2.1875,2.75391 C1.5625,2.75391 1.03516,2.59115 0.605469,2.26562 C0.201823,1.91406 0,1.47135 0,0.9375 C0,0.0390625 0.46875,-0.800781 1.40625,-1.58203 C2.31771,-2.36328 3.3138,-2.75391 4.39453,-2.75391"/>
<path class="" transform="matrix(2.68724,0,0,2.68724,270.882,256.589)" d="M4.39453,-2.75391 C5.01953,-2.75391 5.54688,-2.59115 5.97656,-2.26562 C6.38021,-1.91406 6.58203,-1.47135 6.58203,-0.9375 C6.58203,-0.0390625 6.11979,0.800781 5.19531,1.58203 C4.25781,2.36328 3.25521,2.75391 2.1875,2.75391 C1.5625,2.75391 1.03516,2.59115 0.605469,2.26562 C0.201823,1.91406 0,1.47135 0,0.9375 C0,0.0390625 0.46875,-0.800781 1.40625,-1.58203 C2.31771,-2.36328 3.3138,-2.75391 4.39453,-2.75391"/>
<path class="" transform="matrix(2.68724,0,0,2.68724,270.882,270.025)" d="M4.39453,-2.75391 C5.01953,-2.75391 5.54688,-2.59115 5.97656,-2.26562 C6.38021,-1.91406 6.58203,-1.47135 6.58203,-0.9375 C6.58203,-0.0390625 6.11979,0.800781 5.19531,1.58203 C4.25781,2.36328 3.25521,2.75391 2.1875,2.75391 C1.5625,2.75391 1.03516,2.59115 0.605469,2.26562 C0.201823,1.91406 0,1.47135 0,0.9375 C0,0.0390625 0.46875,-0.800781 1.40625,-1.58203 C2.31771,-2.36328 3.3138,-2.75391 4.39453,-2.75391"/>
<path class="" transform="matrix(2.68724,0,0,2.68724,314.646,276.743)" d="M4.39453,-2.75391 C5.01953,-2.75391 5.54688,-2.59115 5.97656,-2.26562 C6.38021,-1.91406 6.58203,-1.47135 6.58203,-0.9375 C6.58203,-0.0390625 6.11979,0.800781 5.19531,1.58203 C4.25781,2.36328 3.25521,2.75391 2.1875,2.75391 C1.5625,2.75391 1.03516,2.59115 0.605469,2.26562 C0.201823,1.91406 0,1.47135 0,0.9375 C0,0.0390625 0.46875,-0.800781 1.40625,-1.58203 C2.31771,-2.36328 3.3138,-2.75391 4.39453,-2.75391"/>
<path class="" transform="matrix(2.68724,0,0,2.68724,402.943,276.743)" d="M4.29688,-2.24609 C3.82812,-2.24609 3.48958,-2.08333 3.28125,-1.75781 C3.04688,-1.44531 2.92969,-1.02214 2.92969,-0.488281 C2.92969,0.123698 3.09245,0.651042 3.41797,1.09375 C3.74349,1.52344 4.10156,1.82292 4.49219,1.99219 C4.84375,2.16146 5.21484,2.24609 5.60547,2.24609 C6.0612,2.24609 6.40625,2.08333 6.64062,1.75781 C6.86198,1.43229 6.97266,1.00911 6.97266,0.488281 C6.97266,-0.123698 6.8099,-0.651042 6.48438,-1.09375 C6.15885,-1.51042 5.80729,-1.8099 5.42969,-1.99219 C5.05208,-2.16146 4.67448,-2.24609 4.29688,-2.24609 M4.96094,-2.75391 C6.36719,-2.75391 7.53906,-2.48047 8.47656,-1.93359 C9.42708,-1.38672 9.90234,-0.742188 9.90234,0 C9.90234,0.794271 9.41406,1.44531 8.4375,1.95312 C7.46094,2.48698 6.30208,2.75391 4.96094,2.75391 C3.58073,2.75391 2.40885,2.48047 1.44531,1.93359 C0.481771,1.38672 0,0.742188 0,0 C0,-0.794271 0.494792,-1.44531 1.48438,-1.95312 C2.46094,-2.48698 3.61979,-2.75391 4.96094,-2.75391"/>
<path class="" transform="matrix(2.68724,0,0,2.68724,314.646,290.179)" d="M4.39453,-2.75391 C5.01953,-2.75391 5.54688,-2.59115 5.97656,-2.26562 C6.38021,-1.91406 6.58203,-1.47135 6.58203,-0.9375 C6.58203,-0.0390625 6.11979,0.800781 5.19531,1.58203 C4.25781,2.36328 3.25521,2.75391 2.1875,2.75391 C1.5625,2.75391 1.03516,2.59115 0.605469,2.26562 C0.201823,1.91406 0,1.47135 0,0.9375 C0,0.0390625 0.46875,-0.800781 1.40625,-1.58203 C2.31771,-2.36328 3.3138,-2.75391 4.39453,-2.75391"/>
<path class="" transform="matrix(2.68724,0,0,2.68724,402.943,290.179)" d="M4.29688,-2.24609 C3.82812,-2.24609 3.48958,-2.08333 3.28125,-1.75781 C3.04688,-1.44531 2.92969,-1.02214 2.92969,-0.488281 C2.92969,0.123698 3.09245,0.651042 3.41797,1.09375 C3.74349,1.52344 4.10156,1.82292 4.49219,1.99219 C4.84375,2.16146 5.21484,2.24609 5.60547,2.24609 C6.0612,2.24609 6.40625,2.08333 6.64062,1.75781 C6.86198,1.43229 6.97266,1.00911 6.97266,0.488281 C6.97266,-0.123698 6.8099,-0.651042 6.48438,-1.09375 C6.15885,-1.51042 5.80729,-1.8099 5.42969,-1.99219 C5.05208,-2.16146 4.67448,-2.24609 4.29688,-2.24609 M4.96094,-2.75391 C6.36719,-2.75391 7.53906,-2.48047 8.47656,-1.93359 C9.42708,-1.38672 9.90234,-0.742188 9.90234,0 C9.90234,0.794271 9.41406,1.44531 8.4375,1.95312 C7.46094,2.48698 6.30208,2.75391 4.96094,2.75391 C3.58073,2.75391 2.40885,2.48047 1.44531,1.93359 C0.481771,1.38672 0,0.742188 0,0 C0,-0.794271 0.494792,-1.44531 1.48438,-1.95312 C2.46094,-2.48698 3.61979,-2.75391 4.96094,-2.75391"/>
<path class="" transform="matrix(2.68724,0,0,2.68724,10.7822,81.9179)" d="M7.34375,-5.11719 C7.34375,-5.11719 7.38281,-5.11719 7.46094,-5.11719 C7.51302,-5.13021 7.55859,-5.13672 7.59766,-5.13672 C9.05599,-5.13672 10.2539,-4.6224 11.1914,-3.59375 C12.1289,-2.57812 12.5977,-1.39323 12.5977,-0.0390625 C12.5977,1.64062 11.901,3.00781 10.5078,4.0625 C10.1432,4.34896 9.66797,4.58333 9.08203,4.76562 C9.14714,5.61198 9.17969,6.29557 9.17969,6.81641 C9.17969,6.92057 9.16667,7.29818 9.14062,7.94922 C9.08854,9.16016 8.67188,10.2083 7.89062,11.0938 C7.13542,11.9661 6.19792,12.4023 5.07812,12.4023 C4.02344,12.4023 3.125,12.0312 2.38281,11.2891 C1.64062,10.5339 1.26953,9.6224 1.26953,8.55469 C1.26953,7.99479 1.48438,7.51953 1.91406,7.12891 C2.35677,6.73828 2.87109,6.54297 3.45703,6.54297 C3.97786,6.54297 4.41406,6.74479 4.76562,7.14844 C5.13021,7.52604 5.3125,7.99479 5.3125,8.55469 C5.3125,9.0625 5.13021,9.4987 4.76562,9.86328 C4.40104,10.2279 3.96484,10.4102 3.45703,10.4102 C3.2487,10.4102 3.04688,10.3711 2.85156,10.293 C3.42448,11.1393 4.1862,11.5625 5.13672,11.5625 C6.03516,11.5625 6.77083,11.1979 7.34375,10.4688 C7.94271,9.71354 8.26823,8.83464 8.32031,7.83203 C8.34635,7.20703 8.35938,6.84896 8.35938,6.75781 C8.35938,6.02865 8.33333,5.42969 8.28125,4.96094 C7.63021,5.0651 7.05078,5.11719 6.54297,5.11719 C4.73307,5.11719 3.1901,4.40104 1.91406,2.96875 C0.664062,1.52344 0.0390625,-0.195312 0.0390625,-2.1875 C0.0390625,-2.60417 0.078125,-3.02734 0.15625,-3.45703 C0.234375,-3.80859 0.332031,-4.19271 0.449219,-4.60938 C0.514323,-4.84375 0.690104,-5.22135 0.976562,-5.74219 C1.08073,-5.89844 1.19792,-6.09375 1.32812,-6.32812 C1.45833,-6.5625 1.54948,-6.71875 1.60156,-6.79688 C1.73177,-7.05729 1.98568,-7.40885 2.36328,-7.85156 C2.46745,-7.96875 2.57487,-8.09896 2.68555,-8.24219 C2.79622,-8.38542 2.89062,-8.5026 2.96875,-8.59375 C3.04688,-8.6849 3.10547,-8.75651 3.14453,-8.80859 C3.18359,-8.86068 3.47656,-9.20573 4.02344,-9.84375 C4.15365,-9.97396 4.2806,-10.1139 4.4043,-10.2637 C4.52799,-10.4134 4.62891,-10.5306 4.70703,-10.6152 C4.78516,-10.6999 4.84375,-10.7617 4.88281,-10.8008 C4.41406,-12.3503 4.12109,-13.5872 4.00391,-14.5117 C3.91276,-15.2539 3.86719,-16.2695 3.86719,-17.5586 C3.86719,-18.6914 4.1276,-19.7526 4.64844,-20.7422 C5.15625,-21.7708 5.86589,-22.6107 6.77734,-23.2617 C6.84245,-23.3008 6.90755,-23.3203 6.97266,-23.3203 C7.0638,-23.3203 7.12891,-23.3008 7.16797,-23.2617 C7.87109,-22.4154 8.47656,-21.3151 8.98438,-19.9609 C9.50521,-18.6068 9.76562,-17.3763 9.76562,-16.2695 C9.76562,-15.0195 9.46615,-13.8477 8.86719,-12.7539 C8.1901,-11.5951 7.31771,-10.3971 6.25,-9.16016 C6.52344,-8.30078 6.88802,-6.95312 7.34375,-5.11719 M9.00391,3.96484 C9.68099,3.71745 10.2083,3.29427 10.5859,2.69531 C11.0026,2.1224 11.2109,1.47786 11.2109,0.761719 C11.2109,-0.16276 10.8984,-0.983073 10.2734,-1.69922 C9.63542,-2.44141 8.82161,-2.85807 7.83203,-2.94922 C8.39193,-0.201823 8.78255,2.10286 9.00391,3.96484 M1.44531,-0.546875 C1.44531,0.742188 1.96615,1.875 3.00781,2.85156 C4.07552,3.80208 5.27344,4.27734 6.60156,4.27734 C7.14844,4.27734 7.68229,4.23828 8.20312,4.16016 C7.99479,2.18099 7.58464,-0.188802 6.97266,-2.94922 C6.23047,-2.87109 5.63802,-2.61068 5.19531,-2.16797 C4.76562,-1.71224 4.55078,-1.19792 4.55078,-0.625 C4.55078,0.364583 5.07812,1.16536 6.13281,1.77734 C6.22396,1.86849 6.26953,1.96615 6.26953,2.07031 C6.26953,2.17448 6.22396,2.27214 6.13281,2.36328 C6.05469,2.45443 5.95703,2.5 5.83984,2.5 C5.82682,2.5 5.76823,2.48698 5.66406,2.46094 C4.92188,2.05729 4.34896,1.53646 3.94531,0.898438 C3.56771,0.221354 3.37891,-0.46224 3.37891,-1.15234 C3.37891,-2.05078 3.65885,-2.86458 4.21875,-3.59375 C4.80469,-4.32292 5.56641,-4.79167 6.50391,-5 C6.13932,-6.45833 5.83984,-7.59766 5.60547,-8.41797 C5.39714,-8.18359 5.14648,-7.90039 4.85352,-7.56836 C4.56055,-7.23633 4.38802,-7.03776 4.33594,-6.97266 C3.86719,-6.36068 3.50911,-5.88542 3.26172,-5.54688 C2.81901,-4.9349 2.49349,-4.40755 2.28516,-3.96484 C2.0638,-3.47005 1.86849,-2.92969 1.69922,-2.34375 C1.52995,-1.78385 1.44531,-1.1849 1.44531,-0.546875 M7.96875,-20.4102 C6.99219,-19.9284 6.22396,-19.2383 5.66406,-18.3398 C5.09115,-17.4154 4.80469,-16.4193 4.80469,-15.3516 C4.80469,-14.4141 5.03906,-13.151 5.50781,-11.5625 C6.44531,-12.6953 7.14844,-13.7435 7.61719,-14.707 C8.11198,-15.7227 8.35938,-16.7839 8.35938,-17.8906 C8.35938,-18.724 8.22917,-19.5638 7.96875,-20.4102"/>
<path class="" transform="matrix(2.68724,0,0,2.68724,10.7822,296.897)" d="M7.34375,-5.11719 C7.34375,-5.11719 7.38281,-5.11719 7.46094,-5.11719 C7.51302,-5.13021 7.55859,-5.13672 7.59766,-5.13672 C9.05599,-5.13672 10.2539,-4.6224 11.1914,-3.59375 C12.1289,-2.57812 12.5977,-1.39323 12.5977,-0.0390625 C12.5977,1.64062 11.901,3.00781 10.5078,4.0625 C10.1432,4.34896 9.66797,4.58333 9.08203,4.76562 C9.14714,5.61198 9.17969,6.29557 9.17969,6.81641 C9.17969,6.92057 9.16667,7.29818 9.14062,7.94922 C9.08854,9.16016 8.67188,10.2083 7.89062,11.0938 C7.13542,11.9661 6.19792,12.4023 5.07812,12.4023 C4.02344,12.4023 3.125,12.0312 2.38281,11.2891 C1.64062,10.5339 1.26953,9.6224 1.26953,8.55469 C1.26953,7.99479 1.48438,7.51953 1.91406,7.12891 C2.35677,6.73828 2.87109,6.54297 3.45703,6.54297 C3.97786,6.54297 4.41406,6.74479 4.76562,7.14844 C5.13021,7.52604 5.3125,7.99479 5.3125,8.55469 C5.3125,9.0625 5.13021,9.4987 4.76562,9.86328 C4.40104,10.2279 3.96484,10.4102 3.45703,10.4102 C3.2487,10.4102 3.04688,10.3711 2.85156,10.293 C3.42448,11.1393 4.1862,11.5625 5.13672,11.5625 C6.03516,11.5625 6.77083,11.1979 7.34375,10.4688 C7.94271,9.71354 8.26823,8.83464 8.32031,7.83203 C8.34635,7.20703 8.35938,6.84896 8.35938,6.75781 C8.35938,6.02865 8.33333,5.42969 8.28125,4.96094 C7.63021,5.0651 7.05078,5.11719 6.54297,5.11719 C4.73307,5.11719 3.1901,4.40104 1.91406,2.96875 C0.664062,1.52344 0.0390625,-0.195312 0.0390625,-2.1875 C0.0390625,-2.60417 0.078125,-3.02734 0.15625,-3.45703 C0.234375,-3.80859 0.332031,-4.19271 0.449219,-4.60938 C0.514323,-4.84375 0.690104,-5.22135 0.976562,-5.74219 C1.08073,-5.89844 1.19792,-6.09375 1.32812,-6.32812 C1.45833,-6.5625 1.54948,-6.71875 1.60156,-6.79688 C1.73177,-7.05729 1.98568,-7.40885 2.36328,-7.85156 C2.46745,-7.96875 2.57487,-8.09896 2.68555,-8.24219 C2.79622,-8.38542 2.89062,-8.5026 2.96875,-8.59375 C3.04688,-8.6849 3.10547,-8.75651 3.14453,-8.80859 C3.18359,-8.86068 3.47656,-9.20573 4.02344,-9.84375 C4.15365,-9.97396 4.2806,-10.1139 4.4043,-10.2637 C4.52799,-10.4134 4.62891,-10.5306 4.70703,-10.6152 C4.78516,-10.6999 4.84375,-10.7617 4.88281,-10.8008 C4.41406,-12.3503 4.12109,-13.5872 4.00391,-14.5117 C3.91276,-15.2539 3.86719,-16.2695 3.86719,-17.5586 C3.86719,-18.6914 4.1276,-19.7526 4.64844,-20.7422 C5.15625,-21.7708 5.86589,-22.6107 6.77734,-23.2617 C6.84245,-23.3008 6.90755,-23.3203 6.97266,-23.3203 C7.0638,-23.3203 7.12891,-23.3008 7.16797,-23.2617 C7.87109,-22.4154 8.47656,-21.3151 8.98438,-19.9609 C9.50521,-18.6068 9.76562,-17.3763 9.76562,-16.2695 C9.76562,-15.0195 9.46615,-13.8477 8.86719,-12.7539 C8.1901,-11.5951 7.31771,-10.3971 6.25,-9.16016 C6.52344,-8.30078 6.88802,-6.95312 7.34375,-5.11719 M9.00391,3.96484 C9.68099,3.71745 10.2083,3.29427 10.5859,2.69531 C11.0026,2.1224 11.2109,1.47786 11.2109,0.761719 C11.2109,-0.16276 10.8984,-0.983073 10.2734,-1.69922 C9.63542,-2.44141 8.82161,-2.85807 7.83203,-2.94922 C8.39193,-0.201823 8.78255,2.10286 9.00391,3.96484 M1.44531,-0.546875 C1.44531,0.742188 1.96615,1.875 3.00781,2.85156 C4.07552,3.80208 5.27344,4.27734 6.60156,4.27734 C7.14844,4.27734 7.68229,4.23828 8.20312,4.16016 C7.99479,2.18099 7.58464,-0.188802 6.97266,-2.94922 C6.23047,-2.87109 5.63802,-2.61068 5.19531,-2.16797 C4.76562,-1.71224 4.55078,-1.19792 4.55078,-0.625 C4.55078,0.364583 5.07812,1.16536 6.13281,1.77734 C6.22396,1.86849 6.26953,1.96615 6.26953,2.07031 C6.26953,2.17448 6.22396,2.27214 6.13281,2.36328 C6.05469,2.45443 5.95703,2.5 5.83984,2.5 C5.82682,2.5 5.76823,2.48698 5.66406,2.46094 C4.92188,2.05729 4.34896,1.53646 3.94531,0.898438 C3.56771,0.221354 3.37891,-0.46224 3.37891,-1.15234 C3.37891,-2.05078 3.65885,-2.86458 4.21875,-3.59375 C4.80469,-4.32292 5.56641,-4.79167 6.50391,-5 C6.13932,-6.45833 5.83984,-7.59766 5.60547,-8.41797 C5.39714,-8.18359 5.14648,-7.90039 4.85352,-7.56836 C4.56055,-7.23633 4.38802,-7.03776 4.33594,-6.97266 C3.86719,-6.36068 3.50911,-5.88542 3.26172,-5.54688 C2.81901,-4.9349 2.49349,-4.40755 2.28516,-3.96484 C2.0638,-3.47005 1.86849,-2.92969 1.69922,-2.34375 C1.52995,-1.78385 1.44531,-1.1849 1.44531,-0.546875 M7.96875,-20.4102 C6.99219,-19.9284 6.22396,-19.2383 5.66406,-18.3398 C5.09115,-17.4154 4.80469,-16.4193 4.80469,-15.3516 C4.80469,-14.4141 5.03906,-13.151 5.50781,-11.5625 C6.44531,-12.6953 7.14844,-13.7435 7.61719,-14.707 C8.11198,-15.7227 8.35938,-16.7839 8.35938,-17.8906 C8.35938,-18.724 8.22917,-19.5638 7.96875,-20.4102"/>
<path class="" transform="matrix(2.68724,0,0,2.68724,51.6409,68.4817)" d="M0.917969,-0.820312 L0.917969,0.722656 C0.917969,1.26953 0.94401,1.70573 0.996094,2.03125 C1.42578,1.66667 1.73177,1.39323 1.91406,1.21094 C2.1224,1.0026 2.33073,0.716146 2.53906,0.351562 C2.7474,-0.0130208 2.85156,-0.377604 2.85156,-0.742188 C2.85156,-1.10677 2.77344,-1.41927 2.61719,-1.67969 C2.46094,-1.9401 2.2526,-2.07031 1.99219,-2.07031 C1.67969,-2.07031 1.41927,-1.95312 1.21094,-1.71875 C1.01562,-1.45833 0.917969,-1.15885 0.917969,-0.820312 M0.0976562,2.75391 L-0.15625,-9.14062 C0.0260417,-9.24479 0.208333,-9.29688 0.390625,-9.29688 C0.572917,-9.29688 0.755208,-9.24479 0.9375,-9.14062 L0.78125,-2.24609 C1.3151,-2.70182 1.92708,-2.92969 2.61719,-2.92969 C3.125,-2.92969 3.54818,-2.72135 3.88672,-2.30469 C4.22526,-1.88802 4.39453,-1.41276 4.39453,-0.878906 C4.39453,-0.540365 4.28385,-0.182292 4.0625,0.195312 C3.85417,0.546875 3.63281,0.820312 3.39844,1.01562 C3.26823,1.11979 2.9362,1.38021 2.40234,1.79688 C2.24609,1.91406 2.06055,2.05078 1.8457,2.20703 C1.63086,2.36328 1.4974,2.46094 1.44531,2.5 C1.35417,2.55208 1.26953,2.65625 1.19141,2.8125 C1.10026,2.94271 0.996094,3.05339 0.878906,3.14453 C0.78776,3.22266 0.677083,3.26172 0.546875,3.26172 C0.416667,3.26172 0.3125,3.21615 0.234375,3.125 C0.143229,3.03385 0.0976562,2.91016 0.0976562,2.75391"/>
<path class="" transform="matrix(2.68724,0,0,2.68724,51.6409,283.461)" d="M0.917969,-0.820312 L0.917969,0.722656 C0.917969,1.26953 0.94401,1.70573 0.996094,2.03125 C1.42578,1.66667 1.73177,1.39323 1.91406,1.21094 C2.1224,1.0026 2.33073,0.716146 2.53906,0.351562 C2.7474,-0.0130208 2.85156,-0.377604 2.85156,-0.742188 C2.85156,-1.10677 2.77344,-1.41927 2.61719,-1.67969 C2.46094,-1.9401 2.2526,-2.07031 1.99219,-2.07031 C1.67969,-2.07031 1.41927,-1.95312 1.21094,-1.71875 C1.01562,-1.45833 0.917969,-1.15885 0.917969,-0.820312 M0.0976562,2.75391 L-0.15625,-9.14062 C0.0260417,-9.24479 0.208333,-9.29688 0.390625,-9.29688 C0.572917,-9.29688 0.755208,-9.24479 0.9375,-9.14062 L0.78125,-2.24609 C1.3151,-2.70182 1.92708,-2.92969 2.61719,-2.92969 C3.125,-2.92969 3.54818,-2.72135 3.88672,-2.30469 C4.22526,-1.88802 4.39453,-1.41276 4.39453,-0.878906 C4.39453,-0.540365 4.28385,-0.182292 4.0625,0.195312 C3.85417,0.546875 3.63281,0.820312 3.39844,1.01562 C3.26823,1.11979 2.9362,1.38021 2.40234,1.79688 C2.24609,1.91406 2.06055,2.05078 1.8457,2.20703 C1.63086,2.36328 1.4974,2.46094 1.44531,2.5 C1.35417,2.55208 1.26953,2.65625 1.19141,2.8125 C1.10026,2.94271 0.996094,3.05339 0.878906,3.14453 C0.78776,3.22266 0.677083,3.26172 0.546875,3.26172 C0.416667,3.26172 0.3125,3.21615 0.234375,3.125 C0.143229,3.03385 0.0976562,2.91016 0.0976562,2.75391"/>
<path class="" transform="matrix(2.68724,0,0,2.68724,70.4097,55.0455)" d="M4.49219,-4.74609 C4.88281,-4.74609 5.21484,-4.79167 5.48828,-4.88281 C5.76172,-4.97396 5.9375,-5.01953 6.01562,-5.01953 C6.10677,-5.01953 6.17839,-4.99349 6.23047,-4.94141 C6.26953,-4.90234 6.29557,-4.85677 6.30859,-4.80469 C6.30859,-4.77865 6.29557,-4.73958 6.26953,-4.6875 L0.585938,1.91406 L3.92578,1.91406 L3.92578,-0.703125 C3.92578,-0.872396 3.97135,-1.01562 4.0625,-1.13281 C4.21875,-1.26302 4.34896,-1.34115 4.45312,-1.36719 C4.6224,-1.44531 4.83073,-1.6276 5.07812,-1.91406 C5.28646,-2.14844 5.53385,-2.55859 5.82031,-3.14453 C5.85938,-3.22266 5.91797,-3.26172 5.99609,-3.26172 C6.15234,-3.26172 6.24349,-3.17057 6.26953,-2.98828 L6.26953,1.91406 L7.69531,1.91406 C7.8776,1.91406 7.98177,2.01172 8.00781,2.20703 C8.00781,2.40234 7.90365,2.5 7.69531,2.5 L6.26953,2.5 L6.26953,2.65625 C6.26953,3.17708 6.39974,3.61979 6.66016,3.98438 C6.95964,4.34896 7.3112,4.53125 7.71484,4.53125 C7.87109,4.53125 7.94922,4.60938 7.94922,4.76562 C7.94922,4.92188 7.87109,5 7.71484,5 C7.44141,5 6.9987,4.96094 6.38672,4.88281 C5.82682,4.79167 5.39062,4.74609 5.07812,4.74609 C4.7526,4.74609 4.31641,4.79167 3.76953,4.88281 C3.18359,4.96094 2.7474,5 2.46094,5 C2.30469,5 2.22656,4.92188 2.22656,4.76562 C2.22656,4.60938 2.30469,4.53125 2.46094,4.53125 C2.86458,4.53125 3.21615,4.34896 3.51562,3.98438 C3.78906,3.61979 3.92578,3.17708 3.92578,2.65625 L3.92578,2.5 L0.585938,2.5 C0.364583,2.5 0.208333,2.44792 0.117188,2.34375 C0.0130208,2.26562 -0.0390625,2.16146 -0.0390625,2.03125 C-0.0390625,1.99219 0.0585938,1.85547 0.253906,1.62109 C0.47526,1.36068 0.709635,1.04167 0.957031,0.664062 C1.24349,0.221354 1.51693,-0.234375 1.77734,-0.703125 C2.0638,-1.23698 2.29167,-1.84896 2.46094,-2.53906 C2.65625,-3.24219 2.75391,-3.95833 2.75391,-4.6875 C2.75391,-4.89583 2.84505,-5 3.02734,-5 C3.06641,-5 3.15104,-4.98047 3.28125,-4.94141 C3.32031,-4.92839 3.40169,-4.90885 3.52539,-4.88281 C3.64909,-4.85677 3.75,-4.83073 3.82812,-4.80469 C4.0625,-4.76562 4.28385,-4.74609 4.49219,-4.74609"/>
<path class="" transform="matrix(2.68724,0,0,2.68724,70.4097,81.9179)" d="M4.49219,-4.74609 C4.88281,-4.74609 5.21484,-4.79167 5.48828,-4.88281 C5.76172,-4.97396 5.9375,-5.01953 6.01562,-5.01953 C6.10677,-5.01953 6.17839,-4.99349 6.23047,-4.94141 C6.26953,-4.90234 6.29557,-4.85677 6.30859,-4.80469 C6.30859,-4.77865 6.29557,-4.73958 6.26953,-4.6875 L0.585938,1.91406 L3.92578,1.91406 L3.92578,-0.703125 C3.92578,-0.872396 3.97135,-1.01562 4.0625,-1.13281 C4.21875,-1.26302 4.34896,-1.34115 4.45312,-1.36719 C4.6224,-1.44531 4.83073,-1.6276 5.07812,-1.91406 C5.28646,-2.14844 5.53385,-2.55859 5.82031,-3.14453 C5.85938,-3.22266 5.91797,-3.26172 5.99609,-3.26172 C6.15234,-3.26172 6.24349,-3.17057 6.26953,-2.98828 L6.26953,1.91406 L7.69531,1.91406 C7.8776,1.91406 7.98177,2.01172 8.00781,2.20703 C8.00781,2.40234 7.90365,2.5 7.69531,2.5 L6.26953,2.5 L6.26953,2.65625 C6.26953,3.17708 6.39974,3.61979 6.66016,3.98438 C6.95964,4.34896 7.3112,4.53125 7.71484,4.53125 C7.87109,4.53125 7.94922,4.60938 7.94922,4.76562 C7.94922,4.92188 7.87109,5 7.71484,5 C7.44141,5 6.9987,4.96094 6.38672,4.88281 C5.82682,4.79167 5.39062,4.74609 5.07812,4.74609 C4.7526,4.74609 4.31641,4.79167 3.76953,4.88281 C3.18359,4.96094 2.7474,5 2.46094,5 C2.30469,5 2.22656,4.92188 2.22656,4.76562 C2.22656,4.60938 2.30469,4.53125 2.46094,4.53125 C2.86458,4.53125 3.21615,4.34896 3.51562,3.98438 C3.78906,3.61979 3.92578,3.17708 3.92578,2.65625 L3.92578,2.5 L0.585938,2.5 C0.364583,2.5 0.208333,2.44792 0.117188,2.34375 C0.0130208,2.26562 -0.0390625,2.16146 -0.0390625,2.03125 C-0.0390625,1.99219 0.0585938,1.85547 0.253906,1.62109 C0.47526,1.36068 0.709635,1.04167 0.957031,0.664062 C1.24349,0.221354 1.51693,-0.234375 1.77734,-0.703125 C2.0638,-1.23698 2.29167,-1.84896 2.46094,-2.53906 C2.65625,-3.24219 2.75391,-3.95833 2.75391,-4.6875 C2.75391,-4.89583 2.84505,-5 3.02734,-5 C3.06641,-5 3.15104,-4.98047 3.28125,-4.94141 C3.32031,-4.92839 3.40169,-4.90885 3.52539,-4.88281 C3.64909,-4.85677 3.75,-4.83073 3.82812,-4.80469 C4.0625,-4.76562 4.28385,-4.74609 4.49219,-4.74609"/>
<path class="" transform="matrix(2.68724,0,0,2.68724,115.69,68.4817)" d="M1.40625,-4.10156 C1.78385,-4.10156 2.07031,-3.9974 2.26562,-3.78906 C2.46094,-3.55469 2.5651,-3.33333 2.57812,-3.125 C2.60417,-2.92969 2.66927,-2.70833 2.77344,-2.46094 C2.89062,-2.2526 3.04036,-2.14844 3.22266,-2.14844 C3.36589,-2.14844 3.58073,-2.3112 3.86719,-2.63672 C4.1276,-2.92318 4.31641,-3.17708 4.43359,-3.39844 C4.4987,-3.52865 4.58984,-3.59375 4.70703,-3.59375 L4.72656,-3.59375 C4.85677,-3.58073 4.94792,-3.51562 5,-3.39844 L2.53906,5 C2.40885,5.13021 2.22656,5.19531 1.99219,5.19531 C1.75781,5.19531 1.57552,5.13021 1.44531,5 L3.78906,-1.52344 C2.95573,-1.22396 2.2526,-1.07422 1.67969,-1.07422 C1.21094,-1.07422 0.807292,-1.22396 0.46875,-1.52344 C0.117188,-1.8099 -0.0585938,-2.1875 -0.0585938,-2.65625 C-0.0585938,-3.0599 0.0846354,-3.39844 0.371094,-3.67188 C0.657552,-3.95833 1.0026,-4.10156 1.40625,-4.10156"/>
<path class="" fill-rule="evenodd" d="M274.428,75.1998 L413.994,78.6014 L413.994,85.3196 L274.428,81.9179 L274.428,75.1998 "/>
<path class="" fill-rule="evenodd" d="M227.117,310.334 L272.628,306.841 L272.628,313.559 L227.117,317.052 L227.117,310.334 "/>
<path class="" transform="matrix(2.68724,0,0,2.68724,150.361,88.636)" d="M4.55078,-14.4727 C4.85026,-14.4727 5.16927,-13.9844 5.50781,-13.0078 C5.83333,-12.0443 5.99609,-11.1263 5.99609,-10.2539 C5.99609,-9.51172 5.8138,-8.77604 5.44922,-8.04688 C5.07161,-7.26562 4.6224,-6.58854 4.10156,-6.01562 L2.5,-4.21875 C2.00521,-3.64583 1.5625,-2.98177 1.17188,-2.22656 C0.807292,-1.4974 0.625,-0.755208 0.625,0 L0,0 L0,-5 L0.625,-5 C0.976562,-5.22135 1.4974,-5.57292 2.1875,-6.05469 C2.5,-6.28906 2.96875,-6.67969 3.59375,-7.22656 C4.10156,-7.69531 4.48568,-8.17708 4.74609,-8.67188 C5.01953,-9.19271 5.15625,-9.72005 5.15625,-10.2539 C5.15625,-11.4909 4.79818,-12.7214 4.08203,-13.9453 C4.08203,-13.9453 4.08203,-13.9714 4.08203,-14.0234 C4.08203,-14.1406 4.12109,-14.2383 4.19922,-14.3164 C4.30339,-14.4206 4.42057,-14.4727 4.55078,-14.4727"/>
<path class="" d="M181.662,139.799 C181.122,138.199 180.707,137.194 180.417,136.784 C180.127,136.374 179.652,136.129 178.992,136.049 L178.992,135.599 L185.082,135.599 L185.082,136.049 C184.382,136.149 183.917,136.269 183.687,136.409 C183.457,136.549 183.342,136.789 183.342,137.129 C183.342,137.389 183.512,137.979 183.852,138.899 L186.372,145.619 L189.072,138.959 C189.412,138.119 189.582,137.459 189.582,136.979 C189.582,136.719 189.492,136.524 189.312,136.394 C189.132,136.264 188.782,136.149 188.262,136.049 L188.262,135.599 L191.952,135.599 L191.952,136.049 C191.652,136.149 191.437,136.289 191.307,136.469 C191.177,136.649 190.982,137.049 190.722,137.669 L186.582,148.049 C186.182,149.029 185.902,149.519 185.742,149.519 C185.582,149.519 185.342,149.089 185.022,148.229 L182.292,141.149 L178.932,148.349 C178.572,149.129 178.322,149.519 178.182,149.519 C178.022,149.519 177.762,149.079 177.402,148.199 L173.352,137.939 C173.052,137.179 172.802,136.684 172.602,136.454 C172.402,136.224 172.122,136.089 171.762,136.049 L171.762,135.599 L177.162,135.599 L177.162,136.049 C176.642,136.109 176.282,136.209 176.082,136.349 C175.882,136.489 175.782,136.719 175.782,137.039 C175.782,137.339 175.842,137.639 175.962,137.939 L178.932,145.769 L181.662,139.799 M192.847,146.189 C192.847,145.829 192.887,145.494 192.967,145.184 C193.047,144.874 193.187,144.584 193.387,144.314 C193.587,144.044 193.777,143.799 193.957,143.579 C194.137,143.359 194.407,143.134 194.767,142.904 C195.127,142.674 195.427,142.484 195.667,142.334 C195.907,142.184 196.272,142.004 196.762,141.794 C197.252,141.584 197.627,141.424 197.887,141.314 C198.147,141.204 198.557,141.039 199.117,140.819 C199.677,140.599 200.087,140.439 200.347,140.339 L200.347,138.509 C200.347,136.849 199.587,136.019 198.067,136.019 C197.467,136.019 196.957,136.164 196.537,136.454 C196.117,136.744 195.907,137.089 195.907,137.489 C195.907,137.649 195.932,137.869 195.982,138.149 C196.032,138.429 196.057,138.609 196.057,138.689 C196.057,139.029 195.922,139.324 195.652,139.574 C195.382,139.824 195.067,139.949 194.707,139.949 C194.367,139.949 194.067,139.819 193.807,139.559 C193.547,139.299 193.417,138.999 193.417,138.659 C193.417,137.719 193.902,136.924 194.872,136.274 C195.842,135.624 197.037,135.299 198.457,135.299 C200.097,135.299 201.227,135.694 201.847,136.484 C202.467,137.274 202.777,138.479 202.777,140.099 L202.777,145.949 C202.777,146.609 202.842,147.064 202.972,147.314 C203.102,147.564 203.337,147.689 203.677,147.689 C204.097,147.689 204.537,147.499 204.997,147.119 L204.997,147.899 C204.477,148.479 204.022,148.874 203.632,149.084 C203.242,149.294 202.797,149.399 202.297,149.399 C201.677,149.399 201.222,149.229 200.932,148.889 C200.642,148.549 200.457,147.989 200.377,147.209 C198.657,148.669 197.197,149.399 195.997,149.399 C195.077,149.399 194.322,149.099 193.732,148.499 C193.142,147.899 192.847,147.129 192.847,146.189 M200.347,145.409 L200.347,141.059 C198.547,141.719 197.287,142.359 196.567,142.979 C195.847,143.599 195.487,144.349 195.487,145.229 C195.487,146.049 195.687,146.659 196.087,147.059 C196.487,147.459 196.917,147.659 197.377,147.659 C198.057,147.659 198.787,147.429 199.567,146.969 C199.887,146.789 200.097,146.599 200.197,146.399 C200.297,146.199 200.347,145.869 200.347,145.409 M213.183,135.899 C213.203,135.899 213.363,135.799 213.663,135.599 L213.993,135.599 L214.113,139.679 L213.663,139.679 C213.323,138.339 212.903,137.389 212.403,136.829 C211.903,136.269 211.223,135.989 210.363,135.989 C209.683,135.989 209.128,136.179 208.698,136.559 C208.268,136.939 208.053,137.429 208.053,138.029 C208.053,138.889 208.483,139.569 209.343,140.069 L212.583,141.989 C213.483,142.529 214.128,143.074 214.518,143.624 C214.908,144.174 215.103,144.819 215.103,145.559 C215.103,146.599 214.688,147.499 213.858,148.259 C213.028,149.019 212.033,149.399 210.873,149.399 C210.373,149.399 209.703,149.309 208.863,149.129 C208.023,148.949 207.503,148.859 207.303,148.859 C207.003,148.859 206.773,148.979 206.613,149.219 L206.223,149.219 L206.223,144.539 L206.703,144.539 C207.023,145.939 207.403,146.929 207.843,147.509 C208.483,148.329 209.373,148.739 210.513,148.739 C211.273,148.739 211.878,148.544 212.328,148.154 C212.778,147.764 213.003,147.239 213.003,146.579 C213.003,145.679 212.483,144.929 211.443,144.329 L209.703,143.339 C208.423,142.619 207.518,141.929 206.988,141.269 C206.458,140.609 206.193,139.859 206.193,139.019 C206.193,137.939 206.578,137.054 207.348,136.364 C208.118,135.674 209.093,135.329 210.273,135.329 C210.933,135.329 211.553,135.424 212.133,135.614 C212.713,135.804 213.063,135.899 213.183,135.899"/>
<path class="" d="M157.676,145.829 L157.676,132.509 C157.676,131.409 157.511,130.704 157.181,130.394 C156.851,130.084 156.046,129.889 154.766,129.809 L154.766,129.239 L163.676,129.239 L163.676,129.809 C162.416,129.869 161.611,130.059 161.261,130.379 C160.911,130.699 160.736,131.409 160.736,132.509 L160.736,145.829 C160.736,146.929 160.916,147.644 161.276,147.974 C161.636,148.304 162.436,148.489 163.676,148.529 L163.676,149.099 L154.766,149.099 L154.766,148.529 C156.026,148.489 156.826,148.309 157.166,147.989 C157.506,147.669 157.676,146.949 157.676,145.829"/>
<path class="" d="M266.829,135.899 C266.849,135.899 267.009,135.799 267.309,135.599 L267.639,135.599 L267.759,139.679 L267.309,139.679 C266.969,138.339 266.549,137.389 266.049,136.829 C265.549,136.269 264.869,135.989 264.009,135.989 C263.329,135.989 262.774,136.179 262.344,136.559 C261.914,136.939 261.699,137.429 261.699,138.029 C261.699,138.889 262.129,139.569 262.989,140.069 L266.229,141.989 C267.129,142.529 267.774,143.074 268.164,143.624 C268.554,144.174 268.749,144.819 268.749,145.559 C268.749,146.599 268.334,147.499 267.504,148.259 C266.674,149.019 265.679,149.399 264.519,149.399 C264.019,149.399 263.349,149.309 262.509,149.129 C261.669,148.949 261.149,148.859 260.949,148.859 C260.649,148.859 260.419,148.979 260.259,149.219 L259.869,149.219 L259.869,144.539 L260.349,144.539 C260.669,145.939 261.049,146.929 261.489,147.509 C262.129,148.329 263.019,148.739 264.159,148.739 C264.919,148.739 265.524,148.544 265.974,148.154 C266.424,147.764 266.649,147.239 266.649,146.579 C266.649,145.679 266.129,144.929 265.089,144.329 L263.349,143.339 C262.069,142.619 261.164,141.929 260.634,141.269 C260.104,140.609 259.839,139.859 259.839,139.019 C259.839,137.939 260.224,137.054 260.994,136.364 C261.764,135.674 262.739,135.329 263.919,135.329 C264.579,135.329 265.199,135.424 265.779,135.614 C266.359,135.804 266.709,135.899 266.829,135.899 M270.209,137.309 L270.209,136.829 C271.469,136.449 272.909,135.939 274.529,135.299 L274.709,135.359 L274.709,137.669 C275.989,136.089 277.429,135.299 279.029,135.299 C280.489,135.299 281.689,135.899 282.629,137.099 C283.569,138.299 284.039,139.829 284.039,141.689 C284.039,143.869 283.434,145.699 282.224,147.179 C281.014,148.659 279.519,149.399 277.739,149.399 C277.099,149.399 276.564,149.309 276.134,149.129 C275.704,148.949 275.229,148.609 274.709,148.109 L274.709,152.819 C274.709,153.759 274.869,154.364 275.189,154.634 C275.509,154.904 276.229,155.049 277.349,155.069 L277.349,155.609 L270.089,155.609 L270.089,155.099 C270.969,155.019 271.539,154.849 271.799,154.589 C272.059,154.329 272.189,153.809 272.189,153.029 L272.189,138.989 C272.189,138.289 272.109,137.829 271.949,137.609 C271.789,137.389 271.459,137.279 270.959,137.279 C270.639,137.279 270.389,137.289 270.209,137.309 M274.709,139.079 L274.709,146.459 C274.709,146.899 275.054,147.339 275.744,147.779 C276.434,148.219 277.129,148.439 277.829,148.439 C278.909,148.439 279.784,147.924 280.454,146.894 C281.124,145.864 281.459,144.519 281.459,142.859 C281.459,141.119 281.124,139.724 280.454,138.674 C279.784,137.624 278.889,137.099 277.769,137.099 C277.069,137.099 276.384,137.319 275.714,137.759 C275.044,138.199 274.709,138.639 274.709,139.079 M286.649,137.309 C286.209,137.309 285.789,137.339 285.389,137.399 L285.389,136.949 C286.789,136.549 288.339,135.999 290.039,135.299 L290.159,135.389 L290.159,146.039 C290.159,147.119 290.284,147.804 290.534,148.094 C290.784,148.384 291.399,148.569 292.379,148.649 L292.379,149.099 L285.269,149.099 L285.269,148.649 C286.309,148.589 286.964,148.409 287.234,148.109 C287.504,147.809 287.639,147.119 287.639,146.039 L287.639,139.079 C287.639,138.419 287.564,137.959 287.414,137.699 C287.264,137.439 287.009,137.309 286.649,137.309 M288.629,128.609 C289.069,128.609 289.439,128.759 289.739,129.059 C290.039,129.359 290.189,129.719 290.189,130.139 C290.189,130.579 290.039,130.944 289.739,131.234 C289.439,131.524 289.069,131.669 288.629,131.669 C288.209,131.669 287.854,131.519 287.564,131.219 C287.274,130.919 287.129,130.559 287.129,130.139 C287.129,129.719 287.279,129.359 287.579,129.059 C287.879,128.759 288.229,128.609 288.629,128.609 M293.417,137.159 L293.417,136.649 C294.897,136.209 296.277,135.759 297.557,135.299 L297.767,135.359 L297.767,137.729 C298.787,136.769 299.592,136.124 300.182,135.794 C300.772,135.464 301.417,135.299 302.117,135.299 C303.217,135.299 304.082,135.694 304.712,136.484 C305.342,137.274 305.657,138.379 305.657,139.799 L305.657,146.669 C305.657,147.409 305.777,147.904 306.017,148.154 C306.257,148.404 306.747,148.569 307.487,148.649 L307.487,149.099 L301.247,149.099 L301.247,148.649 C302.007,148.589 302.512,148.389 302.762,148.049 C303.012,147.709 303.137,147.069 303.137,146.129 L303.137,139.859 C303.137,137.919 302.407,136.949 300.947,136.949 C300.447,136.949 299.987,137.064 299.567,137.294 C299.147,137.524 298.577,137.979 297.857,138.659 L297.857,147.089 C297.857,147.629 297.997,148.009 298.277,148.229 C298.557,148.449 299.077,148.589 299.837,148.649 L299.837,149.099 L293.477,149.099 L293.477,148.649 C294.237,148.589 294.737,148.414 294.977,148.124 C295.217,147.834 295.337,147.259 295.337,146.399 L295.337,138.959 C295.337,138.219 295.257,137.714 295.097,137.444 C294.937,137.174 294.647,137.039 294.227,137.039 C293.847,137.039 293.577,137.079 293.417,137.159"/>
<path class="" d="M311.432,137.159 L311.432,136.649 C312.912,136.209 314.292,135.759 315.572,135.299 L315.782,135.359 L315.782,137.729 C316.802,136.769 317.607,136.124 318.197,135.794 C318.787,135.464 319.432,135.299 320.132,135.299 C321.232,135.299 322.097,135.694 322.727,136.484 C323.357,137.274 323.672,138.379 323.672,139.799 L323.672,146.669 C323.672,147.409 323.792,147.904 324.032,148.154 C324.272,148.404 324.762,148.569 325.502,148.649 L325.502,149.099 L319.262,149.099 L319.262,148.649 C320.022,148.589 320.527,148.389 320.777,148.049 C321.027,147.709 321.152,147.069 321.152,146.129 L321.152,139.859 C321.152,137.919 320.422,136.949 318.962,136.949 C318.462,136.949 318.002,137.064 317.582,137.294 C317.162,137.524 316.592,137.979 315.872,138.659 L315.872,147.089 C315.872,147.629 316.012,148.009 316.292,148.229 C316.572,148.449 317.092,148.589 317.852,148.649 L317.852,149.099 L311.492,149.099 L311.492,148.649 C312.252,148.589 312.752,148.414 312.992,148.124 C313.232,147.834 313.352,147.259 313.352,146.399 L313.352,138.959 C313.352,138.219 313.272,137.714 313.112,137.444 C312.952,137.174 312.662,137.039 312.242,137.039 C311.862,137.039 311.592,137.079 311.432,137.159 M327.648,137.309 C327.208,137.309 326.788,137.339 326.388,137.399 L326.388,136.949 C327.788,136.549 329.338,135.999 331.038,135.299 L331.158,135.389 L331.158,146.039 C331.158,147.119 331.283,147.804 331.533,148.094 C331.783,148.384 332.398,148.569 333.378,148.649 L333.378,149.099 L326.268,149.099 L326.268,148.649 C327.308,148.589 327.963,148.409 328.233,148.109 C328.503,147.809 328.638,147.119 328.638,146.039 L328.638,139.079 C328.638,138.419 328.563,137.959 328.413,137.699 C328.263,137.439 328.008,137.309 327.648,137.309 M329.628,128.609 C330.068,128.609 330.438,128.759 330.738,129.059 C331.038,129.359 331.188,129.719 331.188,130.139 C331.188,130.579 331.038,130.944 330.738,131.234 C330.438,131.524 330.068,131.669 329.628,131.669 C329.208,131.669 328.853,131.519 328.563,131.219 C328.273,130.919 328.128,130.559 328.128,130.139 C328.128,129.719 328.278,129.359 328.578,129.059 C328.878,128.759 329.228,128.609 329.628,128.609 M334.416,137.159 L334.416,136.649 C335.896,136.209 337.276,135.759 338.556,135.299 L338.766,135.359 L338.766,137.729 C339.786,136.769 340.591,136.124 341.181,135.794 C341.771,135.464 342.416,135.299 343.116,135.299 C344.216,135.299 345.081,135.694 345.711,136.484 C346.341,137.274 346.656,138.379 346.656,139.799 L346.656,146.669 C346.656,147.409 346.776,147.904 347.016,148.154 C347.256,148.404 347.746,148.569 348.486,148.649 L348.486,149.099 L342.246,149.099 L342.246,148.649 C343.006,148.589 343.511,148.389 343.761,148.049 C344.011,147.709 344.136,147.069 344.136,146.129 L344.136,139.859 C344.136,137.919 343.406,136.949 341.946,136.949 C341.446,136.949 340.986,137.064 340.566,137.294 C340.146,137.524 339.576,137.979 338.856,138.659 L338.856,147.089 C338.856,147.629 338.996,148.009 339.276,148.229 C339.556,148.449 340.076,148.589 340.836,148.649 L340.836,149.099 L334.476,149.099 L334.476,148.649 C335.236,148.589 335.736,148.414 335.976,148.124 C336.216,147.834 336.336,147.259 336.336,146.399 L336.336,138.959 C336.336,138.219 336.256,137.714 336.096,137.444 C335.936,137.174 335.646,137.039 335.226,137.039 C334.846,137.039 334.576,137.079 334.416,137.159"/>
<path class="" d="M406.444,131.699 C406.124,131.699 405.849,131.584 405.619,131.354 C405.389,131.124 405.209,130.864 405.079,130.574 C404.949,130.284 404.749,130.024 404.479,129.794 C404.209,129.564 403.884,129.449 403.504,129.449 C402.364,129.449 401.794,130.339 401.794,132.119 L401.794,135.599 L405.484,135.599 L405.484,136.559 L401.824,136.559 L401.824,145.979 C401.824,147.099 401.984,147.814 402.304,148.124 C402.624,148.434 403.394,148.609 404.614,148.649 L404.614,149.099 L396.814,149.099 L396.814,148.649 C397.894,148.589 398.579,148.404 398.869,148.094 C399.159,147.784 399.304,147.079 399.304,145.979 L399.304,136.559 L396.844,136.559 L396.844,135.599 L399.304,135.599 C399.344,133.359 399.764,131.634 400.564,130.424 C401.364,129.214 402.704,128.609 404.584,128.609 C405.484,128.609 406.229,128.784 406.819,129.134 C407.409,129.484 407.704,129.929 407.704,130.469 C407.704,130.809 407.579,131.099 407.329,131.339 C407.079,131.579 406.784,131.699 406.444,131.699 M416.732,138.239 C416.432,138.239 416.062,138.064 415.622,137.714 C415.182,137.364 414.892,137.189 414.752,137.189 C414.352,137.189 413.902,137.479 413.402,138.059 C412.902,138.639 412.652,139.169 412.652,139.649 L412.652,146.399 C412.652,147.259 412.822,147.839 413.162,148.139 C413.502,148.439 414.182,148.609 415.202,148.649 L415.202,149.099 L408.002,149.099 L408.002,148.649 C408.962,148.469 409.557,148.269 409.787,148.049 C410.017,147.829 410.132,147.339 410.132,146.579 L410.132,139.079 C410.132,138.419 410.057,137.954 409.907,137.684 C409.757,137.414 409.492,137.279 409.112,137.279 C408.792,137.279 408.442,137.319 408.062,137.399 L408.062,136.919 C409.662,136.399 411.142,135.859 412.502,135.299 L412.652,135.359 L412.652,138.119 C413.392,137.059 414.022,136.324 414.542,135.914 C415.062,135.504 415.632,135.299 416.252,135.299 C416.772,135.299 417.177,135.439 417.467,135.719 C417.757,135.999 417.902,136.389 417.902,136.889 C417.902,137.309 417.797,137.639 417.587,137.879 C417.377,138.119 417.092,138.239 416.732,138.239 M420.956,140.789 C420.996,142.049 421.166,143.134 421.466,144.044 C421.766,144.954 422.156,145.634 422.636,146.084 C423.116,146.534 423.601,146.854 424.091,147.044 C424.581,147.234 425.096,147.329 425.636,147.329 C426.596,147.329 427.431,147.089 428.141,146.609 C428.851,146.129 429.566,145.319 430.286,144.179 L430.766,144.389 C430.146,146.009 429.286,147.249 428.186,148.109 C427.086,148.969 425.826,149.399 424.406,149.399 C422.686,149.399 421.321,148.794 420.311,147.584 C419.301,146.374 418.796,144.739 418.796,142.679 C418.796,140.459 419.381,138.674 420.551,137.324 C421.721,135.974 423.226,135.299 425.066,135.299 C426.586,135.299 427.766,135.754 428.606,136.664 C429.446,137.574 429.976,138.949 430.196,140.789 L420.956,140.789 M421.016,139.829 L427.136,139.829 C426.936,138.529 426.626,137.629 426.206,137.129 C425.786,136.629 425.116,136.379 424.196,136.379 C422.396,136.379 421.336,137.529 421.016,139.829 M434.268,140.789 C434.308,142.049 434.478,143.134 434.778,144.044 C435.078,144.954 435.468,145.634 435.948,146.084 C436.428,146.534 436.913,146.854 437.403,147.044 C437.893,147.234 438.408,147.329 438.948,147.329 C439.908,147.329 440.743,147.089 441.453,146.609 C442.163,146.129 442.878,145.319 443.598,144.179 L444.078,144.389 C443.458,146.009 442.598,147.249 441.498,148.109 C440.398,148.969 439.138,149.399 437.718,149.399 C435.998,149.399 434.633,148.794 433.623,147.584 C432.613,146.374 432.108,144.739 432.108,142.679 C432.108,140.459 432.693,138.674 433.863,137.324 C435.033,135.974 436.538,135.299 438.378,135.299 C439.898,135.299 441.078,135.754 441.918,136.664 C442.758,137.574 443.288,138.949 443.508,140.789 L434.268,140.789 M434.328,139.829 L440.448,139.829 C440.248,138.529 439.938,137.629 439.518,137.129 C439.098,136.629 438.428,136.379 437.508,136.379 C435.708,136.379 434.648,137.529 434.328,139.829 M448.931,149.159 C448.931,149.159 448.851,149.179 448.691,149.219 C448.511,149.259 448.321,149.279 448.121,149.279 C447.581,149.279 447.151,149.144 446.831,148.874 C446.511,148.604 446.351,148.229 446.351,147.749 C446.351,147.249 446.516,146.839 446.846,146.519 C447.176,146.199 447.601,146.039 448.121,146.039 C448.801,146.039 449.371,146.294 449.831,146.804 C450.291,147.314 450.521,147.949 450.521,148.709 C450.521,149.609 450.211,150.479 449.591,151.319 C448.971,152.159 448.161,152.829 447.161,153.329 L446.891,152.759 C448.531,151.639 449.351,150.579 449.351,149.579 C449.351,149.299 449.211,149.159 448.931,149.159"/>
<path class="" d="M316.996,350.279 C318.916,350.279 320.496,350.919 321.736,352.199 C322.976,353.479 323.596,355.099 323.596,357.059 C323.596,359.139 322.956,360.879 321.676,362.279 C320.396,363.679 318.816,364.379 316.936,364.379 C315.056,364.379 313.491,363.704 312.241,362.354 C310.991,361.004 310.366,359.319 310.366,357.299 C310.366,355.239 310.981,353.554 312.211,352.244 C313.441,350.934 315.036,350.279 316.996,350.279 M313.066,355.829 C313.066,357.969 313.456,359.789 314.236,361.289 C315.016,362.789 316.036,363.539 317.296,363.539 C318.416,363.539 319.296,363.059 319.936,362.099 C320.576,361.139 320.896,359.809 320.896,358.109 C320.896,356.049 320.496,354.369 319.696,353.069 C318.896,351.769 317.866,351.119 316.606,351.119 C315.546,351.119 314.691,351.549 314.041,352.409 C313.391,353.269 313.066,354.409 313.066,355.829 M325.085,361.169 C325.085,360.809 325.125,360.474 325.205,360.164 C325.285,359.854 325.425,359.564 325.625,359.294 C325.825,359.024 326.015,358.779 326.195,358.559 C326.375,358.339 326.645,358.114 327.005,357.884 C327.365,357.654 327.665,357.464 327.905,357.314 C328.145,357.164 328.51,356.984 329,356.774 C329.49,356.564 329.865,356.404 330.125,356.294 C330.385,356.184 330.795,356.019 331.355,355.799 C331.915,355.579 332.325,355.419 332.585,355.319 L332.585,353.489 C332.585,351.829 331.825,350.999 330.305,350.999 C329.705,350.999 329.195,351.144 328.775,351.434 C328.355,351.724 328.145,352.069 328.145,352.469 C328.145,352.629 328.17,352.849 328.22,353.129 C328.27,353.409 328.295,353.589 328.295,353.669 C328.295,354.009 328.16,354.304 327.89,354.554 C327.62,354.804 327.305,354.929 326.945,354.929 C326.605,354.929 326.305,354.799 326.045,354.539 C325.785,354.279 325.655,353.979 325.655,353.639 C325.655,352.699 326.14,351.904 327.11,351.254 C328.08,350.604 329.275,350.279 330.695,350.279 C332.335,350.279 333.465,350.674 334.085,351.464 C334.705,352.254 335.015,353.459 335.015,355.079 L335.015,360.929 C335.015,361.589 335.08,362.044 335.21,362.294 C335.34,362.544 335.575,362.669 335.915,362.669 C336.335,362.669 336.775,362.479 337.235,362.099 L337.235,362.879 C336.715,363.459 336.26,363.854 335.87,364.064 C335.48,364.274 335.035,364.379 334.535,364.379 C333.915,364.379 333.46,364.209 333.17,363.869 C332.88,363.529 332.695,362.969 332.615,362.189 C330.895,363.649 329.435,364.379 328.235,364.379 C327.315,364.379 326.56,364.079 325.97,363.479 C325.38,362.879 325.085,362.109 325.085,361.169 M332.585,360.389 L332.585,356.039 C330.785,356.699 329.525,357.339 328.805,357.959 C328.085,358.579 327.725,359.329 327.725,360.209 C327.725,361.029 327.925,361.639 328.325,362.039 C328.725,362.439 329.155,362.639 329.615,362.639 C330.295,362.639 331.025,362.409 331.805,361.949 C332.125,361.769 332.335,361.579 332.435,361.379 C332.535,361.179 332.585,360.849 332.585,360.389"/>
<path class="" d="M539.79,139.799 C539.25,138.199 538.835,137.194 538.545,136.784 C538.255,136.374 537.78,136.129 537.12,136.049 L537.12,135.599 L543.21,135.599 L543.21,136.049 C542.51,136.149 542.045,136.269 541.815,136.409 C541.585,136.549 541.47,136.789 541.47,137.129 C541.47,137.389 541.64,137.979 541.98,138.899 L544.5,145.619 L547.2,138.959 C547.54,138.119 547.71,137.459 547.71,136.979 C547.71,136.719 547.62,136.524 547.44,136.394 C547.26,136.264 546.91,136.149 546.39,136.049 L546.39,135.599 L550.08,135.599 L550.08,136.049 C549.78,136.149 549.565,136.289 549.435,136.469 C549.305,136.649 549.11,137.049 548.85,137.669 L544.71,148.049 C544.31,149.029 544.03,149.519 543.87,149.519 C543.71,149.519 543.47,149.089 543.15,148.229 L540.42,141.149 L537.06,148.349 C536.7,149.129 536.45,149.519 536.31,149.519 C536.15,149.519 535.89,149.079 535.53,148.199 L531.48,137.939 C531.18,137.179 530.93,136.684 530.73,136.454 C530.53,136.224 530.25,136.089 529.89,136.049 L529.89,135.599 L535.29,135.599 L535.29,136.049 C534.77,136.109 534.41,136.209 534.21,136.349 C534.01,136.489 533.91,136.719 533.91,137.039 C533.91,137.339 533.97,137.639 534.09,137.939 L537.06,145.769 L539.79,139.799 M554.965,138.809 L554.965,146.039 C554.965,147.079 555.085,147.749 555.325,148.049 C555.565,148.349 556.125,148.549 557.005,148.649 L557.005,149.099 L550.525,149.099 L550.525,148.649 C551.385,148.529 551.92,148.329 552.13,148.049 C552.34,147.769 552.445,147.099 552.445,146.039 L552.445,131.909 C552.445,131.269 552.36,130.849 552.19,130.649 C552.02,130.449 551.645,130.349 551.065,130.349 C550.925,130.349 550.755,130.369 550.555,130.409 L550.555,129.929 C551.975,129.549 553.395,129.109 554.815,128.609 L554.965,128.699 L554.965,137.819 C555.645,136.919 556.33,136.274 557.02,135.884 C557.71,135.494 558.495,135.299 559.375,135.299 C561.835,135.299 563.065,136.889 563.065,140.069 L563.065,146.039 C563.065,147.079 563.16,147.734 563.35,148.004 C563.54,148.274 564.045,148.489 564.865,148.649 L564.865,149.099 L558.505,149.099 L558.505,148.649 C559.365,148.569 559.92,148.369 560.17,148.049 C560.42,147.729 560.545,147.059 560.545,146.039 L560.545,140.099 C560.545,137.979 559.795,136.919 558.295,136.919 C557.715,136.919 557.17,137.064 556.66,137.354 C556.15,137.644 555.585,138.129 554.965,138.809 M572.542,135.299 C574.462,135.299 576.042,135.939 577.282,137.219 C578.522,138.499 579.142,140.119 579.142,142.079 C579.142,144.159 578.502,145.899 577.222,147.299 C575.942,148.699 574.362,149.399 572.482,149.399 C570.602,149.399 569.037,148.724 567.787,147.374 C566.537,146.024 565.912,144.339 565.912,142.319 C565.912,140.259 566.527,138.574 567.757,137.264 C568.987,135.954 570.582,135.299 572.542,135.299 M568.612,140.849 C568.612,142.989 569.002,144.809 569.782,146.309 C570.562,147.809 571.582,148.559 572.842,148.559 C573.962,148.559 574.842,148.079 575.482,147.119 C576.122,146.159 576.442,144.829 576.442,143.129 C576.442,141.069 576.042,139.389 575.242,138.089 C574.442,136.789 573.412,136.139 572.152,136.139 C571.092,136.139 570.237,136.569 569.587,137.429 C568.937,138.289 568.612,139.429 568.612,140.849 M580.631,146.189 C580.631,145.829 580.671,145.494 580.751,145.184 C580.831,144.874 580.971,144.584 581.171,144.314 C581.371,144.044 581.561,143.799 581.741,143.579 C581.921,143.359 582.191,143.134 582.551,142.904 C582.911,142.674 583.211,142.484 583.451,142.334 C583.691,142.184 584.056,142.004 584.546,141.794 C585.036,141.584 585.411,141.424 585.671,141.314 C585.931,141.204 586.341,141.039 586.901,140.819 C587.461,140.599 587.871,140.439 588.131,140.339 L588.131,138.509 C588.131,136.849 587.371,136.019 585.851,136.019 C585.251,136.019 584.741,136.164 584.321,136.454 C583.901,136.744 583.691,137.089 583.691,137.489 C583.691,137.649 583.716,137.869 583.766,138.149 C583.816,138.429 583.841,138.609 583.841,138.689 C583.841,139.029 583.706,139.324 583.436,139.574 C583.166,139.824 582.851,139.949 582.491,139.949 C582.151,139.949 581.851,139.819 581.591,139.559 C581.331,139.299 581.201,138.999 581.201,138.659 C581.201,137.719 581.686,136.924 582.656,136.274 C583.626,135.624 584.821,135.299 586.241,135.299 C587.881,135.299 589.011,135.694 589.631,136.484 C590.251,137.274 590.561,138.479 590.561,140.099 L590.561,145.949 C590.561,146.609 590.626,147.064 590.756,147.314 C590.886,147.564 591.121,147.689 591.461,147.689 C591.881,147.689 592.321,147.499 592.781,147.119 L592.781,147.899 C592.261,148.479 591.806,148.874 591.416,149.084 C591.026,149.294 590.581,149.399 590.081,149.399 C589.461,149.399 589.006,149.229 588.716,148.889 C588.426,148.549 588.241,147.989 588.161,147.209 C586.441,148.669 584.981,149.399 583.781,149.399 C582.861,149.399 582.106,149.099 581.516,148.499 C580.926,147.899 580.631,147.129 580.631,146.189 M588.131,145.409 L588.131,141.059 C586.331,141.719 585.071,142.359 584.351,142.979 C583.631,143.599 583.271,144.349 583.271,145.229 C583.271,146.049 583.471,146.659 583.871,147.059 C584.271,147.459 584.701,147.659 585.161,147.659 C585.841,147.659 586.571,147.429 587.351,146.969 C587.671,146.789 587.881,146.599 587.981,146.399 C588.081,146.199 588.131,145.869 588.131,145.409"/>
<polyline class="" fill="none" stroke="#000000" stroke-width="2.02" stroke-linejoin="bevel" points="180.872,355.836 191.621,355.836"/>
<polyline class="" fill="none" stroke="#000000" stroke-width="2.02" stroke-linejoin="bevel" points="595.682,140.857 606.431,140.857"/>
</svg>
