<?xml version="1.0" encoding="UTF-8" standalone="no"?>
<svg width="611px" height="317px" viewBox="0 0 611 317"
 xmlns="http://www.w3.org/2000/svg" xmlns:xlink="http://www.w3.org/1999/xlink" version="1.2" baseProfile="tiny">
<title>Sweetness</title>
<desc>Generated by MuseScore 2.1.0</desc>
<path class="" stroke="#000000" stroke-width="0.81" stroke-linecap="round" stroke-linejoin="round" fill-rule="evenodd" d="M538.733,15.506 C556.178,-2.27892 591.069,-2.27892 608.514,15.506 C591.069,-0.432093 556.178,-0.432093 538.733,15.506"/>
<path class="" stroke="#000000" stroke-width="0.81" stroke-linecap="round" stroke-linejoin="round" fill-rule="evenodd" d="M323.857,17.2374 C332.386,9.83142 357.976,9.83142 366.505,17.2374 C357.976,11.6782 332.386,11.6782 323.857,17.2374"/>
<path class="" stroke="#000000" stroke-width="0.81" stroke-linecap="round" stroke-linejoin="round" fill-rule="evenodd" d="M418.272,28.7801 C426.802,21.3741 452.391,21.3741 460.921,28.7801 C452.391,23.2209 426.802,23.2209 418.272,28.7801"/>
<path class="" stroke="#000000" stroke-width="0.81" stroke-linecap="round" stroke-linejoin="round" fill-rule="evenodd" d="M85.3879,198.566 C136.086,170.286 357.936,191.622 402.315,229.046 C357.759,193.46 135.91,172.124 85.3879,198.566"/>
<path class="" stroke="#000000" stroke-width="0.81" stroke-linecap="round" stroke-linejoin="round" fill-rule="evenodd" d="M321.6,234.875 C334.908,223.837 374.833,223.837 388.141,234.875 C374.833,225.684 334.908,225.684 321.6,234.875"/>
<path class="" stroke="#000000" stroke-width="0.81" stroke-linecap="round" stroke-linejoin="round" fill-rule="evenodd" d="M321.6,255.536 C334.908,264.726 374.833,264.726 388.141,255.536 C374.833,266.573 334.908,266.573 321.6,255.536"/>
<polyline class="" stroke="#000000" stroke-width="0.92" stroke-linejoin="bevel" points="2.18306,37.4371 240.104,37.4371"/>
<polyline class="" stroke="#000000" stroke-width="0.92" stroke-linejoin="bevel" points="2.18306,48.9798 240.104,48.9798"/>
<polyline class="" stroke="#000000" stroke-width="0.92" stroke-linejoin="bevel" points="2.18306,60.5225 240.104,60.5225"/>
<polyline class="" stroke="#000000" stroke-width="0.92" stroke-linejoin="bevel" points="2.18306,72.0652 240.104,72.0652"/>
<polyline class="" stroke="#000000" stroke-width="0.92" stroke-linejoin="bevel" points="2.18306,83.6078 240.104,83.6078"/>
<polyline class="" stroke="#000000" stroke-width="0.92" stroke-linejoin="bevel" points="240.104,37.4371 608.514,37.4371"/>
<polyline class="" stroke="#000000" stroke-width="0.92" stroke-linejoin="bevel" points="240.104,48.9798 608.514,48.9798"/>
<polyline class="" stroke="#000000" stroke-width="0.92" stroke-linejoin="bevel" points="240.104,60.5225 608.514,60.5225"/>
<polyline class="" stroke="#000000" stroke-width="0.92" stroke-linejoin="bevel" points="240.104,72.0652 608.514,72.0652"/>
<polyline class="" stroke="#000000" stroke-width="0.92" stroke-linejoin="bevel" points="240.104,83.6078 608.514,83.6078"/>
<polyline class="" stroke="#000000" stroke-width="0.92" stroke-linejoin="bevel" points="2.18306,222.12 377.033,222.12"/>
<polyline class="" stroke="#000000" stroke-width="0.92" stroke-linejoin="bevel" points="2.18306,233.663 377.033,233.663"/>
<polyline class="" stroke="#000000" stroke-width="0.92" stroke-linejoin="bevel" points="2.18306,245.205 377.033,245.205"/>
<polyline class="" stroke="#000000" stroke-width="0.92" stroke-linejoin="bevel" points="2.18306,256.748 377.033,256.748"/>
<polyline class="" stroke="#000000" stroke-width="0.92" stroke-linejoin="bevel" points="2.18306,268.291 377.033,268.291"/>
<polyline class="" stroke="#000000" stroke-width="0.92" stroke-linejoin="bevel" points="377.033,222.12 608.514,222.12"/>
<polyline class="" stroke="#000000" stroke-width="0.92" stroke-linejoin="bevel" points="377.033,233.663 608.514,233.663"/>
<polyline class="" stroke="#000000" stroke-width="0.92" stroke-linejoin="bevel" points="377.033,245.205 608.514,245.205"/>
<polyline class="" stroke="#000000" stroke-width="0.92" stroke-linejoin="bevel" points="377.033,256.748 608.514,256.748"/>
<polyline class="" stroke="#000000" stroke-width="0.92" stroke-linejoin="bevel" points="377.033,268.291 608.514,268.291"/>
<polyline class="" stroke="#000000" stroke-width="1.85" stroke-linejoin="bevel" points="239.181,37.4371 239.181,83.6078"/>
<polyline class="" stroke="#000000" stroke-width="1.85" stroke-linejoin="bevel" points="607.59,37.4371 607.59,83.6078"/>
<polyline class="" stroke="#000000" stroke-width="1.85" stroke-linejoin="bevel" points="376.11,222.12 376.11,268.291"/>
<polyline class="" stroke="#000000" stroke-width="1.85" stroke-linejoin="bevel" points="607.59,222.12 607.59,268.291"/>
<polyline class="" stroke="#000000" stroke-width="1.85" stroke-linecap="square" stroke-linejoin="bevel" points="357.724,25.8945 379.846,25.8945"/>
<polyline class="" stroke="#000000" stroke-width="1.85" stroke-linecap="square" stroke-linejoin="bevel" points="310.516,25.8945 332.638,25.8945"/>
<polyline class="" stroke="#000000" stroke-width="1.85" stroke-linecap="square" stroke-linejoin="bevel" points="527.672,25.8945 549.794,25.8945"/>
<polyline class="" stroke="#000000" stroke-width="1.50" stroke-linecap="round" stroke-linejoin="bevel" points="138.934,39.605 138.934,77.8365"/>
<polyline class="" stroke="#000000" stroke-width="1.50" stroke-linecap="round" stroke-linejoin="bevel" points="177.424,39.605 177.424,77.8365"/>
<polyline class="" stroke="#000000" stroke-width="1.50" stroke-linecap="round" stroke-linejoin="bevel" points="267.521,33.8337 267.521,69.1795"/>
<polyline class="" stroke="#000000" stroke-width="1.50" stroke-linecap="round" stroke-linejoin="bevel" points="361.937,28.0623 361.937,71.1033"/>
<polyline class="" stroke="#000000" stroke-width="1.50" stroke-linecap="round" stroke-linejoin="bevel" points="314.729,28.0623 314.729,70.1414"/>
<polyline class="" stroke="#000000" stroke-width="1.50" stroke-linecap="round" stroke-linejoin="bevel" points="456.352,39.605 456.352,77.8365"/>
<polyline class="" stroke="#000000" stroke-width="1.50" stroke-linecap="round" stroke-linejoin="bevel" points="409.145,39.605 409.145,72.0652"/>
<polyline class="" stroke="#000000" stroke-width="1.50" stroke-linecap="round" stroke-linejoin="bevel" points="531.885,28.0623 531.885,77.8365"/>
<polyline class="" stroke="#000000" stroke-width="1.50" stroke-linecap="round" stroke-linejoin="bevel" points="75.8578,218.517 75.8578,268.291"/>
<polyline class="" stroke="#000000" stroke-width="1.50" stroke-linecap="round" stroke-linejoin="bevel" points="146.465,224.288 146.465,276.948"/>
<polyline class="" stroke="#000000" stroke-width="1.50" stroke-linecap="round" stroke-linejoin="bevel" points="217.071,230.059 217.071,271.176"/>
<polyline class="" stroke="#000000" stroke-width="1.50" stroke-linecap="round" stroke-linejoin="bevel" points="305.33,241.602 305.33,285.605"/>
<polyline class="" stroke="#000000" stroke-width="1.50" stroke-linecap="round" stroke-linejoin="bevel" points="261.201,224.288 261.201,268.291"/>
<path class="" transform="matrix(2.30854,0,0,2.30854,138.183,37.4371)" d="M4.39453,-2.75391 C5.01953,-2.75391 5.54688,-2.59115 5.97656,-2.26562 C6.38021,-1.91406 6.58203,-1.47135 6.58203,-0.9375 C6.58203,-0.0390625 6.11979,0.800781 5.19531,1.58203 C4.25781,2.36328 3.25521,2.75391 2.1875,2.75391 C1.5625,2.75391 1.03516,2.59115 0.605469,2.26562 C0.201823,1.91406 0,1.47135 0,0.9375 C0,0.0390625 0.46875,-0.800781 1.40625,-1.58203 C2.31771,-2.36328 3.3138,-2.75391 4.39453,-2.75391"/>
<path class="" transform="matrix(2.30854,0,0,2.30854,176.673,37.4371)" d="M4.39453,-2.75391 C5.01953,-2.75391 5.54688,-2.59115 5.97656,-2.26562 C6.38021,-1.91406 6.58203,-1.47135 6.58203,-0.9375 C6.58203,-0.0390625 6.11979,0.800781 5.19531,1.58203 C4.25781,2.36328 3.25521,2.75391 2.1875,2.75391 C1.5625,2.75391 1.03516,2.59115 0.605469,2.26562 C0.201823,1.91406 0,1.47135 0,0.9375 C0,0.0390625 0.46875,-0.800781 1.40625,-1.58203 C2.31771,-2.36328 3.3138,-2.75391 4.39453,-2.75391"/>
<path class="" transform="matrix(2.30854,0,0,2.30854,266.771,31.6658)" d="M4.39453,-2.75391 C5.01953,-2.75391 5.54688,-2.59115 5.97656,-2.26562 C6.38021,-1.91406 6.58203,-1.47135 6.58203,-0.9375 C6.58203,-0.0390625 6.11979,0.800781 5.19531,1.58203 C4.25781,2.36328 3.25521,2.75391 2.1875,2.75391 C1.5625,2.75391 1.03516,2.59115 0.605469,2.26562 C0.201823,1.91406 0,1.47135 0,0.9375 C0,0.0390625 0.46875,-0.800781 1.40625,-1.58203 C2.31771,-2.36328 3.3138,-2.75391 4.39453,-2.75391"/>
<path class="" transform="matrix(2.30854,0,0,2.30854,361.186,25.8945)" d="M4.39453,-2.75391 C5.01953,-2.75391 5.54688,-2.59115 5.97656,-2.26562 C6.38021,-1.91406 6.58203,-1.47135 6.58203,-0.9375 C6.58203,-0.0390625 6.11979,0.800781 5.19531,1.58203 C4.25781,2.36328 3.25521,2.75391 2.1875,2.75391 C1.5625,2.75391 1.03516,2.59115 0.605469,2.26562 C0.201823,1.91406 0,1.47135 0,0.9375 C0,0.0390625 0.46875,-0.800781 1.40625,-1.58203 C2.31771,-2.36328 3.3138,-2.75391 4.39453,-2.75391"/>
<path class="" transform="matrix(2.30854,0,0,2.30854,313.979,25.8945)" d="M4.39453,-2.75391 C5.01953,-2.75391 5.54688,-2.59115 5.97656,-2.26562 C6.38021,-1.91406 6.58203,-1.47135 6.58203,-0.9375 C6.58203,-0.0390625 6.11979,0.800781 5.19531,1.58203 C4.25781,2.36328 3.25521,2.75391 2.1875,2.75391 C1.5625,2.75391 1.03516,2.59115 0.605469,2.26562 C0.201823,1.91406 0,1.47135 0,0.9375 C0,0.0390625 0.46875,-0.800781 1.40625,-1.58203 C2.31771,-2.36328 3.3138,-2.75391 4.39453,-2.75391"/>
<path class="" transform="matrix(2.30854,0,0,2.30854,455.602,37.4371)" d="M4.39453,-2.75391 C5.01953,-2.75391 5.54688,-2.59115 5.97656,-2.26562 C6.38021,-1.91406 6.58203,-1.47135 6.58203,-0.9375 C6.58203,-0.0390625 6.11979,0.800781 5.19531,1.58203 C4.25781,2.36328 3.25521,2.75391 2.1875,2.75391 C1.5625,2.75391 1.03516,2.59115 0.605469,2.26562 C0.201823,1.91406 0,1.47135 0,0.9375 C0,0.0390625 0.46875,-0.800781 1.40625,-1.58203 C2.31771,-2.36328 3.3138,-2.75391 4.39453,-2.75391"/>
<path class="" transform="matrix(2.30854,0,0,2.30854,408.394,37.4371)" d="M4.39453,-2.75391 C5.01953,-2.75391 5.54688,-2.59115 5.97656,-2.26562 C6.38021,-1.91406 6.58203,-1.47135 6.58203,-0.9375 C6.58203,-0.0390625 6.11979,0.800781 5.19531,1.58203 C4.25781,2.36328 3.25521,2.75391 2.1875,2.75391 C1.5625,2.75391 1.03516,2.59115 0.605469,2.26562 C0.201823,1.91406 0,1.47135 0,0.9375 C0,0.0390625 0.46875,-0.800781 1.40625,-1.58203 C2.31771,-2.36328 3.3138,-2.75391 4.39453,-2.75391"/>
<path class="" transform="matrix(2.30854,0,0,2.30854,531.134,25.8945)" d="M4.39453,-2.75391 C5.01953,-2.75391 5.54688,-2.59115 5.97656,-2.26562 C6.38021,-1.91406 6.58203,-1.47135 6.58203,-0.9375 C6.58203,-0.0390625 6.11979,0.800781 5.19531,1.58203 C4.25781,2.36328 3.25521,2.75391 2.1875,2.75391 C1.5625,2.75391 1.03516,2.59115 0.605469,2.26562 C0.201823,1.91406 0,1.47135 0,0.9375 C0,0.0390625 0.46875,-0.800781 1.40625,-1.58203 C2.31771,-2.36328 3.3138,-2.75391 4.39453,-2.75391"/>
<path class="" transform="matrix(2.30854,0,0,2.30854,531.134,37.4371)" d="M4.39453,-2.75391 C5.01953,-2.75391 5.54688,-2.59115 5.97656,-2.26562 C6.38021,-1.91406 6.58203,-1.47135 6.58203,-0.9375 C6.58203,-0.0390625 6.11979,0.800781 5.19531,1.58203 C4.25781,2.36328 3.25521,2.75391 2.1875,2.75391 C1.5625,2.75391 1.03516,2.59115 0.605469,2.26562 C0.201823,1.91406 0,1.47135 0,0.9375 C0,0.0390625 0.46875,-0.800781 1.40625,-1.58203 C2.31771,-2.36328 3.3138,-2.75391 4.39453,-2.75391"/>
<path class="" transform="matrix(2.30854,0,0,2.30854,75.1075,216.349)" d="M4.39453,-2.75391 C5.01953,-2.75391 5.54688,-2.59115 5.97656,-2.26562 C6.38021,-1.91406 6.58203,-1.47135 6.58203,-0.9375 C6.58203,-0.0390625 6.11979,0.800781 5.19531,1.58203 C4.25781,2.36328 3.25521,2.75391 2.1875,2.75391 C1.5625,2.75391 1.03516,2.59115 0.605469,2.26562 C0.201823,1.91406 0,1.47135 0,0.9375 C0,0.0390625 0.46875,-0.800781 1.40625,-1.58203 C2.31771,-2.36328 3.3138,-2.75391 4.39453,-2.75391"/>
<path class="" transform="matrix(2.30854,0,0,2.30854,75.1075,227.891)" d="M4.39453,-2.75391 C5.01953,-2.75391 5.54688,-2.59115 5.97656,-2.26562 C6.38021,-1.91406 6.58203,-1.47135 6.58203,-0.9375 C6.58203,-0.0390625 6.11979,0.800781 5.19531,1.58203 C4.25781,2.36328 3.25521,2.75391 2.1875,2.75391 C1.5625,2.75391 1.03516,2.59115 0.605469,2.26562 C0.201823,1.91406 0,1.47135 0,0.9375 C0,0.0390625 0.46875,-0.800781 1.40625,-1.58203 C2.31771,-2.36328 3.3138,-2.75391 4.39453,-2.75391"/>
<path class="" transform="matrix(2.30854,0,0,2.30854,145.714,222.12)" d="M4.39453,-2.75391 C5.01953,-2.75391 5.54688,-2.59115 5.97656,-2.26562 C6.38021,-1.91406 6.58203,-1.47135 6.58203,-0.9375 C6.58203,-0.0390625 6.11979,0.800781 5.19531,1.58203 C4.25781,2.36328 3.25521,2.75391 2.1875,2.75391 C1.5625,2.75391 1.03516,2.59115 0.605469,2.26562 C0.201823,1.91406 0,1.47135 0,0.9375 C0,0.0390625 0.46875,-0.800781 1.40625,-1.58203 C2.31771,-2.36328 3.3138,-2.75391 4.39453,-2.75391"/>
<path class="" transform="matrix(2.30854,0,0,2.30854,145.714,239.434)" d="M4.39453,-2.75391 C5.01953,-2.75391 5.54688,-2.59115 5.97656,-2.26562 C6.38021,-1.91406 6.58203,-1.47135 6.58203,-0.9375 C6.58203,-0.0390625 6.11979,0.800781 5.19531,1.58203 C4.25781,2.36328 3.25521,2.75391 2.1875,2.75391 C1.5625,2.75391 1.03516,2.59115 0.605469,2.26562 C0.201823,1.91406 0,1.47135 0,0.9375 C0,0.0390625 0.46875,-0.800781 1.40625,-1.58203 C2.31771,-2.36328 3.3138,-2.75391 4.39453,-2.75391"/>
<path class="" transform="matrix(2.30854,0,0,2.30854,216.321,227.891)" d="M4.39453,-2.75391 C5.01953,-2.75391 5.54688,-2.59115 5.97656,-2.26562 C6.38021,-1.91406 6.58203,-1.47135 6.58203,-0.9375 C6.58203,-0.0390625 6.11979,0.800781 5.19531,1.58203 C4.25781,2.36328 3.25521,2.75391 2.1875,2.75391 C1.5625,2.75391 1.03516,2.59115 0.605469,2.26562 C0.201823,1.91406 0,1.47135 0,0.9375 C0,0.0390625 0.46875,-0.800781 1.40625,-1.58203 C2.31771,-2.36328 3.3138,-2.75391 4.39453,-2.75391"/>
<path class="" transform="matrix(2.30854,0,0,2.30854,216.321,239.434)" d="M4.39453,-2.75391 C5.01953,-2.75391 5.54688,-2.59115 5.97656,-2.26562 C6.38021,-1.91406 6.58203,-1.47135 6.58203,-0.9375 C6.58203,-0.0390625 6.11979,0.800781 5.19531,1.58203 C4.25781,2.36328 3.25521,2.75391 2.1875,2.75391 C1.5625,2.75391 1.03516,2.59115 0.605469,2.26562 C0.201823,1.91406 0,1.47135 0,0.9375 C0,0.0390625 0.46875,-0.800781 1.40625,-1.58203 C2.31771,-2.36328 3.3138,-2.75391 4.39453,-2.75391"/>
<path class="" transform="matrix(2.30854,0,0,2.30854,304.58,239.434)" d="M4.39453,-2.75391 C5.01953,-2.75391 5.54688,-2.59115 5.97656,-2.26562 C6.38021,-1.91406 6.58203,-1.47135 6.58203,-0.9375 C6.58203,-0.0390625 6.11979,0.800781 5.19531,1.58203 C4.25781,2.36328 3.25521,2.75391 2.1875,2.75391 C1.5625,2.75391 1.03516,2.59115 0.605469,2.26562 C0.201823,1.91406 0,1.47135 0,0.9375 C0,0.0390625 0.46875,-0.800781 1.40625,-1.58203 C2.31771,-2.36328 3.3138,-2.75391 4.39453,-2.75391"/>
<path class="" transform="matrix(2.30854,0,0,2.30854,304.58,250.977)" d="M4.39453,-2.75391 C5.01953,-2.75391 5.54688,-2.59115 5.97656,-2.26562 C6.38021,-1.91406 6.58203,-1.47135 6.58203,-0.9375 C6.58203,-0.0390625 6.11979,0.800781 5.19531,1.58203 C4.25781,2.36328 3.25521,2.75391 2.1875,2.75391 C1.5625,2.75391 1.03516,2.59115 0.605469,2.26562 C0.201823,1.91406 0,1.47135 0,0.9375 C0,0.0390625 0.46875,-0.800781 1.40625,-1.58203 C2.31771,-2.36328 3.3138,-2.75391 4.39453,-2.75391"/>
<path class="" transform="matrix(2.30854,0,0,2.30854,260.45,222.12)" d="M4.39453,-2.75391 C5.01953,-2.75391 5.54688,-2.59115 5.97656,-2.26562 C6.38021,-1.91406 6.58203,-1.47135 6.58203,-0.9375 C6.58203,-0.0390625 6.11979,0.800781 5.19531,1.58203 C4.25781,2.36328 3.25521,2.75391 2.1875,2.75391 C1.5625,2.75391 1.03516,2.59115 0.605469,2.26562 C0.201823,1.91406 0,1.47135 0,0.9375 C0,0.0390625 0.46875,-0.800781 1.40625,-1.58203 C2.31771,-2.36328 3.3138,-2.75391 4.39453,-2.75391"/>
<path class="" transform="matrix(2.30854,0,0,2.30854,260.45,233.663)" d="M4.39453,-2.75391 C5.01953,-2.75391 5.54688,-2.59115 5.97656,-2.26562 C6.38021,-1.91406 6.58203,-1.47135 6.58203,-0.9375 C6.58203,-0.0390625 6.11979,0.800781 5.19531,1.58203 C4.25781,2.36328 3.25521,2.75391 2.1875,2.75391 C1.5625,2.75391 1.03516,2.59115 0.605469,2.26562 C0.201823,1.91406 0,1.47135 0,0.9375 C0,0.0390625 0.46875,-0.800781 1.40625,-1.58203 C2.31771,-2.36328 3.3138,-2.75391 4.39453,-2.75391"/>
<path class="" transform="matrix(2.30854,0,0,2.30854,390.884,239.434)" d="M4.29688,-2.24609 C3.82812,-2.24609 3.48958,-2.08333 3.28125,-1.75781 C3.04688,-1.44531 2.92969,-1.02214 2.92969,-0.488281 C2.92969,0.123698 3.09245,0.651042 3.41797,1.09375 C3.74349,1.52344 4.10156,1.82292 4.49219,1.99219 C4.84375,2.16146 5.21484,2.24609 5.60547,2.24609 C6.0612,2.24609 6.40625,2.08333 6.64062,1.75781 C6.86198,1.43229 6.97266,1.00911 6.97266,0.488281 C6.97266,-0.123698 6.8099,-0.651042 6.48438,-1.09375 C6.15885,-1.51042 5.80729,-1.8099 5.42969,-1.99219 C5.05208,-2.16146 4.67448,-2.24609 4.29688,-2.24609 M4.96094,-2.75391 C6.36719,-2.75391 7.53906,-2.48047 8.47656,-1.93359 C9.42708,-1.38672 9.90234,-0.742188 9.90234,0 C9.90234,0.794271 9.41406,1.44531 8.4375,1.95312 C7.46094,2.48698 6.30208,2.75391 4.96094,2.75391 C3.58073,2.75391 2.40885,2.48047 1.44531,1.93359 C0.481771,1.38672 0,0.742188 0,0 C0,-0.794271 0.494792,-1.44531 1.48438,-1.95312 C2.46094,-2.48698 3.61979,-2.75391 4.96094,-2.75391"/>
<path class="" transform="matrix(2.30854,0,0,2.30854,390.884,250.977)" d="M4.29688,-2.24609 C3.82812,-2.24609 3.48958,-2.08333 3.28125,-1.75781 C3.04688,-1.44531 2.92969,-1.02214 2.92969,-0.488281 C2.92969,0.123698 3.09245,0.651042 3.41797,1.09375 C3.74349,1.52344 4.10156,1.82292 4.49219,1.99219 C4.84375,2.16146 5.21484,2.24609 5.60547,2.24609 C6.0612,2.24609 6.40625,2.08333 6.64062,1.75781 C6.86198,1.43229 6.97266,1.00911 6.97266,0.488281 C6.97266,-0.123698 6.8099,-0.651042 6.48438,-1.09375 C6.15885,-1.51042 5.80729,-1.8099 5.42969,-1.99219 C5.05208,-2.16146 4.67448,-2.24609 4.29688,-2.24609 M4.96094,-2.75391 C6.36719,-2.75391 7.53906,-2.48047 8.47656,-1.93359 C9.42708,-1.38672 9.90234,-0.742188 9.90234,0 C9.90234,0.794271 9.41406,1.44531 8.4375,1.95312 C7.46094,2.48698 6.30208,2.75391 4.96094,2.75391 C3.58073,2.75391 2.40885,2.48047 1.44531,1.93359 C0.481771,1.38672 0,0.742188 0,0 C0,-0.794271 0.494792,-1.44531 1.48438,-1.95312 C2.46094,-2.48698 3.61979,-2.75391 4.96094,-2.75391"/>
<path class="" transform="matrix(2.30854,0,0,2.30854,9.57038,72.0652)" d="M7.34375,-5.11719 C7.34375,-5.11719 7.38281,-5.11719 7.46094,-5.11719 C7.51302,-5.13021 7.55859,-5.13672 7.59766,-5.13672 C9.05599,-5.13672 10.2539,-4.6224 11.1914,-3.59375 C12.1289,-2.57812 12.5977,-1.39323 12.5977,-0.0390625 C12.5977,1.64062 11.901,3.00781 10.5078,4.0625 C10.1432,4.34896 9.66797,4.58333 9.08203,4.76562 C9.14714,5.61198 9.17969,6.29557 9.17969,6.81641 C9.17969,6.92057 9.16667,7.29818 9.14062,7.94922 C9.08854,9.16016 8.67188,10.2083 7.89062,11.0938 C7.13542,11.9661 6.19792,12.4023 5.07812,12.4023 C4.02344,12.4023 3.125,12.0312 2.38281,11.2891 C1.64062,10.5339 1.26953,9.6224 1.26953,8.55469 C1.26953,7.99479 1.48438,7.51953 1.91406,7.12891 C2.35677,6.73828 2.87109,6.54297 3.45703,6.54297 C3.97786,6.54297 4.41406,6.74479 4.76562,7.14844 C5.13021,7.52604 5.3125,7.99479 5.3125,8.55469 C5.3125,9.0625 5.13021,9.4987 4.76562,9.86328 C4.40104,10.2279 3.96484,10.4102 3.45703,10.4102 C3.2487,10.4102 3.04688,10.3711 2.85156,10.293 C3.42448,11.1393 4.1862,11.5625 5.13672,11.5625 C6.03516,11.5625 6.77083,11.1979 7.34375,10.4688 C7.94271,9.71354 8.26823,8.83464 8.32031,7.83203 C8.34635,7.20703 8.35938,6.84896 8.35938,6.75781 C8.35938,6.02865 8.33333,5.42969 8.28125,4.96094 C7.63021,5.0651 7.05078,5.11719 6.54297,5.11719 C4.73307,5.11719 3.1901,4.40104 1.91406,2.96875 C0.664062,1.52344 0.0390625,-0.195312 0.0390625,-2.1875 C0.0390625,-2.60417 0.078125,-3.02734 0.15625,-3.45703 C0.234375,-3.80859 0.332031,-4.19271 0.449219,-4.60938 C0.514323,-4.84375 0.690104,-5.22135 0.976562,-5.74219 C1.08073,-5.89844 1.19792,-6.09375 1.32812,-6.32812 C1.45833,-6.5625 1.54948,-6.71875 1.60156,-6.79688 C1.73177,-7.05729 1.98568,-7.40885 2.36328,-7.85156 C2.46745,-7.96875 2.57487,-8.09896 2.68555,-8.24219 C2.79622,-8.38542 2.89062,-8.5026 2.96875,-8.59375 C3.04688,-8.6849 3.10547,-8.75651 3.14453,-8.80859 C3.18359,-8.86068 3.47656,-9.20573 4.02344,-9.84375 C4.15365,-9.97396 4.2806,-10.1139 4.4043,-10.2637 C4.52799,-10.4134 4.62891,-10.5306 4.70703,-10.6152 C4.78516,-10.6999 4.84375,-10.7617 4.88281,-10.8008 C4.41406,-12.3503 4.12109,-13.5872 4.00391,-14.5117 C3.91276,-15.2539 3.86719,-16.2695 3.86719,-17.5586 C3.86719,-18.6914 4.1276,-19.7526 4.64844,-20.7422 C5.15625,-21.7708 5.86589,-22.6107 6.77734,-23.2617 C6.84245,-23.3008 6.90755,-23.3203 6.97266,-23.3203 C7.0638,-23.3203 7.12891,-23.3008 7.16797,-23.2617 C7.87109,-22.4154 8.47656,-21.3151 8.98438,-19.9609 C9.50521,-18.6068 9.76562,-17.3763 9.76562,-16.2695 C9.76562,-15.0195 9.46615,-13.8477 8.86719,-12.7539 C8.1901,-11.5951 7.31771,-10.3971 6.25,-9.16016 C6.52344,-8.30078 6.88802,-6.95312 7.34375,-5.11719 M9.00391,3.96484 C9.68099,3.71745 10.2083,3.29427 10.5859,2.69531 C11.0026,2.1224 11.2109,1.47786 11.2109,0.761719 C11.2109,-0.16276 10.8984,-0.983073 10.2734,-1.69922 C9.63542,-2.44141 8.82161,-2.85807 7.83203,-2.94922 C8.39193,-0.201823 8.78255,2.10286 9.00391,3.96484 M1.44531,-0.546875 C1.44531,0.742188 1.96615,1.875 3.00781,2.85156 C4.07552,3.80208 5.27344,4.27734 6.60156,4.27734 C7.14844,4.27734 7.68229,4.23828 8.20312,4.16016 C7.99479,2.18099 7.58464,-0.188802 6.97266,-2.94922 C6.23047,-2.87109 5.63802,-2.61068 5.19531,-2.16797 C4.76562,-1.71224 4.55078,-1.19792 4.55078,-0.625 C4.55078,0.364583 5.07812,1.16536 6.13281,1.77734 C6.22396,1.86849 6.26953,1.96615 6.26953,2.07031 C6.26953,2.17448 6.22396,2.27214 6.13281,2.36328 C6.05469,2.45443 5.95703,2.5 5.83984,2.5 C5.82682,2.5 5.76823,2.48698 5.66406,2.46094 C4.92188,2.05729 4.34896,1.53646 3.94531,0.898438 C3.56771,0.221354 3.37891,-0.46224 3.37891,-1.15234 C3.37891,-2.05078 3.65885,-2.86458 4.21875,-3.59375 C4.80469,-4.32292 5.56641,-4.79167 6.50391,-5 C6.13932,-6.45833 5.83984,-7.59766 5.60547,-8.41797 C5.39714,-8.18359 5.14648,-7.90039 4.85352,-7.56836 C4.56055,-7.23633 4.38802,-7.03776 4.33594,-6.97266 C3.86719,-6.36068 3.50911,-5.88542 3.26172,-5.54688 C2.81901,-4.9349 2.49349,-4.40755 2.28516,-3.96484 C2.0638,-3.47005 1.86849,-2.92969 1.69922,-2.34375 C1.52995,-1.78385 1.44531,-1.1849 1.44531,-0.546875 M7.96875,-20.4102 C6.99219,-19.9284 6.22396,-19.2383 5.66406,-18.3398 C5.09115,-17.4154 4.80469,-16.4193 4.80469,-15.3516 C4.80469,-14.4141 5.03906,-13.151 5.50781,-11.5625 C6.44531,-12.6953 7.14844,-13.7435 7.61719,-14.707 C8.11198,-15.7227 8.35938,-16.7839 8.35938,-17.8906 C8.35938,-18.724 8.22917,-19.5638 7.96875,-20.4102"/>
<path class="" transform="matrix(2.30854,0,0,2.30854,9.57038,256.748)" d="M7.34375,-5.11719 C7.34375,-5.11719 7.38281,-5.11719 7.46094,-5.11719 C7.51302,-5.13021 7.55859,-5.13672 7.59766,-5.13672 C9.05599,-5.13672 10.2539,-4.6224 11.1914,-3.59375 C12.1289,-2.57812 12.5977,-1.39323 12.5977,-0.0390625 C12.5977,1.64062 11.901,3.00781 10.5078,4.0625 C10.1432,4.34896 9.66797,4.58333 9.08203,4.76562 C9.14714,5.61198 9.17969,6.29557 9.17969,6.81641 C9.17969,6.92057 9.16667,7.29818 9.14062,7.94922 C9.08854,9.16016 8.67188,10.2083 7.89062,11.0938 C7.13542,11.9661 6.19792,12.4023 5.07812,12.4023 C4.02344,12.4023 3.125,12.0312 2.38281,11.2891 C1.64062,10.5339 1.26953,9.6224 1.26953,8.55469 C1.26953,7.99479 1.48438,7.51953 1.91406,7.12891 C2.35677,6.73828 2.87109,6.54297 3.45703,6.54297 C3.97786,6.54297 4.41406,6.74479 4.76562,7.14844 C5.13021,7.52604 5.3125,7.99479 5.3125,8.55469 C5.3125,9.0625 5.13021,9.4987 4.76562,9.86328 C4.40104,10.2279 3.96484,10.4102 3.45703,10.4102 C3.2487,10.4102 3.04688,10.3711 2.85156,10.293 C3.42448,11.1393 4.1862,11.5625 5.13672,11.5625 C6.03516,11.5625 6.77083,11.1979 7.34375,10.4688 C7.94271,9.71354 8.26823,8.83464 8.32031,7.83203 C8.34635,7.20703 8.35938,6.84896 8.35938,6.75781 C8.35938,6.02865 8.33333,5.42969 8.28125,4.96094 C7.63021,5.0651 7.05078,5.11719 6.54297,5.11719 C4.73307,5.11719 3.1901,4.40104 1.91406,2.96875 C0.664062,1.52344 0.0390625,-0.195312 0.0390625,-2.1875 C0.0390625,-2.60417 0.078125,-3.02734 0.15625,-3.45703 C0.234375,-3.80859 0.332031,-4.19271 0.449219,-4.60938 C0.514323,-4.84375 0.690104,-5.22135 0.976562,-5.74219 C1.08073,-5.89844 1.19792,-6.09375 1.32812,-6.32812 C1.45833,-6.5625 1.54948,-6.71875 1.60156,-6.79688 C1.73177,-7.05729 1.98568,-7.40885 2.36328,-7.85156 C2.46745,-7.96875 2.57487,-8.09896 2.68555,-8.24219 C2.79622,-8.38542 2.89062,-8.5026 2.96875,-8.59375 C3.04688,-8.6849 3.10547,-8.75651 3.14453,-8.80859 C3.18359,-8.86068 3.47656,-9.20573 4.02344,-9.84375 C4.15365,-9.97396 4.2806,-10.1139 4.4043,-10.2637 C4.52799,-10.4134 4.62891,-10.5306 4.70703,-10.6152 C4.78516,-10.6999 4.84375,-10.7617 4.88281,-10.8008 C4.41406,-12.3503 4.12109,-13.5872 4.00391,-14.5117 C3.91276,-15.2539 3.86719,-16.2695 3.86719,-17.5586 C3.86719,-18.6914 4.1276,-19.7526 4.64844,-20.7422 C5.15625,-21.7708 5.86589,-22.6107 6.77734,-23.2617 C6.84245,-23.3008 6.90755,-23.3203 6.97266,-23.3203 C7.0638,-23.3203 7.12891,-23.3008 7.16797,-23.2617 C7.87109,-22.4154 8.47656,-21.3151 8.98438,-19.9609 C9.50521,-18.6068 9.76562,-17.3763 9.76562,-16.2695 C9.76562,-15.0195 9.46615,-13.8477 8.86719,-12.7539 C8.1901,-11.5951 7.31771,-10.3971 6.25,-9.16016 C6.52344,-8.30078 6.88802,-6.95312 7.34375,-5.11719 M9.00391,3.96484 C9.68099,3.71745 10.2083,3.29427 10.5859,2.69531 C11.0026,2.1224 11.2109,1.47786 11.2109,0.761719 C11.2109,-0.16276 10.8984,-0.983073 10.2734,-1.69922 C9.63542,-2.44141 8.82161,-2.85807 7.83203,-2.94922 C8.39193,-0.201823 8.78255,2.10286 9.00391,3.96484 M1.44531,-0.546875 C1.44531,0.742188 1.96615,1.875 3.00781,2.85156 C4.07552,3.80208 5.27344,4.27734 6.60156,4.27734 C7.14844,4.27734 7.68229,4.23828 8.20312,4.16016 C7.99479,2.18099 7.58464,-0.188802 6.97266,-2.94922 C6.23047,-2.87109 5.63802,-2.61068 5.19531,-2.16797 C4.76562,-1.71224 4.55078,-1.19792 4.55078,-0.625 C4.55078,0.364583 5.07812,1.16536 6.13281,1.77734 C6.22396,1.86849 6.26953,1.96615 6.26953,2.07031 C6.26953,2.17448 6.22396,2.27214 6.13281,2.36328 C6.05469,2.45443 5.95703,2.5 5.83984,2.5 C5.82682,2.5 5.76823,2.48698 5.66406,2.46094 C4.92188,2.05729 4.34896,1.53646 3.94531,0.898438 C3.56771,0.221354 3.37891,-0.46224 3.37891,-1.15234 C3.37891,-2.05078 3.65885,-2.86458 4.21875,-3.59375 C4.80469,-4.32292 5.56641,-4.79167 6.50391,-5 C6.13932,-6.45833 5.83984,-7.59766 5.60547,-8.41797 C5.39714,-8.18359 5.14648,-7.90039 4.85352,-7.56836 C4.56055,-7.23633 4.38802,-7.03776 4.33594,-6.97266 C3.86719,-6.36068 3.50911,-5.88542 3.26172,-5.54688 C2.81901,-4.9349 2.49349,-4.40755 2.28516,-3.96484 C2.0638,-3.47005 1.86849,-2.92969 1.69922,-2.34375 C1.52995,-1.78385 1.44531,-1.1849 1.44531,-0.546875 M7.96875,-20.4102 C6.99219,-19.9284 6.22396,-19.2383 5.66406,-18.3398 C5.09115,-17.4154 4.80469,-16.4193 4.80469,-15.3516 C4.80469,-14.4141 5.03906,-13.151 5.50781,-11.5625 C6.44531,-12.6953 7.14844,-13.7435 7.61719,-14.707 C8.11198,-15.7227 8.35938,-16.7839 8.35938,-17.8906 C8.35938,-18.724 8.22917,-19.5638 7.96875,-20.4102"/>
<path class="" transform="matrix(2.30854,0,0,2.30854,44.6709,60.5225)" d="M0.917969,-0.820312 L0.917969,0.722656 C0.917969,1.26953 0.94401,1.70573 0.996094,2.03125 C1.42578,1.66667 1.73177,1.39323 1.91406,1.21094 C2.1224,1.0026 2.33073,0.716146 2.53906,0.351562 C2.7474,-0.0130208 2.85156,-0.377604 2.85156,-0.742188 C2.85156,-1.10677 2.77344,-1.41927 2.61719,-1.67969 C2.46094,-1.9401 2.2526,-2.07031 1.99219,-2.07031 C1.67969,-2.07031 1.41927,-1.95312 1.21094,-1.71875 C1.01562,-1.45833 0.917969,-1.15885 0.917969,-0.820312 M0.0976562,2.75391 L-0.15625,-9.14062 C0.0260417,-9.24479 0.208333,-9.29688 0.390625,-9.29688 C0.572917,-9.29688 0.755208,-9.24479 0.9375,-9.14062 L0.78125,-2.24609 C1.3151,-2.70182 1.92708,-2.92969 2.61719,-2.92969 C3.125,-2.92969 3.54818,-2.72135 3.88672,-2.30469 C4.22526,-1.88802 4.39453,-1.41276 4.39453,-0.878906 C4.39453,-0.540365 4.28385,-0.182292 4.0625,0.195312 C3.85417,0.546875 3.63281,0.820312 3.39844,1.01562 C3.26823,1.11979 2.9362,1.38021 2.40234,1.79688 C2.24609,1.91406 2.06055,2.05078 1.8457,2.20703 C1.63086,2.36328 1.4974,2.46094 1.44531,2.5 C1.35417,2.55208 1.26953,2.65625 1.19141,2.8125 C1.10026,2.94271 0.996094,3.05339 0.878906,3.14453 C0.78776,3.22266 0.677083,3.26172 0.546875,3.26172 C0.416667,3.26172 0.3125,3.21615 0.234375,3.125 C0.143229,3.03385 0.0976562,2.91016 0.0976562,2.75391"/>
<path class="" transform="matrix(2.30854,0,0,2.30854,44.6709,245.205)" d="M0.917969,-0.820312 L0.917969,0.722656 C0.917969,1.26953 0.94401,1.70573 0.996094,2.03125 C1.42578,1.66667 1.73177,1.39323 1.91406,1.21094 C2.1224,1.0026 2.33073,0.716146 2.53906,0.351562 C2.7474,-0.0130208 2.85156,-0.377604 2.85156,-0.742188 C2.85156,-1.10677 2.77344,-1.41927 2.61719,-1.67969 C2.46094,-1.9401 2.2526,-2.07031 1.99219,-2.07031 C1.67969,-2.07031 1.41927,-1.95312 1.21094,-1.71875 C1.01562,-1.45833 0.917969,-1.15885 0.917969,-0.820312 M0.0976562,2.75391 L-0.15625,-9.14062 C0.0260417,-9.24479 0.208333,-9.29688 0.390625,-9.29688 C0.572917,-9.29688 0.755208,-9.24479 0.9375,-9.14062 L0.78125,-2.24609 C1.3151,-2.70182 1.92708,-2.92969 2.61719,-2.92969 C3.125,-2.92969 3.54818,-2.72135 3.88672,-2.30469 C4.22526,-1.88802 4.39453,-1.41276 4.39453,-0.878906 C4.39453,-0.540365 4.28385,-0.182292 4.0625,0.195312 C3.85417,0.546875 3.63281,0.820312 3.39844,1.01562 C3.26823,1.11979 2.9362,1.38021 2.40234,1.79688 C2.24609,1.91406 2.06055,2.05078 1.8457,2.20703 C1.63086,2.36328 1.4974,2.46094 1.44531,2.5 C1.35417,2.55208 1.26953,2.65625 1.19141,2.8125 C1.10026,2.94271 0.996094,3.05339 0.878906,3.14453 C0.78776,3.22266 0.677083,3.26172 0.546875,3.26172 C0.416667,3.26172 0.3125,3.21615 0.234375,3.125 C0.143229,3.03385 0.0976562,2.91016 0.0976562,2.75391"/>
<path class="" transform="matrix(2.30854,0,0,2.30854,60.7946,48.9798)" d="M4.49219,-4.74609 C4.88281,-4.74609 5.21484,-4.79167 5.48828,-4.88281 C5.76172,-4.97396 5.9375,-5.01953 6.01562,-5.01953 C6.10677,-5.01953 6.17839,-4.99349 6.23047,-4.94141 C6.26953,-4.90234 6.29557,-4.85677 6.30859,-4.80469 C6.30859,-4.77865 6.29557,-4.73958 6.26953,-4.6875 L0.585938,1.91406 L3.92578,1.91406 L3.92578,-0.703125 C3.92578,-0.872396 3.97135,-1.01562 4.0625,-1.13281 C4.21875,-1.26302 4.34896,-1.34115 4.45312,-1.36719 C4.6224,-1.44531 4.83073,-1.6276 5.07812,-1.91406 C5.28646,-2.14844 5.53385,-2.55859 5.82031,-3.14453 C5.85938,-3.22266 5.91797,-3.26172 5.99609,-3.26172 C6.15234,-3.26172 6.24349,-3.17057 6.26953,-2.98828 L6.26953,1.91406 L7.69531,1.91406 C7.8776,1.91406 7.98177,2.01172 8.00781,2.20703 C8.00781,2.40234 7.90365,2.5 7.69531,2.5 L6.26953,2.5 L6.26953,2.65625 C6.26953,3.17708 6.39974,3.61979 6.66016,3.98438 C6.95964,4.34896 7.3112,4.53125 7.71484,4.53125 C7.87109,4.53125 7.94922,4.60938 7.94922,4.76562 C7.94922,4.92188 7.87109,5 7.71484,5 C7.44141,5 6.9987,4.96094 6.38672,4.88281 C5.82682,4.79167 5.39062,4.74609 5.07812,4.74609 C4.7526,4.74609 4.31641,4.79167 3.76953,4.88281 C3.18359,4.96094 2.7474,5 2.46094,5 C2.30469,5 2.22656,4.92188 2.22656,4.76562 C2.22656,4.60938 2.30469,4.53125 2.46094,4.53125 C2.86458,4.53125 3.21615,4.34896 3.51562,3.98438 C3.78906,3.61979 3.92578,3.17708 3.92578,2.65625 L3.92578,2.5 L0.585938,2.5 C0.364583,2.5 0.208333,2.44792 0.117188,2.34375 C0.0130208,2.26562 -0.0390625,2.16146 -0.0390625,2.03125 C-0.0390625,1.99219 0.0585938,1.85547 0.253906,1.62109 C0.47526,1.36068 0.709635,1.04167 0.957031,0.664062 C1.24349,0.221354 1.51693,-0.234375 1.77734,-0.703125 C2.0638,-1.23698 2.29167,-1.84896 2.46094,-2.53906 C2.65625,-3.24219 2.75391,-3.95833 2.75391,-4.6875 C2.75391,-4.89583 2.84505,-5 3.02734,-5 C3.06641,-5 3.15104,-4.98047 3.28125,-4.94141 C3.32031,-4.92839 3.40169,-4.90885 3.52539,-4.88281 C3.64909,-4.85677 3.75,-4.83073 3.82812,-4.80469 C4.0625,-4.76562 4.28385,-4.74609 4.49219,-4.74609"/>
<path class="" transform="matrix(2.30854,0,0,2.30854,60.7946,72.0652)" d="M4.49219,-4.74609 C4.88281,-4.74609 5.21484,-4.79167 5.48828,-4.88281 C5.76172,-4.97396 5.9375,-5.01953 6.01562,-5.01953 C6.10677,-5.01953 6.17839,-4.99349 6.23047,-4.94141 C6.26953,-4.90234 6.29557,-4.85677 6.30859,-4.80469 C6.30859,-4.77865 6.29557,-4.73958 6.26953,-4.6875 L0.585938,1.91406 L3.92578,1.91406 L3.92578,-0.703125 C3.92578,-0.872396 3.97135,-1.01562 4.0625,-1.13281 C4.21875,-1.26302 4.34896,-1.34115 4.45312,-1.36719 C4.6224,-1.44531 4.83073,-1.6276 5.07812,-1.91406 C5.28646,-2.14844 5.53385,-2.55859 5.82031,-3.14453 C5.85938,-3.22266 5.91797,-3.26172 5.99609,-3.26172 C6.15234,-3.26172 6.24349,-3.17057 6.26953,-2.98828 L6.26953,1.91406 L7.69531,1.91406 C7.8776,1.91406 7.98177,2.01172 8.00781,2.20703 C8.00781,2.40234 7.90365,2.5 7.69531,2.5 L6.26953,2.5 L6.26953,2.65625 C6.26953,3.17708 6.39974,3.61979 6.66016,3.98438 C6.95964,4.34896 7.3112,4.53125 7.71484,4.53125 C7.87109,4.53125 7.94922,4.60938 7.94922,4.76562 C7.94922,4.92188 7.87109,5 7.71484,5 C7.44141,5 6.9987,4.96094 6.38672,4.88281 C5.82682,4.79167 5.39062,4.74609 5.07812,4.74609 C4.7526,4.74609 4.31641,4.79167 3.76953,4.88281 C3.18359,4.96094 2.7474,5 2.46094,5 C2.30469,5 2.22656,4.92188 2.22656,4.76562 C2.22656,4.60938 2.30469,4.53125 2.46094,4.53125 C2.86458,4.53125 3.21615,4.34896 3.51562,3.98438 C3.78906,3.61979 3.92578,3.17708 3.92578,2.65625 L3.92578,2.5 L0.585938,2.5 C0.364583,2.5 0.208333,2.44792 0.117188,2.34375 C0.0130208,2.26562 -0.0390625,2.16146 -0.0390625,2.03125 C-0.0390625,1.99219 0.0585938,1.85547 0.253906,1.62109 C0.47526,1.36068 0.709635,1.04167 0.957031,0.664062 C1.24349,0.221354 1.51693,-0.234375 1.77734,-0.703125 C2.0638,-1.23698 2.29167,-1.84896 2.46094,-2.53906 C2.65625,-3.24219 2.75391,-3.95833 2.75391,-4.6875 C2.75391,-4.89583 2.84505,-5 3.02734,-5 C3.06641,-5 3.15104,-4.98047 3.28125,-4.94141 C3.32031,-4.92839 3.40169,-4.90885 3.52539,-4.88281 C3.64909,-4.85677 3.75,-4.83073 3.82812,-4.80469 C4.0625,-4.76562 4.28385,-4.74609 4.49219,-4.74609"/>
<path class="" transform="matrix(2.30854,0,0,2.30854,99.6934,60.5225)" d="M1.40625,-4.10156 C1.78385,-4.10156 2.07031,-3.9974 2.26562,-3.78906 C2.46094,-3.55469 2.5651,-3.33333 2.57812,-3.125 C2.60417,-2.92969 2.66927,-2.70833 2.77344,-2.46094 C2.89062,-2.2526 3.04036,-2.14844 3.22266,-2.14844 C3.36589,-2.14844 3.58073,-2.3112 3.86719,-2.63672 C4.1276,-2.92318 4.31641,-3.17708 4.43359,-3.39844 C4.4987,-3.52865 4.58984,-3.59375 4.70703,-3.59375 L4.72656,-3.59375 C4.85677,-3.58073 4.94792,-3.51562 5,-3.39844 L2.53906,5 C2.40885,5.13021 2.22656,5.19531 1.99219,5.19531 C1.75781,5.19531 1.57552,5.13021 1.44531,5 L3.78906,-1.52344 C2.95573,-1.22396 2.2526,-1.07422 1.67969,-1.07422 C1.21094,-1.07422 0.807292,-1.22396 0.46875,-1.52344 C0.117188,-1.8099 -0.0585938,-2.1875 -0.0585938,-2.65625 C-0.0585938,-3.0599 0.0846354,-3.39844 0.371094,-3.67188 C0.657552,-3.95833 1.0026,-4.10156 1.40625,-4.10156"/>
<path class="" fill-rule="evenodd" d="M266.771,66.2938 L409.895,69.2101 L409.895,74.9814 L266.771,72.0652 L266.771,66.2938 "/>
<path class="" fill-rule="evenodd" d="M216.321,268.291 L261.951,265.307 L261.951,271.078 L216.321,274.062 L216.321,268.291 "/>
<path class="" transform="matrix(2.30854,0,0,2.30854,138.183,77.8365)" d="M4.55078,-14.4727 C4.85026,-14.4727 5.16927,-13.9844 5.50781,-13.0078 C5.83333,-12.0443 5.99609,-11.1263 5.99609,-10.2539 C5.99609,-9.51172 5.8138,-8.77604 5.44922,-8.04688 C5.07161,-7.26562 4.6224,-6.58854 4.10156,-6.01562 L2.5,-4.21875 C2.00521,-3.64583 1.5625,-2.98177 1.17188,-2.22656 C0.807292,-1.4974 0.625,-0.755208 0.625,0 L0,0 L0,-5 L0.625,-5 C0.976562,-5.22135 1.4974,-5.57292 2.1875,-6.05469 C2.5,-6.28906 2.96875,-6.67969 3.59375,-7.22656 C4.10156,-7.69531 4.48568,-8.17708 4.74609,-8.67188 C5.01953,-9.19271 5.15625,-9.72005 5.15625,-10.2539 C5.15625,-11.4909 4.79818,-12.7214 4.08203,-13.9453 C4.08203,-13.9453 4.08203,-13.9714 4.08203,-14.0234 C4.08203,-14.1406 4.12109,-14.2383 4.19922,-14.3164 C4.30339,-14.4206 4.42057,-14.4727 4.55078,-14.4727"/>
<path class="" d="M144.504,127.054 L144.504,115.954 C144.504,115.037 144.366,114.449 144.091,114.191 C143.816,113.933 143.145,113.77 142.079,113.704 L142.079,113.229 L149.504,113.229 L149.504,113.704 C148.454,113.754 147.783,113.912 147.491,114.179 C147.199,114.445 147.054,115.037 147.054,115.954 L147.054,127.054 C147.054,127.97 147.204,128.566 147.504,128.841 C147.804,129.116 148.47,129.27 149.504,129.304 L149.504,129.779 L142.079,129.779 L142.079,129.304 C143.129,129.27 143.795,129.12 144.079,128.854 C144.362,128.587 144.504,127.987 144.504,127.054"/>
<path class="" d="M174.1,122.029 C173.65,120.695 173.304,119.858 173.062,119.516 C172.821,119.174 172.425,118.97 171.875,118.904 L171.875,118.529 L176.95,118.529 L176.95,118.904 C176.366,118.987 175.979,119.087 175.787,119.204 C175.596,119.32 175.5,119.52 175.5,119.804 C175.5,120.02 175.641,120.512 175.925,121.279 L178.025,126.879 L180.275,121.329 C180.558,120.629 180.7,120.079 180.7,119.679 C180.7,119.462 180.625,119.299 180.475,119.191 C180.325,119.083 180.033,118.987 179.6,118.904 L179.6,118.529 L182.675,118.529 L182.675,118.904 C182.425,118.987 182.246,119.104 182.137,119.254 C182.029,119.404 181.866,119.737 181.65,120.254 L178.2,128.904 C177.866,129.72 177.633,130.129 177.5,130.129 C177.366,130.129 177.166,129.77 176.9,129.054 L174.625,123.154 L171.825,129.154 C171.525,129.804 171.316,130.129 171.2,130.129 C171.066,130.129 170.85,129.762 170.55,129.029 L167.175,120.479 C166.925,119.845 166.716,119.433 166.55,119.241 C166.383,119.049 166.15,118.937 165.85,118.904 L165.85,118.529 L170.35,118.529 L170.35,118.904 C169.916,118.954 169.616,119.037 169.45,119.154 C169.283,119.27 169.2,119.462 169.2,119.729 C169.2,119.979 169.25,120.229 169.35,120.479 L171.825,127.004 L174.1,122.029 M183.412,127.354 C183.412,127.054 183.446,126.774 183.512,126.516 C183.579,126.258 183.696,126.016 183.862,125.791 C184.029,125.566 184.187,125.362 184.337,125.179 C184.487,124.995 184.712,124.808 185.012,124.616 C185.312,124.424 185.562,124.266 185.762,124.141 C185.962,124.016 186.266,123.866 186.675,123.691 C187.083,123.516 187.396,123.383 187.612,123.291 C187.829,123.199 188.171,123.062 188.637,122.879 C189.104,122.695 189.446,122.562 189.662,122.479 L189.662,120.954 C189.662,119.57 189.029,118.879 187.762,118.879 C187.262,118.879 186.837,118.999 186.487,119.241 C186.137,119.483 185.962,119.77 185.962,120.104 C185.962,120.237 185.983,120.42 186.025,120.654 C186.066,120.887 186.087,121.037 186.087,121.104 C186.087,121.387 185.975,121.633 185.75,121.841 C185.525,122.049 185.262,122.154 184.962,122.154 C184.679,122.154 184.429,122.045 184.212,121.829 C183.996,121.612 183.887,121.362 183.887,121.079 C183.887,120.295 184.291,119.633 185.1,119.091 C185.908,118.549 186.904,118.279 188.087,118.279 C189.454,118.279 190.396,118.608 190.912,119.266 C191.429,119.924 191.687,120.929 191.687,122.279 L191.687,127.154 C191.687,127.704 191.741,128.083 191.85,128.291 C191.958,128.499 192.154,128.604 192.437,128.604 C192.787,128.604 193.154,128.445 193.537,128.129 L193.537,128.779 C193.104,129.262 192.725,129.591 192.4,129.766 C192.075,129.941 191.704,130.029 191.287,130.029 C190.771,130.029 190.391,129.887 190.15,129.604 C189.908,129.32 189.754,128.854 189.687,128.204 C188.254,129.42 187.037,130.029 186.037,130.029 C185.271,130.029 184.641,129.779 184.15,129.279 C183.658,128.779 183.412,128.137 183.412,127.354 M189.662,126.704 L189.662,123.079 C188.162,123.629 187.112,124.162 186.512,124.679 C185.912,125.195 185.612,125.82 185.612,126.554 C185.612,127.237 185.779,127.745 186.112,128.079 C186.446,128.412 186.804,128.579 187.187,128.579 C187.754,128.579 188.362,128.387 189.012,128.004 C189.279,127.854 189.454,127.695 189.537,127.529 C189.621,127.362 189.662,127.087 189.662,126.704 M200.362,118.779 C200.379,118.779 200.512,118.695 200.762,118.529 L201.037,118.529 L201.137,121.929 L200.762,121.929 C200.479,120.812 200.129,120.02 199.712,119.554 C199.296,119.087 198.729,118.854 198.012,118.854 C197.446,118.854 196.983,119.012 196.625,119.329 C196.266,119.645 196.087,120.054 196.087,120.554 C196.087,121.27 196.446,121.837 197.162,122.254 L199.862,123.854 C200.612,124.304 201.15,124.758 201.475,125.216 C201.8,125.674 201.962,126.212 201.962,126.829 C201.962,127.695 201.616,128.445 200.925,129.079 C200.233,129.712 199.404,130.029 198.437,130.029 C198.021,130.029 197.462,129.954 196.762,129.804 C196.062,129.654 195.629,129.579 195.462,129.579 C195.212,129.579 195.021,129.679 194.887,129.879 L194.562,129.879 L194.562,125.979 L194.962,125.979 C195.229,127.145 195.546,127.97 195.912,128.454 C196.446,129.137 197.187,129.479 198.137,129.479 C198.771,129.479 199.275,129.316 199.65,128.991 C200.025,128.666 200.212,128.229 200.212,127.679 C200.212,126.929 199.779,126.304 198.912,125.804 L197.462,124.979 C196.396,124.379 195.641,123.804 195.2,123.254 C194.758,122.704 194.537,122.079 194.537,121.379 C194.537,120.479 194.858,119.741 195.5,119.166 C196.141,118.591 196.954,118.304 197.937,118.304 C198.487,118.304 199.004,118.383 199.487,118.541 C199.971,118.699 200.262,118.779 200.362,118.779"/>
<path class="" d="M260.663,118.779 C260.68,118.779 260.813,118.695 261.063,118.529 L261.338,118.529 L261.438,121.929 L261.063,121.929 C260.78,120.812 260.43,120.02 260.013,119.554 C259.596,119.087 259.03,118.854 258.313,118.854 C257.746,118.854 257.284,119.012 256.925,119.329 C256.567,119.645 256.388,120.054 256.388,120.554 C256.388,121.27 256.746,121.837 257.463,122.254 L260.163,123.854 C260.913,124.304 261.45,124.758 261.775,125.216 C262.1,125.674 262.263,126.212 262.263,126.829 C262.263,127.695 261.917,128.445 261.225,129.079 C260.534,129.712 259.705,130.029 258.738,130.029 C258.321,130.029 257.763,129.954 257.063,129.804 C256.363,129.654 255.93,129.579 255.763,129.579 C255.513,129.579 255.321,129.679 255.188,129.879 L254.863,129.879 L254.863,125.979 L255.263,125.979 C255.53,127.145 255.846,127.97 256.213,128.454 C256.746,129.137 257.488,129.479 258.438,129.479 C259.071,129.479 259.575,129.316 259.95,128.991 C260.325,128.666 260.513,128.229 260.513,127.679 C260.513,126.929 260.08,126.304 259.213,125.804 L257.763,124.979 C256.696,124.379 255.942,123.804 255.5,123.254 C255.059,122.704 254.838,122.079 254.838,121.379 C254.838,120.479 255.159,119.741 255.8,119.166 C256.442,118.591 257.255,118.304 258.238,118.304 C258.788,118.304 259.305,118.383 259.788,118.541 C260.271,118.699 260.563,118.779 260.663,118.779 M263.485,119.954 L263.485,119.554 C264.535,119.237 265.735,118.812 267.085,118.279 L267.235,118.329 L267.235,120.254 C268.302,118.937 269.502,118.279 270.835,118.279 C272.052,118.279 273.052,118.779 273.835,119.779 C274.618,120.779 275.01,122.054 275.01,123.604 C275.01,125.42 274.506,126.945 273.497,128.179 C272.489,129.412 271.243,130.029 269.76,130.029 C269.227,130.029 268.781,129.954 268.422,129.804 C268.064,129.654 267.668,129.37 267.235,128.954 L267.235,132.879 C267.235,133.662 267.368,134.166 267.635,134.391 C267.902,134.616 268.502,134.737 269.435,134.754 L269.435,135.204 L263.385,135.204 L263.385,134.779 C264.118,134.712 264.593,134.57 264.81,134.354 C265.027,134.137 265.135,133.704 265.135,133.054 L265.135,121.354 C265.135,120.77 265.068,120.387 264.935,120.204 C264.802,120.02 264.527,119.929 264.11,119.929 C263.843,119.929 263.635,119.937 263.485,119.954 M267.235,121.429 L267.235,127.579 C267.235,127.945 267.522,128.312 268.097,128.679 C268.672,129.045 269.252,129.229 269.835,129.229 C270.735,129.229 271.464,128.799 272.022,127.941 C272.581,127.083 272.86,125.962 272.86,124.579 C272.86,123.129 272.581,121.966 272.022,121.091 C271.464,120.216 270.718,119.779 269.785,119.779 C269.202,119.779 268.631,119.962 268.072,120.329 C267.514,120.695 267.235,121.062 267.235,121.429 M277.185,119.954 C276.818,119.954 276.468,119.979 276.135,120.029 L276.135,119.654 C277.302,119.32 278.593,118.862 280.01,118.279 L280.11,118.354 L280.11,127.229 C280.11,128.129 280.214,128.699 280.422,128.941 C280.631,129.183 281.143,129.337 281.96,129.404 L281.96,129.779 L276.035,129.779 L276.035,129.404 C276.902,129.354 277.447,129.204 277.672,128.954 C277.897,128.704 278.01,128.129 278.01,127.229 L278.01,121.429 C278.01,120.879 277.947,120.495 277.822,120.279 C277.697,120.062 277.485,119.954 277.185,119.954 M278.835,112.704 C279.202,112.704 279.51,112.829 279.76,113.079 C280.01,113.329 280.135,113.629 280.135,113.979 C280.135,114.345 280.01,114.649 279.76,114.891 C279.51,115.133 279.202,115.254 278.835,115.254 C278.485,115.254 278.189,115.129 277.947,114.879 C277.706,114.629 277.585,114.329 277.585,113.979 C277.585,113.629 277.71,113.329 277.96,113.079 C278.21,112.829 278.502,112.704 278.835,112.704 M282.822,119.829 L282.822,119.404 C284.056,119.037 285.206,118.662 286.272,118.279 L286.447,118.329 L286.447,120.304 C287.297,119.504 287.968,118.966 288.46,118.691 C288.952,118.416 289.489,118.279 290.072,118.279 C290.989,118.279 291.71,118.608 292.235,119.266 C292.76,119.924 293.022,120.845 293.022,122.029 L293.022,127.754 C293.022,128.37 293.122,128.783 293.322,128.991 C293.522,129.199 293.931,129.337 294.547,129.404 L294.547,129.779 L289.347,129.779 L289.347,129.404 C289.981,129.354 290.402,129.187 290.61,128.904 C290.818,128.62 290.922,128.087 290.922,127.304 L290.922,122.079 C290.922,120.462 290.314,119.654 289.097,119.654 C288.681,119.654 288.297,119.749 287.947,119.941 C287.597,120.133 287.122,120.512 286.522,121.079 L286.522,128.104 C286.522,128.554 286.639,128.87 286.872,129.054 C287.106,129.237 287.539,129.354 288.172,129.404 L288.172,129.779 L282.872,129.779 L282.872,129.404 C283.506,129.354 283.922,129.208 284.122,128.966 C284.322,128.724 284.422,128.245 284.422,127.529 L284.422,121.329 C284.422,120.712 284.356,120.291 284.222,120.066 C284.089,119.841 283.847,119.729 283.497,119.729 C283.181,119.729 282.956,119.762 282.822,119.829"/>
<path class="" d="M306.14,119.829 L306.14,119.404 C307.373,119.037 308.523,118.662 309.59,118.279 L309.765,118.329 L309.765,120.304 C310.615,119.504 311.285,118.966 311.777,118.691 C312.269,118.416 312.806,118.279 313.39,118.279 C314.306,118.279 315.027,118.608 315.552,119.266 C316.077,119.924 316.34,120.845 316.34,122.029 L316.34,127.754 C316.34,128.37 316.44,128.783 316.64,128.991 C316.84,129.199 317.248,129.337 317.865,129.404 L317.865,129.779 L312.665,129.779 L312.665,129.404 C313.298,129.354 313.719,129.187 313.927,128.904 C314.135,128.62 314.24,128.087 314.24,127.304 L314.24,122.079 C314.24,120.462 313.631,119.654 312.415,119.654 C311.998,119.654 311.615,119.749 311.265,119.941 C310.915,120.133 310.44,120.512 309.84,121.079 L309.84,128.104 C309.84,128.554 309.956,128.87 310.19,129.054 C310.423,129.237 310.856,129.354 311.49,129.404 L311.49,129.779 L306.19,129.779 L306.19,129.404 C306.823,129.354 307.24,129.208 307.44,128.966 C307.64,128.724 307.74,128.245 307.74,127.529 L307.74,121.329 C307.74,120.712 307.673,120.291 307.54,120.066 C307.406,119.841 307.165,119.729 306.815,119.729 C306.498,119.729 306.273,119.762 306.14,119.829 M319.658,119.954 C319.292,119.954 318.942,119.979 318.608,120.029 L318.608,119.654 C319.775,119.32 321.067,118.862 322.483,118.279 L322.583,118.354 L322.583,127.229 C322.583,128.129 322.687,128.699 322.896,128.941 C323.104,129.183 323.617,129.337 324.433,129.404 L324.433,129.779 L318.508,129.779 L318.508,129.404 C319.375,129.354 319.921,129.204 320.146,128.954 C320.371,128.704 320.483,128.129 320.483,127.229 L320.483,121.429 C320.483,120.879 320.421,120.495 320.296,120.279 C320.171,120.062 319.958,119.954 319.658,119.954 M321.308,112.704 C321.675,112.704 321.983,112.829 322.233,113.079 C322.483,113.329 322.608,113.629 322.608,113.979 C322.608,114.345 322.483,114.649 322.233,114.891 C321.983,115.133 321.675,115.254 321.308,115.254 C320.958,115.254 320.662,115.129 320.421,114.879 C320.179,114.629 320.058,114.329 320.058,113.979 C320.058,113.629 320.183,113.329 320.433,113.079 C320.683,112.829 320.975,112.704 321.308,112.704 M325.296,119.829 L325.296,119.404 C326.529,119.037 327.679,118.662 328.746,118.279 L328.921,118.329 L328.921,120.304 C329.771,119.504 330.442,118.966 330.933,118.691 C331.425,118.416 331.962,118.279 332.546,118.279 C333.462,118.279 334.183,118.608 334.708,119.266 C335.233,119.924 335.496,120.845 335.496,122.029 L335.496,127.754 C335.496,128.37 335.596,128.783 335.796,128.991 C335.996,129.199 336.404,129.337 337.021,129.404 L337.021,129.779 L331.821,129.779 L331.821,129.404 C332.454,129.354 332.875,129.187 333.083,128.904 C333.292,128.62 333.396,128.087 333.396,127.304 L333.396,122.079 C333.396,120.462 332.787,119.654 331.571,119.654 C331.154,119.654 330.771,119.749 330.421,119.941 C330.071,120.133 329.596,120.512 328.996,121.079 L328.996,128.104 C328.996,128.554 329.112,128.87 329.346,129.054 C329.579,129.237 330.012,129.354 330.646,129.404 L330.646,129.779 L325.346,129.779 L325.346,129.404 C325.979,129.354 326.396,129.208 326.596,128.966 C326.796,128.724 326.896,128.245 326.896,127.529 L326.896,121.329 C326.896,120.712 326.829,120.291 326.696,120.066 C326.562,119.841 326.321,119.729 325.971,119.729 C325.654,119.729 325.429,119.762 325.296,119.829"/>
<path class="" d="M403.705,115.279 C403.438,115.279 403.209,115.183 403.018,114.991 C402.826,114.799 402.676,114.583 402.568,114.341 C402.459,114.099 402.293,113.883 402.068,113.691 C401.843,113.499 401.572,113.404 401.255,113.404 C400.305,113.404 399.83,114.145 399.83,115.629 L399.83,118.529 L402.905,118.529 L402.905,119.329 L399.855,119.329 L399.855,127.179 C399.855,128.112 399.988,128.708 400.255,128.966 C400.522,129.224 401.163,129.37 402.18,129.404 L402.18,129.779 L395.68,129.779 L395.68,129.404 C396.58,129.354 397.151,129.199 397.393,128.941 C397.634,128.683 397.755,128.095 397.755,127.179 L397.755,119.329 L395.705,119.329 L395.705,118.529 L397.755,118.529 C397.788,116.662 398.138,115.224 398.805,114.216 C399.472,113.208 400.588,112.704 402.155,112.704 C402.905,112.704 403.526,112.849 404.018,113.141 C404.509,113.433 404.755,113.804 404.755,114.254 C404.755,114.537 404.651,114.779 404.443,114.979 C404.234,115.179 403.988,115.279 403.705,115.279 M412.268,120.729 C412.018,120.729 411.709,120.583 411.343,120.291 C410.976,119.999 410.734,119.854 410.618,119.854 C410.284,119.854 409.909,120.095 409.493,120.579 C409.076,121.062 408.868,121.504 408.868,121.904 L408.868,127.529 C408.868,128.245 409.009,128.729 409.293,128.979 C409.576,129.229 410.143,129.37 410.993,129.404 L410.993,129.779 L404.993,129.779 L404.993,129.404 C405.793,129.254 406.288,129.087 406.48,128.904 C406.672,128.72 406.768,128.312 406.768,127.679 L406.768,121.429 C406.768,120.879 406.705,120.491 406.58,120.266 C406.455,120.041 406.234,119.929 405.918,119.929 C405.651,119.929 405.359,119.962 405.043,120.029 L405.043,119.629 C406.376,119.195 407.609,118.745 408.743,118.279 L408.868,118.329 L408.868,120.629 C409.484,119.745 410.009,119.133 410.443,118.791 C410.876,118.449 411.351,118.279 411.868,118.279 C412.301,118.279 412.638,118.395 412.88,118.629 C413.122,118.862 413.243,119.187 413.243,119.604 C413.243,119.954 413.155,120.229 412.98,120.429 C412.805,120.629 412.568,120.729 412.268,120.729 M415.793,122.854 C415.826,123.904 415.968,124.808 416.218,125.566 C416.468,126.324 416.793,126.891 417.193,127.266 C417.593,127.641 417.997,127.908 418.405,128.066 C418.813,128.224 419.243,128.304 419.693,128.304 C420.493,128.304 421.188,128.104 421.78,127.704 C422.372,127.304 422.968,126.629 423.568,125.679 L423.968,125.854 C423.451,127.204 422.734,128.237 421.818,128.954 C420.901,129.67 419.851,130.029 418.668,130.029 C417.234,130.029 416.097,129.524 415.255,128.516 C414.413,127.508 413.993,126.145 413.993,124.429 C413.993,122.579 414.48,121.091 415.455,119.966 C416.43,118.841 417.684,118.279 419.218,118.279 C420.484,118.279 421.468,118.658 422.168,119.416 C422.868,120.174 423.309,121.32 423.493,122.854 L415.793,122.854 M415.843,122.054 L420.943,122.054 C420.776,120.97 420.518,120.22 420.168,119.804 C419.818,119.387 419.259,119.179 418.493,119.179 C416.993,119.179 416.109,120.137 415.843,122.054 M426.886,122.854 C426.92,123.904 427.061,124.808 427.311,125.566 C427.561,126.324 427.886,126.891 428.286,127.266 C428.686,127.641 429.091,127.908 429.499,128.066 C429.907,128.224 430.336,128.304 430.786,128.304 C431.586,128.304 432.282,128.104 432.874,127.704 C433.466,127.304 434.061,126.629 434.661,125.679 L435.061,125.854 C434.545,127.204 433.828,128.237 432.911,128.954 C431.995,129.67 430.945,130.029 429.761,130.029 C428.328,130.029 427.191,129.524 426.349,128.516 C425.507,127.508 425.086,126.145 425.086,124.429 C425.086,122.579 425.574,121.091 426.549,119.966 C427.524,118.841 428.778,118.279 430.311,118.279 C431.578,118.279 432.561,118.658 433.261,119.416 C433.961,120.174 434.403,121.32 434.586,122.854 L426.886,122.854 M426.936,122.054 L432.036,122.054 C431.87,120.97 431.611,120.22 431.261,119.804 C430.911,119.387 430.353,119.179 429.586,119.179 C428.086,119.179 427.203,120.137 426.936,122.054 M439.105,129.829 C439.105,129.829 439.038,129.845 438.905,129.879 C438.755,129.912 438.597,129.929 438.43,129.929 C437.98,129.929 437.622,129.816 437.355,129.591 C437.088,129.366 436.955,129.054 436.955,128.654 C436.955,128.237 437.093,127.895 437.368,127.629 C437.643,127.362 437.997,127.229 438.43,127.229 C438.997,127.229 439.472,127.441 439.855,127.866 C440.238,128.291 440.43,128.82 440.43,129.454 C440.43,130.204 440.172,130.929 439.655,131.629 C439.138,132.329 438.463,132.887 437.63,133.304 L437.405,132.829 C438.772,131.895 439.455,131.012 439.455,130.179 C439.455,129.945 439.338,129.829 439.105,129.829"/>
<path class="" d="M538.517,122.029 C538.067,120.695 537.721,119.858 537.48,119.516 C537.238,119.174 536.842,118.97 536.292,118.904 L536.292,118.529 L541.367,118.529 L541.367,118.904 C540.784,118.987 540.396,119.087 540.205,119.204 C540.013,119.32 539.917,119.52 539.917,119.804 C539.917,120.02 540.059,120.512 540.342,121.279 L542.442,126.879 L544.692,121.329 C544.976,120.629 545.117,120.079 545.117,119.679 C545.117,119.462 545.042,119.299 544.892,119.191 C544.742,119.083 544.451,118.987 544.017,118.904 L544.017,118.529 L547.092,118.529 L547.092,118.904 C546.842,118.987 546.663,119.104 546.555,119.254 C546.446,119.404 546.284,119.737 546.067,120.254 L542.617,128.904 C542.284,129.72 542.051,130.129 541.917,130.129 C541.784,130.129 541.584,129.77 541.317,129.054 L539.042,123.154 L536.242,129.154 C535.942,129.804 535.734,130.129 535.617,130.129 C535.484,130.129 535.267,129.762 534.967,129.029 L531.592,120.479 C531.342,119.845 531.134,119.433 530.967,119.241 C530.801,119.049 530.567,118.937 530.267,118.904 L530.267,118.529 L534.767,118.529 L534.767,118.904 C534.334,118.954 534.034,119.037 533.867,119.154 C533.701,119.27 533.617,119.462 533.617,119.729 C533.617,119.979 533.667,120.229 533.767,120.479 L536.242,127.004 L538.517,122.029 M551.155,121.204 L551.155,127.229 C551.155,128.095 551.255,128.654 551.455,128.904 C551.655,129.154 552.121,129.32 552.855,129.404 L552.855,129.779 L547.455,129.779 L547.455,129.404 C548.171,129.304 548.617,129.137 548.792,128.904 C548.967,128.67 549.055,128.112 549.055,127.229 L549.055,115.454 C549.055,114.92 548.984,114.57 548.842,114.404 C548.701,114.237 548.388,114.154 547.905,114.154 C547.788,114.154 547.646,114.17 547.48,114.204 L547.48,113.804 C548.663,113.487 549.846,113.12 551.03,112.704 L551.155,112.779 L551.155,120.379 C551.721,119.629 552.292,119.091 552.867,118.766 C553.442,118.441 554.096,118.279 554.83,118.279 C556.88,118.279 557.905,119.604 557.905,122.254 L557.905,127.229 C557.905,128.095 557.984,128.641 558.142,128.866 C558.301,129.091 558.721,129.27 559.405,129.404 L559.405,129.779 L554.105,129.779 L554.105,129.404 C554.821,129.337 555.284,129.17 555.492,128.904 C555.701,128.637 555.805,128.079 555.805,127.229 L555.805,122.279 C555.805,120.512 555.18,119.629 553.93,119.629 C553.446,119.629 552.992,119.749 552.567,119.991 C552.142,120.233 551.671,120.637 551.155,121.204 M565.792,118.279 C567.392,118.279 568.709,118.812 569.742,119.879 C570.776,120.945 571.292,122.295 571.292,123.929 C571.292,125.662 570.759,127.112 569.692,128.279 C568.626,129.445 567.309,130.029 565.742,130.029 C564.176,130.029 562.871,129.466 561.83,128.341 C560.788,127.216 560.267,125.812 560.267,124.129 C560.267,122.412 560.78,121.008 561.805,119.916 C562.83,118.824 564.159,118.279 565.792,118.279 M562.517,122.904 C562.517,124.687 562.842,126.204 563.492,127.454 C564.142,128.704 564.992,129.329 566.042,129.329 C566.976,129.329 567.709,128.929 568.242,128.129 C568.776,127.329 569.042,126.22 569.042,124.804 C569.042,123.087 568.709,121.687 568.042,120.604 C567.376,119.52 566.517,118.979 565.467,118.979 C564.584,118.979 563.871,119.337 563.33,120.054 C562.788,120.77 562.517,121.72 562.517,122.904 M572.533,127.354 C572.533,127.054 572.566,126.774 572.633,126.516 C572.7,126.258 572.816,126.016 572.983,125.791 C573.15,125.566 573.308,125.362 573.458,125.179 C573.608,124.995 573.833,124.808 574.133,124.616 C574.433,124.424 574.683,124.266 574.883,124.141 C575.083,124.016 575.387,123.866 575.795,123.691 C576.204,123.516 576.516,123.383 576.733,123.291 C576.95,123.199 577.291,123.062 577.758,122.879 C578.225,122.695 578.566,122.562 578.783,122.479 L578.783,120.954 C578.783,119.57 578.15,118.879 576.883,118.879 C576.383,118.879 575.958,118.999 575.608,119.241 C575.258,119.483 575.083,119.77 575.083,120.104 C575.083,120.237 575.104,120.42 575.145,120.654 C575.187,120.887 575.208,121.037 575.208,121.104 C575.208,121.387 575.095,121.633 574.87,121.841 C574.645,122.049 574.383,122.154 574.083,122.154 C573.8,122.154 573.55,122.045 573.333,121.829 C573.116,121.612 573.008,121.362 573.008,121.079 C573.008,120.295 573.412,119.633 574.22,119.091 C575.029,118.549 576.025,118.279 577.208,118.279 C578.575,118.279 579.516,118.608 580.033,119.266 C580.55,119.924 580.808,120.929 580.808,122.279 L580.808,127.154 C580.808,127.704 580.862,128.083 580.97,128.291 C581.079,128.499 581.275,128.604 581.558,128.604 C581.908,128.604 582.275,128.445 582.658,128.129 L582.658,128.779 C582.225,129.262 581.845,129.591 581.52,129.766 C581.195,129.941 580.825,130.029 580.408,130.029 C579.891,130.029 579.512,129.887 579.27,129.604 C579.029,129.32 578.875,128.854 578.808,128.204 C577.375,129.42 576.158,130.029 575.158,130.029 C574.391,130.029 573.762,129.779 573.27,129.279 C572.779,128.779 572.533,128.137 572.533,127.354 M578.783,126.704 L578.783,123.079 C577.283,123.629 576.233,124.162 575.633,124.679 C575.033,125.195 574.733,125.82 574.733,126.554 C574.733,127.237 574.9,127.745 575.233,128.079 C575.566,128.412 575.925,128.579 576.308,128.579 C576.875,128.579 577.483,128.387 578.133,128.004 C578.4,127.854 578.575,127.695 578.658,127.529 C578.741,127.362 578.783,127.087 578.783,126.704"/>
<path class="" d="M306.765,302.961 C308.365,302.961 309.682,303.495 310.715,304.561 C311.749,305.628 312.265,306.978 312.265,308.611 C312.265,310.345 311.732,311.795 310.665,312.961 C309.599,314.128 308.282,314.711 306.715,314.711 C305.149,314.711 303.845,314.149 302.803,313.024 C301.761,311.899 301.24,310.495 301.24,308.811 C301.24,307.095 301.753,305.691 302.778,304.599 C303.803,303.507 305.132,302.961 306.765,302.961 M303.49,307.586 C303.49,309.37 303.815,310.886 304.465,312.136 C305.115,313.386 305.965,314.011 307.015,314.011 C307.949,314.011 308.682,313.611 309.215,312.811 C309.749,312.011 310.015,310.903 310.015,309.486 C310.015,307.77 309.682,306.37 309.015,305.286 C308.349,304.203 307.49,303.661 306.44,303.661 C305.557,303.661 304.845,304.02 304.303,304.736 C303.761,305.453 303.49,306.403 303.49,307.586 M313.506,312.036 C313.506,311.736 313.539,311.457 313.606,311.199 C313.673,310.941 313.789,310.699 313.956,310.474 C314.123,310.249 314.281,310.045 314.431,309.861 C314.581,309.678 314.806,309.491 315.106,309.299 C315.406,309.107 315.656,308.949 315.856,308.824 C316.056,308.699 316.36,308.549 316.769,308.374 C317.177,308.199 317.489,308.066 317.706,307.974 C317.923,307.882 318.264,307.745 318.731,307.561 C319.198,307.378 319.539,307.245 319.756,307.161 L319.756,305.636 C319.756,304.253 319.123,303.561 317.856,303.561 C317.356,303.561 316.931,303.682 316.581,303.924 C316.231,304.166 316.056,304.453 316.056,304.786 C316.056,304.92 316.077,305.103 316.119,305.336 C316.16,305.57 316.181,305.72 316.181,305.786 C316.181,306.07 316.069,306.316 315.844,306.524 C315.619,306.732 315.356,306.836 315.056,306.836 C314.773,306.836 314.523,306.728 314.306,306.511 C314.089,306.295 313.981,306.045 313.981,305.761 C313.981,304.978 314.385,304.316 315.194,303.774 C316.002,303.232 316.998,302.961 318.181,302.961 C319.548,302.961 320.489,303.291 321.006,303.949 C321.523,304.607 321.781,305.611 321.781,306.961 L321.781,311.836 C321.781,312.386 321.835,312.766 321.944,312.974 C322.052,313.182 322.248,313.286 322.531,313.286 C322.881,313.286 323.248,313.128 323.631,312.811 L323.631,313.461 C323.198,313.945 322.819,314.274 322.494,314.449 C322.169,314.624 321.798,314.711 321.381,314.711 C320.864,314.711 320.485,314.57 320.244,314.286 C320.002,314.003 319.848,313.536 319.781,312.886 C318.348,314.103 317.131,314.711 316.131,314.711 C315.364,314.711 314.735,314.461 314.244,313.961 C313.752,313.461 313.506,312.82 313.506,312.036 M319.756,311.386 L319.756,307.761 C318.256,308.311 317.206,308.845 316.606,309.361 C316.006,309.878 315.706,310.503 315.706,311.236 C315.706,311.92 315.873,312.428 316.206,312.761 C316.539,313.095 316.898,313.261 317.281,313.261 C317.848,313.261 318.456,313.07 319.106,312.686 C319.373,312.536 319.548,312.378 319.631,312.211 C319.714,312.045 319.756,311.77 319.756,311.386"/>
<polyline class="" fill="none" stroke="#000000" stroke-width="1.73" stroke-linejoin="bevel" points="172.852,307.594 182.086,307.594"/>
<polyline class="" fill="none" stroke="#000000" stroke-width="1.73" stroke-linejoin="bevel" points="295.719,122.911 304.953,122.911"/>
<polyline class="" fill="none" stroke="#000000" stroke-width="1.73" stroke-linejoin="bevel" points="591.316,122.911 600.55,122.911"/>
</svg>
