<svg width="611" height="317" xmlns="http://www.w3.org/2000/svg" version="1.2" baseProfile="tiny"><path stroke="#000" stroke-width=".81" stroke-linecap="round" stroke-linejoin="round" fill-rule="evenodd" d="M538.733 15.506c17.445-17.785 52.336-17.785 69.781 0-17.445-15.938-52.336-15.938-69.781 0M323.857 17.237c8.529-7.406 34.119-7.406 42.648 0-8.529-5.559-34.119-5.559-42.648 0M418.272 28.78c8.53-7.406 34.119-7.406 42.649 0-8.53-5.56-34.119-5.56-42.649 0M85.388 198.566c50.698-28.28 272.548-6.944 316.927 30.48-44.556-35.586-266.405-56.922-316.927-30.48"/><path stroke="#000" stroke-width=".81" stroke-linecap="round" stroke-linejoin="round" fill-rule="evenodd" d="M321.6 234.875c13.308-11.038 53.233-11.038 66.541 0-13.308-9.191-53.233-9.191-66.541 0M321.6 255.536c13.308 9.19 53.233 9.19 66.541 0-13.308 11.037-53.233 11.037-66.541 0"/><path stroke="#000" stroke-width=".92" stroke-linejoin="bevel" d="M2.183 37.437h237.921M2.183 48.98h237.921M2.183 60.523h237.921M2.183 72.065h237.921M2.183 83.608h237.921M240.104 37.437h368.41M240.104 48.98h368.41M240.104 60.523h368.41M240.104 72.065h368.41M240.104 83.608h368.41M2.183 222.12h374.85M2.183 233.663h374.85M2.183 245.205h374.85M2.183 256.748h374.85M2.183 268.291h374.85M377.033 222.12h231.481M377.033 233.663h231.481M377.033 245.205h231.481M377.033 256.748h231.481M377.033 268.291h231.481"/><path stroke="#000" stroke-width="1.85" stroke-linejoin="bevel" d="M239.181 37.437v46.17M607.59 37.437v46.17M376.11 222.12v46.171M607.59 222.12v46.171"/><path stroke="#000" stroke-width="1.85" stroke-linecap="square" stroke-linejoin="bevel" d="M357.724 25.895h22.122M310.516 25.895h22.122M527.672 25.895h22.122"/><path stroke="#000" stroke-width="1.5" stroke-linecap="round" stroke-linejoin="bevel" d="M138.934 39.605v38.232M177.424 39.605v38.232M267.521 33.834V69.18M361.937 28.062v43.041M314.729 28.062v42.08M456.352 39.605v38.232M409.145 39.605v32.46M531.885 28.062v49.775M75.858 218.517v49.774M146.465 224.288v52.66M217.071 230.059v41.117M305.33 241.602v44.003M261.201 224.288v44.003"/><path d="M148.328 31.08c1.443 0 2.66.375 3.652 1.127.932.811 1.398 1.833 1.398 3.066 0 2.074-1.067 4.013-3.201 5.816-2.165 1.804-4.48 2.706-6.944 2.706-1.443 0-2.66-.376-3.652-1.128-.932-.811-1.398-1.833-1.398-3.066 0-2.074 1.082-4.013 3.246-5.816 2.105-1.804 4.404-2.705 6.899-2.705M186.818 31.08c1.443 0 2.66.375 3.652 1.127.932.811 1.398 1.833 1.398 3.066 0 2.074-1.067 4.013-3.201 5.816-2.165 1.804-4.48 2.706-6.944 2.706-1.443 0-2.66-.376-3.652-1.128-.932-.811-1.398-1.833-1.398-3.066 0-2.074 1.082-4.013 3.246-5.816 2.105-1.804 4.404-2.705 6.899-2.705M276.916 25.308c1.443 0 2.66.376 3.652 1.128.932.811 1.398 1.833 1.398 3.066 0 2.074-1.067 4.012-3.201 5.816-2.165 1.804-4.48 2.705-6.944 2.705-1.443 0-2.66-.375-3.652-1.127-.932-.812-1.398-1.834-1.398-3.066 0-2.074 1.082-4.013 3.246-5.816 2.105-1.804 4.404-2.706 6.899-2.706M371.33 19.537c1.444 0 2.661.376 3.653 1.127.932.812 1.398 1.834 1.398 3.066 0 2.074-1.067 4.013-3.201 5.817-2.165 1.803-4.48 2.705-6.944 2.705-1.443 0-2.66-.376-3.652-1.127-.932-.812-1.398-1.834-1.398-3.066 0-2.074 1.082-4.013 3.246-5.817 2.105-1.803 4.404-2.705 6.899-2.705M324.124 19.537c1.443 0 2.66.376 3.652 1.127.932.812 1.398 1.834 1.398 3.066 0 2.074-1.067 4.013-3.201 5.817-2.165 1.803-4.48 2.705-6.944 2.705-1.443 0-2.66-.376-3.652-1.127-.932-.812-1.398-1.834-1.398-3.066 0-2.074 1.082-4.013 3.246-5.817 2.105-1.803 4.404-2.705 6.899-2.705M465.747 31.08c1.443 0 2.66.375 3.652 1.127.932.811 1.398 1.833 1.398 3.066 0 2.074-1.067 4.013-3.201 5.816-2.165 1.804-4.48 2.706-6.944 2.706-1.443 0-2.66-.376-3.652-1.128-.932-.811-1.398-1.833-1.398-3.066 0-2.074 1.082-4.013 3.246-5.816 2.105-1.804 4.404-2.705 6.899-2.705M418.539 31.08c1.443 0 2.66.375 3.652 1.127.932.811 1.398 1.833 1.398 3.066 0 2.074-1.067 4.013-3.201 5.816-2.165 1.804-4.48 2.706-6.944 2.706-1.443 0-2.66-.376-3.652-1.128-.932-.811-1.398-1.833-1.398-3.066 0-2.074 1.082-4.013 3.246-5.816 2.105-1.804 4.404-2.705 6.899-2.705M541.279 19.537c1.443 0 2.66.376 3.652 1.127.932.812 1.398 1.834 1.398 3.066 0 2.074-1.067 4.013-3.201 5.817-2.165 1.803-4.48 2.705-6.944 2.705-1.443 0-2.66-.376-3.652-1.127-.932-.812-1.398-1.834-1.398-3.066 0-2.074 1.082-4.013 3.246-5.817 2.105-1.803 4.404-2.705 6.899-2.705"/><path d="M541.279 31.08c1.443 0 2.66.375 3.652 1.127.932.811 1.398 1.833 1.398 3.066 0 2.074-1.067 4.013-3.201 5.816-2.165 1.804-4.48 2.706-6.944 2.706-1.443 0-2.66-.376-3.652-1.128-.932-.811-1.398-1.833-1.398-3.066 0-2.074 1.082-4.013 3.246-5.816 2.105-1.804 4.404-2.705 6.899-2.705M85.252 209.991c1.443 0 2.66.376 3.653 1.128.931.811 1.397 1.833 1.397 3.066 0 2.074-1.067 4.013-3.2 5.816-2.165 1.804-4.48 2.706-6.945 2.706-1.442 0-2.66-.376-3.652-1.128-.932-.811-1.397-1.833-1.397-3.066 0-2.074 1.082-4.013 3.246-5.816 2.104-1.804 4.404-2.706 6.898-2.706"/><path d="M85.252 221.533c1.443 0 2.66.376 3.653 1.128.931.811 1.397 1.833 1.397 3.066 0 2.074-1.067 4.013-3.2 5.816-2.165 1.804-4.48 2.706-6.945 2.706-1.442 0-2.66-.376-3.652-1.128-.932-.811-1.397-1.833-1.397-3.066 0-2.074 1.082-4.013 3.246-5.816 2.104-1.804 4.404-2.706 6.898-2.706M155.859 215.762c1.443 0 2.66.376 3.652 1.128.932.811 1.398 1.833 1.398 3.066 0 2.074-1.067 4.013-3.201 5.816-2.165 1.804-4.48 2.706-6.944 2.706-1.443 0-2.66-.376-3.652-1.128-.932-.811-1.398-1.833-1.398-3.066 0-2.074 1.082-4.013 3.246-5.816 2.105-1.804 4.404-2.706 6.899-2.706M155.859 233.076c1.443 0 2.66.376 3.652 1.128.932.811 1.398 1.833 1.398 3.066 0 2.074-1.067 4.013-3.201 5.816-2.165 1.804-4.48 2.706-6.944 2.706-1.443 0-2.66-.376-3.652-1.128-.932-.811-1.398-1.833-1.398-3.066 0-2.074 1.082-4.013 3.246-5.816 2.105-1.804 4.404-2.706 6.899-2.706M226.466 221.533c1.443 0 2.66.376 3.652 1.128.932.811 1.398 1.833 1.398 3.066 0 2.074-1.067 4.013-3.201 5.816-2.165 1.804-4.48 2.706-6.944 2.706-1.443 0-2.66-.376-3.652-1.128-.932-.811-1.398-1.833-1.398-3.066 0-2.074 1.082-4.013 3.246-5.816 2.105-1.804 4.404-2.706 6.899-2.706"/><path d="M226.466 233.076c1.443 0 2.66.376 3.652 1.128.932.811 1.398 1.833 1.398 3.066 0 2.074-1.067 4.013-3.201 5.816-2.165 1.804-4.48 2.706-6.944 2.706-1.443 0-2.66-.376-3.652-1.128-.932-.811-1.398-1.833-1.398-3.066 0-2.074 1.082-4.013 3.246-5.816 2.105-1.804 4.404-2.706 6.899-2.706M314.725 233.076c1.443 0 2.66.376 3.652 1.128.932.811 1.398 1.833 1.398 3.066 0 2.074-1.067 4.013-3.201 5.816-2.165 1.804-4.48 2.706-6.944 2.706-1.443 0-2.66-.376-3.652-1.128-.932-.811-1.398-1.833-1.398-3.066 0-2.074 1.082-4.013 3.246-5.816 2.105-1.804 4.404-2.706 6.899-2.706"/><path d="M314.725 244.62c1.443 0 2.66.375 3.652 1.127.932.811 1.398 1.833 1.398 3.066 0 2.074-1.067 4.013-3.201 5.816-2.165 1.804-4.48 2.706-6.944 2.706-1.443 0-2.66-.376-3.652-1.128-.932-.811-1.398-1.833-1.398-3.066 0-2.074 1.082-4.013 3.246-5.816 2.105-1.804 4.404-2.706 6.899-2.706M270.595 215.762c1.443 0 2.66.376 3.652 1.128.932.811 1.398 1.833 1.398 3.066 0 2.074-1.067 4.013-3.201 5.816-2.165 1.804-4.48 2.706-6.944 2.706-1.443 0-2.66-.376-3.652-1.128-.932-.811-1.398-1.833-1.398-3.066 0-2.074 1.082-4.013 3.246-5.816 2.105-1.804 4.404-2.706 6.899-2.706"/><path d="M270.595 227.305c1.443 0 2.66.376 3.652 1.128.932.811 1.398 1.833 1.398 3.066 0 2.074-1.067 4.013-3.201 5.816-2.165 1.804-4.48 2.706-6.944 2.706-1.443 0-2.66-.376-3.652-1.128-.932-.811-1.398-1.833-1.398-3.066 0-2.074 1.082-4.013 3.246-5.816 2.105-1.804 4.404-2.706 6.899-2.706M400.804 234.249c-1.083 0-1.864.376-2.345 1.127-.541.721-.812 1.698-.812 2.93 0 1.414.376 2.631 1.128 3.653.751.992 1.578 1.683 2.48 2.074a5.85 5.85 0 0 0 2.57.586c1.052 0 1.848-.376 2.39-1.127.51-.752.766-1.728.766-2.93 0-1.414-.376-2.631-1.128-3.653-.751-.962-1.563-1.653-2.434-2.074-.872-.39-1.744-.586-2.615-.586m1.533-1.173c3.246 0 5.951.632 8.115 1.894 2.195 1.263 3.292 2.75 3.292 4.464 0 1.834-1.127 3.337-3.382 4.509-2.254 1.232-4.93 1.849-8.025 1.849-3.187 0-5.892-.632-8.116-1.894-2.225-1.263-3.337-2.75-3.337-4.464 0-1.834 1.142-3.337 3.427-4.509 2.254-1.232 4.93-1.849 8.026-1.849"/><path d="M400.804 245.792c-1.083 0-1.864.376-2.345 1.127-.541.721-.812 1.698-.812 2.93 0 1.414.376 2.631 1.128 3.653.751.992 1.578 1.683 2.48 2.074a5.85 5.85 0 0 0 2.57.586c1.052 0 1.848-.376 2.39-1.127.51-.752.766-1.728.766-2.93 0-1.414-.376-2.631-1.128-3.653-.751-.962-1.563-1.653-2.434-2.074-.872-.39-1.744-.586-2.615-.586m1.533-1.173c3.246 0 5.951.632 8.115 1.894 2.195 1.263 3.292 2.75 3.292 4.464 0 1.834-1.127 3.337-3.382 4.509-2.254 1.232-4.93 1.849-8.025 1.849-3.187 0-5.892-.632-8.116-1.894-2.225-1.263-3.337-2.75-3.337-4.464 0-1.834 1.142-3.337 3.427-4.509 2.254-1.232 4.93-1.849 8.026-1.849M26.524 60.252h.27c.12-.03.226-.045.316-.045 3.366 0 6.132 1.187 8.296 3.562 2.164 2.345 3.247 5.08 3.247 8.206 0 3.878-1.609 7.034-4.825 9.469-.842.66-1.939 1.202-3.291 1.623.15 1.954.225 3.532.225 4.734 0 .24-.03 1.112-.09 2.615-.12 2.796-1.082 5.215-2.886 7.26-1.743 2.013-3.907 3.02-6.493 3.02-2.434 0-4.508-.856-6.222-2.57-1.713-1.743-2.57-3.847-2.57-6.312 0-1.293.496-2.39 1.488-3.291 1.022-.902 2.21-1.353 3.562-1.353 1.202 0 2.21.466 3.021 1.398.842.871 1.262 1.953 1.262 3.246 0 1.172-.42 2.18-1.262 3.021-.842.842-1.849 1.263-3.02 1.263-.482 0-.948-.09-1.399-.271 1.323 1.954 3.081 2.93 5.276 2.93 2.074 0 3.772-.841 5.095-2.524 1.382-1.744 2.134-3.773 2.254-6.087.06-1.443.09-2.27.09-2.48 0-1.683-.06-3.066-.18-4.148-1.503.24-2.84.36-4.013.36-4.178 0-7.74-1.653-10.686-4.96-2.886-3.336-4.328-7.304-4.328-11.903 0-.962.09-1.939.27-2.93.18-.812.406-1.699.676-2.66.15-.542.557-1.413 1.218-2.616.24-.36.51-.811.811-1.353.301-.54.511-.901.632-1.082.3-.6.886-1.412 1.758-2.434.24-.271.489-.572.744-.902.256-.33.473-.601.654-.812.18-.21.315-.376.406-.496.09-.12.766-.917 2.029-2.39.3-.3.593-.623.879-.969.285-.346.518-.616.699-.811.18-.196.315-.339.406-.429-1.083-3.577-1.759-6.432-2.03-8.567-.21-1.713-.315-4.058-.315-7.034 0-2.615.601-5.064 1.803-7.349 1.173-2.375 2.811-4.314 4.915-5.816a.87.87 0 0 1 .451-.136c.21 0 .36.045.45.136 1.624 1.953 3.022 4.493 4.194 7.62 1.203 3.126 1.804 5.966 1.804 8.521 0 2.886-.692 5.591-2.074 8.116-1.563 2.675-3.577 5.441-6.042 8.297.631 1.984 1.473 5.095 2.525 9.333m3.832 20.966c1.563-.57 2.78-1.548 3.652-2.93.962-1.323 1.443-2.811 1.443-4.464 0-2.135-.721-4.028-2.164-5.682-1.473-1.713-3.352-2.675-5.636-2.885 1.292 6.342 2.194 11.663 2.705 15.961m-17.45-10.415c0 2.976 1.203 5.59 3.608 7.845 2.465 2.194 5.23 3.292 8.296 3.292 1.263 0 2.495-.09 3.698-.27-.481-4.57-1.428-10.04-2.841-16.413-1.713.18-3.081.781-4.103 1.803-.992 1.052-1.488 2.24-1.488 3.562 0 2.285 1.217 4.133 3.652 5.546.21.21.316.436.316.677 0 .24-.105.466-.316.676a.854.854 0 0 1-.676.316c-.03 0-.165-.03-.406-.09-1.713-.932-3.036-2.135-3.968-3.608-.871-1.563-1.307-3.14-1.307-4.734 0-2.074.646-3.953 1.939-5.636 1.352-1.683 3.11-2.766 5.275-3.246-.842-3.367-1.533-5.997-2.074-7.891-.481.541-1.06 1.195-1.736 1.961a62.549 62.549 0 0 0-1.195 1.376 195.755 195.755 0 0 0-2.48 3.291c-1.022 1.413-1.773 2.63-2.254 3.652a28.6 28.6 0 0 0-1.353 3.743c-.39 1.292-.586 2.675-.586 4.148m15.06-45.856c-2.255 1.113-4.028 2.706-5.32 4.78-1.323 2.134-1.985 4.434-1.985 6.898 0 2.165.541 5.08 1.623 8.748 2.165-2.615 3.788-5.035 4.87-7.26 1.142-2.344 1.713-4.794 1.713-7.349 0-1.924-.3-3.863-.901-5.817M26.524 244.935h.27c.12-.03.226-.045.316-.045 3.366 0 6.132 1.187 8.296 3.562 2.164 2.344 3.247 5.08 3.247 8.206 0 3.877-1.609 7.034-4.825 9.468-.842.662-1.939 1.203-3.291 1.624.15 1.953.225 3.532.225 4.734 0 .24-.03 1.112-.09 2.615-.12 2.796-1.082 5.215-2.886 7.26-1.743 2.013-3.907 3.02-6.493 3.02-2.434 0-4.508-.856-6.222-2.57-1.713-1.743-2.57-3.847-2.57-6.312 0-1.293.496-2.39 1.488-3.292 1.022-.901 2.21-1.352 3.562-1.352 1.202 0 2.21.466 3.021 1.397.842.872 1.262 1.954 1.262 3.247 0 1.172-.42 2.18-1.262 3.02-.842.843-1.849 1.263-3.02 1.263-.482 0-.948-.09-1.399-.27 1.323 1.954 3.081 2.93 5.276 2.93 2.074 0 3.772-.841 5.095-2.524 1.382-1.744 2.134-3.773 2.254-6.087.06-1.443.09-2.27.09-2.48 0-1.684-.06-3.066-.18-4.148-1.503.24-2.84.36-4.013.36-4.178 0-7.74-1.653-10.686-4.96-2.886-3.336-4.328-7.304-4.328-11.903 0-.962.09-1.939.27-2.93.18-.812.406-1.699.676-2.66.15-.542.557-1.414 1.218-2.616.24-.36.51-.812.811-1.353.301-.54.511-.902.632-1.082.3-.601.886-1.413 1.758-2.435.24-.27.489-.57.744-.901.256-.331.473-.602.654-.812.18-.21.315-.376.406-.496.09-.12.766-.917 2.029-2.39.3-.3.593-.623.879-.97.285-.345.518-.615.699-.81.18-.196.315-.339.406-.43-1.083-3.576-1.759-6.432-2.03-8.566-.21-1.713-.315-4.058-.315-7.034 0-2.615.601-5.065 1.803-7.35 1.173-2.374 2.811-4.313 4.915-5.816a.87.87 0 0 1 .451-.135c.21 0 .36.045.45.135 1.624 1.954 3.022 4.494 4.194 7.62 1.203 3.126 1.804 5.967 1.804 8.522 0 2.886-.692 5.591-2.074 8.116-1.563 2.675-3.577 5.44-6.042 8.296.631 1.984 1.473 5.095 2.525 9.334m3.832 20.966c1.563-.571 2.78-1.548 3.652-2.93.962-1.323 1.443-2.811 1.443-4.465 0-2.134-.721-4.027-2.164-5.68-1.473-1.714-3.352-2.676-5.636-2.886 1.292 6.342 2.194 11.663 2.705 15.961m-17.45-10.415c0 2.975 1.203 5.59 3.608 7.845 2.465 2.194 5.23 3.291 8.296 3.291 1.263 0 2.495-.09 3.698-.27-.481-4.57-1.428-10.04-2.841-16.412-1.713.18-3.081.781-4.103 1.803-.992 1.052-1.488 2.24-1.488 3.562 0 2.285 1.217 4.133 3.652 5.546.21.21.316.436.316.676 0 .24-.105.466-.316.677a.854.854 0 0 1-.676.315c-.03 0-.165-.03-.406-.09-1.713-.932-3.036-2.134-3.968-3.607-.871-1.563-1.307-3.141-1.307-4.734 0-2.074.646-3.953 1.939-5.636 1.352-1.684 3.11-2.766 5.275-3.247-.842-3.366-1.533-5.997-2.074-7.89-.481.54-1.06 1.195-1.736 1.961a62.549 62.549 0 0 0-1.195 1.375 195.755 195.755 0 0 0-2.48 3.292c-1.022 1.413-1.773 2.63-2.254 3.652a28.6 28.6 0 0 0-1.353 3.742c-.39 1.293-.586 2.676-.586 4.149m15.06-45.856c-2.255 1.112-4.028 2.706-5.32 4.78-1.323 2.134-1.985 4.433-1.985 6.898 0 2.164.541 5.08 1.623 8.748 2.165-2.616 3.788-5.035 4.87-7.26 1.142-2.344 1.713-4.794 1.713-7.35 0-1.923-.3-3.862-.901-5.816M46.79 58.629v3.562c0 1.262.06 2.27.18 3.02.992-.84 1.699-1.472 2.12-1.893.48-.481.961-1.142 1.442-1.984.481-.842.722-1.683.722-2.525 0-.842-.18-1.563-.541-2.164-.36-.601-.842-.902-1.443-.902-.721 0-1.323.27-1.804.812a3.364 3.364 0 0 0-.676 2.074m-1.894 8.251l-.586-27.459c.421-.24.842-.36 1.263-.36.42 0 .841.12 1.262.36l-.36 15.916c1.232-1.052 2.645-1.578 4.238-1.578 1.172 0 2.149.481 2.93 1.443a5.076 5.076 0 0 1 1.173 3.292c0 .781-.256 1.608-.767 2.48-.48.811-.992 1.442-1.533 1.893-.3.24-1.067.842-2.3 1.804-.36.27-.788.586-1.284.947-.496.36-.804.586-.925.676-.21.12-.405.36-.586.721-.21.3-.45.556-.721.767-.21.18-.466.27-.767.27a.902.902 0 0 1-.721-.315c-.21-.21-.316-.496-.316-.857M46.79 243.311v3.562c0 1.263.06 2.27.18 3.021.992-.841 1.699-1.473 2.12-1.893.48-.481.961-1.143 1.442-1.984.481-.842.722-1.684.722-2.525 0-.842-.18-1.563-.541-2.165-.36-.6-.842-.901-1.443-.901-.721 0-1.323.27-1.804.811a3.364 3.364 0 0 0-.676 2.074m-1.894 8.252l-.586-27.46c.421-.24.842-.36 1.263-.36.42 0 .841.12 1.262.36l-.36 15.917c1.232-1.052 2.645-1.578 4.238-1.578 1.172 0 2.149.48 2.93 1.443a5.076 5.076 0 0 1 1.173 3.291c0 .782-.256 1.608-.767 2.48-.48.811-.992 1.443-1.533 1.894-.3.24-1.067.841-2.3 1.803-.36.27-.788.586-1.284.947-.496.36-.804.586-.925.676-.21.12-.405.361-.586.722-.21.3-.45.556-.721.766-.21.18-.466.27-.767.27a.902.902 0 0 1-.721-.315c-.21-.21-.316-.496-.316-.856M71.165 38.023c.902 0 1.668-.105 2.3-.315.63-.21 1.037-.316 1.217-.316.21 0 .376.06.496.18.09.09.15.196.18.316 0 .06-.03.15-.09.27l-13.12 15.24h7.71v-6.041c0-.391.105-.722.315-.992.36-.3.661-.481.902-.541.39-.18.872-.602 1.443-1.263.48-.541 1.052-1.488 1.713-2.84.09-.18.225-.271.406-.271.36 0 .57.21.631.631v11.317h3.292c.42 0 .66.226.72.677 0 .45-.24.676-.72.676h-3.292v.36c0 1.203.3 2.225.902 3.067.691.842 1.503 1.262 2.435 1.262.36 0 .54.18.54.541 0 .361-.18.541-.54.541-.632 0-1.654-.09-3.066-.27-1.293-.21-2.3-.316-3.021-.316-.752 0-1.759.106-3.021.316-1.353.18-2.36.27-3.021.27-.36 0-.541-.18-.541-.54 0-.361.18-.542.54-.542.933 0 1.744-.42 2.436-1.262.63-.842.946-1.864.946-3.066v-.36h-7.71c-.51 0-.871-.121-1.082-.362a.857.857 0 0 1-.36-.721c0-.09.225-.406.676-.947a22.334 22.334 0 0 0 1.623-2.21 54.755 54.755 0 0 0 1.894-3.155c.661-1.233 1.187-2.646 1.578-4.239.45-1.623.676-3.276.676-4.96 0-.48.21-.72.631-.72.09 0 .286.044.586.134.09.03.279.076.564.136.286.06.519.12.699.18.541.09 1.052.135 1.533.135"/><path d="M71.165 61.109c.902 0 1.668-.106 2.3-.316.63-.21 1.037-.316 1.217-.316.21 0 .376.06.496.18.09.091.15.196.18.316 0 .06-.03.15-.09.27l-13.12 15.24h7.71v-6.041c0-.39.105-.721.315-.992.36-.3.661-.48.902-.541.39-.18.872-.601 1.443-1.262.48-.542 1.052-1.488 1.713-2.841.09-.18.225-.27.406-.27.36 0 .57.21.631.63v11.318h3.292c.42 0 .66.225.72.676 0 .451-.24.677-.72.677h-3.292v.36c0 1.203.3 2.225.902 3.066.691.842 1.503 1.263 2.435 1.263.36 0 .54.18.54.54 0 .362-.18.542-.54.542-.632 0-1.654-.09-3.066-.27-1.293-.211-2.3-.316-3.021-.316-.752 0-1.759.105-3.021.315-1.353.18-2.36.27-3.021.27-.36 0-.541-.18-.541-.54 0-.36.18-.541.54-.541.933 0 1.744-.421 2.436-1.263.63-.841.946-1.863.946-3.066v-.36h-7.71c-.51 0-.871-.12-1.082-.361a.857.857 0 0 1-.36-.722c0-.09.225-.405.676-.946a22.334 22.334 0 0 0 1.623-2.21 54.755 54.755 0 0 0 1.894-3.156c.661-1.232 1.187-2.645 1.578-4.238.45-1.624.676-3.277.676-4.96 0-.481.21-.721.631-.721.09 0 .286.045.586.135.09.03.279.075.564.135.286.06.519.12.699.18.541.09 1.052.136 1.533.136M102.94 51.054c.871 0 1.533.24 1.984.721.45.541.691 1.052.721 1.533.06.451.21.962.451 1.533.27.481.616.722 1.037.722.33 0 .827-.376 1.488-1.127.601-.662 1.037-1.248 1.308-1.759.15-.3.36-.45.63-.45h.046c.3.03.51.18.631.45l-5.681 19.388c-.3.3-.721.451-1.263.451-.54 0-.961-.15-1.262-.45l5.41-15.06c-1.923.69-3.546 1.037-4.869 1.037-1.082 0-2.014-.346-2.795-1.037-.812-.662-1.218-1.533-1.218-2.616 0-.931.33-1.713.992-2.344a3.257 3.257 0 0 1 2.39-.992"/><path fill-rule="evenodd" d="M266.771 66.294l143.124 2.916v5.771l-143.124-2.916v-5.771M216.321 268.291l45.63-2.984v5.771l-45.63 2.984v-5.771"/><path d="M148.689 44.426c.691 0 1.427 1.127 2.209 3.381.751 2.225 1.127 4.344 1.127 6.358 0 1.713-.42 3.412-1.262 5.095-.872 1.804-1.909 3.367-3.111 4.69l-3.698 4.147c-1.142 1.323-2.164 2.856-3.066 4.6-.841 1.683-1.262 3.396-1.262 5.14h-1.443V66.293h1.443c.811-.511 2.014-1.323 3.607-2.435.721-.541 1.803-1.443 3.246-2.705 1.173-1.082 2.06-2.195 2.66-3.337.632-1.202.947-2.42.947-3.652 0-2.856-.826-5.696-2.48-8.522v-.18c0-.27.09-.496.271-.676.24-.241.511-.361.812-.361M144.504 127.054v-11.1c0-.917-.138-1.505-.413-1.763-.275-.258-.946-.421-2.012-.487v-.475h7.425v.475c-1.05.05-1.721.208-2.013.475-.292.266-.437.858-.437 1.775v11.1c0 .916.15 1.512.45 1.787.3.275.966.429 2 .463v.475h-7.425v-.475c1.05-.034 1.716-.184 2-.45.283-.267.425-.867.425-1.8M174.1 122.029c-.45-1.334-.796-2.171-1.038-2.513-.241-.342-.637-.546-1.187-.612v-.375h5.075v.375c-.584.083-.971.183-1.163.3-.191.116-.287.316-.287.6 0 .216.141.708.425 1.475l2.1 5.6 2.25-5.55c.283-.7.425-1.25.425-1.65 0-.217-.075-.38-.225-.488-.15-.108-.442-.204-.875-.287v-.375h3.075v.375c-.25.083-.429.2-.538.35-.108.15-.271.483-.487 1l-3.45 8.65c-.334.816-.567 1.225-.7 1.225-.134 0-.334-.359-.6-1.075l-2.275-5.9-2.8 6c-.3.65-.509.975-.625.975-.134 0-.35-.367-.65-1.1l-3.375-8.55c-.25-.634-.459-1.046-.625-1.238-.167-.192-.4-.304-.7-.337v-.375h4.5v.375c-.434.05-.734.133-.9.25-.167.116-.25.308-.25.575 0 .25.05.5.15.75l2.475 6.525 2.275-4.975m9.312 5.325c0-.3.034-.58.1-.838.067-.258.184-.5.35-.725.167-.225.325-.429.475-.612.15-.184.375-.371.675-.563.3-.192.55-.35.75-.475a7.1 7.1 0 0 1 .913-.45l.937-.4a137.252 137.252 0 0 1 2.05-.812v-1.525c0-1.384-.633-2.075-1.9-2.075-.5 0-.925.12-1.275.362-.35.242-.525.529-.525.863 0 .133.021.316.063.55.041.233.062.383.062.45a.972.972 0 0 1-.337.737 1.126 1.126 0 0 1-.788.313c-.283 0-.533-.109-.75-.325a1.034 1.034 0 0 1-.325-.75c0-.784.404-1.446 1.213-1.988.808-.542 1.804-.812 2.987-.812 1.367 0 2.309.329 2.825.987.517.658.775 1.663.775 3.013v4.875c0 .55.054.929.163 1.137.108.208.304.313.587.313.35 0 .717-.159 1.1-.475v.65c-.433.483-.812.812-1.137.987a2.31 2.31 0 0 1-1.113.263c-.516 0-.896-.142-1.137-.425-.242-.284-.396-.75-.463-1.4-1.433 1.216-2.65 1.825-3.65 1.825-.766 0-1.396-.25-1.887-.75-.492-.5-.738-1.142-.738-1.925m6.25-.65v-3.625c-1.5.55-2.55 1.083-3.15 1.6-.6.516-.9 1.141-.9 1.875 0 .683.167 1.191.5 1.525.334.333.692.5 1.075.5.567 0 1.175-.192 1.825-.575.267-.15.442-.309.525-.475.084-.167.125-.442.125-.825m10.7-7.925c.017 0 .15-.084.4-.25h.275l.1 3.4h-.375c-.283-1.117-.633-1.909-1.05-2.375-.416-.467-.983-.7-1.7-.7-.566 0-1.029.158-1.387.475-.359.316-.538.725-.538 1.225 0 .716.359 1.283 1.075 1.7l2.7 1.6c.75.45 1.288.904 1.613 1.362.325.458.487.996.487 1.613 0 .866-.346 1.616-1.037 2.25-.692.633-1.521.95-2.488.95-.416 0-.975-.075-1.675-.225-.7-.15-1.133-.225-1.3-.225a.65.65 0 0 0-.575.3h-.325v-3.9h.4c.267 1.166.584 1.991.95 2.475.534.683 1.275 1.025 2.225 1.025.634 0 1.138-.163 1.513-.488.375-.325.562-.762.562-1.312 0-.75-.433-1.375-1.3-1.875l-1.45-.825c-1.066-.6-1.821-1.175-2.262-1.725a2.912 2.912 0 0 1-.663-1.875c0-.9.321-1.638.963-2.213.641-.575 1.454-.862 2.437-.862.55 0 1.067.079 1.55.237.484.158.775.238.875.238M260.663 118.779c.017 0 .15-.084.4-.25h.275l.1 3.4h-.375c-.283-1.117-.633-1.909-1.05-2.375-.417-.467-.983-.7-1.7-.7-.567 0-1.029.158-1.388.475-.358.316-.537.725-.537 1.225 0 .716.358 1.283 1.075 1.7l2.7 1.6c.75.45 1.287.904 1.612 1.362.325.458.488.996.488 1.613 0 .866-.346 1.616-1.038 2.25-.691.633-1.52.95-2.487.95-.417 0-.975-.075-1.675-.225-.7-.15-1.133-.225-1.3-.225a.65.65 0 0 0-.575.3h-.325v-3.9h.4c.267 1.166.583 1.991.95 2.475.533.683 1.275 1.025 2.225 1.025.633 0 1.137-.163 1.512-.488.375-.325.563-.762.563-1.312 0-.75-.433-1.375-1.3-1.875l-1.45-.825c-1.067-.6-1.821-1.175-2.263-1.725a2.917 2.917 0 0 1-.662-1.875c0-.9.321-1.638.962-2.213.642-.575 1.455-.862 2.438-.862.55 0 1.067.079 1.55.237.483.158.775.238.875.238m2.822 1.175v-.4c1.05-.317 2.25-.742 3.6-1.275l.15.05v1.925c1.067-1.317 2.267-1.975 3.6-1.975 1.217 0 2.217.5 3 1.5.783 1 1.175 2.275 1.175 3.825 0 1.816-.504 3.341-1.513 4.575-1.008 1.233-2.254 1.85-3.737 1.85-.533 0-.979-.075-1.338-.225-.358-.15-.754-.434-1.187-.85v3.925c0 .783.133 1.287.4 1.512.267.225.867.346 1.8.363v.45h-6.05v-.425c.733-.067 1.208-.209 1.425-.425.217-.217.325-.65.325-1.3v-11.7c0-.584-.067-.967-.2-1.15-.133-.184-.408-.275-.825-.275-.267 0-.475.008-.625.025m3.75 1.475v6.15c0 .366.287.733.862 1.1.575.366 1.155.55 1.738.55.9 0 1.629-.43 2.187-1.288.559-.858.838-1.979.838-3.362 0-1.45-.279-2.613-.838-3.488-.558-.875-1.304-1.312-2.237-1.312-.583 0-1.154.183-1.713.55-.558.366-.837.733-.837 1.1m9.95-1.475a7.07 7.07 0 0 0-1.05.075v-.375c1.167-.334 2.458-.792 3.875-1.375l.1.075v8.875c0 .9.104 1.47.312 1.712.209.242.721.396 1.538.463v.375h-5.925v-.375c.867-.05 1.412-.2 1.637-.45.225-.25.338-.825.338-1.725v-5.8c0-.55-.063-.934-.188-1.15-.125-.217-.337-.325-.637-.325m1.65-7.25c.367 0 .675.125.925.375s.375.55.375.9c0 .366-.125.67-.375.912s-.558.363-.925.363c-.35 0-.646-.125-.888-.375a1.251 1.251 0 0 1-.362-.9c0-.35.125-.65.375-.9a1.2 1.2 0 0 1 .875-.375m3.987 7.125v-.425a65.172 65.172 0 0 0 3.45-1.125l.175.05v1.975c.85-.8 1.521-1.338 2.013-1.613a3.247 3.247 0 0 1 1.612-.412c.917 0 1.638.329 2.163.987.525.658.787 1.579.787 2.763v5.725c0 .616.1 1.029.3 1.237.2.208.609.346 1.225.413v.375h-5.2v-.375c.634-.05 1.055-.217 1.263-.5.208-.284.312-.817.312-1.6v-5.225c0-1.617-.608-2.425-1.825-2.425-.416 0-.8.095-1.15.287-.35.192-.825.571-1.425 1.138v7.025c0 .45.117.766.35.95.234.183.667.3 1.3.35v.375h-5.3v-.375c.634-.05 1.05-.196 1.25-.438.2-.242.3-.721.3-1.437v-6.2c0-.617-.066-1.038-.2-1.263-.133-.225-.375-.337-.725-.337-.316 0-.541.033-.675.1M306.14 119.829v-.425a65.78 65.78 0 0 0 3.45-1.125l.175.05v1.975c.85-.8 1.52-1.338 2.012-1.613a3.248 3.248 0 0 1 1.613-.412c.916 0 1.637.329 2.162.987.525.658.788 1.579.788 2.763v5.725c0 .616.1 1.029.3 1.237.2.208.608.346 1.225.413v.375h-5.2v-.375c.633-.05 1.054-.217 1.262-.5.208-.284.313-.817.313-1.6v-5.225c0-1.617-.609-2.425-1.825-2.425-.417 0-.8.095-1.15.287-.35.192-.825.571-1.425 1.138v7.025c0 .45.116.766.35.95.233.183.666.3 1.3.35v.375h-5.3v-.375c.633-.05 1.05-.196 1.25-.438.2-.242.3-.721.3-1.437v-6.2c0-.617-.067-1.038-.2-1.263-.134-.225-.375-.337-.725-.337-.317 0-.542.033-.675.1m13.518.125a7.09 7.09 0 0 0-1.05.075v-.375a37.126 37.126 0 0 0 3.875-1.375l.1.075v8.875c0 .9.104 1.47.313 1.712.208.242.721.396 1.537.463v.375h-5.925v-.375c.867-.05 1.413-.2 1.638-.45.225-.25.337-.825.337-1.725v-5.8c0-.55-.062-.934-.187-1.15-.125-.217-.338-.325-.638-.325m1.65-7.25c.367 0 .675.125.925.375s.375.55.375.9c0 .366-.125.67-.375.912s-.558.363-.925.363c-.35 0-.646-.125-.887-.375a1.248 1.248 0 0 1-.363-.9c0-.35.125-.65.375-.9a1.2 1.2 0 0 1 .875-.375m3.988 7.125v-.425a65.78 65.78 0 0 0 3.45-1.125l.175.05v1.975c.85-.8 1.521-1.338 2.012-1.613a3.248 3.248 0 0 1 1.613-.412c.916 0 1.637.329 2.162.987.525.658.788 1.579.788 2.763v5.725c0 .616.1 1.029.3 1.237.2.208.608.346 1.225.413v.375h-5.2v-.375c.633-.05 1.054-.217 1.262-.5.209-.284.313-.817.313-1.6v-5.225c0-1.617-.609-2.425-1.825-2.425-.417 0-.8.095-1.15.287-.35.192-.825.571-1.425 1.138v7.025c0 .45.116.766.35.95.233.183.666.3 1.3.35v.375h-5.3v-.375c.633-.05 1.05-.196 1.25-.438.2-.242.3-.721.3-1.437v-6.2c0-.617-.067-1.038-.2-1.263-.134-.225-.375-.337-.725-.337-.317 0-.542.033-.675.1M403.705 115.279a.935.935 0 0 1-.687-.288 2.154 2.154 0 0 1-.45-.65 1.852 1.852 0 0 0-.5-.65 1.21 1.21 0 0 0-.813-.287c-.95 0-1.425.741-1.425 2.225v2.9h3.075v.8h-3.05v7.85c0 .933.133 1.529.4 1.787s.908.404 1.925.438v.375h-6.5v-.375c.9-.05 1.471-.205 1.713-.463.241-.258.362-.846.362-1.762v-7.85h-2.05v-.8h2.05c.033-1.867.383-3.305 1.05-4.313.667-1.008 1.783-1.512 3.35-1.512.75 0 1.371.145 1.863.437.491.292.737.663.737 1.113a.97.97 0 0 1-.312.725c-.209.2-.455.3-.738.3m8.563 5.45c-.25 0-.559-.146-.925-.438-.367-.292-.609-.437-.725-.437-.334 0-.709.241-1.125.725-.417.483-.625.925-.625 1.325v5.625c0 .716.141 1.2.425 1.45.283.25.85.391 1.7.425v.375h-6v-.375c.8-.15 1.295-.317 1.487-.5.192-.184.288-.592.288-1.225v-6.25c0-.55-.063-.938-.188-1.163-.125-.225-.346-.337-.662-.337a4.24 4.24 0 0 0-.875.1v-.4a52.577 52.577 0 0 0 3.7-1.35l.125.05v2.3c.616-.884 1.141-1.496 1.575-1.838a2.247 2.247 0 0 1 1.425-.512c.433 0 .77.116 1.012.35.242.233.363.558.363.975 0 .35-.088.625-.263.825-.175.2-.412.3-.712.3m3.525 2.125c.033 1.05.175 1.954.425 2.712.25.758.575 1.325.975 1.7s.804.642 1.212.8c.408.158.838.238 1.288.238.8 0 1.495-.2 2.087-.6.592-.4 1.188-1.075 1.788-2.025l.4.175c-.517 1.35-1.234 2.383-2.15 3.1a4.98 4.98 0 0 1-3.15 1.075c-1.434 0-2.571-.505-3.413-1.513-.842-1.008-1.262-2.371-1.262-4.087 0-1.85.487-3.338 1.462-4.463s2.229-1.687 3.763-1.687c1.266 0 2.25.379 2.95 1.137.7.758 1.141 1.904 1.325 3.438h-7.7m.05-.8h5.1c-.167-1.084-.425-1.834-.775-2.25-.35-.417-.909-.625-1.675-.625-1.5 0-2.384.958-2.65 2.875m11.043.8c.034 1.05.175 1.954.425 2.712.25.758.575 1.325.975 1.7s.805.642 1.213.8c.408.158.837.238 1.287.238.8 0 1.496-.2 2.088-.6.592-.4 1.187-1.075 1.787-2.025l.4.175c-.516 1.35-1.233 2.383-2.15 3.1-.916.716-1.966 1.075-3.15 1.075-1.433 0-2.57-.505-3.412-1.513-.842-1.008-1.263-2.371-1.263-4.087 0-1.85.488-3.338 1.463-4.463.975-1.125 2.229-1.687 3.762-1.687 1.267 0 2.25.379 2.95 1.137.7.758 1.142 1.904 1.325 3.438h-7.7m.05-.8h5.1c-.166-1.084-.425-1.834-.775-2.25-.35-.417-.908-.625-1.675-.625-1.5 0-2.383.958-2.65 2.875m12.169 7.775l-.2.05c-.15.033-.308.05-.475.05-.45 0-.808-.113-1.075-.338-.267-.225-.4-.537-.4-.937 0-.417.138-.759.413-1.025.275-.267.629-.4 1.062-.4a1.84 1.84 0 0 1 1.425.637c.383.425.575.954.575 1.588 0 .75-.258 1.475-.775 2.175-.517.7-1.192 1.258-2.025 1.675l-.225-.475c1.367-.934 2.05-1.817 2.05-2.65 0-.234-.117-.35-.35-.35M538.517 122.029c-.45-1.334-.796-2.171-1.037-2.513-.242-.342-.638-.546-1.188-.612v-.375h5.075v.375c-.583.083-.971.183-1.162.3-.192.116-.288.316-.288.6 0 .216.142.708.425 1.475l2.1 5.6 2.25-5.55c.284-.7.425-1.25.425-1.65 0-.217-.075-.38-.225-.488-.15-.108-.441-.204-.875-.287v-.375h3.075v.375c-.25.083-.429.2-.537.35-.109.15-.271.483-.488 1l-3.45 8.65c-.333.816-.566 1.225-.7 1.225-.133 0-.333-.359-.6-1.075l-2.275-5.9-2.8 6c-.3.65-.508.975-.625.975-.133 0-.35-.367-.65-1.1l-3.375-8.55c-.25-.634-.458-1.046-.625-1.238-.166-.192-.4-.304-.7-.337v-.375h4.5v.375c-.433.05-.733.133-.9.25-.166.116-.25.308-.25.575 0 .25.05.5.15.75l2.475 6.525 2.275-4.975m12.638-.825v6.025c0 .866.1 1.425.3 1.675.2.25.666.416 1.4.5v.375h-5.4v-.375c.716-.1 1.162-.267 1.337-.5.175-.234.263-.792.263-1.675v-11.775c0-.534-.071-.884-.213-1.05-.141-.167-.454-.25-.937-.25-.117 0-.259.016-.425.05v-.4a48.857 48.857 0 0 0 3.55-1.1l.125.075v7.6c.566-.75 1.137-1.288 1.712-1.613.575-.325 1.229-.487 1.963-.487 2.05 0 3.075 1.325 3.075 3.975v4.975c0 .866.079 1.412.237 1.637.159.225.579.404 1.263.538v.375h-5.3v-.375c.716-.067 1.179-.234 1.387-.5.209-.267.313-.825.313-1.675v-4.95c0-1.767-.625-2.65-1.875-2.65-.484 0-.938.12-1.363.362-.425.242-.896.646-1.412 1.213m14.637-2.925c1.6 0 2.917.533 3.95 1.6 1.034 1.066 1.55 2.416 1.55 4.05 0 1.733-.533 3.183-1.6 4.35-1.066 1.166-2.383 1.75-3.95 1.75-1.566 0-2.871-.563-3.912-1.688-1.042-1.125-1.563-2.529-1.563-4.212 0-1.717.513-3.121 1.538-4.213s2.354-1.637 3.987-1.637m-3.275 4.625c0 1.783.325 3.3.975 4.55.65 1.25 1.5 1.875 2.55 1.875.934 0 1.667-.4 2.2-1.2.534-.8.8-1.909.8-3.325 0-1.717-.333-3.117-1-4.2-.666-1.084-1.525-1.625-2.575-1.625-.883 0-1.596.358-2.137 1.075-.542.716-.813 1.666-.813 2.85m10.016 4.45c0-.3.033-.58.1-.838s.183-.5.35-.725c.167-.225.325-.429.475-.612.15-.184.375-.371.675-.563.3-.192.55-.35.75-.475.2-.125.504-.275.912-.45l.938-.4a121.707 121.707 0 0 1 2.05-.812v-1.525c0-1.384-.633-2.075-1.9-2.075-.5 0-.925.12-1.275.362-.35.242-.525.529-.525.863 0 .133.021.316.062.55.042.233.063.383.063.45a.973.973 0 0 1-.338.737 1.123 1.123 0 0 1-.787.313c-.283 0-.533-.109-.75-.325a1.03 1.03 0 0 1-.325-.75c0-.784.404-1.446 1.212-1.988.809-.542 1.805-.812 2.988-.812 1.367 0 2.308.329 2.825.987.517.658.775 1.663.775 3.013v4.875c0 .55.054.929.162 1.137.109.208.305.313.588.313.35 0 .717-.159 1.1-.475v.65c-.433.483-.813.812-1.138.987a2.307 2.307 0 0 1-1.112.263c-.517 0-.896-.142-1.138-.425-.241-.284-.395-.75-.462-1.4-1.433 1.216-2.65 1.825-3.65 1.825-.767 0-1.396-.25-1.888-.75-.491-.5-.737-1.142-.737-1.925m6.25-.65v-3.625c-1.5.55-2.55 1.083-3.15 1.6-.6.516-.9 1.141-.9 1.875 0 .683.167 1.191.5 1.525.333.333.692.5 1.075.5.567 0 1.175-.192 1.825-.575.267-.15.442-.309.525-.475.083-.167.125-.442.125-.825M306.765 302.961c1.6 0 2.917.534 3.95 1.6 1.034 1.067 1.55 2.417 1.55 4.05 0 1.734-.533 3.184-1.6 4.35-1.066 1.167-2.383 1.75-3.95 1.75-1.566 0-2.87-.562-3.912-1.687-1.042-1.125-1.563-2.529-1.563-4.213 0-1.716.513-3.12 1.538-4.212 1.025-1.092 2.354-1.638 3.987-1.638m-3.275 4.625c0 1.784.325 3.3.975 4.55.65 1.25 1.5 1.875 2.55 1.875.934 0 1.667-.4 2.2-1.2.534-.8.8-1.908.8-3.325 0-1.716-.333-3.116-1-4.2-.666-1.083-1.525-1.625-2.575-1.625-.883 0-1.595.359-2.137 1.075-.542.717-.813 1.667-.813 2.85m10.016 4.45c0-.3.033-.579.1-.837s.183-.5.35-.725c.167-.225.325-.429.475-.613.15-.183.375-.37.675-.562.3-.192.55-.35.75-.475a7.1 7.1 0 0 1 .913-.45l.937-.4c.217-.092.558-.229 1.025-.413l1.025-.4v-1.525c0-1.383-.633-2.075-1.9-2.075-.5 0-.925.121-1.275.363-.35.242-.525.529-.525.862 0 .134.021.317.063.55.041.234.062.384.062.45 0 .284-.112.53-.337.738a1.125 1.125 0 0 1-.788.312 1.03 1.03 0 0 1-.75-.325 1.027 1.027 0 0 1-.325-.75c0-.783.404-1.445 1.213-1.987.808-.542 1.804-.813 2.987-.813 1.367 0 2.308.33 2.825.988.517.658.775 1.662.775 3.012v4.875c0 .55.054.93.163 1.138.108.208.304.312.587.312.35 0 .717-.158 1.1-.475v.65c-.433.484-.812.813-1.137.988a2.31 2.31 0 0 1-1.113.262c-.517 0-.896-.141-1.137-.425-.242-.283-.396-.75-.463-1.4-1.433 1.217-2.65 1.825-3.65 1.825-.767 0-1.396-.25-1.887-.75-.492-.5-.738-1.141-.738-1.925m6.25-.65v-3.625c-1.5.55-2.55 1.084-3.15 1.6-.6.517-.9 1.142-.9 1.875 0 .684.167 1.192.5 1.525.333.334.692.5 1.075.5.567 0 1.175-.191 1.825-.575.267-.15.442-.308.525-.475.083-.166.125-.441.125-.825"/><path fill="none" stroke="#000" stroke-width="1.73" stroke-linejoin="bevel" d="M172.852 307.594h9.234M295.719 122.911h9.234M591.316 122.911h9.234"/></svg>