<?xml version="1.0" encoding="UTF-8" standalone="no"?>
<svg width="611px" height="119px" viewBox="0 0 611 119"
 xmlns="http://www.w3.org/2000/svg" xmlns:xlink="http://www.w3.org/1999/xlink" version="1.2" baseProfile="tiny">
<title>Sweetness</title>
<desc>Generated by MuseScore 2.1.0</desc>
<path class="" stroke="#000000" stroke-width="0.63" stroke-linecap="round" stroke-linejoin="round" fill-rule="evenodd" d="M223.886,16.1009 C227.459,11.7796 238.179,11.7796 241.752,16.1009 C238.179,13.22 227.459,13.22 223.886,16.1009"/>
<path class="" stroke="#000000" stroke-width="0.63" stroke-linecap="round" stroke-linejoin="round" fill-rule="evenodd" d="M282.894,25.1038 C288.069,20.4507 303.593,20.4507 308.768,25.1038 C303.593,21.8911 288.069,21.8911 282.894,25.1038"/>
<path class="" stroke="#000000" stroke-width="0.63" stroke-linecap="round" stroke-linejoin="round" fill-rule="evenodd" d="M223.886,56.9285 C227.459,59.8094 238.179,59.8094 241.752,56.9285 C238.179,61.2499 227.459,61.2499 223.886,56.9285"/>
<path class="" stroke="#000000" stroke-width="0.63" stroke-linecap="round" stroke-linejoin="round" fill-rule="evenodd" d="M282.894,65.6825 C288.069,68.8952 303.593,68.8952 308.768,65.6825 C303.593,70.3356 288.069,70.3356 282.894,65.6825"/>
<path class="" stroke="#000000" stroke-width="0.63" stroke-linecap="round" stroke-linejoin="round" fill-rule="evenodd" d="M358.428,11.5542 C390.84,-8.93623 529.438,6.81873 556.424,34.0613 C529.275,8.24997 390.678,-7.50499 358.428,11.5542"/>
<path class="" stroke="#000000" stroke-width="0.63" stroke-linecap="round" stroke-linejoin="round" fill-rule="evenodd" d="M520.209,36.5694 C525.241,32.0249 540.337,32.0249 545.369,36.5694 C540.337,33.4653 525.241,33.4653 520.209,36.5694"/>
<path class="" stroke="#000000" stroke-width="0.63" stroke-linecap="round" stroke-linejoin="round" fill-rule="evenodd" d="M520.209,56.7611 C525.241,59.8652 540.337,59.8652 545.369,56.7611 C540.337,61.3057 525.241,61.3057 520.209,56.7611"/>
<polyline class="" stroke="#000000" stroke-width="0.72" stroke-linejoin="bevel" points="2.38637,28.6596 158.304,28.6596"/>
<polyline class="" stroke="#000000" stroke-width="0.72" stroke-linejoin="bevel" points="2.38637,37.6624 158.304,37.6624"/>
<polyline class="" stroke="#000000" stroke-width="0.72" stroke-linejoin="bevel" points="2.38637,46.6653 158.304,46.6653"/>
<polyline class="" stroke="#000000" stroke-width="0.72" stroke-linejoin="bevel" points="2.38637,55.6681 158.304,55.6681"/>
<polyline class="" stroke="#000000" stroke-width="0.72" stroke-linejoin="bevel" points="2.38637,64.6709 158.304,64.6709"/>
<polyline class="" stroke="#000000" stroke-width="0.72" stroke-linejoin="bevel" points="158.304,28.6596 404.054,28.6596"/>
<polyline class="" stroke="#000000" stroke-width="0.72" stroke-linejoin="bevel" points="158.304,37.6624 404.054,37.6624"/>
<polyline class="" stroke="#000000" stroke-width="0.72" stroke-linejoin="bevel" points="158.304,46.6653 404.054,46.6653"/>
<polyline class="" stroke="#000000" stroke-width="0.72" stroke-linejoin="bevel" points="158.304,55.6681 404.054,55.6681"/>
<polyline class="" stroke="#000000" stroke-width="0.72" stroke-linejoin="bevel" points="158.304,64.6709 404.054,64.6709"/>
<polyline class="" stroke="#000000" stroke-width="0.72" stroke-linejoin="bevel" points="404.054,28.6596 536.705,28.6596"/>
<polyline class="" stroke="#000000" stroke-width="0.72" stroke-linejoin="bevel" points="404.054,37.6624 536.705,37.6624"/>
<polyline class="" stroke="#000000" stroke-width="0.72" stroke-linejoin="bevel" points="404.054,46.6653 536.705,46.6653"/>
<polyline class="" stroke="#000000" stroke-width="0.72" stroke-linejoin="bevel" points="404.054,55.6681 536.705,55.6681"/>
<polyline class="" stroke="#000000" stroke-width="0.72" stroke-linejoin="bevel" points="404.054,64.6709 536.705,64.6709"/>
<polyline class="" stroke="#000000" stroke-width="0.72" stroke-linejoin="bevel" points="536.705,28.6596 609.284,28.6596"/>
<polyline class="" stroke="#000000" stroke-width="0.72" stroke-linejoin="bevel" points="536.705,37.6624 609.284,37.6624"/>
<polyline class="" stroke="#000000" stroke-width="0.72" stroke-linejoin="bevel" points="536.705,46.6653 609.284,46.6653"/>
<polyline class="" stroke="#000000" stroke-width="0.72" stroke-linejoin="bevel" points="536.705,55.6681 609.284,55.6681"/>
<polyline class="" stroke="#000000" stroke-width="0.72" stroke-linejoin="bevel" points="536.705,64.6709 609.284,64.6709"/>
<polyline class="" stroke="#000000" stroke-width="1.44" stroke-linejoin="bevel" points="157.583,28.6596 157.583,64.6709"/>
<polyline class="" stroke="#000000" stroke-width="1.44" stroke-linejoin="bevel" points="403.334,28.6596 403.334,64.6709"/>
<polyline class="" stroke="#000000" stroke-width="1.44" stroke-linejoin="bevel" points="535.985,28.6596 535.985,64.6709"/>
<polyline class="" stroke="#000000" stroke-width="1.44" stroke-linejoin="bevel" points="608.564,28.6596 608.564,64.6709"/>
<polyline class="" stroke="#000000" stroke-width="1.44" stroke-linecap="square" stroke-linejoin="bevel" points="207.91,19.6568 225.165,19.6568"/>
<polyline class="" stroke="#000000" stroke-width="1.44" stroke-linecap="square" stroke-linejoin="bevel" points="240.474,19.6568 257.728,19.6568"/>
<polyline class="" stroke="#000000" stroke-width="1.44" stroke-linecap="square" stroke-linejoin="bevel" points="349.801,19.6568 367.055,19.6568"/>
<polyline class="" stroke="#000000" stroke-width="1.17" stroke-linecap="round" stroke-linejoin="bevel" points="123.35,30.3505 123.35,71.4231"/>
<polyline class="" stroke="#000000" stroke-width="1.17" stroke-linecap="round" stroke-linejoin="bevel" points="100.337,30.3505 100.337,73.6738"/>
<polyline class="" stroke="#000000" stroke-width="1.17" stroke-linecap="round" stroke-linejoin="bevel" points="211.196,21.3476 211.196,79.0324"/>
<polyline class="" stroke="#000000" stroke-width="1.17" stroke-linecap="round" stroke-linejoin="bevel" points="180.086,25.849 180.086,75.9245"/>
<polyline class="" stroke="#000000" stroke-width="1.17" stroke-linecap="round" stroke-linejoin="bevel" points="270.204,30.3505 270.204,84.9273"/>
<polyline class="" stroke="#000000" stroke-width="1.17" stroke-linecap="round" stroke-linejoin="bevel" points="243.76,21.3476 243.76,82.2855"/>
<polyline class="" stroke="#000000" stroke-width="1.17" stroke-linecap="round" stroke-linejoin="bevel" points="353.087,21.3476 353.087,68.047"/>
<polyline class="" stroke="#000000" stroke-width="1.17" stroke-linecap="round" stroke-linejoin="bevel" points="310.776,30.3505 310.776,84.9273"/>
<polyline class="" stroke="#000000" stroke-width="1.17" stroke-linecap="round" stroke-linejoin="bevel" points="443.774,30.3505 443.774,71.4231"/>
<polyline class="" stroke="#000000" stroke-width="1.17" stroke-linecap="round" stroke-linejoin="bevel" points="415.443,25.849 415.443,71.4231"/>
<polyline class="" stroke="#000000" stroke-width="1.17" stroke-linecap="round" stroke-linejoin="bevel" points="507.519,43.8547 507.519,78.1752"/>
<polyline class="" stroke="#000000" stroke-width="1.17" stroke-linecap="round" stroke-linejoin="bevel" points="489.812,30.3505 489.812,64.6709"/>
<polyline class="" stroke="#000000" stroke-width="1.17" stroke-linecap="round" stroke-linejoin="bevel" points="472.105,34.8519 472.105,66.9216"/>
<path class="" transform="matrix(1.80057,0,0,1.80057,122.765,28.6596)" d="M4.39453,-2.75391 C5.01953,-2.75391 5.54688,-2.59115 5.97656,-2.26562 C6.38021,-1.91406 6.58203,-1.47135 6.58203,-0.9375 C6.58203,-0.0390625 6.11979,0.800781 5.19531,1.58203 C4.25781,2.36328 3.25521,2.75391 2.1875,2.75391 C1.5625,2.75391 1.03516,2.59115 0.605469,2.26562 C0.201823,1.91406 0,1.47135 0,0.9375 C0,0.0390625 0.46875,-0.800781 1.40625,-1.58203 C2.31771,-2.36328 3.3138,-2.75391 4.39453,-2.75391"/>
<path class="" transform="matrix(1.80057,0,0,1.80057,122.765,42.1638)" d="M4.39453,-2.75391 C5.01953,-2.75391 5.54688,-2.59115 5.97656,-2.26562 C6.38021,-1.91406 6.58203,-1.47135 6.58203,-0.9375 C6.58203,-0.0390625 6.11979,0.800781 5.19531,1.58203 C4.25781,2.36328 3.25521,2.75391 2.1875,2.75391 C1.5625,2.75391 1.03516,2.59115 0.605469,2.26562 C0.201823,1.91406 0,1.47135 0,0.9375 C0,0.0390625 0.46875,-0.800781 1.40625,-1.58203 C2.31771,-2.36328 3.3138,-2.75391 4.39453,-2.75391"/>
<path class="" transform="matrix(1.80057,0,0,1.80057,99.752,28.6596)" d="M4.39453,-2.75391 C5.01953,-2.75391 5.54688,-2.59115 5.97656,-2.26562 C6.38021,-1.91406 6.58203,-1.47135 6.58203,-0.9375 C6.58203,-0.0390625 6.11979,0.800781 5.19531,1.58203 C4.25781,2.36328 3.25521,2.75391 2.1875,2.75391 C1.5625,2.75391 1.03516,2.59115 0.605469,2.26562 C0.201823,1.91406 0,1.47135 0,0.9375 C0,0.0390625 0.46875,-0.800781 1.40625,-1.58203 C2.31771,-2.36328 3.3138,-2.75391 4.39453,-2.75391"/>
<path class="" transform="matrix(1.80057,0,0,1.80057,99.752,42.1638)" d="M4.39453,-2.75391 C5.01953,-2.75391 5.54688,-2.59115 5.97656,-2.26562 C6.38021,-1.91406 6.58203,-1.47135 6.58203,-0.9375 C6.58203,-0.0390625 6.11979,0.800781 5.19531,1.58203 C4.25781,2.36328 3.25521,2.75391 2.1875,2.75391 C1.5625,2.75391 1.03516,2.59115 0.605469,2.26562 C0.201823,1.91406 0,1.47135 0,0.9375 C0,0.0390625 0.46875,-0.800781 1.40625,-1.58203 C2.31771,-2.36328 3.3138,-2.75391 4.39453,-2.75391"/>
<path class="" transform="matrix(1.80057,0,0,1.80057,210.611,19.6568)" d="M4.39453,-2.75391 C5.01953,-2.75391 5.54688,-2.59115 5.97656,-2.26562 C6.38021,-1.91406 6.58203,-1.47135 6.58203,-0.9375 C6.58203,-0.0390625 6.11979,0.800781 5.19531,1.58203 C4.25781,2.36328 3.25521,2.75391 2.1875,2.75391 C1.5625,2.75391 1.03516,2.59115 0.605469,2.26562 C0.201823,1.91406 0,1.47135 0,0.9375 C0,0.0390625 0.46875,-0.800781 1.40625,-1.58203 C2.31771,-2.36328 3.3138,-2.75391 4.39453,-2.75391"/>
<path class="" transform="matrix(1.80057,0,0,1.80057,179.501,24.1582)" d="M4.39453,-2.75391 C5.01953,-2.75391 5.54688,-2.59115 5.97656,-2.26562 C6.38021,-1.91406 6.58203,-1.47135 6.58203,-0.9375 C6.58203,-0.0390625 6.11979,0.800781 5.19531,1.58203 C4.25781,2.36328 3.25521,2.75391 2.1875,2.75391 C1.5625,2.75391 1.03516,2.59115 0.605469,2.26562 C0.201823,1.91406 0,1.47135 0,0.9375 C0,0.0390625 0.46875,-0.800781 1.40625,-1.58203 C2.31771,-2.36328 3.3138,-2.75391 4.39453,-2.75391"/>
<path class="" transform="matrix(1.80057,0,0,1.80057,179.501,42.1638)" d="M4.39453,-2.75391 C5.01953,-2.75391 5.54688,-2.59115 5.97656,-2.26562 C6.38021,-1.91406 6.58203,-1.47135 6.58203,-0.9375 C6.58203,-0.0390625 6.11979,0.800781 5.19531,1.58203 C4.25781,2.36328 3.25521,2.75391 2.1875,2.75391 C1.5625,2.75391 1.03516,2.59115 0.605469,2.26562 C0.201823,1.91406 0,1.47135 0,0.9375 C0,0.0390625 0.46875,-0.800781 1.40625,-1.58203 C2.31771,-2.36328 3.3138,-2.75391 4.39453,-2.75391"/>
<path class="" transform="matrix(1.80057,0,0,1.80057,269.619,28.6596)" d="M4.39453,-2.75391 C5.01953,-2.75391 5.54688,-2.59115 5.97656,-2.26562 C6.38021,-1.91406 6.58203,-1.47135 6.58203,-0.9375 C6.58203,-0.0390625 6.11979,0.800781 5.19531,1.58203 C4.25781,2.36328 3.25521,2.75391 2.1875,2.75391 C1.5625,2.75391 1.03516,2.59115 0.605469,2.26562 C0.201823,1.91406 0,1.47135 0,0.9375 C0,0.0390625 0.46875,-0.800781 1.40625,-1.58203 C2.31771,-2.36328 3.3138,-2.75391 4.39453,-2.75391"/>
<path class="" transform="matrix(1.80057,0,0,1.80057,243.175,19.6568)" d="M4.39453,-2.75391 C5.01953,-2.75391 5.54688,-2.59115 5.97656,-2.26562 C6.38021,-1.91406 6.58203,-1.47135 6.58203,-0.9375 C6.58203,-0.0390625 6.11979,0.800781 5.19531,1.58203 C4.25781,2.36328 3.25521,2.75391 2.1875,2.75391 C1.5625,2.75391 1.03516,2.59115 0.605469,2.26562 C0.201823,1.91406 0,1.47135 0,0.9375 C0,0.0390625 0.46875,-0.800781 1.40625,-1.58203 C2.31771,-2.36328 3.3138,-2.75391 4.39453,-2.75391"/>
<path class="" transform="matrix(1.80057,0,0,1.80057,210.611,51.1667)" d="M4.39453,-2.75391 C5.01953,-2.75391 5.54688,-2.59115 5.97656,-2.26562 C6.38021,-1.91406 6.58203,-1.47135 6.58203,-0.9375 C6.58203,-0.0390625 6.11979,0.800781 5.19531,1.58203 C4.25781,2.36328 3.25521,2.75391 2.1875,2.75391 C1.5625,2.75391 1.03516,2.59115 0.605469,2.26562 C0.201823,1.91406 0,1.47135 0,0.9375 C0,0.0390625 0.46875,-0.800781 1.40625,-1.58203 C2.31771,-2.36328 3.3138,-2.75391 4.39453,-2.75391"/>
<path class="" transform="matrix(1.80057,0,0,1.80057,269.619,60.1695)" d="M4.39453,-2.75391 C5.01953,-2.75391 5.54688,-2.59115 5.97656,-2.26562 C6.38021,-1.91406 6.58203,-1.47135 6.58203,-0.9375 C6.58203,-0.0390625 6.11979,0.800781 5.19531,1.58203 C4.25781,2.36328 3.25521,2.75391 2.1875,2.75391 C1.5625,2.75391 1.03516,2.59115 0.605469,2.26562 C0.201823,1.91406 0,1.47135 0,0.9375 C0,0.0390625 0.46875,-0.800781 1.40625,-1.58203 C2.31771,-2.36328 3.3138,-2.75391 4.39453,-2.75391"/>
<path class="" transform="matrix(1.80057,0,0,1.80057,243.175,51.1667)" d="M4.39453,-2.75391 C5.01953,-2.75391 5.54688,-2.59115 5.97656,-2.26562 C6.38021,-1.91406 6.58203,-1.47135 6.58203,-0.9375 C6.58203,-0.0390625 6.11979,0.800781 5.19531,1.58203 C4.25781,2.36328 3.25521,2.75391 2.1875,2.75391 C1.5625,2.75391 1.03516,2.59115 0.605469,2.26562 C0.201823,1.91406 0,1.47135 0,0.9375 C0,0.0390625 0.46875,-0.800781 1.40625,-1.58203 C2.31771,-2.36328 3.3138,-2.75391 4.39453,-2.75391"/>
<path class="" transform="matrix(1.80057,0,0,1.80057,352.501,19.6568)" d="M4.39453,-2.75391 C5.01953,-2.75391 5.54688,-2.59115 5.97656,-2.26562 C6.38021,-1.91406 6.58203,-1.47135 6.58203,-0.9375 C6.58203,-0.0390625 6.11979,0.800781 5.19531,1.58203 C4.25781,2.36328 3.25521,2.75391 2.1875,2.75391 C1.5625,2.75391 1.03516,2.59115 0.605469,2.26562 C0.201823,1.91406 0,1.47135 0,0.9375 C0,0.0390625 0.46875,-0.800781 1.40625,-1.58203 C2.31771,-2.36328 3.3138,-2.75391 4.39453,-2.75391"/>
<path class="" transform="matrix(1.80057,0,0,1.80057,352.501,28.6596)" d="M4.39453,-2.75391 C5.01953,-2.75391 5.54688,-2.59115 5.97656,-2.26562 C6.38021,-1.91406 6.58203,-1.47135 6.58203,-0.9375 C6.58203,-0.0390625 6.11979,0.800781 5.19531,1.58203 C4.25781,2.36328 3.25521,2.75391 2.1875,2.75391 C1.5625,2.75391 1.03516,2.59115 0.605469,2.26562 C0.201823,1.91406 0,1.47135 0,0.9375 C0,0.0390625 0.46875,-0.800781 1.40625,-1.58203 C2.31771,-2.36328 3.3138,-2.75391 4.39453,-2.75391"/>
<path class="" transform="matrix(1.80057,0,0,1.80057,352.501,37.6624)" d="M4.39453,-2.75391 C5.01953,-2.75391 5.54688,-2.59115 5.97656,-2.26562 C6.38021,-1.91406 6.58203,-1.47135 6.58203,-0.9375 C6.58203,-0.0390625 6.11979,0.800781 5.19531,1.58203 C4.25781,2.36328 3.25521,2.75391 2.1875,2.75391 C1.5625,2.75391 1.03516,2.59115 0.605469,2.26562 C0.201823,1.91406 0,1.47135 0,0.9375 C0,0.0390625 0.46875,-0.800781 1.40625,-1.58203 C2.31771,-2.36328 3.3138,-2.75391 4.39453,-2.75391"/>
<path class="" transform="matrix(1.80057,0,0,1.80057,310.191,28.6596)" d="M4.39453,-2.75391 C5.01953,-2.75391 5.54688,-2.59115 5.97656,-2.26562 C6.38021,-1.91406 6.58203,-1.47135 6.58203,-0.9375 C6.58203,-0.0390625 6.11979,0.800781 5.19531,1.58203 C4.25781,2.36328 3.25521,2.75391 2.1875,2.75391 C1.5625,2.75391 1.03516,2.59115 0.605469,2.26562 C0.201823,1.91406 0,1.47135 0,0.9375 C0,0.0390625 0.46875,-0.800781 1.40625,-1.58203 C2.31771,-2.36328 3.3138,-2.75391 4.39453,-2.75391"/>
<path class="" transform="matrix(1.80057,0,0,1.80057,443.189,28.6596)" d="M4.39453,-2.75391 C5.01953,-2.75391 5.54688,-2.59115 5.97656,-2.26562 C6.38021,-1.91406 6.58203,-1.47135 6.58203,-0.9375 C6.58203,-0.0390625 6.11979,0.800781 5.19531,1.58203 C4.25781,2.36328 3.25521,2.75391 2.1875,2.75391 C1.5625,2.75391 1.03516,2.59115 0.605469,2.26562 C0.201823,1.91406 0,1.47135 0,0.9375 C0,0.0390625 0.46875,-0.800781 1.40625,-1.58203 C2.31771,-2.36328 3.3138,-2.75391 4.39453,-2.75391"/>
<path class="" transform="matrix(1.80057,0,0,1.80057,443.189,42.1638)" d="M4.39453,-2.75391 C5.01953,-2.75391 5.54688,-2.59115 5.97656,-2.26562 C6.38021,-1.91406 6.58203,-1.47135 6.58203,-0.9375 C6.58203,-0.0390625 6.11979,0.800781 5.19531,1.58203 C4.25781,2.36328 3.25521,2.75391 2.1875,2.75391 C1.5625,2.75391 1.03516,2.59115 0.605469,2.26562 C0.201823,1.91406 0,1.47135 0,0.9375 C0,0.0390625 0.46875,-0.800781 1.40625,-1.58203 C2.31771,-2.36328 3.3138,-2.75391 4.39453,-2.75391"/>
<path class="" transform="matrix(1.80057,0,0,1.80057,414.858,24.1582)" d="M4.39453,-2.75391 C5.01953,-2.75391 5.54688,-2.59115 5.97656,-2.26562 C6.38021,-1.91406 6.58203,-1.47135 6.58203,-0.9375 C6.58203,-0.0390625 6.11979,0.800781 5.19531,1.58203 C4.25781,2.36328 3.25521,2.75391 2.1875,2.75391 C1.5625,2.75391 1.03516,2.59115 0.605469,2.26562 C0.201823,1.91406 0,1.47135 0,0.9375 C0,0.0390625 0.46875,-0.800781 1.40625,-1.58203 C2.31771,-2.36328 3.3138,-2.75391 4.39453,-2.75391"/>
<path class="" transform="matrix(1.80057,0,0,1.80057,414.858,33.161)" d="M4.39453,-2.75391 C5.01953,-2.75391 5.54688,-2.59115 5.97656,-2.26562 C6.38021,-1.91406 6.58203,-1.47135 6.58203,-0.9375 C6.58203,-0.0390625 6.11979,0.800781 5.19531,1.58203 C4.25781,2.36328 3.25521,2.75391 2.1875,2.75391 C1.5625,2.75391 1.03516,2.59115 0.605469,2.26562 C0.201823,1.91406 0,1.47135 0,0.9375 C0,0.0390625 0.46875,-0.800781 1.40625,-1.58203 C2.31771,-2.36328 3.3138,-2.75391 4.39453,-2.75391"/>
<path class="" transform="matrix(1.80057,0,0,1.80057,414.858,42.1638)" d="M4.39453,-2.75391 C5.01953,-2.75391 5.54688,-2.59115 5.97656,-2.26562 C6.38021,-1.91406 6.58203,-1.47135 6.58203,-0.9375 C6.58203,-0.0390625 6.11979,0.800781 5.19531,1.58203 C4.25781,2.36328 3.25521,2.75391 2.1875,2.75391 C1.5625,2.75391 1.03516,2.59115 0.605469,2.26562 C0.201823,1.91406 0,1.47135 0,0.9375 C0,0.0390625 0.46875,-0.800781 1.40625,-1.58203 C2.31771,-2.36328 3.3138,-2.75391 4.39453,-2.75391"/>
<path class="" transform="matrix(1.80057,0,0,1.80057,506.934,42.1638)" d="M4.39453,-2.75391 C5.01953,-2.75391 5.54688,-2.59115 5.97656,-2.26562 C6.38021,-1.91406 6.58203,-1.47135 6.58203,-0.9375 C6.58203,-0.0390625 6.11979,0.800781 5.19531,1.58203 C4.25781,2.36328 3.25521,2.75391 2.1875,2.75391 C1.5625,2.75391 1.03516,2.59115 0.605469,2.26562 C0.201823,1.91406 0,1.47135 0,0.9375 C0,0.0390625 0.46875,-0.800781 1.40625,-1.58203 C2.31771,-2.36328 3.3138,-2.75391 4.39453,-2.75391"/>
<path class="" transform="matrix(1.80057,0,0,1.80057,489.227,28.6596)" d="M4.39453,-2.75391 C5.01953,-2.75391 5.54688,-2.59115 5.97656,-2.26562 C6.38021,-1.91406 6.58203,-1.47135 6.58203,-0.9375 C6.58203,-0.0390625 6.11979,0.800781 5.19531,1.58203 C4.25781,2.36328 3.25521,2.75391 2.1875,2.75391 C1.5625,2.75391 1.03516,2.59115 0.605469,2.26562 C0.201823,1.91406 0,1.47135 0,0.9375 C0,0.0390625 0.46875,-0.800781 1.40625,-1.58203 C2.31771,-2.36328 3.3138,-2.75391 4.39453,-2.75391"/>
<path class="" transform="matrix(1.80057,0,0,1.80057,489.227,37.6624)" d="M4.39453,-2.75391 C5.01953,-2.75391 5.54688,-2.59115 5.97656,-2.26562 C6.38021,-1.91406 6.58203,-1.47135 6.58203,-0.9375 C6.58203,-0.0390625 6.11979,0.800781 5.19531,1.58203 C4.25781,2.36328 3.25521,2.75391 2.1875,2.75391 C1.5625,2.75391 1.03516,2.59115 0.605469,2.26562 C0.201823,1.91406 0,1.47135 0,0.9375 C0,0.0390625 0.46875,-0.800781 1.40625,-1.58203 C2.31771,-2.36328 3.3138,-2.75391 4.39453,-2.75391"/>
<path class="" transform="matrix(1.80057,0,0,1.80057,471.52,33.161)" d="M4.39453,-2.75391 C5.01953,-2.75391 5.54688,-2.59115 5.97656,-2.26562 C6.38021,-1.91406 6.58203,-1.47135 6.58203,-0.9375 C6.58203,-0.0390625 6.11979,0.800781 5.19531,1.58203 C4.25781,2.36328 3.25521,2.75391 2.1875,2.75391 C1.5625,2.75391 1.03516,2.59115 0.605469,2.26562 C0.201823,1.91406 0,1.47135 0,0.9375 C0,0.0390625 0.46875,-0.800781 1.40625,-1.58203 C2.31771,-2.36328 3.3138,-2.75391 4.39453,-2.75391"/>
<path class="" transform="matrix(1.80057,0,0,1.80057,471.52,42.1638)" d="M4.39453,-2.75391 C5.01953,-2.75391 5.54688,-2.59115 5.97656,-2.26562 C6.38021,-1.91406 6.58203,-1.47135 6.58203,-0.9375 C6.58203,-0.0390625 6.11979,0.800781 5.19531,1.58203 C4.25781,2.36328 3.25521,2.75391 2.1875,2.75391 C1.5625,2.75391 1.03516,2.59115 0.605469,2.26562 C0.201823,1.91406 0,1.47135 0,0.9375 C0,0.0390625 0.46875,-0.800781 1.40625,-1.58203 C2.31771,-2.36328 3.3138,-2.75391 4.39453,-2.75391"/>
<path class="" transform="matrix(1.80057,0,0,1.80057,547.508,42.1638)" d="M4.29688,-2.24609 C3.82812,-2.24609 3.48958,-2.08333 3.28125,-1.75781 C3.04688,-1.44531 2.92969,-1.02214 2.92969,-0.488281 C2.92969,0.123698 3.09245,0.651042 3.41797,1.09375 C3.74349,1.52344 4.10156,1.82292 4.49219,1.99219 C4.84375,2.16146 5.21484,2.24609 5.60547,2.24609 C6.0612,2.24609 6.40625,2.08333 6.64062,1.75781 C6.86198,1.43229 6.97266,1.00911 6.97266,0.488281 C6.97266,-0.123698 6.8099,-0.651042 6.48438,-1.09375 C6.15885,-1.51042 5.80729,-1.8099 5.42969,-1.99219 C5.05208,-2.16146 4.67448,-2.24609 4.29688,-2.24609 M4.96094,-2.75391 C6.36719,-2.75391 7.53906,-2.48047 8.47656,-1.93359 C9.42708,-1.38672 9.90234,-0.742188 9.90234,0 C9.90234,0.794271 9.41406,1.44531 8.4375,1.95312 C7.46094,2.48698 6.30208,2.75391 4.96094,2.75391 C3.58073,2.75391 2.40885,2.48047 1.44531,1.93359 C0.481771,1.38672 0,0.742188 0,0 C0,-0.794271 0.494792,-1.44531 1.48438,-1.95312 C2.46094,-2.48698 3.61979,-2.75391 4.96094,-2.75391"/>
<path class="" transform="matrix(1.80057,0,0,1.80057,310.191,60.1695)" d="M4.39453,-2.75391 C5.01953,-2.75391 5.54688,-2.59115 5.97656,-2.26562 C6.38021,-1.91406 6.58203,-1.47135 6.58203,-0.9375 C6.58203,-0.0390625 6.11979,0.800781 5.19531,1.58203 C4.25781,2.36328 3.25521,2.75391 2.1875,2.75391 C1.5625,2.75391 1.03516,2.59115 0.605469,2.26562 C0.201823,1.91406 0,1.47135 0,0.9375 C0,0.0390625 0.46875,-0.800781 1.40625,-1.58203 C2.31771,-2.36328 3.3138,-2.75391 4.39453,-2.75391"/>
<path class="" transform="matrix(1.80057,0,0,1.80057,506.934,51.1667)" d="M4.39453,-2.75391 C5.01953,-2.75391 5.54688,-2.59115 5.97656,-2.26562 C6.38021,-1.91406 6.58203,-1.47135 6.58203,-0.9375 C6.58203,-0.0390625 6.11979,0.800781 5.19531,1.58203 C4.25781,2.36328 3.25521,2.75391 2.1875,2.75391 C1.5625,2.75391 1.03516,2.59115 0.605469,2.26562 C0.201823,1.91406 0,1.47135 0,0.9375 C0,0.0390625 0.46875,-0.800781 1.40625,-1.58203 C2.31771,-2.36328 3.3138,-2.75391 4.39453,-2.75391"/>
<path class="" transform="matrix(1.80057,0,0,1.80057,547.508,51.1667)" d="M4.29688,-2.24609 C3.82812,-2.24609 3.48958,-2.08333 3.28125,-1.75781 C3.04688,-1.44531 2.92969,-1.02214 2.92969,-0.488281 C2.92969,0.123698 3.09245,0.651042 3.41797,1.09375 C3.74349,1.52344 4.10156,1.82292 4.49219,1.99219 C4.84375,2.16146 5.21484,2.24609 5.60547,2.24609 C6.0612,2.24609 6.40625,2.08333 6.64062,1.75781 C6.86198,1.43229 6.97266,1.00911 6.97266,0.488281 C6.97266,-0.123698 6.8099,-0.651042 6.48438,-1.09375 C6.15885,-1.51042 5.80729,-1.8099 5.42969,-1.99219 C5.05208,-2.16146 4.67448,-2.24609 4.29688,-2.24609 M4.96094,-2.75391 C6.36719,-2.75391 7.53906,-2.48047 8.47656,-1.93359 C9.42708,-1.38672 9.90234,-0.742188 9.90234,0 C9.90234,0.794271 9.41406,1.44531 8.4375,1.95312 C7.46094,2.48698 6.30208,2.75391 4.96094,2.75391 C3.58073,2.75391 2.40885,2.48047 1.44531,1.93359 C0.481771,1.38672 0,0.742188 0,0 C0,-0.794271 0.494792,-1.44531 1.48438,-1.95312 C2.46094,-2.48698 3.61979,-2.75391 4.96094,-2.75391"/>
<path class="" transform="matrix(1.80057,0,0,1.80057,8.14818,55.6681)" d="M7.34375,-5.11719 C7.34375,-5.11719 7.38281,-5.11719 7.46094,-5.11719 C7.51302,-5.13021 7.55859,-5.13672 7.59766,-5.13672 C9.05599,-5.13672 10.2539,-4.6224 11.1914,-3.59375 C12.1289,-2.57812 12.5977,-1.39323 12.5977,-0.0390625 C12.5977,1.64062 11.901,3.00781 10.5078,4.0625 C10.1432,4.34896 9.66797,4.58333 9.08203,4.76562 C9.14714,5.61198 9.17969,6.29557 9.17969,6.81641 C9.17969,6.92057 9.16667,7.29818 9.14062,7.94922 C9.08854,9.16016 8.67188,10.2083 7.89062,11.0938 C7.13542,11.9661 6.19792,12.4023 5.07812,12.4023 C4.02344,12.4023 3.125,12.0312 2.38281,11.2891 C1.64062,10.5339 1.26953,9.6224 1.26953,8.55469 C1.26953,7.99479 1.48438,7.51953 1.91406,7.12891 C2.35677,6.73828 2.87109,6.54297 3.45703,6.54297 C3.97786,6.54297 4.41406,6.74479 4.76562,7.14844 C5.13021,7.52604 5.3125,7.99479 5.3125,8.55469 C5.3125,9.0625 5.13021,9.4987 4.76562,9.86328 C4.40104,10.2279 3.96484,10.4102 3.45703,10.4102 C3.2487,10.4102 3.04688,10.3711 2.85156,10.293 C3.42448,11.1393 4.1862,11.5625 5.13672,11.5625 C6.03516,11.5625 6.77083,11.1979 7.34375,10.4688 C7.94271,9.71354 8.26823,8.83464 8.32031,7.83203 C8.34635,7.20703 8.35938,6.84896 8.35938,6.75781 C8.35938,6.02865 8.33333,5.42969 8.28125,4.96094 C7.63021,5.0651 7.05078,5.11719 6.54297,5.11719 C4.73307,5.11719 3.1901,4.40104 1.91406,2.96875 C0.664062,1.52344 0.0390625,-0.195312 0.0390625,-2.1875 C0.0390625,-2.60417 0.078125,-3.02734 0.15625,-3.45703 C0.234375,-3.80859 0.332031,-4.19271 0.449219,-4.60938 C0.514323,-4.84375 0.690104,-5.22135 0.976562,-5.74219 C1.08073,-5.89844 1.19792,-6.09375 1.32812,-6.32812 C1.45833,-6.5625 1.54948,-6.71875 1.60156,-6.79688 C1.73177,-7.05729 1.98568,-7.40885 2.36328,-7.85156 C2.46745,-7.96875 2.57487,-8.09896 2.68555,-8.24219 C2.79622,-8.38542 2.89062,-8.5026 2.96875,-8.59375 C3.04688,-8.6849 3.10547,-8.75651 3.14453,-8.80859 C3.18359,-8.86068 3.47656,-9.20573 4.02344,-9.84375 C4.15365,-9.97396 4.2806,-10.1139 4.4043,-10.2637 C4.52799,-10.4134 4.62891,-10.5306 4.70703,-10.6152 C4.78516,-10.6999 4.84375,-10.7617 4.88281,-10.8008 C4.41406,-12.3503 4.12109,-13.5872 4.00391,-14.5117 C3.91276,-15.2539 3.86719,-16.2695 3.86719,-17.5586 C3.86719,-18.6914 4.1276,-19.7526 4.64844,-20.7422 C5.15625,-21.7708 5.86589,-22.6107 6.77734,-23.2617 C6.84245,-23.3008 6.90755,-23.3203 6.97266,-23.3203 C7.0638,-23.3203 7.12891,-23.3008 7.16797,-23.2617 C7.87109,-22.4154 8.47656,-21.3151 8.98438,-19.9609 C9.50521,-18.6068 9.76562,-17.3763 9.76562,-16.2695 C9.76562,-15.0195 9.46615,-13.8477 8.86719,-12.7539 C8.1901,-11.5951 7.31771,-10.3971 6.25,-9.16016 C6.52344,-8.30078 6.88802,-6.95312 7.34375,-5.11719 M9.00391,3.96484 C9.68099,3.71745 10.2083,3.29427 10.5859,2.69531 C11.0026,2.1224 11.2109,1.47786 11.2109,0.761719 C11.2109,-0.16276 10.8984,-0.983073 10.2734,-1.69922 C9.63542,-2.44141 8.82161,-2.85807 7.83203,-2.94922 C8.39193,-0.201823 8.78255,2.10286 9.00391,3.96484 M1.44531,-0.546875 C1.44531,0.742188 1.96615,1.875 3.00781,2.85156 C4.07552,3.80208 5.27344,4.27734 6.60156,4.27734 C7.14844,4.27734 7.68229,4.23828 8.20312,4.16016 C7.99479,2.18099 7.58464,-0.188802 6.97266,-2.94922 C6.23047,-2.87109 5.63802,-2.61068 5.19531,-2.16797 C4.76562,-1.71224 4.55078,-1.19792 4.55078,-0.625 C4.55078,0.364583 5.07812,1.16536 6.13281,1.77734 C6.22396,1.86849 6.26953,1.96615 6.26953,2.07031 C6.26953,2.17448 6.22396,2.27214 6.13281,2.36328 C6.05469,2.45443 5.95703,2.5 5.83984,2.5 C5.82682,2.5 5.76823,2.48698 5.66406,2.46094 C4.92188,2.05729 4.34896,1.53646 3.94531,0.898438 C3.56771,0.221354 3.37891,-0.46224 3.37891,-1.15234 C3.37891,-2.05078 3.65885,-2.86458 4.21875,-3.59375 C4.80469,-4.32292 5.56641,-4.79167 6.50391,-5 C6.13932,-6.45833 5.83984,-7.59766 5.60547,-8.41797 C5.39714,-8.18359 5.14648,-7.90039 4.85352,-7.56836 C4.56055,-7.23633 4.38802,-7.03776 4.33594,-6.97266 C3.86719,-6.36068 3.50911,-5.88542 3.26172,-5.54688 C2.81901,-4.9349 2.49349,-4.40755 2.28516,-3.96484 C2.0638,-3.47005 1.86849,-2.92969 1.69922,-2.34375 C1.52995,-1.78385 1.44531,-1.1849 1.44531,-0.546875 M7.96875,-20.4102 C6.99219,-19.9284 6.22396,-19.2383 5.66406,-18.3398 C5.09115,-17.4154 4.80469,-16.4193 4.80469,-15.3516 C4.80469,-14.4141 5.03906,-13.151 5.50781,-11.5625 C6.44531,-12.6953 7.14844,-13.7435 7.61719,-14.707 C8.11198,-15.7227 8.35938,-16.7839 8.35938,-17.8906 C8.35938,-18.724 8.22917,-19.5638 7.96875,-20.4102"/>
<path class="" transform="matrix(1.80057,0,0,1.80057,35.5252,46.6653)" d="M0.917969,-0.820312 L0.917969,0.722656 C0.917969,1.26953 0.94401,1.70573 0.996094,2.03125 C1.42578,1.66667 1.73177,1.39323 1.91406,1.21094 C2.1224,1.0026 2.33073,0.716146 2.53906,0.351562 C2.7474,-0.0130208 2.85156,-0.377604 2.85156,-0.742188 C2.85156,-1.10677 2.77344,-1.41927 2.61719,-1.67969 C2.46094,-1.9401 2.2526,-2.07031 1.99219,-2.07031 C1.67969,-2.07031 1.41927,-1.95312 1.21094,-1.71875 C1.01562,-1.45833 0.917969,-1.15885 0.917969,-0.820312 M0.0976562,2.75391 L-0.15625,-9.14062 C0.0260417,-9.24479 0.208333,-9.29688 0.390625,-9.29688 C0.572917,-9.29688 0.755208,-9.24479 0.9375,-9.14062 L0.78125,-2.24609 C1.3151,-2.70182 1.92708,-2.92969 2.61719,-2.92969 C3.125,-2.92969 3.54818,-2.72135 3.88672,-2.30469 C4.22526,-1.88802 4.39453,-1.41276 4.39453,-0.878906 C4.39453,-0.540365 4.28385,-0.182292 4.0625,0.195312 C3.85417,0.546875 3.63281,0.820312 3.39844,1.01562 C3.26823,1.11979 2.9362,1.38021 2.40234,1.79688 C2.24609,1.91406 2.06055,2.05078 1.8457,2.20703 C1.63086,2.36328 1.4974,2.46094 1.44531,2.5 C1.35417,2.55208 1.26953,2.65625 1.19141,2.8125 C1.10026,2.94271 0.996094,3.05339 0.878906,3.14453 C0.78776,3.22266 0.677083,3.26172 0.546875,3.26172 C0.416667,3.26172 0.3125,3.21615 0.234375,3.125 C0.143229,3.03385 0.0976562,2.91016 0.0976562,2.75391"/>
<path class="" transform="matrix(1.80057,0,0,1.80057,48.1011,37.6624)" d="M4.49219,-4.74609 C4.88281,-4.74609 5.21484,-4.79167 5.48828,-4.88281 C5.76172,-4.97396 5.9375,-5.01953 6.01562,-5.01953 C6.10677,-5.01953 6.17839,-4.99349 6.23047,-4.94141 C6.26953,-4.90234 6.29557,-4.85677 6.30859,-4.80469 C6.30859,-4.77865 6.29557,-4.73958 6.26953,-4.6875 L0.585938,1.91406 L3.92578,1.91406 L3.92578,-0.703125 C3.92578,-0.872396 3.97135,-1.01562 4.0625,-1.13281 C4.21875,-1.26302 4.34896,-1.34115 4.45312,-1.36719 C4.6224,-1.44531 4.83073,-1.6276 5.07812,-1.91406 C5.28646,-2.14844 5.53385,-2.55859 5.82031,-3.14453 C5.85938,-3.22266 5.91797,-3.26172 5.99609,-3.26172 C6.15234,-3.26172 6.24349,-3.17057 6.26953,-2.98828 L6.26953,1.91406 L7.69531,1.91406 C7.8776,1.91406 7.98177,2.01172 8.00781,2.20703 C8.00781,2.40234 7.90365,2.5 7.69531,2.5 L6.26953,2.5 L6.26953,2.65625 C6.26953,3.17708 6.39974,3.61979 6.66016,3.98438 C6.95964,4.34896 7.3112,4.53125 7.71484,4.53125 C7.87109,4.53125 7.94922,4.60938 7.94922,4.76562 C7.94922,4.92188 7.87109,5 7.71484,5 C7.44141,5 6.9987,4.96094 6.38672,4.88281 C5.82682,4.79167 5.39062,4.74609 5.07812,4.74609 C4.7526,4.74609 4.31641,4.79167 3.76953,4.88281 C3.18359,4.96094 2.7474,5 2.46094,5 C2.30469,5 2.22656,4.92188 2.22656,4.76562 C2.22656,4.60938 2.30469,4.53125 2.46094,4.53125 C2.86458,4.53125 3.21615,4.34896 3.51562,3.98438 C3.78906,3.61979 3.92578,3.17708 3.92578,2.65625 L3.92578,2.5 L0.585938,2.5 C0.364583,2.5 0.208333,2.44792 0.117188,2.34375 C0.0130208,2.26562 -0.0390625,2.16146 -0.0390625,2.03125 C-0.0390625,1.99219 0.0585938,1.85547 0.253906,1.62109 C0.47526,1.36068 0.709635,1.04167 0.957031,0.664062 C1.24349,0.221354 1.51693,-0.234375 1.77734,-0.703125 C2.0638,-1.23698 2.29167,-1.84896 2.46094,-2.53906 C2.65625,-3.24219 2.75391,-3.95833 2.75391,-4.6875 C2.75391,-4.89583 2.84505,-5 3.02734,-5 C3.06641,-5 3.15104,-4.98047 3.28125,-4.94141 C3.32031,-4.92839 3.40169,-4.90885 3.52539,-4.88281 C3.64909,-4.85677 3.75,-4.83073 3.82812,-4.80469 C4.0625,-4.76562 4.28385,-4.74609 4.49219,-4.74609"/>
<path class="" transform="matrix(1.80057,0,0,1.80057,48.1011,55.6681)" d="M4.49219,-4.74609 C4.88281,-4.74609 5.21484,-4.79167 5.48828,-4.88281 C5.76172,-4.97396 5.9375,-5.01953 6.01562,-5.01953 C6.10677,-5.01953 6.17839,-4.99349 6.23047,-4.94141 C6.26953,-4.90234 6.29557,-4.85677 6.30859,-4.80469 C6.30859,-4.77865 6.29557,-4.73958 6.26953,-4.6875 L0.585938,1.91406 L3.92578,1.91406 L3.92578,-0.703125 C3.92578,-0.872396 3.97135,-1.01562 4.0625,-1.13281 C4.21875,-1.26302 4.34896,-1.34115 4.45312,-1.36719 C4.6224,-1.44531 4.83073,-1.6276 5.07812,-1.91406 C5.28646,-2.14844 5.53385,-2.55859 5.82031,-3.14453 C5.85938,-3.22266 5.91797,-3.26172 5.99609,-3.26172 C6.15234,-3.26172 6.24349,-3.17057 6.26953,-2.98828 L6.26953,1.91406 L7.69531,1.91406 C7.8776,1.91406 7.98177,2.01172 8.00781,2.20703 C8.00781,2.40234 7.90365,2.5 7.69531,2.5 L6.26953,2.5 L6.26953,2.65625 C6.26953,3.17708 6.39974,3.61979 6.66016,3.98438 C6.95964,4.34896 7.3112,4.53125 7.71484,4.53125 C7.87109,4.53125 7.94922,4.60938 7.94922,4.76562 C7.94922,4.92188 7.87109,5 7.71484,5 C7.44141,5 6.9987,4.96094 6.38672,4.88281 C5.82682,4.79167 5.39062,4.74609 5.07812,4.74609 C4.7526,4.74609 4.31641,4.79167 3.76953,4.88281 C3.18359,4.96094 2.7474,5 2.46094,5 C2.30469,5 2.22656,4.92188 2.22656,4.76562 C2.22656,4.60938 2.30469,4.53125 2.46094,4.53125 C2.86458,4.53125 3.21615,4.34896 3.51562,3.98438 C3.78906,3.61979 3.92578,3.17708 3.92578,2.65625 L3.92578,2.5 L0.585938,2.5 C0.364583,2.5 0.208333,2.44792 0.117188,2.34375 C0.0130208,2.26562 -0.0390625,2.16146 -0.0390625,2.03125 C-0.0390625,1.99219 0.0585938,1.85547 0.253906,1.62109 C0.47526,1.36068 0.709635,1.04167 0.957031,0.664062 C1.24349,0.221354 1.51693,-0.234375 1.77734,-0.703125 C2.0638,-1.23698 2.29167,-1.84896 2.46094,-2.53906 C2.65625,-3.24219 2.75391,-3.95833 2.75391,-4.6875 C2.75391,-4.89583 2.84505,-5 3.02734,-5 C3.06641,-5 3.15104,-4.98047 3.28125,-4.94141 C3.32031,-4.92839 3.40169,-4.90885 3.52539,-4.88281 C3.64909,-4.85677 3.75,-4.83073 3.82812,-4.80469 C4.0625,-4.76562 4.28385,-4.74609 4.49219,-4.74609"/>
<path class="" transform="matrix(1.80057,0,0,1.80057,78.4406,46.6653)" d="M1.40625,-4.10156 C1.78385,-4.10156 2.07031,-3.9974 2.26562,-3.78906 C2.46094,-3.55469 2.5651,-3.33333 2.57812,-3.125 C2.60417,-2.92969 2.66927,-2.70833 2.77344,-2.46094 C2.89062,-2.2526 3.04036,-2.14844 3.22266,-2.14844 C3.36589,-2.14844 3.58073,-2.3112 3.86719,-2.63672 C4.1276,-2.92318 4.31641,-3.17708 4.43359,-3.39844 C4.4987,-3.52865 4.58984,-3.59375 4.70703,-3.59375 L4.72656,-3.59375 C4.85677,-3.58073 4.94792,-3.51562 5,-3.39844 L2.53906,5 C2.40885,5.13021 2.22656,5.19531 1.99219,5.19531 C1.75781,5.19531 1.57552,5.13021 1.44531,5 L3.78906,-1.52344 C2.95573,-1.22396 2.2526,-1.07422 1.67969,-1.07422 C1.21094,-1.07422 0.807292,-1.22396 0.46875,-1.52344 C0.117188,-1.8099 -0.0585938,-2.1875 -0.0585938,-2.65625 C-0.0585938,-3.0599 0.0846354,-3.39844 0.371094,-3.67188 C0.657552,-3.95833 1.0026,-4.10156 1.40625,-4.10156"/>
<path class="" fill-rule="evenodd" d="M179.501,73.6738 L270.789,82.7935 L270.789,87.2949 L179.501,78.1752 L179.501,73.6738 "/>
<path class="" fill-rule="evenodd" d="M471.52,64.6709 L490.397,62.2715 L490.397,66.7729 L471.52,69.1723 L471.52,64.6709 "/>
<path class="" transform="matrix(1.80057,0,0,1.80057,99.752,73.6738)" d="M4.55078,-14.4727 C4.85026,-14.4727 5.16927,-13.9844 5.50781,-13.0078 C5.83333,-12.0443 5.99609,-11.1263 5.99609,-10.2539 C5.99609,-9.51172 5.8138,-8.77604 5.44922,-8.04688 C5.07161,-7.26562 4.6224,-6.58854 4.10156,-6.01562 L2.5,-4.21875 C2.00521,-3.64583 1.5625,-2.98177 1.17188,-2.22656 C0.807292,-1.4974 0.625,-0.755208 0.625,0 L0,0 L0,-5 L0.625,-5 C0.976562,-5.22135 1.4974,-5.57292 2.1875,-6.05469 C2.5,-6.28906 2.96875,-6.67969 3.59375,-7.22656 C4.10156,-7.69531 4.48568,-8.17708 4.74609,-8.67188 C5.01953,-9.19271 5.15625,-9.72005 5.15625,-10.2539 C5.15625,-11.4909 4.79818,-12.7214 4.08203,-13.9453 C4.08203,-13.9453 4.08203,-13.9714 4.08203,-14.0234 C4.08203,-14.1406 4.12109,-14.2383 4.19922,-14.3164 C4.30339,-14.4206 4.42057,-14.4727 4.55078,-14.4727"/>
<path class="" d="M120.563,107.987 C120.203,106.92 119.927,106.25 119.733,105.977 C119.54,105.703 119.223,105.54 118.783,105.487 L118.783,105.187 L122.843,105.187 L122.843,105.487 C122.377,105.553 122.067,105.633 121.913,105.727 C121.76,105.82 121.683,105.98 121.683,106.207 C121.683,106.38 121.797,106.773 122.023,107.387 L123.703,111.867 L125.503,107.427 C125.73,106.867 125.843,106.427 125.843,106.107 C125.843,105.933 125.783,105.803 125.663,105.717 C125.543,105.63 125.31,105.553 124.963,105.487 L124.963,105.187 L127.423,105.187 L127.423,105.487 C127.223,105.553 127.08,105.647 126.993,105.767 C126.907,105.887 126.777,106.153 126.603,106.567 L123.843,113.487 C123.577,114.14 123.39,114.467 123.283,114.467 C123.177,114.467 123.017,114.18 122.803,113.607 L120.983,108.887 L118.743,113.687 C118.503,114.207 118.337,114.467 118.243,114.467 C118.137,114.467 117.963,114.173 117.723,113.587 L115.023,106.747 C114.823,106.24 114.657,105.91 114.523,105.757 C114.39,105.603 114.203,105.513 113.963,105.487 L113.963,105.187 L117.563,105.187 L117.563,105.487 C117.217,105.527 116.977,105.593 116.843,105.687 C116.71,105.78 116.643,105.933 116.643,106.147 C116.643,106.347 116.683,106.547 116.763,106.747 L118.743,111.967 L120.563,107.987 M128.02,112.247 C128.02,112.007 128.046,111.783 128.1,111.577 C128.153,111.37 128.246,111.177 128.38,110.997 C128.513,110.817 128.64,110.653 128.76,110.507 C128.88,110.36 129.06,110.21 129.3,110.057 C129.54,109.903 129.74,109.777 129.9,109.677 C130.06,109.577 130.303,109.457 130.63,109.317 C130.956,109.177 131.206,109.07 131.38,108.997 C131.553,108.923 131.826,108.813 132.2,108.667 C132.573,108.52 132.846,108.413 133.02,108.347 L133.02,107.127 C133.02,106.02 132.513,105.467 131.5,105.467 C131.1,105.467 130.76,105.563 130.48,105.757 C130.2,105.95 130.06,106.18 130.06,106.447 C130.06,106.553 130.076,106.7 130.11,106.887 C130.143,107.073 130.16,107.193 130.16,107.247 C130.16,107.473 130.07,107.67 129.89,107.837 C129.71,108.003 129.5,108.087 129.26,108.087 C129.033,108.087 128.833,108 128.66,107.827 C128.486,107.653 128.4,107.453 128.4,107.227 C128.4,106.6 128.723,106.07 129.37,105.637 C130.016,105.203 130.813,104.987 131.76,104.987 C132.853,104.987 133.606,105.25 134.02,105.777 C134.433,106.303 134.64,107.107 134.64,108.187 L134.64,112.087 C134.64,112.527 134.683,112.83 134.77,112.997 C134.856,113.163 135.013,113.247 135.24,113.247 C135.52,113.247 135.813,113.12 136.12,112.867 L136.12,113.387 C135.773,113.773 135.47,114.037 135.21,114.177 C134.95,114.317 134.653,114.387 134.32,114.387 C133.906,114.387 133.603,114.273 133.41,114.047 C133.216,113.82 133.093,113.447 133.04,112.927 C131.893,113.9 130.92,114.387 130.12,114.387 C129.506,114.387 129.003,114.187 128.61,113.787 C128.216,113.387 128.02,112.873 128.02,112.247 M133.02,111.727 L133.02,108.827 C131.82,109.267 130.98,109.693 130.5,110.107 C130.02,110.52 129.78,111.02 129.78,111.607 C129.78,112.153 129.913,112.56 130.18,112.827 C130.446,113.093 130.733,113.227 131.04,113.227 C131.493,113.227 131.98,113.073 132.5,112.767 C132.713,112.647 132.853,112.52 132.92,112.387 C132.986,112.253 133.02,112.033 133.02,111.727 M141.567,105.387 C141.58,105.387 141.687,105.32 141.887,105.187 L142.107,105.187 L142.187,107.907 L141.887,107.907 C141.66,107.013 141.38,106.38 141.047,106.007 C140.714,105.633 140.26,105.447 139.687,105.447 C139.234,105.447 138.864,105.573 138.577,105.827 C138.29,106.08 138.147,106.407 138.147,106.807 C138.147,107.38 138.434,107.833 139.007,108.167 L141.167,109.447 C141.767,109.807 142.197,110.17 142.457,110.537 C142.717,110.903 142.847,111.333 142.847,111.827 C142.847,112.52 142.57,113.12 142.017,113.627 C141.464,114.133 140.8,114.387 140.027,114.387 C139.694,114.387 139.247,114.327 138.687,114.207 C138.127,114.087 137.78,114.027 137.647,114.027 C137.447,114.027 137.294,114.107 137.187,114.267 L136.927,114.267 L136.927,111.147 L137.247,111.147 C137.46,112.08 137.714,112.74 138.007,113.127 C138.434,113.673 139.027,113.947 139.787,113.947 C140.294,113.947 140.697,113.817 140.997,113.557 C141.297,113.297 141.447,112.947 141.447,112.507 C141.447,111.907 141.1,111.407 140.407,111.007 L139.247,110.347 C138.394,109.867 137.79,109.407 137.437,108.967 C137.084,108.527 136.907,108.027 136.907,107.467 C136.907,106.747 137.164,106.157 137.677,105.697 C138.19,105.237 138.84,105.007 139.627,105.007 C140.067,105.007 140.48,105.07 140.867,105.197 C141.254,105.323 141.487,105.387 141.567,105.387"/>
<path class="" d="M104.653,112.007 L104.653,103.127 C104.653,102.393 104.543,101.923 104.323,101.717 C104.103,101.51 103.566,101.38 102.713,101.327 L102.713,100.947 L108.653,100.947 L108.653,101.327 C107.813,101.367 107.276,101.493 107.043,101.707 C106.809,101.92 106.693,102.393 106.693,103.127 L106.693,112.007 C106.693,112.74 106.813,113.217 107.053,113.437 C107.293,113.657 107.826,113.78 108.653,113.807 L108.653,114.187 L102.713,114.187 L102.713,113.807 C103.553,113.78 104.086,113.66 104.313,113.447 C104.539,113.233 104.653,112.753 104.653,112.007"/>
<path class="" d="M204.206,106.227 L204.206,105.887 C205.193,105.593 206.113,105.293 206.966,104.987 L207.106,105.027 L207.106,106.607 C207.786,105.967 208.323,105.537 208.716,105.317 C209.109,105.097 209.539,104.987 210.006,104.987 C210.739,104.987 211.316,105.25 211.736,105.777 C212.156,106.303 212.366,107.04 212.366,107.987 L212.366,112.567 C212.366,113.06 212.446,113.39 212.606,113.557 C212.766,113.723 213.093,113.833 213.586,113.887 L213.586,114.187 L209.426,114.187 L209.426,113.887 C209.933,113.847 210.269,113.713 210.436,113.487 C210.603,113.26 210.686,112.833 210.686,112.207 L210.686,108.027 C210.686,106.733 210.199,106.087 209.226,106.087 C208.893,106.087 208.586,106.163 208.306,106.317 C208.026,106.47 207.646,106.773 207.166,107.227 L207.166,112.847 C207.166,113.207 207.259,113.46 207.446,113.607 C207.633,113.753 207.979,113.847 208.486,113.887 L208.486,114.187 L204.246,114.187 L204.246,113.887 C204.753,113.847 205.086,113.73 205.246,113.537 C205.406,113.343 205.486,112.96 205.486,112.387 L205.486,107.427 C205.486,106.933 205.433,106.597 205.326,106.417 C205.219,106.237 205.026,106.147 204.746,106.147 C204.493,106.147 204.313,106.173 204.206,106.227 M215.012,106.327 C214.718,106.327 214.438,106.347 214.172,106.387 L214.172,106.087 C215.105,105.82 216.138,105.453 217.272,104.987 L217.352,105.047 L217.352,112.147 C217.352,112.867 217.435,113.323 217.602,113.517 C217.768,113.71 218.178,113.833 218.832,113.887 L218.832,114.187 L214.092,114.187 L214.092,113.887 C214.785,113.847 215.222,113.727 215.402,113.527 C215.582,113.327 215.672,112.867 215.672,112.147 L215.672,107.507 C215.672,107.067 215.622,106.76 215.522,106.587 C215.422,106.413 215.252,106.327 215.012,106.327 M216.332,100.527 C216.625,100.527 216.872,100.627 217.072,100.827 C217.272,101.027 217.372,101.267 217.372,101.547 C217.372,101.84 217.272,102.083 217.072,102.277 C216.872,102.47 216.625,102.567 216.332,102.567 C216.052,102.567 215.815,102.467 215.622,102.267 C215.428,102.067 215.332,101.827 215.332,101.547 C215.332,101.267 215.432,101.027 215.632,100.827 C215.832,100.627 216.065,100.527 216.332,100.527 M219.519,106.227 L219.519,105.887 C220.505,105.593 221.425,105.293 222.279,104.987 L222.419,105.027 L222.419,106.607 C223.099,105.967 223.635,105.537 224.029,105.317 C224.422,105.097 224.852,104.987 225.319,104.987 C226.052,104.987 226.629,105.25 227.049,105.777 C227.469,106.303 227.679,107.04 227.679,107.987 L227.679,112.567 C227.679,113.06 227.759,113.39 227.919,113.557 C228.079,113.723 228.405,113.833 228.899,113.887 L228.899,114.187 L224.739,114.187 L224.739,113.887 C225.245,113.847 225.582,113.713 225.749,113.487 C225.915,113.26 225.999,112.833 225.999,112.207 L225.999,108.027 C225.999,106.733 225.512,106.087 224.539,106.087 C224.205,106.087 223.899,106.163 223.619,106.317 C223.339,106.47 222.959,106.773 222.479,107.227 L222.479,112.847 C222.479,113.207 222.572,113.46 222.759,113.607 C222.945,113.753 223.292,113.847 223.799,113.887 L223.799,114.187 L219.559,114.187 L219.559,113.887 C220.065,113.847 220.399,113.73 220.559,113.537 C220.719,113.343 220.799,112.96 220.799,112.387 L220.799,107.427 C220.799,106.933 220.745,106.597 220.639,106.417 C220.532,106.237 220.339,106.147 220.059,106.147 C219.805,106.147 219.625,106.173 219.519,106.227"/>
<path class="" d="M174.475,105.387 C174.488,105.387 174.595,105.32 174.795,105.187 L175.015,105.187 L175.095,107.907 L174.795,107.907 C174.568,107.013 174.288,106.38 173.955,106.007 C173.621,105.633 173.168,105.447 172.595,105.447 C172.141,105.447 171.771,105.573 171.485,105.827 C171.198,106.08 171.055,106.407 171.055,106.807 C171.055,107.38 171.341,107.833 171.915,108.167 L174.075,109.447 C174.675,109.807 175.105,110.17 175.365,110.537 C175.625,110.903 175.755,111.333 175.755,111.827 C175.755,112.52 175.478,113.12 174.925,113.627 C174.371,114.133 173.708,114.387 172.935,114.387 C172.601,114.387 172.155,114.327 171.595,114.207 C171.035,114.087 170.688,114.027 170.555,114.027 C170.355,114.027 170.201,114.107 170.095,114.267 L169.835,114.267 L169.835,111.147 L170.155,111.147 C170.368,112.08 170.621,112.74 170.915,113.127 C171.341,113.673 171.935,113.947 172.695,113.947 C173.201,113.947 173.605,113.817 173.905,113.557 C174.205,113.297 174.355,112.947 174.355,112.507 C174.355,111.907 174.008,111.407 173.315,111.007 L172.155,110.347 C171.301,109.867 170.698,109.407 170.345,108.967 C169.991,108.527 169.815,108.027 169.815,107.467 C169.815,106.747 170.071,106.157 170.585,105.697 C171.098,105.237 171.748,105.007 172.535,105.007 C172.975,105.007 173.388,105.07 173.775,105.197 C174.161,105.323 174.395,105.387 174.475,105.387 M176.723,106.327 L176.723,106.007 C177.563,105.753 178.523,105.413 179.603,104.987 L179.723,105.027 L179.723,106.567 C180.576,105.513 181.536,104.987 182.603,104.987 C183.576,104.987 184.376,105.387 185.003,106.187 C185.63,106.987 185.943,108.007 185.943,109.247 C185.943,110.7 185.54,111.92 184.733,112.907 C183.926,113.893 182.93,114.387 181.743,114.387 C181.316,114.387 180.96,114.327 180.673,114.207 C180.386,114.087 180.07,113.86 179.723,113.527 L179.723,116.667 C179.723,117.293 179.83,117.697 180.043,117.877 C180.256,118.057 180.736,118.153 181.483,118.167 L181.483,118.527 L176.643,118.527 L176.643,118.187 C177.23,118.133 177.61,118.02 177.783,117.847 C177.956,117.673 178.043,117.327 178.043,116.807 L178.043,107.447 C178.043,106.98 177.99,106.673 177.883,106.527 C177.776,106.38 177.556,106.307 177.223,106.307 C177.01,106.307 176.843,106.313 176.723,106.327 M179.723,107.507 L179.723,112.427 C179.723,112.72 179.953,113.013 180.413,113.307 C180.873,113.6 181.336,113.747 181.803,113.747 C182.523,113.747 183.106,113.403 183.553,112.717 C184,112.03 184.223,111.133 184.223,110.027 C184.223,108.867 184,107.937 183.553,107.237 C183.106,106.537 182.51,106.187 181.763,106.187 C181.296,106.187 180.84,106.333 180.393,106.627 C179.946,106.92 179.723,107.213 179.723,107.507 M187.683,106.327 C187.39,106.327 187.11,106.347 186.843,106.387 L186.843,106.087 C187.776,105.82 188.81,105.453 189.943,104.987 L190.023,105.047 L190.023,112.147 C190.023,112.867 190.106,113.323 190.273,113.517 C190.44,113.71 190.85,113.833 191.503,113.887 L191.503,114.187 L186.763,114.187 L186.763,113.887 C187.456,113.847 187.893,113.727 188.073,113.527 C188.253,113.327 188.343,112.867 188.343,112.147 L188.343,107.507 C188.343,107.067 188.293,106.76 188.193,106.587 C188.093,106.413 187.923,106.327 187.683,106.327 M189.003,100.527 C189.296,100.527 189.543,100.627 189.743,100.827 C189.943,101.027 190.043,101.267 190.043,101.547 C190.043,101.84 189.943,102.083 189.743,102.277 C189.543,102.47 189.296,102.567 189.003,102.567 C188.723,102.567 188.486,102.467 188.293,102.267 C188.1,102.067 188.003,101.827 188.003,101.547 C188.003,101.267 188.103,101.027 188.303,100.827 C188.503,100.627 188.736,100.527 189.003,100.527 M192.19,106.227 L192.19,105.887 C193.176,105.593 194.096,105.293 194.95,104.987 L195.09,105.027 L195.09,106.607 C195.77,105.967 196.306,105.537 196.7,105.317 C197.093,105.097 197.523,104.987 197.99,104.987 C198.723,104.987 199.3,105.25 199.72,105.777 C200.14,106.303 200.35,107.04 200.35,107.987 L200.35,112.567 C200.35,113.06 200.43,113.39 200.59,113.557 C200.75,113.723 201.076,113.833 201.57,113.887 L201.57,114.187 L197.41,114.187 L197.41,113.887 C197.916,113.847 198.253,113.713 198.42,113.487 C198.586,113.26 198.67,112.833 198.67,112.207 L198.67,108.027 C198.67,106.733 198.183,106.087 197.21,106.087 C196.876,106.087 196.57,106.163 196.29,106.317 C196.01,106.47 195.63,106.773 195.15,107.227 L195.15,112.847 C195.15,113.207 195.243,113.46 195.43,113.607 C195.616,113.753 195.963,113.847 196.47,113.887 L196.47,114.187 L192.23,114.187 L192.23,113.887 C192.736,113.847 193.07,113.73 193.23,113.537 C193.39,113.343 193.47,112.96 193.47,112.387 L193.47,107.427 C193.47,106.933 193.416,106.597 193.31,106.417 C193.203,106.237 193.01,106.147 192.73,106.147 C192.476,106.147 192.296,106.173 192.19,106.227"/>
<path class="" d="M265.619,102.587 C265.405,102.587 265.222,102.51 265.069,102.357 C264.915,102.203 264.795,102.03 264.709,101.837 C264.622,101.643 264.489,101.47 264.309,101.317 C264.129,101.163 263.912,101.087 263.659,101.087 C262.899,101.087 262.519,101.68 262.519,102.867 L262.519,105.187 L264.979,105.187 L264.979,105.827 L262.539,105.827 L262.539,112.107 C262.539,112.853 262.645,113.33 262.859,113.537 C263.072,113.743 263.585,113.86 264.399,113.887 L264.399,114.187 L259.199,114.187 L259.199,113.887 C259.919,113.847 260.375,113.723 260.569,113.517 C260.762,113.31 260.859,112.84 260.859,112.107 L260.859,105.827 L259.219,105.827 L259.219,105.187 L260.859,105.187 C260.885,103.693 261.165,102.543 261.699,101.737 C262.232,100.93 263.125,100.527 264.379,100.527 C264.979,100.527 265.475,100.643 265.869,100.877 C266.262,101.11 266.459,101.407 266.459,101.767 C266.459,101.993 266.375,102.187 266.209,102.347 C266.042,102.507 265.845,102.587 265.619,102.587 M272.472,106.947 C272.272,106.947 272.025,106.83 271.732,106.597 C271.438,106.363 271.245,106.247 271.152,106.247 C270.885,106.247 270.585,106.44 270.252,106.827 C269.918,107.213 269.752,107.567 269.752,107.887 L269.752,112.387 C269.752,112.96 269.865,113.347 270.092,113.547 C270.318,113.747 270.772,113.86 271.452,113.887 L271.452,114.187 L266.652,114.187 L266.652,113.887 C267.292,113.767 267.688,113.633 267.842,113.487 C267.995,113.34 268.072,113.013 268.072,112.507 L268.072,107.507 C268.072,107.067 268.022,106.757 267.922,106.577 C267.822,106.397 267.645,106.307 267.392,106.307 C267.178,106.307 266.945,106.333 266.692,106.387 L266.692,106.067 C267.758,105.72 268.745,105.36 269.652,104.987 L269.752,105.027 L269.752,106.867 C270.245,106.16 270.665,105.67 271.012,105.397 C271.358,105.123 271.738,104.987 272.152,104.987 C272.498,104.987 272.768,105.08 272.962,105.267 C273.155,105.453 273.252,105.713 273.252,106.047 C273.252,106.327 273.182,106.547 273.042,106.707 C272.902,106.867 272.712,106.947 272.472,106.947 M275.282,108.647 C275.309,109.487 275.422,110.21 275.622,110.817 C275.822,111.423 276.082,111.877 276.402,112.177 C276.722,112.477 277.046,112.69 277.372,112.817 C277.699,112.943 278.042,113.007 278.402,113.007 C279.042,113.007 279.599,112.847 280.072,112.527 C280.546,112.207 281.022,111.667 281.502,110.907 L281.822,111.047 C281.409,112.127 280.836,112.953 280.102,113.527 C279.369,114.1 278.529,114.387 277.582,114.387 C276.436,114.387 275.526,113.983 274.852,113.177 C274.179,112.37 273.842,111.28 273.842,109.907 C273.842,108.427 274.232,107.237 275.012,106.337 C275.792,105.437 276.796,104.987 278.022,104.987 C279.036,104.987 279.822,105.29 280.382,105.897 C280.942,106.503 281.296,107.42 281.442,108.647 L275.282,108.647 M275.322,108.007 L279.402,108.007 C279.269,107.14 279.062,106.54 278.782,106.207 C278.502,105.873 278.056,105.707 277.442,105.707 C276.242,105.707 275.536,106.473 275.322,108.007 M284.157,108.647 C284.184,109.487 284.297,110.21 284.497,110.817 C284.697,111.423 284.957,111.877 285.277,112.177 C285.597,112.477 285.921,112.69 286.247,112.817 C286.574,112.943 286.917,113.007 287.277,113.007 C287.917,113.007 288.474,112.847 288.947,112.527 C289.421,112.207 289.897,111.667 290.377,110.907 L290.697,111.047 C290.284,112.127 289.711,112.953 288.977,113.527 C288.244,114.1 287.404,114.387 286.457,114.387 C285.311,114.387 284.401,113.983 283.727,113.177 C283.054,112.37 282.717,111.28 282.717,109.907 C282.717,108.427 283.107,107.237 283.887,106.337 C284.667,105.437 285.671,104.987 286.897,104.987 C287.911,104.987 288.697,105.29 289.257,105.897 C289.817,106.503 290.171,107.42 290.317,108.647 L284.157,108.647 M284.197,108.007 L288.277,108.007 C288.144,107.14 287.937,106.54 287.657,106.207 C287.377,105.873 286.931,105.707 286.317,105.707 C285.117,105.707 284.411,106.473 284.197,108.007 M293.932,114.227 C293.932,114.227 293.879,114.24 293.772,114.267 C293.652,114.293 293.526,114.307 293.392,114.307 C293.032,114.307 292.746,114.217 292.532,114.037 C292.319,113.857 292.212,113.607 292.212,113.287 C292.212,112.953 292.322,112.68 292.542,112.467 C292.762,112.253 293.046,112.147 293.392,112.147 C293.846,112.147 294.226,112.317 294.532,112.657 C294.839,112.997 294.992,113.42 294.992,113.927 C294.992,114.527 294.786,115.107 294.372,115.667 C293.959,116.227 293.419,116.673 292.752,117.007 L292.572,116.627 C293.666,115.88 294.212,115.173 294.212,114.507 C294.212,114.32 294.119,114.227 293.932,114.227"/>
<path class="" d="M358.209,107.987 C357.849,106.92 357.573,106.25 357.379,105.977 C357.186,105.703 356.869,105.54 356.429,105.487 L356.429,105.187 L360.489,105.187 L360.489,105.487 C360.023,105.553 359.713,105.633 359.559,105.727 C359.406,105.82 359.329,105.98 359.329,106.207 C359.329,106.38 359.443,106.773 359.669,107.387 L361.349,111.867 L363.149,107.427 C363.376,106.867 363.489,106.427 363.489,106.107 C363.489,105.933 363.429,105.803 363.309,105.717 C363.189,105.63 362.956,105.553 362.609,105.487 L362.609,105.187 L365.069,105.187 L365.069,105.487 C364.869,105.553 364.726,105.647 364.639,105.767 C364.553,105.887 364.423,106.153 364.249,106.567 L361.489,113.487 C361.223,114.14 361.036,114.467 360.929,114.467 C360.823,114.467 360.663,114.18 360.449,113.607 L358.629,108.887 L356.389,113.687 C356.149,114.207 355.983,114.467 355.889,114.467 C355.783,114.467 355.609,114.173 355.369,113.587 L352.669,106.747 C352.469,106.24 352.303,105.91 352.169,105.757 C352.036,105.603 351.849,105.513 351.609,105.487 L351.609,105.187 L355.209,105.187 L355.209,105.487 C354.863,105.527 354.623,105.593 354.489,105.687 C354.356,105.78 354.289,105.933 354.289,106.147 C354.289,106.347 354.329,106.547 354.409,106.747 L356.389,111.967 L358.209,107.987 M368.326,107.327 L368.326,112.147 C368.326,112.84 368.406,113.287 368.566,113.487 C368.726,113.687 369.099,113.82 369.686,113.887 L369.686,114.187 L365.366,114.187 L365.366,113.887 C365.939,113.807 366.296,113.673 366.436,113.487 C366.576,113.3 366.646,112.853 366.646,112.147 L366.646,102.727 C366.646,102.3 366.589,102.02 366.476,101.887 C366.362,101.753 366.112,101.687 365.726,101.687 C365.632,101.687 365.519,101.7 365.386,101.727 L365.386,101.407 C366.332,101.153 367.279,100.86 368.226,100.527 L368.326,100.587 L368.326,106.667 C368.779,106.067 369.236,105.637 369.696,105.377 C370.156,105.117 370.679,104.987 371.266,104.987 C372.906,104.987 373.726,106.047 373.726,108.167 L373.726,112.147 C373.726,112.84 373.789,113.277 373.916,113.457 C374.042,113.637 374.379,113.78 374.926,113.887 L374.926,114.187 L370.686,114.187 L370.686,113.887 C371.259,113.833 371.629,113.7 371.796,113.487 C371.962,113.273 372.046,112.827 372.046,112.147 L372.046,108.187 C372.046,106.773 371.546,106.067 370.546,106.067 C370.159,106.067 369.796,106.163 369.456,106.357 C369.116,106.55 368.739,106.873 368.326,107.327 M380.039,104.987 C381.319,104.987 382.372,105.413 383.199,106.267 C384.025,107.12 384.439,108.2 384.439,109.507 C384.439,110.893 384.012,112.053 383.159,112.987 C382.305,113.92 381.252,114.387 379.999,114.387 C378.745,114.387 377.702,113.937 376.869,113.037 C376.035,112.137 375.619,111.013 375.619,109.667 C375.619,108.293 376.029,107.17 376.849,106.297 C377.669,105.423 378.732,104.987 380.039,104.987 M377.419,108.687 C377.419,110.113 377.679,111.327 378.199,112.327 C378.719,113.327 379.399,113.827 380.239,113.827 C380.985,113.827 381.572,113.507 381.999,112.867 C382.425,112.227 382.639,111.34 382.639,110.207 C382.639,108.833 382.372,107.713 381.839,106.847 C381.305,105.98 380.619,105.547 379.779,105.547 C379.072,105.547 378.502,105.833 378.069,106.407 C377.635,106.98 377.419,107.74 377.419,108.687 M385.431,112.247 C385.431,112.007 385.458,111.783 385.511,111.577 C385.565,111.37 385.658,111.177 385.791,110.997 C385.925,110.817 386.051,110.653 386.171,110.507 C386.291,110.36 386.471,110.21 386.711,110.057 C386.951,109.903 387.151,109.777 387.311,109.677 C387.471,109.577 387.715,109.457 388.041,109.317 C388.368,109.177 388.618,109.07 388.791,108.997 C388.965,108.923 389.238,108.813 389.611,108.667 C389.985,108.52 390.258,108.413 390.431,108.347 L390.431,107.127 C390.431,106.02 389.925,105.467 388.911,105.467 C388.511,105.467 388.171,105.563 387.891,105.757 C387.611,105.95 387.471,106.18 387.471,106.447 C387.471,106.553 387.488,106.7 387.521,106.887 C387.555,107.073 387.571,107.193 387.571,107.247 C387.571,107.473 387.481,107.67 387.301,107.837 C387.121,108.003 386.911,108.087 386.671,108.087 C386.445,108.087 386.245,108 386.071,107.827 C385.898,107.653 385.811,107.453 385.811,107.227 C385.811,106.6 386.135,106.07 386.781,105.637 C387.428,105.203 388.225,104.987 389.171,104.987 C390.265,104.987 391.018,105.25 391.431,105.777 C391.845,106.303 392.051,107.107 392.051,108.187 L392.051,112.087 C392.051,112.527 392.095,112.83 392.181,112.997 C392.268,113.163 392.425,113.247 392.651,113.247 C392.931,113.247 393.225,113.12 393.531,112.867 L393.531,113.387 C393.185,113.773 392.881,114.037 392.621,114.177 C392.361,114.317 392.065,114.387 391.731,114.387 C391.318,114.387 391.015,114.273 390.821,114.047 C390.628,113.82 390.505,113.447 390.451,112.927 C389.305,113.9 388.331,114.387 387.531,114.387 C386.918,114.387 386.415,114.187 386.021,113.787 C385.628,113.387 385.431,112.873 385.431,112.247 M390.431,111.727 L390.431,108.827 C389.231,109.267 388.391,109.693 387.911,110.107 C387.431,110.52 387.191,111.02 387.191,111.607 C387.191,112.153 387.325,112.56 387.591,112.827 C387.858,113.093 388.145,113.227 388.451,113.227 C388.905,113.227 389.391,113.073 389.911,112.767 C390.125,112.647 390.265,112.52 390.331,112.387 C390.398,112.253 390.431,112.033 390.431,111.727"/>
<path class="" d="M508.53,104.987 C509.81,104.987 510.863,105.413 511.69,106.267 C512.517,107.12 512.93,108.2 512.93,109.507 C512.93,110.893 512.503,112.053 511.65,112.987 C510.797,113.92 509.743,114.387 508.49,114.387 C507.237,114.387 506.193,113.937 505.36,113.037 C504.527,112.137 504.11,111.013 504.11,109.667 C504.11,108.293 504.52,107.17 505.34,106.297 C506.16,105.423 507.223,104.987 508.53,104.987 M505.91,108.687 C505.91,110.113 506.17,111.327 506.69,112.327 C507.21,113.327 507.89,113.827 508.73,113.827 C509.477,113.827 510.063,113.507 510.49,112.867 C510.917,112.227 511.13,111.34 511.13,110.207 C511.13,108.833 510.863,107.713 510.33,106.847 C509.797,105.98 509.11,105.547 508.27,105.547 C507.563,105.547 506.993,105.833 506.56,106.407 C506.127,106.98 505.91,107.74 505.91,108.687 M513.922,112.247 C513.922,112.007 513.949,111.783 514.002,111.577 C514.056,111.37 514.149,111.177 514.282,110.997 C514.416,110.817 514.542,110.653 514.662,110.507 C514.782,110.36 514.962,110.21 515.202,110.057 C515.442,109.903 515.642,109.777 515.802,109.677 C515.962,109.577 516.206,109.457 516.532,109.317 C516.859,109.177 517.109,109.07 517.282,108.997 C517.456,108.923 517.729,108.813 518.102,108.667 C518.476,108.52 518.749,108.413 518.922,108.347 L518.922,107.127 C518.922,106.02 518.416,105.467 517.402,105.467 C517.002,105.467 516.662,105.563 516.382,105.757 C516.102,105.95 515.962,106.18 515.962,106.447 C515.962,106.553 515.979,106.7 516.012,106.887 C516.046,107.073 516.062,107.193 516.062,107.247 C516.062,107.473 515.972,107.67 515.792,107.837 C515.612,108.003 515.402,108.087 515.162,108.087 C514.936,108.087 514.736,108 514.562,107.827 C514.389,107.653 514.302,107.453 514.302,107.227 C514.302,106.6 514.626,106.07 515.272,105.637 C515.919,105.203 516.716,104.987 517.662,104.987 C518.756,104.987 519.509,105.25 519.922,105.777 C520.336,106.303 520.542,107.107 520.542,108.187 L520.542,112.087 C520.542,112.527 520.586,112.83 520.672,112.997 C520.759,113.163 520.916,113.247 521.142,113.247 C521.422,113.247 521.716,113.12 522.022,112.867 L522.022,113.387 C521.676,113.773 521.372,114.037 521.112,114.177 C520.852,114.317 520.556,114.387 520.222,114.387 C519.809,114.387 519.506,114.273 519.312,114.047 C519.119,113.82 518.996,113.447 518.942,112.927 C517.796,113.9 516.822,114.387 516.022,114.387 C515.409,114.387 514.906,114.187 514.512,113.787 C514.119,113.387 513.922,112.873 513.922,112.247 M518.922,111.727 L518.922,108.827 C517.722,109.267 516.882,109.693 516.402,110.107 C515.922,110.52 515.682,111.02 515.682,111.607 C515.682,112.153 515.816,112.56 516.082,112.827 C516.349,113.093 516.636,113.227 516.942,113.227 C517.396,113.227 517.882,113.073 518.402,112.767 C518.616,112.647 518.756,112.52 518.822,112.387 C518.889,112.253 518.922,112.033 518.922,111.727"/>
<polyline class="" fill="none" stroke="#000000" stroke-width="1.35" stroke-linejoin="bevel" points="445.009,108.694 452.212,108.694"/>
</svg>
