<svg width="611" height="367" xmlns="http://www.w3.org/2000/svg" version="1.2" baseProfile="tiny"><path stroke="#000" stroke-width=".94" stroke-linecap="round" stroke-linejoin="round" fill-rule="evenodd" d="M332.598 18.096c8.053-7.196 32.214-7.196 40.267 0-8.053-5.046-32.214-5.046-40.267 0M423.746 31.532c8.053-7.195 32.214-7.195 40.267 0-8.053-5.046-32.214-5.046-40.267 0M539.585 16.08c17.232-18.786 51.697-18.786 68.929 0-17.232-16.636-51.697-16.636-68.929 0M99.037 229.17c51.659-31.124 273.707-6.288 317.212 35.481-43.744-39.633-265.792-64.469-317.212-35.481M334.459 271.436c13.058-10.999 52.232-10.999 65.29 0-13.058-8.849-52.232-8.849-65.29 0M334.459 295.486c13.058 8.85 52.232 8.85 65.29 0-13.058 10.999-52.232 10.999-65.29 0"/><path stroke="#000" stroke-width="1.07" stroke-linejoin="bevel" d="M2.183 41.61h240.474M2.183 55.045h240.474M2.183 68.482h240.474M2.183 81.918h240.474M2.183 95.354h240.474M242.657 41.61h365.857M242.657 55.045h365.857M242.657 68.482h365.857M242.657 81.918h365.857M242.657 95.354h365.857M2.183 256.589H386.82M2.183 270.025H386.82M2.183 283.461H386.82M2.183 296.897H386.82M2.183 310.334H386.82M386.819 256.589h221.695M386.819 270.025h221.695M386.819 283.461h221.695M386.819 296.897h221.695M386.819 310.334h221.695"/><path stroke="#000" stroke-width="2.15" stroke-linejoin="bevel" d="M241.582 41.61v53.744M607.439 41.61v53.744M385.744 256.589v53.745M607.439 256.589v53.745"/><path stroke="#000" stroke-width="2.15" stroke-linecap="square" stroke-linejoin="bevel" d="M362.643 28.173h25.751M317.069 28.173h25.751M526.709 28.173h25.752"/><path stroke="#000" stroke-width="1.75" stroke-linecap="round" stroke-linejoin="bevel" d="M151.235 44.133v44.503M185.906 44.133v44.503M275.302 37.415v41.144M367.547 30.697v50.11M321.973 30.697v49M458.695 44.133v44.503M413.121 44.133v37.785M531.614 30.697v57.939M87.944 252.394v57.94M227.991 265.83v47.863M157.967 259.112v61.299M271.755 259.112v51.222M315.52 279.267v51.221"/><path d="M162.17 34.209c1.68 0 3.097.437 4.251 1.312 1.085.945 1.627 2.134 1.627 3.569 0 2.414-1.242 4.671-3.726 6.77-2.52 2.1-5.213 3.15-8.083 3.15-1.68 0-3.096-.438-4.251-1.312-1.085-.945-1.627-2.135-1.627-3.57 0-2.414 1.26-4.67 3.779-6.77 2.45-2.1 5.126-3.15 8.03-3.15M196.842 34.209c1.68 0 3.097.437 4.251 1.312 1.085.945 1.627 2.134 1.627 3.569 0 2.414-1.242 4.671-3.726 6.77-2.52 2.1-5.213 3.15-8.083 3.15-1.68 0-3.096-.438-4.251-1.312-1.085-.945-1.627-2.135-1.627-3.57 0-2.414 1.26-4.67 3.779-6.77 2.45-2.1 5.126-3.15 8.03-3.15M286.237 27.49c1.68 0 3.097.438 4.251 1.313 1.085.945 1.627 2.134 1.627 3.569 0 2.414-1.242 4.671-3.726 6.77-2.52 2.1-5.213 3.15-8.083 3.15-1.68 0-3.096-.438-4.251-1.313-1.085-.944-1.627-2.134-1.627-3.569 0-2.414 1.26-4.67 3.779-6.77 2.45-2.1 5.126-3.15 8.03-3.15M378.483 20.773c1.68 0 3.097.437 4.251 1.312 1.085.944 1.627 2.134 1.627 3.569 0 2.414-1.242 4.67-3.726 6.77-2.52 2.1-5.213 3.15-8.083 3.15-1.68 0-3.096-.438-4.251-1.313-1.085-.944-1.627-2.134-1.627-3.569 0-2.414 1.26-4.67 3.779-6.77 2.45-2.1 5.126-3.15 8.03-3.15M332.91 20.773c1.679 0 3.096.437 4.25 1.312 1.085.944 1.627 2.134 1.627 3.569 0 2.414-1.242 4.67-3.726 6.77-2.52 2.1-5.213 3.15-8.083 3.15-1.68 0-3.096-.438-4.251-1.313-1.085-.944-1.627-2.134-1.627-3.569 0-2.414 1.26-4.67 3.779-6.77 2.45-2.1 5.126-3.15 8.03-3.15M469.631 34.209c1.68 0 3.097.437 4.251 1.312 1.085.945 1.627 2.134 1.627 3.569 0 2.414-1.242 4.671-3.726 6.77-2.52 2.1-5.213 3.15-8.083 3.15-1.68 0-3.096-.438-4.251-1.312-1.085-.945-1.627-2.135-1.627-3.57 0-2.414 1.26-4.67 3.779-6.77 2.45-2.1 5.126-3.15 8.03-3.15M424.057 34.209c1.68 0 3.097.437 4.251 1.312 1.085.945 1.627 2.134 1.627 3.569 0 2.414-1.242 4.671-3.726 6.77-2.52 2.1-5.213 3.15-8.083 3.15-1.68 0-3.096-.438-4.251-1.312-1.085-.945-1.627-2.135-1.627-3.57 0-2.414 1.26-4.67 3.779-6.77 2.45-2.1 5.126-3.15 8.03-3.15M542.55 20.773c1.679 0 3.096.437 4.25 1.312 1.085.944 1.627 2.134 1.627 3.569 0 2.414-1.242 4.67-3.726 6.77-2.52 2.1-5.213 3.15-8.083 3.15-1.68 0-3.096-.438-4.251-1.313-1.085-.944-1.627-2.134-1.627-3.569 0-2.414 1.26-4.67 3.779-6.77 2.45-2.1 5.126-3.15 8.03-3.15"/><path d="M542.55 34.209c1.679 0 3.096.437 4.25 1.312 1.085.945 1.627 2.134 1.627 3.569 0 2.414-1.242 4.671-3.726 6.77-2.52 2.1-5.213 3.15-8.083 3.15-1.68 0-3.096-.438-4.251-1.312-1.085-.945-1.627-2.135-1.627-3.57 0-2.414 1.26-4.67 3.779-6.77 2.45-2.1 5.126-3.15 8.03-3.15M98.88 242.47c1.68 0 3.096.438 4.251 1.313 1.085.944 1.627 2.134 1.627 3.569 0 2.414-1.242 4.67-3.726 6.77-2.52 2.1-5.214 3.15-8.083 3.15-1.68 0-3.097-.438-4.251-1.313-1.085-.944-1.627-2.134-1.627-3.569 0-2.414 1.26-4.67 3.779-6.77 2.449-2.1 5.126-3.15 8.03-3.15"/><path d="M98.88 255.907c1.68 0 3.096.437 4.251 1.312 1.085.944 1.627 2.134 1.627 3.569 0 2.414-1.242 4.67-3.726 6.77-2.52 2.1-5.214 3.15-8.083 3.15-1.68 0-3.097-.438-4.251-1.313-1.085-.944-1.627-2.134-1.627-3.569 0-2.414 1.26-4.67 3.779-6.77 2.449-2.1 5.126-3.15 8.03-3.15M238.926 255.907c1.68 0 3.097.437 4.251 1.312 1.085.944 1.627 2.134 1.627 3.569 0 2.414-1.242 4.67-3.726 6.77-2.52 2.1-5.213 3.15-8.083 3.15-1.68 0-3.096-.438-4.251-1.313-1.085-.944-1.627-2.134-1.627-3.569 0-2.414 1.26-4.67 3.779-6.77 2.45-2.1 5.126-3.15 8.03-3.15"/><path d="M238.926 269.343c1.68 0 3.097.437 4.251 1.312 1.085.944 1.627 2.134 1.627 3.569 0 2.414-1.242 4.67-3.726 6.77-2.52 2.1-5.213 3.15-8.083 3.15-1.68 0-3.096-.438-4.251-1.313-1.085-.944-1.627-2.134-1.627-3.569 0-2.414 1.26-4.67 3.779-6.77 2.45-2.1 5.126-3.15 8.03-3.15M168.903 249.189c1.68 0 3.097.437 4.251 1.312 1.085.944 1.627 2.134 1.627 3.569 0 2.414-1.242 4.67-3.726 6.77-2.52 2.1-5.213 3.15-8.083 3.15-1.68 0-3.096-.438-4.251-1.313-1.085-.944-1.627-2.134-1.627-3.569 0-2.414 1.26-4.67 3.779-6.77 2.45-2.1 5.126-3.15 8.03-3.15M168.903 269.343c1.68 0 3.097.437 4.251 1.312 1.085.944 1.627 2.134 1.627 3.569 0 2.414-1.242 4.67-3.726 6.77-2.52 2.1-5.213 3.15-8.083 3.15-1.68 0-3.096-.438-4.251-1.313-1.085-.944-1.627-2.134-1.627-3.569 0-2.414 1.26-4.67 3.779-6.77 2.45-2.1 5.126-3.15 8.03-3.15M282.691 249.189c1.68 0 3.097.437 4.251 1.312 1.085.944 1.627 2.134 1.627 3.569 0 2.414-1.242 4.67-3.726 6.77-2.52 2.1-5.213 3.15-8.083 3.15-1.68 0-3.096-.438-4.251-1.313-1.085-.944-1.627-2.134-1.627-3.569 0-2.414 1.26-4.67 3.779-6.77 2.45-2.1 5.126-3.15 8.03-3.15"/><path d="M282.691 262.625c1.68 0 3.097.437 4.251 1.312 1.085.944 1.627 2.134 1.627 3.569 0 2.414-1.242 4.67-3.726 6.77-2.52 2.1-5.213 3.15-8.083 3.15-1.68 0-3.096-.438-4.251-1.313-1.085-.944-1.627-2.134-1.627-3.569 0-2.414 1.26-4.67 3.779-6.77 2.45-2.1 5.126-3.15 8.03-3.15M326.455 269.343c1.68 0 3.097.437 4.251 1.312 1.085.944 1.627 2.134 1.627 3.569 0 2.414-1.242 4.67-3.726 6.77-2.52 2.1-5.213 3.15-8.083 3.15-1.68 0-3.096-.438-4.251-1.313-1.085-.944-1.627-2.134-1.627-3.569 0-2.414 1.26-4.67 3.779-6.77 2.45-2.1 5.126-3.15 8.03-3.15M414.49 270.707c-1.26 0-2.17.438-2.73 1.312-.63.84-.944 1.977-.944 3.412 0 1.644.437 3.062 1.312 4.251.875 1.155 1.837 1.96 2.887 2.414a6.81 6.81 0 0 0 2.991.683c1.225 0 2.152-.438 2.782-1.312.595-.875.892-2.012.892-3.412 0-1.644-.437-3.062-1.312-4.251-.875-1.12-1.82-1.925-2.834-2.414-1.015-.455-2.03-.683-3.044-.683m1.784-1.364c3.78 0 6.928.734 9.448 2.204 2.554 1.47 3.831 3.202 3.831 5.196 0 2.134-1.312 3.884-3.936 5.249-2.625 1.434-5.739 2.151-9.343 2.151-3.709 0-6.858-.734-9.447-2.204-2.59-1.47-3.884-3.202-3.884-5.196 0-2.134 1.33-3.884 3.989-5.249 2.624-1.434 5.738-2.151 9.342-2.151"/><path d="M326.455 282.779c1.68 0 3.097.437 4.251 1.312 1.085.944 1.627 2.134 1.627 3.569 0 2.414-1.242 4.67-3.726 6.77-2.52 2.1-5.213 3.15-8.083 3.15-1.68 0-3.096-.438-4.251-1.313-1.085-.944-1.627-2.134-1.627-3.569 0-2.414 1.26-4.67 3.779-6.77 2.45-2.1 5.126-3.15 8.03-3.15M414.49 284.143c-1.26 0-2.17.438-2.73 1.312-.63.84-.944 1.977-.944 3.412 0 1.644.437 3.062 1.312 4.251.875 1.155 1.837 1.96 2.887 2.414a6.81 6.81 0 0 0 2.991.683c1.225 0 2.152-.438 2.782-1.312.595-.875.892-2.012.892-3.412 0-1.644-.437-3.062-1.312-4.251-.875-1.12-1.82-1.925-2.834-2.414-1.015-.455-2.03-.683-3.044-.683m1.784-1.364c3.78 0 6.928.734 9.448 2.204 2.554 1.47 3.831 3.202 3.831 5.196 0 2.134-1.312 3.884-3.936 5.249-2.625 1.434-5.739 2.151-9.343 2.151-3.709 0-6.858-.734-9.447-2.204-2.59-1.47-3.884-3.202-3.884-5.196 0-2.134 1.33-3.884 3.989-5.249 2.624-1.434 5.738-2.151 9.342-2.151M30.517 68.167h.315c.14-.035.262-.053.367-.053 3.919 0 7.138 1.382 9.657 4.147 2.52 2.729 3.78 5.913 3.78 9.552 0 4.514-1.873 8.188-5.617 11.022-.98.77-2.257 1.4-3.831 1.89.175 2.274.262 4.11.262 5.51 0 .28-.035 1.295-.105 3.044-.14 3.254-1.26 6.071-3.359 8.45-2.03 2.345-4.549 3.517-7.558 3.517-2.834 0-5.248-.997-7.243-2.992-1.994-2.029-2.991-4.478-2.991-7.348 0-1.504.577-2.781 1.732-3.831 1.19-1.05 2.572-1.575 4.146-1.575 1.4 0 2.572.543 3.517 1.627.98 1.015 1.47 2.275 1.47 3.78 0 1.364-.49 2.536-1.47 3.516s-2.152 1.47-3.517 1.47c-.56 0-1.102-.105-1.627-.315 1.54 2.274 3.587 3.411 6.14 3.411 2.415 0 4.392-.98 5.932-2.939 1.61-2.03 2.484-4.391 2.624-7.086.07-1.68.105-2.641.105-2.886 0-1.96-.07-3.57-.21-4.829-1.75.28-3.307.42-4.671.42-4.864 0-9.01-1.924-12.44-5.773-3.358-3.884-5.038-8.503-5.038-13.856 0-1.12.105-2.257.315-3.412.21-.945.472-1.977.787-3.097.175-.63.648-1.644 1.417-3.044.28-.42.595-.944.945-1.574.35-.63.595-1.05.735-1.26.35-.7 1.032-1.644 2.047-2.834.28-.315.568-.665.866-1.05.297-.385.551-.7.76-.945.21-.245.368-.437.473-.577.105-.14.893-1.067 2.362-2.782.35-.35.691-.726 1.024-1.128.332-.402.603-.717.813-.945.21-.227.368-.393.472-.498-1.26-4.164-2.046-7.488-2.361-9.973-.245-1.994-.368-4.723-.368-8.187 0-3.044.7-5.896 2.1-8.555 1.364-2.764 3.271-5.021 5.72-6.77.176-.106.35-.158.525-.158.245 0 .42.052.525.157 1.89 2.274 3.517 5.231 4.881 8.87 1.4 3.639 2.1 6.946 2.1 9.92 0 3.359-.805 6.508-2.415 9.447-1.819 3.114-4.163 6.333-7.033 9.657.735 2.31 1.715 5.931 2.94 10.865m4.46 24.405c1.82-.664 3.237-1.802 4.252-3.411 1.12-1.54 1.68-3.272 1.68-5.196 0-2.484-.84-4.689-2.52-6.613-1.714-1.995-3.901-3.114-6.56-3.36 1.504 7.384 2.554 13.577 3.149 18.58M14.666 80.448c0 3.464 1.4 6.508 4.199 9.133 2.87 2.554 6.088 3.831 9.657 3.831 1.47 0 2.904-.105 4.304-.315-.56-5.318-1.662-11.686-3.307-19.104-1.994.21-3.586.91-4.776 2.099-1.154 1.225-1.732 2.607-1.732 4.146 0 2.66 1.417 4.812 4.252 6.456.244.245.367.507.367.787s-.123.543-.367.788a.994.994 0 0 1-.788.367c-.035 0-.192-.035-.472-.105-1.995-1.085-3.534-2.484-4.619-4.199-1.015-1.82-1.522-3.656-1.522-5.51 0-2.415.752-4.602 2.257-6.561 1.575-1.96 3.621-3.22 6.14-3.78-.979-3.918-1.784-6.98-2.414-9.184-.56.63-1.233 1.39-2.02 2.283a72.81 72.81 0 0 0-1.391 1.6 227.867 227.867 0 0 0-2.887 3.832c-1.19 1.645-2.064 3.062-2.624 4.251a33.291 33.291 0 0 0-1.575 4.357c-.454 1.504-.682 3.114-.682 4.828m17.53-53.377c-2.624 1.295-4.689 3.149-6.193 5.563-1.54 2.485-2.31 5.161-2.31 8.03 0 2.52.63 5.914 1.89 10.183 2.52-3.044 4.409-5.861 5.668-8.45 1.33-2.73 1.995-5.581 1.995-8.555 0-2.24-.35-4.497-1.05-6.771M30.517 283.146h.315c.14-.035.262-.053.367-.053 3.919 0 7.138 1.383 9.657 4.147 2.52 2.729 3.78 5.913 3.78 9.552 0 4.514-1.873 8.188-5.617 11.022-.98.77-2.257 1.4-3.831 1.89.175 2.274.262 4.11.262 5.51 0 .28-.035 1.295-.105 3.044-.14 3.255-1.26 6.071-3.359 8.45-2.03 2.345-4.549 3.517-7.558 3.517-2.834 0-5.248-.997-7.243-2.991-1.994-2.03-2.991-4.48-2.991-7.348 0-1.505.577-2.782 1.732-3.832 1.19-1.05 2.572-1.574 4.146-1.574 1.4 0 2.572.542 3.517 1.627.98 1.014 1.47 2.274 1.47 3.779 0 1.364-.49 2.536-1.47 3.516s-2.152 1.47-3.517 1.47c-.56 0-1.102-.105-1.627-.315 1.54 2.274 3.587 3.411 6.14 3.411 2.415 0 4.392-.98 5.932-2.939 1.61-2.03 2.484-4.391 2.624-7.085.07-1.68.105-2.642.105-2.887 0-1.96-.07-3.57-.21-4.829-1.75.28-3.307.42-4.671.42-4.864 0-9.01-1.924-12.44-5.773-3.358-3.884-5.038-8.503-5.038-13.856 0-1.12.105-2.257.315-3.412.21-.945.472-1.977.787-3.097.175-.63.648-1.644 1.417-3.044.28-.42.595-.944.945-1.574.35-.63.595-1.05.735-1.26.35-.7 1.032-1.644 2.047-2.834.28-.315.568-.665.866-1.05.297-.385.551-.7.76-.944.21-.245.368-.438.473-.578.105-.14.893-1.067 2.362-2.782.35-.35.691-.725 1.024-1.128.332-.402.603-.717.813-.945.21-.227.368-.393.472-.498-1.26-4.164-2.046-7.488-2.361-9.972-.245-1.995-.368-4.724-.368-8.188 0-3.044.7-5.896 2.1-8.555 1.364-2.764 3.271-5.021 5.72-6.77.176-.106.35-.158.525-.158.245 0 .42.052.525.157 1.89 2.274 3.517 5.231 4.881 8.87 1.4 3.64 2.1 6.946 2.1 9.92 0 3.359-.805 6.508-2.415 9.447-1.819 3.114-4.163 6.333-7.033 9.657.735 2.31 1.715 5.931 2.94 10.865m4.46 24.405c1.82-.664 3.237-1.802 4.252-3.411 1.12-1.54 1.68-3.272 1.68-5.196 0-2.484-.84-4.689-2.52-6.613-1.714-1.995-3.901-3.114-6.56-3.36 1.504 7.384 2.554 13.577 3.149 18.58m-20.312-12.124c0 3.464 1.4 6.509 4.199 9.133 2.87 2.554 6.088 3.831 9.657 3.831 1.47 0 2.904-.105 4.304-.315-.56-5.318-1.662-11.686-3.307-19.104-1.994.21-3.586.91-4.776 2.1-1.154 1.224-1.732 2.606-1.732 4.145 0 2.66 1.417 4.812 4.252 6.456.244.245.367.508.367.787 0 .28-.123.543-.367.788a.994.994 0 0 1-.788.367c-.035 0-.192-.035-.472-.105-1.995-1.085-3.534-2.484-4.619-4.199-1.015-1.82-1.522-3.656-1.522-5.51 0-2.415.752-4.602 2.257-6.561 1.575-1.96 3.621-3.22 6.14-3.78-.979-3.918-1.784-6.98-2.414-9.184-.56.63-1.233 1.39-2.02 2.283a72.81 72.81 0 0 0-1.391 1.6 227.867 227.867 0 0 0-2.887 3.832c-1.19 1.645-2.064 3.062-2.624 4.252a33.291 33.291 0 0 0-1.575 4.356c-.454 1.504-.682 3.114-.682 4.828m17.53-53.377c-2.624 1.295-4.689 3.15-6.193 5.564-1.54 2.484-2.31 5.16-2.31 8.03 0 2.519.63 5.913 1.89 10.182 2.52-3.044 4.409-5.861 5.668-8.45 1.33-2.73 1.995-5.581 1.995-8.555 0-2.24-.35-4.497-1.05-6.771M54.108 66.277v4.147c0 1.47.07 2.641.21 3.516 1.154-.98 1.977-1.714 2.466-2.204.56-.56 1.12-1.33 1.68-2.31.56-.98.84-1.959.84-2.939s-.21-1.82-.63-2.519c-.42-.7-.98-1.05-1.68-1.05-.84 0-1.54.315-2.099.945-.525.7-.787 1.505-.787 2.414m-2.205 9.605l-.682-31.963c.49-.28.98-.42 1.47-.42s.98.14 1.47.42l-.42 18.527c1.434-1.225 3.078-1.837 4.933-1.837 1.365 0 2.502.56 3.411 1.68a5.908 5.908 0 0 1 1.365 3.83c0 .91-.297 1.873-.892 2.888-.56.944-1.155 1.68-1.785 2.204-.35.28-1.242.98-2.676 2.1-.42.314-.919.682-1.496 1.102-.578.42-.936.682-1.076.787-.245.14-.473.42-.682.84-.245.35-.525.647-.84.892-.245.21-.543.315-.893.315s-.63-.123-.84-.368c-.244-.245-.367-.577-.367-.997M54.108 281.257v4.146c0 1.47.07 2.642.21 3.516 1.154-.98 1.977-1.714 2.466-2.204.56-.56 1.12-1.33 1.68-2.31.56-.979.84-1.959.84-2.938 0-.98-.21-1.82-.63-2.52-.42-.7-.98-1.05-1.68-1.05-.84 0-1.54.315-2.099.945-.525.7-.787 1.505-.787 2.415m-2.205 9.604l-.682-31.963c.49-.28.98-.42 1.47-.42s.98.14 1.47.42l-.42 18.527c1.434-1.224 3.078-1.837 4.933-1.837 1.365 0 2.502.56 3.411 1.68a5.908 5.908 0 0 1 1.365 3.831c0 .91-.297 1.872-.892 2.887-.56.945-1.155 1.68-1.785 2.204-.35.28-1.242.98-2.676 2.1-.42.315-.919.682-1.496 1.102-.578.42-.936.682-1.076.787-.245.14-.473.42-.682.84-.245.35-.525.647-.84.892-.245.21-.543.315-.893.315s-.63-.122-.84-.367c-.244-.245-.367-.578-.367-.998M82.481 42.292c1.05 0 1.942-.123 2.677-.368.735-.245 1.207-.367 1.417-.367.245 0 .438.07.577.21a.779.779 0 0 1 .21.367c0 .07-.035.175-.105.315L71.984 60.19h8.975v-7.033c0-.455.123-.84.368-1.155.42-.35.77-.56 1.05-.63.454-.21 1.014-.7 1.679-1.469.56-.63 1.224-1.732 1.994-3.307.105-.21.263-.315.473-.315.42 0 .664.245.734.735V60.19h3.832c.49 0 .77.262.84.787 0 .525-.28.788-.84.788h-3.832v.42c0 1.4.35 2.589 1.05 3.568.805.98 1.75 1.47 2.834 1.47.42 0 .63.21.63.63 0 .42-.21.63-.63.63-.734 0-1.924-.105-3.569-.315-1.504-.245-2.676-.368-3.516-.368-.875 0-2.047.123-3.517.368-1.574.21-2.746.315-3.516.315-.42 0-.63-.21-.63-.63 0-.42.21-.63.63-.63 1.085 0 2.03-.49 2.834-1.47.735-.98 1.102-2.169 1.102-3.569v-.42h-8.975c-.595 0-1.014-.14-1.26-.42a.998.998 0 0 1-.42-.839c0-.105.263-.472.788-1.102.595-.7 1.225-1.557 1.89-2.572a63.738 63.738 0 0 0 2.204-3.674c.77-1.435 1.382-3.08 1.837-4.934.525-1.889.787-3.813.787-5.773 0-.56.245-.84.735-.84.105 0 .332.053.682.158.105.035.324.087.656.157.333.07.604.14.814.21.63.105 1.224.158 1.784.158"/><path d="M82.481 69.164c1.05 0 1.942-.122 2.677-.367.735-.245 1.207-.368 1.417-.368.245 0 .438.07.577.21a.779.779 0 0 1 .21.368c0 .07-.035.175-.105.314l-15.273 17.74h8.975v-7.033c0-.454.123-.84.368-1.154.42-.35.77-.56 1.05-.63.454-.21 1.014-.7 1.679-1.47.56-.63 1.224-1.732 1.994-3.306.105-.21.263-.315.473-.315.42 0 .664.245.734.735V87.06h3.832c.49 0 .77.263.84.788 0 .525-.28.787-.84.787h-3.832v.42c0 1.4.35 2.59 1.05 3.569.805.98 1.75 1.47 2.834 1.47.42 0 .63.21.63.63 0 .42-.21.63-.63.63-.734 0-1.924-.106-3.569-.316-1.504-.245-2.676-.367-3.516-.367-.875 0-2.047.122-3.517.367-1.574.21-2.746.315-3.516.315-.42 0-.63-.21-.63-.63 0-.42.21-.63.63-.63 1.085 0 2.03-.49 2.834-1.47.735-.979 1.102-2.169 1.102-3.568v-.42h-8.975c-.595 0-1.014-.14-1.26-.42a.998.998 0 0 1-.42-.84c0-.105.263-.472.788-1.102.595-.7 1.225-1.557 1.89-2.572a63.738 63.738 0 0 0 2.204-3.674c.77-1.434 1.382-3.079 1.837-4.933.525-1.89.787-3.814.787-5.774 0-.56.245-.84.735-.84.105 0 .332.053.682.158.105.035.324.088.656.158.333.07.604.14.814.21.63.105 1.224.157 1.784.157M119.469 57.46c1.015 0 1.784.28 2.31.84.524.63.804 1.224.839 1.784.07.525.245 1.12.525 1.785.315.56.717.84 1.207.84.385 0 .962-.438 1.732-1.313.7-.77 1.207-1.452 1.522-2.047.175-.35.42-.525.735-.525h.052c.35.035.595.21.735.525l-6.613 22.569c-.35.35-.84.525-1.47.525s-1.12-.175-1.47-.525l6.3-17.53c-2.24.805-4.13 1.207-5.67 1.207-1.259 0-2.344-.402-3.253-1.207-.945-.77-1.417-1.785-1.417-3.044 0-1.085.384-1.995 1.154-2.73.77-.77 1.697-1.154 2.782-1.154"/><path fill-rule="evenodd" d="M274.428 75.2L413.994 78.6v6.719l-139.566-3.402V75.2M227.117 310.334l45.511-3.493v6.718l-45.511 3.493v-6.718"/><path d="M162.59 49.744c.805 0 1.662 1.313 2.572 3.937.875 2.59 1.312 5.056 1.312 7.4 0 1.995-.49 3.972-1.47 5.931-1.014 2.1-2.222 3.919-3.621 5.459l-4.304 4.828c-1.33 1.54-2.52 3.324-3.569 5.354-.98 1.96-1.47 3.954-1.47 5.983h-1.679V75.2h1.68c.944-.595 2.344-1.54 4.198-2.834.84-.63 2.1-1.68 3.78-3.15 1.364-1.26 2.396-2.554 3.096-3.883.735-1.4 1.102-2.817 1.102-4.252 0-3.324-.962-6.63-2.887-9.92v-.21c0-.314.105-.577.315-.787.28-.28.595-.42.945-.42M181.662 139.799c-.54-1.6-.955-2.605-1.245-3.015-.29-.41-.765-.655-1.425-.735v-.45h6.09v.45c-.7.1-1.165.22-1.395.36-.23.14-.345.38-.345.72 0 .26.17.85.51 1.77l2.52 6.72 2.7-6.66c.34-.84.51-1.5.51-1.98 0-.26-.09-.455-.27-.585-.18-.13-.53-.245-1.05-.345v-.45h3.69v.45c-.3.1-.515.24-.645.42s-.325.58-.585 1.2l-4.14 10.38c-.4.98-.68 1.47-.84 1.47-.16 0-.4-.43-.72-1.29l-2.73-7.08-3.36 7.2c-.36.78-.61 1.17-.75 1.17-.16 0-.42-.44-.78-1.32l-4.05-10.26c-.3-.76-.55-1.255-.75-1.485-.2-.23-.48-.365-.84-.405v-.45h5.4v.45c-.52.06-.88.16-1.08.3-.2.14-.3.37-.3.69 0 .3.06.6.18.9l2.97 7.83 2.73-5.97m11.185 6.39c0-.36.04-.695.12-1.005.08-.31.22-.6.42-.87.2-.27.39-.515.57-.735.18-.22.45-.445.81-.675.36-.23.66-.42.9-.57.24-.15.605-.33 1.095-.54l1.125-.48c.26-.11.67-.275 1.23-.495.56-.22.97-.38 1.23-.48v-1.83c0-1.66-.76-2.49-2.28-2.49-.6 0-1.11.145-1.53.435-.42.29-.63.635-.63 1.035 0 .16.025.38.075.66.05.28.075.46.075.54 0 .34-.135.635-.405.885s-.585.375-.945.375c-.34 0-.64-.13-.9-.39s-.39-.56-.39-.9c0-.94.485-1.735 1.455-2.385.97-.65 2.165-.975 3.585-.975 1.64 0 2.77.395 3.39 1.185.62.79.93 1.995.93 3.615v5.85c0 .66.065 1.115.195 1.365s.365.375.705.375c.42 0 .86-.19 1.32-.57v.78c-.52.58-.975.975-1.365 1.185-.39.21-.835.315-1.335.315-.62 0-1.075-.17-1.365-.51-.29-.34-.475-.9-.555-1.68-1.72 1.46-3.18 2.19-4.38 2.19-.92 0-1.675-.3-2.265-.9-.59-.6-.885-1.37-.885-2.31m7.5-.78v-4.35c-1.8.66-3.06 1.3-3.78 1.92-.72.62-1.08 1.37-1.08 2.25 0 .82.2 1.43.6 1.83.4.4.83.6 1.29.6.68 0 1.41-.23 2.19-.69.32-.18.53-.37.63-.57.1-.2.15-.53.15-.99m12.836-9.51c.02 0 .18-.1.48-.3h.33l.12 4.08h-.45c-.34-1.34-.76-2.29-1.26-2.85s-1.18-.84-2.04-.84c-.68 0-1.235.19-1.665.57-.43.38-.645.87-.645 1.47 0 .86.43 1.54 1.29 2.04l3.24 1.92c.9.54 1.545 1.085 1.935 1.635.39.55.585 1.195.585 1.935 0 1.04-.415 1.94-1.245 2.7-.83.76-1.825 1.14-2.985 1.14-.5 0-1.17-.09-2.01-.27-.84-.18-1.36-.27-1.56-.27-.3 0-.53.12-.69.36h-.39v-4.68h.48c.32 1.4.7 2.39 1.14 2.97.64.82 1.53 1.23 2.67 1.23.76 0 1.365-.195 1.815-.585.45-.39.675-.915.675-1.575 0-.9-.52-1.65-1.56-2.25l-1.74-.99c-1.28-.72-2.185-1.41-2.715-2.07a3.496 3.496 0 0 1-.795-2.25c0-1.08.385-1.965 1.155-2.655.77-.69 1.745-1.035 2.925-1.035.66 0 1.28.095 1.86.285.58.19.93.285 1.05.285M157.676 145.829v-13.32c0-1.1-.165-1.805-.495-2.115-.33-.31-1.135-.505-2.415-.585v-.57h8.91v.57c-1.26.06-2.065.25-2.415.57-.35.32-.525 1.03-.525 2.13v13.32c0 1.1.18 1.815.54 2.145.36.33 1.16.515 2.4.555v.57h-8.91v-.57c1.26-.04 2.06-.22 2.4-.54.34-.32.51-1.04.51-2.16M266.829 135.899c.02 0 .18-.1.48-.3h.33l.12 4.08h-.45c-.34-1.34-.76-2.29-1.26-2.85s-1.18-.84-2.04-.84c-.68 0-1.235.19-1.665.57-.43.38-.645.87-.645 1.47 0 .86.43 1.54 1.29 2.04l3.24 1.92c.9.54 1.545 1.085 1.935 1.635.39.55.585 1.195.585 1.935 0 1.04-.415 1.94-1.245 2.7-.83.76-1.825 1.14-2.985 1.14-.5 0-1.17-.09-2.01-.27-.84-.18-1.36-.27-1.56-.27-.3 0-.53.12-.69.36h-.39v-4.68h.48c.32 1.4.7 2.39 1.14 2.97.64.82 1.53 1.23 2.67 1.23.76 0 1.365-.195 1.815-.585.45-.39.675-.915.675-1.575 0-.9-.52-1.65-1.56-2.25l-1.74-.99c-1.28-.72-2.185-1.41-2.715-2.07a3.496 3.496 0 0 1-.795-2.25c0-1.08.385-1.965 1.155-2.655.77-.69 1.745-1.035 2.925-1.035.66 0 1.28.095 1.86.285.58.19.93.285 1.05.285m3.38 1.41v-.48c1.26-.38 2.7-.89 4.32-1.53l.18.06v2.31c1.28-1.58 2.72-2.37 4.32-2.37 1.46 0 2.66.6 3.6 1.8.94 1.2 1.41 2.73 1.41 4.59 0 2.18-.605 4.01-1.815 5.49-1.21 1.48-2.705 2.22-4.485 2.22-.64 0-1.175-.09-1.605-.27-.43-.18-.905-.52-1.425-1.02v4.71c0 .94.16 1.545.48 1.815.32.27 1.04.415 2.16.435v.54h-7.26v-.51c.88-.08 1.45-.25 1.71-.51s.39-.78.39-1.56v-14.04c0-.7-.08-1.16-.24-1.38-.16-.22-.49-.33-.99-.33-.32 0-.57.01-.75.03m4.5 1.77v7.38c0 .44.345.88 1.035 1.32.69.44 1.385.66 2.085.66 1.08 0 1.955-.515 2.625-1.545.67-1.03 1.005-2.375 1.005-4.035 0-1.74-.335-3.135-1.005-4.185-.67-1.05-1.565-1.575-2.685-1.575-.7 0-1.385.22-2.055.66-.67.44-1.005.88-1.005 1.32m11.94-1.77c-.44 0-.86.03-1.26.09v-.45c1.4-.4 2.95-.95 4.65-1.65l.12.09v10.65c0 1.08.125 1.765.375 2.055.25.29.865.475 1.845.555v.45h-7.11v-.45c1.04-.06 1.695-.24 1.965-.54.27-.3.405-.99.405-2.07v-6.96c0-.66-.075-1.12-.225-1.38-.15-.26-.405-.39-.765-.39m1.98-8.7c.44 0 .81.15 1.11.45.3.3.45.66.45 1.08 0 .44-.15.805-.45 1.095-.3.29-.67.435-1.11.435-.42 0-.775-.15-1.065-.45-.29-.3-.435-.66-.435-1.08 0-.42.15-.78.45-1.08.3-.3.65-.45 1.05-.45m4.788 8.55v-.51c1.48-.44 2.86-.89 4.14-1.35l.21.06v2.37c1.02-.96 1.825-1.605 2.415-1.935a3.897 3.897 0 0 1 1.935-.495c1.1 0 1.965.395 2.595 1.185.63.79.945 1.895.945 3.315v6.87c0 .74.12 1.235.36 1.485s.73.415 1.47.495v.45h-6.24v-.45c.76-.06 1.265-.26 1.515-.6.25-.34.375-.98.375-1.92v-6.27c0-1.94-.73-2.91-2.19-2.91-.5 0-.96.115-1.38.345-.42.23-.99.685-1.71 1.365v8.43c0 .54.14.92.42 1.14.28.22.8.36 1.56.42v.45h-6.36v-.45c.76-.06 1.26-.235 1.5-.525.24-.29.36-.865.36-1.725v-7.44c0-.74-.08-1.245-.24-1.515-.16-.27-.45-.405-.87-.405-.38 0-.65.04-.81.12M311.432 137.159v-.51c1.48-.44 2.86-.89 4.14-1.35l.21.06v2.37c1.02-.96 1.825-1.605 2.415-1.935a3.897 3.897 0 0 1 1.935-.495c1.1 0 1.965.395 2.595 1.185.63.79.945 1.895.945 3.315v6.87c0 .74.12 1.235.36 1.485s.73.415 1.47.495v.45h-6.24v-.45c.76-.06 1.265-.26 1.515-.6.25-.34.375-.98.375-1.92v-6.27c0-1.94-.73-2.91-2.19-2.91-.5 0-.96.115-1.38.345-.42.23-.99.685-1.71 1.365v8.43c0 .54.14.92.42 1.14.28.22.8.36 1.56.42v.45h-6.36v-.45c.76-.06 1.26-.235 1.5-.525.24-.29.36-.865.36-1.725v-7.44c0-.74-.08-1.245-.24-1.515-.16-.27-.45-.405-.87-.405-.38 0-.65.04-.81.12m16.216.15c-.44 0-.86.03-1.26.09v-.45c1.4-.4 2.95-.95 4.65-1.65l.12.09v10.65c0 1.08.125 1.765.375 2.055.25.29.865.475 1.845.555v.45h-7.11v-.45c1.04-.06 1.695-.24 1.965-.54.27-.3.405-.99.405-2.07v-6.96c0-.66-.075-1.12-.225-1.38-.15-.26-.405-.39-.765-.39m1.98-8.7c.44 0 .81.15 1.11.45.3.3.45.66.45 1.08 0 .44-.15.805-.45 1.095-.3.29-.67.435-1.11.435-.42 0-.775-.15-1.065-.45-.29-.3-.435-.66-.435-1.08 0-.42.15-.78.45-1.08.3-.3.65-.45 1.05-.45m4.788 8.55v-.51c1.48-.44 2.86-.89 4.14-1.35l.21.06v2.37c1.02-.96 1.825-1.605 2.415-1.935a3.897 3.897 0 0 1 1.935-.495c1.1 0 1.965.395 2.595 1.185.63.79.945 1.895.945 3.315v6.87c0 .74.12 1.235.36 1.485s.73.415 1.47.495v.45h-6.24v-.45c.76-.06 1.265-.26 1.515-.6.25-.34.375-.98.375-1.92v-6.27c0-1.94-.73-2.91-2.19-2.91-.5 0-.96.115-1.38.345-.42.23-.99.685-1.71 1.365v8.43c0 .54.14.92.42 1.14.28.22.8.36 1.56.42v.45h-6.36v-.45c.76-.06 1.26-.235 1.5-.525.24-.29.36-.865.36-1.725v-7.44c0-.74-.08-1.245-.24-1.515-.16-.27-.45-.405-.87-.405-.38 0-.65.04-.81.12M406.444 131.699c-.32 0-.595-.115-.825-.345a2.6 2.6 0 0 1-.54-.78c-.13-.29-.33-.55-.6-.78a1.453 1.453 0 0 0-.975-.345c-1.14 0-1.71.89-1.71 2.67v3.48h3.69v.96h-3.66v9.42c0 1.12.16 1.835.48 2.145.32.31 1.09.485 2.31.525v.45h-7.8v-.45c1.08-.06 1.765-.245 2.055-.555.29-.31.435-1.015.435-2.115v-9.42h-2.46v-.96h2.46c.04-2.24.46-3.965 1.26-5.175s2.14-1.815 4.02-1.815c.9 0 1.645.175 2.235.525.59.35.885.795.885 1.335 0 .34-.125.63-.375.87s-.545.36-.885.36m10.288 6.54c-.3 0-.67-.175-1.11-.525-.44-.35-.73-.525-.87-.525-.4 0-.85.29-1.35.87-.5.58-.75 1.11-.75 1.59v6.75c0 .86.17 1.44.51 1.74.34.3 1.02.47 2.04.51v.45h-7.2v-.45c.96-.18 1.555-.38 1.785-.6.23-.22.345-.71.345-1.47v-7.5c0-.66-.075-1.125-.225-1.395-.15-.27-.415-.405-.795-.405-.32 0-.67.04-1.05.12v-.48c1.6-.52 3.08-1.06 4.44-1.62l.15.06v2.76c.74-1.06 1.37-1.795 1.89-2.205.52-.41 1.09-.615 1.71-.615.52 0 .925.14 1.215.42.29.28.435.67.435 1.17 0 .42-.105.75-.315.99-.21.24-.495.36-.855.36m4.224 2.55c.04 1.26.21 2.345.51 3.255.3.91.69 1.59 1.17 2.04.48.45.965.77 1.455.96.49.19 1.005.285 1.545.285.96 0 1.795-.24 2.505-.72s1.425-1.29 2.145-2.43l.48.21c-.62 1.62-1.48 2.86-2.58 3.72-1.1.86-2.36 1.29-3.78 1.29-1.72 0-3.085-.605-4.095-1.815-1.01-1.21-1.515-2.845-1.515-4.905 0-2.22.585-4.005 1.755-5.355 1.17-1.35 2.675-2.025 4.515-2.025 1.52 0 2.7.455 3.54 1.365.84.91 1.37 2.285 1.59 4.125h-9.24m.06-.96h6.12c-.2-1.3-.51-2.2-.93-2.7-.42-.5-1.09-.75-2.01-.75-1.8 0-2.86 1.15-3.18 3.45m13.252.96c.04 1.26.21 2.345.51 3.255.3.91.69 1.59 1.17 2.04.48.45.965.77 1.455.96.49.19 1.005.285 1.545.285.96 0 1.795-.24 2.505-.72s1.425-1.29 2.145-2.43l.48.21c-.62 1.62-1.48 2.86-2.58 3.72-1.1.86-2.36 1.29-3.78 1.29-1.72 0-3.085-.605-4.095-1.815-1.01-1.21-1.515-2.845-1.515-4.905 0-2.22.585-4.005 1.755-5.355 1.17-1.35 2.675-2.025 4.515-2.025 1.52 0 2.7.455 3.54 1.365.84.91 1.37 2.285 1.59 4.125h-9.24m.06-.96h6.12c-.2-1.3-.51-2.2-.93-2.7-.42-.5-1.09-.75-2.01-.75-1.8 0-2.86 1.15-3.18 3.45m14.603 9.33l-.24.06c-.18.04-.37.06-.57.06-.54 0-.97-.135-1.29-.405-.32-.27-.48-.645-.48-1.125 0-.5.165-.91.495-1.23.33-.32.755-.48 1.275-.48.68 0 1.25.255 1.71.765.46.51.69 1.145.69 1.905 0 .9-.31 1.77-.93 2.61-.62.84-1.43 1.51-2.43 2.01l-.27-.57c1.64-1.12 2.46-2.18 2.46-3.18 0-.28-.14-.42-.42-.42M316.996 350.279c1.92 0 3.5.64 4.74 1.92 1.24 1.28 1.86 2.9 1.86 4.86 0 2.08-.64 3.82-1.92 5.22-1.28 1.4-2.86 2.1-4.74 2.1-1.88 0-3.445-.675-4.695-2.025-1.25-1.35-1.875-3.035-1.875-5.055 0-2.06.615-3.745 1.845-5.055 1.23-1.31 2.825-1.965 4.785-1.965m-3.93 5.55c0 2.14.39 3.96 1.17 5.46.78 1.5 1.8 2.25 3.06 2.25 1.12 0 2-.48 2.64-1.44.64-.96.96-2.29.96-3.99 0-2.06-.4-3.74-1.2-5.04-.8-1.3-1.83-1.95-3.09-1.95-1.06 0-1.915.43-2.565 1.29-.65.86-.975 2-.975 3.42m12.019 5.34c0-.36.04-.695.12-1.005.08-.31.22-.6.42-.87.2-.27.39-.515.57-.735.18-.22.45-.445.81-.675.36-.23.66-.42.9-.57.24-.15.605-.33 1.095-.54l1.125-.48c.26-.11.67-.275 1.23-.495.56-.22.97-.38 1.23-.48v-1.83c0-1.66-.76-2.49-2.28-2.49-.6 0-1.11.145-1.53.435-.42.29-.63.635-.63 1.035 0 .16.025.38.075.66.05.28.075.46.075.54 0 .34-.135.635-.405.885s-.585.375-.945.375c-.34 0-.64-.13-.9-.39s-.39-.56-.39-.9c0-.94.485-1.735 1.455-2.385.97-.65 2.165-.975 3.585-.975 1.64 0 2.77.395 3.39 1.185.62.79.93 1.995.93 3.615v5.85c0 .66.065 1.115.195 1.365s.365.375.705.375c.42 0 .86-.19 1.32-.57v.78c-.52.58-.975.975-1.365 1.185-.39.21-.835.315-1.335.315-.62 0-1.075-.17-1.365-.51-.29-.34-.475-.9-.555-1.68-1.72 1.46-3.18 2.19-4.38 2.19-.92 0-1.675-.3-2.265-.9-.59-.6-.885-1.37-.885-2.31m7.5-.78v-4.35c-1.8.66-3.06 1.3-3.78 1.92-.72.62-1.08 1.37-1.08 2.25 0 .82.2 1.43.6 1.83.4.4.83.6 1.29.6.68 0 1.41-.23 2.19-.69.32-.18.53-.37.63-.57.1-.2.15-.53.15-.99M539.79 139.799c-.54-1.6-.955-2.605-1.245-3.015-.29-.41-.765-.655-1.425-.735v-.45h6.09v.45c-.7.1-1.165.22-1.395.36-.23.14-.345.38-.345.72 0 .26.17.85.51 1.77l2.52 6.72 2.7-6.66c.34-.84.51-1.5.51-1.98 0-.26-.09-.455-.27-.585-.18-.13-.53-.245-1.05-.345v-.45h3.69v.45c-.3.1-.515.24-.645.42s-.325.58-.585 1.2l-4.14 10.38c-.4.98-.68 1.47-.84 1.47-.16 0-.4-.43-.72-1.29l-2.73-7.08-3.36 7.2c-.36.78-.61 1.17-.75 1.17-.16 0-.42-.44-.78-1.32l-4.05-10.26c-.3-.76-.55-1.255-.75-1.485-.2-.23-.48-.365-.84-.405v-.45h5.4v.45c-.52.06-.88.16-1.08.3-.2.14-.3.37-.3.69 0 .3.06.6.18.9l2.97 7.83 2.73-5.97m15.175-.99v7.23c0 1.04.12 1.71.36 2.01.24.3.8.5 1.68.6v.45h-6.48v-.45c.86-.12 1.395-.32 1.605-.6.21-.28.315-.95.315-2.01v-14.13c0-.64-.085-1.06-.255-1.26-.17-.2-.545-.3-1.125-.3-.14 0-.31.02-.51.06v-.48c1.42-.38 2.84-.82 4.26-1.32l.15.09v9.12c.68-.9 1.365-1.545 2.055-1.935.69-.39 1.475-.585 2.355-.585 2.46 0 3.69 1.59 3.69 4.77v5.97c0 1.04.095 1.695.285 1.965.19.27.695.485 1.515.645v.45h-6.36v-.45c.86-.08 1.415-.28 1.665-.6.25-.32.375-.99.375-2.01v-5.94c0-2.12-.75-3.18-2.25-3.18-.58 0-1.125.145-1.635.435-.51.29-1.075.775-1.695 1.455m17.577-3.51c1.92 0 3.5.64 4.74 1.92 1.24 1.28 1.86 2.9 1.86 4.86 0 2.08-.64 3.82-1.92 5.22-1.28 1.4-2.86 2.1-4.74 2.1-1.88 0-3.445-.675-4.695-2.025-1.25-1.35-1.875-3.035-1.875-5.055 0-2.06.615-3.745 1.845-5.055 1.23-1.31 2.825-1.965 4.785-1.965m-3.93 5.55c0 2.14.39 3.96 1.17 5.46.78 1.5 1.8 2.25 3.06 2.25 1.12 0 2-.48 2.64-1.44.64-.96.96-2.29.96-3.99 0-2.06-.4-3.74-1.2-5.04-.8-1.3-1.83-1.95-3.09-1.95-1.06 0-1.915.43-2.565 1.29-.65.86-.975 2-.975 3.42m12.019 5.34c0-.36.04-.695.12-1.005.08-.31.22-.6.42-.87.2-.27.39-.515.57-.735.18-.22.45-.445.81-.675.36-.23.66-.42.9-.57.24-.15.605-.33 1.095-.54l1.125-.48c.26-.11.67-.275 1.23-.495.56-.22.97-.38 1.23-.48v-1.83c0-1.66-.76-2.49-2.28-2.49-.6 0-1.11.145-1.53.435-.42.29-.63.635-.63 1.035 0 .16.025.38.075.66.05.28.075.46.075.54 0 .34-.135.635-.405.885s-.585.375-.945.375c-.34 0-.64-.13-.9-.39s-.39-.56-.39-.9c0-.94.485-1.735 1.455-2.385.97-.65 2.165-.975 3.585-.975 1.64 0 2.77.395 3.39 1.185.62.79.93 1.995.93 3.615v5.85c0 .66.065 1.115.195 1.365s.365.375.705.375c.42 0 .86-.19 1.32-.57v.78c-.52.58-.975.975-1.365 1.185-.39.21-.835.315-1.335.315-.62 0-1.075-.17-1.365-.51-.29-.34-.475-.9-.555-1.68-1.72 1.46-3.18 2.19-4.38 2.19-.92 0-1.675-.3-2.265-.9-.59-.6-.885-1.37-.885-2.31m7.5-.78v-4.35c-1.8.66-3.06 1.3-3.78 1.92-.72.62-1.08 1.37-1.08 2.25 0 .82.2 1.43.6 1.83.4.4.83.6 1.29.6.68 0 1.41-.23 2.19-.69.32-.18.53-.37.63-.57.1-.2.15-.53.15-.99"/><path fill="none" stroke="#000" stroke-width="2.02" stroke-linejoin="bevel" d="M180.872 355.836h10.749M595.682 140.857h10.749"/></svg>