<svg width="611" height="279" xmlns="http://www.w3.org/2000/svg" version="1.2" baseProfile="tiny"><path stroke="#000" stroke-width=".71" stroke-linecap="round" stroke-linejoin="round" fill-rule="evenodd" d="M315.974 16.344c8.865-7.546 35.459-7.546 44.324 0-8.865-5.928-35.459-5.928-44.324 0M412.613 26.461c8.864-7.546 35.458-7.546 44.323 0-8.865-5.928-35.459-5.928-44.323 0M536.244 14.827c18.068-17.055 54.202-17.055 72.27 0-18.068-15.436-54.202-15.436-72.27 0M75.11 175.274c50.083-25.966 272.016-7.266 317.047 26.714-45.167-32.367-267.1-51.067-317.047-26.714"/><path stroke="#000" stroke-width=".71" stroke-linecap="round" stroke-linejoin="round" fill-rule="evenodd" d="M312.173 207.098c13.512-11.079 54.049-11.079 67.561 0-13.512-9.46-54.049-9.46-67.561 0M312.173 225.206c13.512 9.46 54.049 9.46 67.561 0-13.512 11.079-54.049 11.079-67.561 0"/><path stroke="#000" stroke-width=".81" stroke-linejoin="bevel" d="M2.183 34.049h233.373M2.183 44.166h233.373M2.183 54.282h233.373M2.183 64.4h233.373M2.183 74.516h233.373M235.556 34.049h372.958M235.556 44.166h372.958M235.556 54.282h372.958M235.556 64.4h372.958M235.556 74.516h372.958M2.183 195.918h367.815M2.183 206.035h367.815M2.183 216.152h367.815M2.183 226.269h367.815M2.183 236.386h367.815M369.998 195.918h238.516M369.998 206.035h238.516M369.998 216.152h238.516M369.998 226.269h238.516M369.998 236.386h238.516"/><path stroke="#000" stroke-width="1.62" stroke-linejoin="bevel" d="M234.747 34.049v40.467M607.704 34.049v40.467M369.189 195.918v40.468M607.704 195.918v40.468"/><path stroke="#000" stroke-width="1.62" stroke-linecap="square" stroke-linejoin="bevel" d="M304.282 23.932h19.389M352.601 23.932h19.389M526.549 23.932h19.39"/><path stroke="#000" stroke-width="1.32" stroke-linecap="round" stroke-linejoin="bevel" d="M259.655 30.89v30.98M128.942 35.949v33.509M169.578 35.949v33.509M356.293 25.832v37.724M307.974 25.832v36.881M530.242 25.832v43.626M452.932 35.949v33.509M404.612 35.949v28.45M66.757 192.76v43.626M137.882 197.818v46.155M209.007 202.877v36.038M297.912 212.994v38.567M253.459 197.818v38.568"/><path d="M137.176 28.477c1.264 0 2.331.329 3.2.988.818.71 1.226 1.607 1.226 2.687 0 1.818-.935 3.517-2.806 5.098-1.897 1.58-3.926 2.371-6.086 2.371-1.264 0-2.331-.33-3.2-.988-.818-.711-1.226-1.607-1.226-2.687 0-1.818.948-3.517 2.845-5.098 1.845-1.581 3.86-2.371 6.047-2.371M177.812 28.477c1.264 0 2.331.329 3.2.988.818.71 1.226 1.607 1.226 2.687 0 1.818-.935 3.517-2.806 5.098-1.897 1.58-3.926 2.371-6.086 2.371-1.264 0-2.331-.33-3.2-.988-.818-.711-1.226-1.607-1.226-2.687 0-1.818.948-3.517 2.845-5.098 1.845-1.581 3.86-2.371 6.047-2.371M267.89 23.418c1.264 0 2.331.33 3.2.988.818.711 1.226 1.607 1.226 2.687 0 1.818-.935 3.518-2.806 5.098-1.897 1.581-3.926 2.371-6.086 2.371-1.264 0-2.331-.329-3.2-.988-.818-.71-1.226-1.607-1.226-2.687 0-1.818.948-3.517 2.845-5.098 1.845-1.58 3.86-2.37 6.047-2.37M364.528 18.36c1.264 0 2.331.329 3.2.988.818.711 1.226 1.607 1.226 2.687 0 1.818-.935 3.517-2.806 5.098-1.897 1.58-3.926 2.371-6.086 2.371-1.264 0-2.331-.33-3.2-.988-.818-.711-1.226-1.607-1.226-2.687 0-1.818.948-3.517 2.845-5.098 1.845-1.58 3.86-2.371 6.047-2.371M316.209 18.36c1.264 0 2.331.329 3.2.988.818.711 1.226 1.607 1.226 2.687 0 1.818-.935 3.517-2.806 5.098-1.897 1.58-3.926 2.371-6.086 2.371-1.264 0-2.331-.33-3.2-.988-.818-.711-1.226-1.607-1.226-2.687 0-1.818.948-3.517 2.845-5.098 1.845-1.58 3.86-2.371 6.047-2.371M461.166 28.477c1.264 0 2.331.329 3.2.988.818.71 1.226 1.607 1.226 2.687 0 1.818-.935 3.517-2.806 5.098-1.897 1.58-3.926 2.371-6.086 2.371-1.264 0-2.331-.33-3.2-.988-.818-.711-1.226-1.607-1.226-2.687 0-1.818.948-3.517 2.845-5.098 1.845-1.581 3.86-2.371 6.047-2.371M412.847 28.477c1.264 0 2.331.329 3.2.988.818.71 1.226 1.607 1.226 2.687 0 1.818-.935 3.517-2.806 5.098-1.897 1.58-3.926 2.371-6.086 2.371-1.264 0-2.331-.33-3.2-.988-.818-.711-1.226-1.607-1.226-2.687 0-1.818.948-3.517 2.845-5.098 1.845-1.581 3.86-2.371 6.047-2.371M538.477 18.36c1.264 0 2.331.329 3.2.988.818.711 1.226 1.607 1.226 2.687 0 1.818-.935 3.517-2.806 5.098-1.897 1.58-3.926 2.371-6.086 2.371-1.264 0-2.331-.33-3.2-.988-.818-.711-1.226-1.607-1.226-2.687 0-1.818.948-3.517 2.845-5.098 1.845-1.58 3.86-2.371 6.047-2.371"/><path d="M538.477 28.477c1.264 0 2.331.329 3.2.988.818.71 1.226 1.607 1.226 2.687 0 1.818-.935 3.517-2.806 5.098-1.897 1.58-3.926 2.371-6.086 2.371-1.264 0-2.331-.33-3.2-.988-.818-.711-1.226-1.607-1.226-2.687 0-1.818.948-3.517 2.845-5.098 1.845-1.581 3.86-2.371 6.047-2.371M74.991 185.288c1.265 0 2.332.33 3.201.988.817.711 1.225 1.607 1.225 2.687 0 1.818-.935 3.517-2.806 5.098-1.896 1.58-3.925 2.371-6.085 2.371-1.265 0-2.332-.33-3.202-.988-.816-.711-1.225-1.607-1.225-2.687 0-1.818.949-3.517 2.846-5.098 1.844-1.58 3.86-2.371 6.046-2.371"/><path d="M74.991 195.405c1.265 0 2.332.33 3.201.988.817.711 1.225 1.607 1.225 2.687 0 1.818-.935 3.517-2.806 5.098-1.896 1.58-3.925 2.371-6.085 2.371-1.265 0-2.332-.33-3.202-.988-.816-.711-1.225-1.607-1.225-2.687 0-1.818.949-3.517 2.846-5.098 1.844-1.58 3.86-2.371 6.046-2.371M146.116 190.346c1.264 0 2.331.33 3.2.988.818.711 1.226 1.607 1.226 2.687 0 1.818-.935 3.517-2.806 5.098-1.897 1.58-3.926 2.371-6.086 2.371-1.264 0-2.331-.33-3.2-.988-.818-.711-1.226-1.607-1.226-2.687 0-1.818.948-3.517 2.845-5.098 1.845-1.58 3.86-2.371 6.047-2.371M146.116 205.522c1.264 0 2.331.33 3.2.988.818.711 1.226 1.607 1.226 2.687 0 1.818-.935 3.517-2.806 5.098-1.897 1.58-3.926 2.371-6.086 2.371-1.264 0-2.331-.33-3.2-.988-.818-.711-1.226-1.607-1.226-2.687 0-1.818.948-3.517 2.845-5.098 1.845-1.58 3.86-2.371 6.047-2.371M217.24 195.405c1.265 0 2.332.33 3.202.988.817.711 1.225 1.607 1.225 2.687 0 1.818-.935 3.517-2.806 5.098-1.897 1.58-3.926 2.371-6.086 2.371-1.264 0-2.331-.33-3.2-.988-.818-.711-1.226-1.607-1.226-2.687 0-1.818.948-3.517 2.845-5.098 1.845-1.58 3.86-2.371 6.047-2.371"/><path d="M217.24 205.522c1.265 0 2.332.33 3.202.988.817.711 1.225 1.607 1.225 2.687 0 1.818-.935 3.517-2.806 5.098-1.897 1.58-3.926 2.371-6.086 2.371-1.264 0-2.331-.33-3.2-.988-.818-.711-1.226-1.607-1.226-2.687 0-1.818.948-3.517 2.845-5.098 1.845-1.58 3.86-2.371 6.047-2.371M306.147 205.522c1.264 0 2.331.33 3.2.988.818.711 1.226 1.607 1.226 2.687 0 1.818-.935 3.517-2.806 5.098-1.897 1.58-3.926 2.371-6.086 2.371-1.264 0-2.331-.33-3.2-.988-.818-.711-1.226-1.607-1.226-2.687 0-1.818.948-3.517 2.845-5.098 1.845-1.58 3.86-2.371 6.047-2.371"/><path d="M306.147 215.638c1.264 0 2.331.33 3.2.988.818.711 1.226 1.607 1.226 2.687 0 1.818-.935 3.517-2.806 5.098-1.897 1.58-3.926 2.371-6.086 2.371-1.264 0-2.331-.33-3.2-.988-.818-.711-1.226-1.607-1.226-2.687 0-1.818.948-3.517 2.845-5.098 1.845-1.58 3.86-2.371 6.047-2.371M261.694 190.346c1.264 0 2.331.33 3.2.988.818.711 1.226 1.607 1.226 2.687 0 1.818-.935 3.517-2.806 5.098-1.897 1.58-3.926 2.371-6.086 2.371-1.264 0-2.331-.33-3.2-.988-.818-.711-1.226-1.607-1.226-2.687 0-1.818.948-3.517 2.845-5.098 1.845-1.58 3.86-2.371 6.047-2.371"/><path d="M261.694 200.463c1.264 0 2.331.33 3.2.988.818.711 1.226 1.607 1.226 2.687 0 1.818-.935 3.517-2.806 5.098-1.897 1.58-3.926 2.371-6.086 2.371-1.264 0-2.331-.33-3.2-.988-.818-.711-1.226-1.607-1.226-2.687 0-1.818.948-3.517 2.845-5.098 1.845-1.58 3.86-2.371 6.047-2.371M390.833 206.55c-.948 0-1.633.329-2.055.987-.474.633-.711 1.489-.711 2.569 0 1.238.33 2.305.988 3.201.658.87 1.383 1.475 2.173 1.818a5.128 5.128 0 0 0 2.253.514c.922 0 1.62-.33 2.094-.988.448-.659.672-1.515.672-2.569 0-1.238-.33-2.305-.988-3.201-.658-.843-1.37-1.45-2.134-1.818-.764-.342-1.528-.514-2.292-.514m1.344-1.027c2.845 0 5.216.553 7.113 1.66 1.923 1.106 2.885 2.41 2.885 3.912 0 1.607-.988 2.924-2.964 3.952-1.976 1.08-4.32 1.62-7.034 1.62-2.793 0-5.164-.553-7.114-1.66-1.95-1.106-2.924-2.41-2.924-3.912 0-1.607 1.001-2.924 3.003-3.952 1.976-1.08 4.321-1.62 7.035-1.62"/><path d="M390.833 216.665c-.948 0-1.633.33-2.055.988-.474.633-.711 1.489-.711 2.569 0 1.238.33 2.305.988 3.201.658.87 1.383 1.475 2.173 1.818a5.128 5.128 0 0 0 2.253.514c.922 0 1.62-.33 2.094-.988.448-.659.672-1.515.672-2.569 0-1.238-.33-2.305-.988-3.201-.658-.843-1.37-1.45-2.134-1.818-.764-.342-1.528-.514-2.292-.514m1.344-1.027c2.845 0 5.216.553 7.113 1.66 1.923 1.106 2.885 2.41 2.885 3.912 0 1.607-.988 2.924-2.964 3.952-1.976 1.08-4.32 1.62-7.034 1.62-2.793 0-5.164-.553-7.114-1.66-1.95-1.106-2.924-2.41-2.924-3.912 0-1.607 1.001-2.924 3.003-3.952 1.976-1.08 4.321-1.62 7.035-1.62M23.517 54.045h.237c.105-.026.198-.04.277-.04 2.95 0 5.374 1.041 7.271 3.123 1.897 2.055 2.846 4.452 2.846 7.192 0 3.399-1.41 6.165-4.229 8.3-.738.579-1.7 1.053-2.885 1.422.132 1.712.198 3.096.198 4.15 0 .21-.027.974-.08 2.292-.105 2.45-.948 4.57-2.529 6.362-1.528 1.765-3.424 2.648-5.69 2.648-2.134 0-3.952-.751-5.454-2.253-1.502-1.528-2.252-3.372-2.252-5.532 0-1.133.434-2.095 1.304-2.885.895-.79 1.936-1.186 3.122-1.186 1.054 0 1.936.409 2.647 1.225.738.764 1.107 1.713 1.107 2.846 0 1.027-.369 1.91-1.107 2.647-.737.738-1.62 1.107-2.647 1.107-.422 0-.83-.08-1.225-.237 1.159 1.712 2.7 2.569 4.623 2.569 1.818 0 3.307-.738 4.466-2.213 1.212-1.529 1.87-3.307 1.976-5.336.053-1.264.079-1.989.079-2.173 0-1.476-.053-2.687-.158-3.636-1.317.21-2.49.316-3.517.316-3.662 0-6.784-1.449-9.366-4.347-2.53-2.924-3.794-6.402-3.794-10.433 0-.843.079-1.7.237-2.569.158-.71.356-1.488.593-2.331.132-.474.487-1.238 1.067-2.292.21-.316.448-.712.711-1.186.264-.474.448-.79.553-.948.264-.527.778-1.239 1.542-2.134.21-.237.428-.5.652-.79.224-.29.415-.528.573-.712.158-.184.276-.33.355-.435.08-.105.672-.803 1.779-2.094.263-.264.52-.547.77-.85.25-.303.455-.54.613-.711.158-.172.277-.297.356-.376-.949-3.135-1.542-5.638-1.779-7.508-.184-1.502-.276-3.557-.276-6.165 0-2.292.527-4.44 1.58-6.442 1.028-2.081 2.464-3.78 4.308-5.098a.762.762 0 0 1 .395-.118c.185 0 .316.04.395.118 1.423 1.713 2.648 3.939 3.676 6.679 1.053 2.74 1.58 5.23 1.58 7.47 0 2.528-.606 4.9-1.818 7.112-1.37 2.345-3.135 4.77-5.295 7.272.553 1.739 1.29 4.466 2.213 8.18m3.36 18.377c1.37-.5 2.436-1.357 3.2-2.57a6.489 6.489 0 0 0 1.265-3.911c0-1.871-.633-3.53-1.897-4.98-1.291-1.502-2.938-2.345-4.94-2.53 1.133 5.56 1.923 10.223 2.371 13.99m-15.294-9.128c0 2.608 1.054 4.9 3.162 6.876 2.16 1.923 4.584 2.885 7.271 2.885a21.82 21.82 0 0 0 3.24-.237c-.42-4.005-1.25-8.8-2.489-14.385-1.502.158-2.7.685-3.596 1.58-.87.923-1.304 1.963-1.304 3.123 0 2.002 1.067 3.622 3.2 4.86.185.185.277.383.277.593 0 .211-.092.409-.276.593a.749.749 0 0 1-.593.277c-.026 0-.145-.027-.356-.08-1.501-.816-2.66-1.87-3.477-3.16-.764-1.37-1.146-2.754-1.146-4.15 0-1.818.566-3.465 1.699-4.94 1.186-1.476 2.727-2.424 4.624-2.846-.738-2.95-1.344-5.256-1.818-6.915-.422.474-.929 1.047-1.522 1.719a54.822 54.822 0 0 0-1.047 1.205c-.948 1.238-1.673 2.2-2.173 2.885-.896 1.238-1.555 2.305-1.976 3.201a25.067 25.067 0 0 0-1.186 3.28 12.503 12.503 0 0 0-.514 3.636m13.2-40.191c-1.976.975-3.53 2.371-4.664 4.19-1.159 1.87-1.738 3.885-1.738 6.045 0 1.897.474 4.453 1.422 7.667 1.897-2.292 3.32-4.413 4.268-6.362a14.532 14.532 0 0 0 1.502-6.442c0-1.686-.263-3.386-.79-5.098M23.517 215.915h.237c.105-.026.198-.04.277-.04 2.95 0 5.374 1.041 7.271 3.123 1.897 2.055 2.846 4.452 2.846 7.192 0 3.399-1.41 6.165-4.229 8.299-.738.58-1.7 1.054-2.885 1.423.132 1.712.198 3.095.198 4.15 0 .21-.027.974-.08 2.291-.105 2.45-.948 4.571-2.529 6.363-1.528 1.765-3.424 2.647-5.69 2.647-2.134 0-3.952-.75-5.454-2.252-1.502-1.528-2.252-3.372-2.252-5.533 0-1.133.434-2.094 1.304-2.885.895-.79 1.936-1.185 3.122-1.185 1.054 0 1.936.408 2.647 1.225.738.764 1.107 1.712 1.107 2.845 0 1.028-.369 1.91-1.107 2.648-.737.738-1.62 1.107-2.647 1.107-.422 0-.83-.08-1.225-.237 1.159 1.712 2.7 2.568 4.623 2.568 1.818 0 3.307-.738 4.466-2.213 1.212-1.528 1.87-3.306 1.976-5.335.053-1.265.079-1.989.079-2.173 0-1.476-.053-2.688-.158-3.636-1.317.21-2.49.316-3.517.316-3.662 0-6.784-1.45-9.366-4.347-2.53-2.925-3.794-6.402-3.794-10.433 0-.843.079-1.7.237-2.569.158-.711.356-1.488.593-2.331.132-.475.487-1.239 1.067-2.293.21-.316.448-.71.711-1.185.264-.474.448-.79.553-.949.264-.527.778-1.238 1.542-2.134.21-.237.428-.5.652-.79.224-.29.415-.527.573-.711.158-.185.276-.33.355-.435.08-.105.672-.804 1.779-2.095.263-.263.52-.546.77-.85.25-.302.455-.54.613-.71.158-.172.277-.297.356-.376-.949-3.135-1.542-5.638-1.779-7.509-.184-1.501-.276-3.556-.276-6.165 0-2.292.527-4.439 1.58-6.441 1.028-2.081 2.464-3.78 4.308-5.098a.762.762 0 0 1 .395-.119c.185 0 .316.04.395.119 1.423 1.712 2.648 3.939 3.676 6.679 1.053 2.74 1.58 5.23 1.58 7.469 0 2.529-.606 4.9-1.818 7.113-1.37 2.345-3.135 4.769-5.295 7.272.553 1.738 1.29 4.465 2.213 8.18m3.36 18.376c1.37-.5 2.436-1.356 3.2-2.568a6.489 6.489 0 0 0 1.265-3.913c0-1.87-.633-3.53-1.897-4.98-1.291-1.5-2.938-2.344-4.94-2.528 1.133 5.559 1.923 10.222 2.371 13.99m-15.294-9.13c0 2.609 1.054 4.9 3.162 6.877 2.16 1.923 4.584 2.885 7.271 2.885a21.82 21.82 0 0 0 3.24-.237c-.42-4.005-1.25-8.8-2.489-14.385-1.502.158-2.7.685-3.596 1.58-.87.923-1.304 1.963-1.304 3.122 0 2.003 1.067 3.623 3.2 4.861.185.185.277.382.277.593 0 .21-.092.408-.276.593a.749.749 0 0 1-.593.276c-.026 0-.145-.026-.356-.079-1.501-.816-2.66-1.87-3.477-3.161-.764-1.37-1.146-2.753-1.146-4.15 0-1.817.566-3.464 1.699-4.94 1.186-1.475 2.727-2.423 4.624-2.845-.738-2.95-1.344-5.256-1.818-6.916-.422.475-.929 1.048-1.522 1.72a54.822 54.822 0 0 0-1.047 1.205c-.948 1.238-1.673 2.2-2.173 2.885-.896 1.238-1.555 2.305-1.976 3.2a25.067 25.067 0 0 0-1.186 3.28 12.503 12.503 0 0 0-.514 3.636m13.2-40.19c-1.976.974-3.53 2.37-4.664 4.189-1.159 1.87-1.738 3.886-1.738 6.046 0 1.897.474 4.453 1.422 7.667 1.897-2.292 3.32-4.413 4.268-6.363a14.532 14.532 0 0 0 1.502-6.441c0-1.687-.263-3.386-.79-5.098M41.28 52.623v3.122c0 1.106.053 1.989.158 2.647.87-.737 1.489-1.29 1.857-1.66.422-.42.844-1 1.265-1.738.422-.738.632-1.476.632-2.213 0-.738-.158-1.37-.474-1.897-.316-.527-.738-.79-1.264-.79-.633 0-1.16.237-1.581.71a2.949 2.949 0 0 0-.593 1.819m-1.66 7.232l-.514-24.067c.37-.211.738-.317 1.107-.317s.738.106 1.107.317l-.317 13.95c1.08-.922 2.319-1.383 3.715-1.383 1.028 0 1.884.421 2.569 1.264a4.449 4.449 0 0 1 1.027 2.885c0 .685-.224 1.41-.671 2.174-.422.711-.87 1.264-1.344 1.66-.264.21-.935.737-2.016 1.58-.316.237-.691.514-1.126.83-.435.316-.705.514-.81.593-.184.105-.356.316-.514.632a3.082 3.082 0 0 1-.632.672.997.997 0 0 1-.672.237.791.791 0 0 1-.632-.276c-.185-.185-.277-.435-.277-.751M41.28 214.492v3.122c0 1.107.053 1.99.158 2.648.87-.738 1.489-1.291 1.857-1.66.422-.421.844-1.001 1.265-1.739.422-.737.632-1.475.632-2.213 0-.737-.158-1.37-.474-1.897-.316-.527-.738-.79-1.264-.79-.633 0-1.16.237-1.581.711a2.949 2.949 0 0 0-.593 1.818m-1.66 7.232l-.514-24.067c.37-.21.738-.316 1.107-.316s.738.105 1.107.316l-.317 13.95c1.08-.922 2.319-1.383 3.715-1.383 1.028 0 1.884.422 2.569 1.265a4.449 4.449 0 0 1 1.027 2.885c0 .685-.224 1.41-.671 2.173-.422.712-.87 1.265-1.344 1.66-.264.21-.935.738-2.016 1.58-.316.238-.691.514-1.126.83-.435.317-.705.514-.81.593-.184.106-.356.317-.514.633a3.082 3.082 0 0 1-.632.672.997.997 0 0 1-.672.237.791.791 0 0 1-.632-.277c-.185-.184-.277-.435-.277-.75M62.644 34.563c.79 0 1.462-.093 2.015-.277.554-.185.91-.277 1.067-.277.185 0 .33.053.435.158.08.08.132.172.158.277a.607.607 0 0 1-.079.237l-11.5 13.357h6.758v-5.295c0-.343.092-.632.276-.87.317-.263.58-.421.79-.474.343-.158.765-.527 1.265-1.106.422-.474.923-1.304 1.502-2.49.08-.158.198-.237.356-.237.316 0 .5.184.553.553v9.92h2.885c.369 0 .58.197.632.592 0 .395-.21.593-.632.593H66.24v.316c0 1.054.264 1.95.79 2.687.606.738 1.318 1.107 2.134 1.107.317 0 .475.158.475.474 0 .316-.158.474-.475.474-.553 0-1.449-.079-2.687-.237-1.133-.184-2.015-.276-2.648-.276-.658 0-1.54.092-2.647.276-1.186.158-2.068.237-2.648.237-.316 0-.474-.158-.474-.474 0-.316.158-.474.474-.474.817 0 1.528-.369 2.134-1.107.553-.737.83-1.633.83-2.687v-.316H54.74c-.448 0-.764-.105-.948-.316a.751.751 0 0 1-.317-.632c0-.08.198-.356.593-.83.448-.527.922-1.173 1.423-1.937a47.992 47.992 0 0 0 1.66-2.766c.58-1.08 1.04-2.319 1.383-3.715.395-1.423.593-2.872.593-4.347 0-.421.184-.632.553-.632.079 0 .25.04.514.118.079.027.243.066.494.119.25.053.454.105.612.158.474.079.922.119 1.344.119"/><path d="M62.644 54.796c.79 0 1.462-.092 2.015-.276.554-.185.91-.277 1.067-.277.185 0 .33.053.435.158.08.08.132.171.158.277a.607.607 0 0 1-.079.237l-11.5 13.357h6.758v-5.295c0-.343.092-.633.276-.87.317-.263.58-.421.79-.474.343-.158.765-.527 1.265-1.107.422-.474.923-1.304 1.502-2.49.08-.157.198-.236.356-.236.316 0 .5.184.553.553v9.92h2.885c.369 0 .58.197.632.592 0 .395-.21.593-.632.593H66.24v.316c0 1.054.264 1.95.79 2.687.606.738 1.318 1.107 2.134 1.107.317 0 .475.158.475.474 0 .316-.158.474-.475.474-.553 0-1.449-.079-2.687-.237-1.133-.184-2.015-.277-2.648-.277-.658 0-1.54.093-2.647.277-1.186.158-2.068.237-2.648.237-.316 0-.474-.158-.474-.474 0-.316.158-.474.474-.474.817 0 1.528-.37 2.134-1.107.553-.738.83-1.633.83-2.687v-.316H54.74c-.448 0-.764-.106-.948-.316a.751.751 0 0 1-.317-.633c0-.079.198-.355.593-.83.448-.527.922-1.172 1.423-1.936a47.992 47.992 0 0 0 1.66-2.766c.58-1.08 1.04-2.319 1.383-3.715.395-1.423.593-2.872.593-4.347 0-.422.184-.633.553-.633.079 0 .25.04.514.119.079.026.243.066.494.119.25.052.454.105.612.158.474.079.922.118 1.344.118M90.494 45.984c.764 0 1.343.21 1.738.632.396.474.606.922.633 1.343.052.396.184.844.395 1.344.237.422.54.632.909.632.29 0 .724-.329 1.304-.988.527-.58.909-1.093 1.146-1.54.132-.264.316-.396.553-.396h.04a.634.634 0 0 1 .553.395L92.785 64.4c-.263.264-.632.396-1.106.396-.474 0-.843-.132-1.106-.396L95.315 51.2c-1.686.606-3.109.909-4.268.909-.949 0-1.765-.303-2.45-.909-.712-.58-1.067-1.344-1.067-2.292 0-.817.29-1.502.87-2.055.579-.58 1.277-.87 2.094-.87"/><path fill-rule="evenodd" d="M258.998 59.34l146.272 2.553v5.058L258.998 64.4v-5.058M208.349 236.386l45.768-2.604v5.058l-45.768 2.604v-5.058"/><path d="M137.492 40.174c.606 0 1.251.988 1.936 2.964.659 1.95.988 3.807.988 5.572 0 1.502-.369 2.99-1.106 4.466-.764 1.58-1.673 2.95-2.727 4.11l-3.24 3.636c-1.002 1.159-1.897 2.502-2.688 4.03-.738 1.476-1.106 2.978-1.106 4.506h-1.265V59.34h1.265c.71-.448 1.765-1.16 3.161-2.134.632-.474 1.58-1.265 2.845-2.371 1.028-.949 1.805-1.924 2.332-2.925.553-1.054.83-2.12.83-3.2 0-2.504-.725-4.993-2.174-7.47v-.158c0-.237.08-.435.238-.593.21-.21.447-.316.71-.316M133.814 112.586v-9.768c0-.807-.121-1.324-.363-1.551-.242-.228-.832-.371-1.771-.429v-.418h6.534v.418c-.924.044-1.514.183-1.771.418-.256.234-.385.755-.385 1.562v9.768c0 .806.132 1.331.396 1.573s.851.377 1.76.407v.418h-6.534v-.418c.924-.03 1.511-.162 1.76-.396.25-.235.374-.763.374-1.584M166.637 108.164c-.396-1.174-.7-1.911-.913-2.211-.212-.301-.561-.481-1.045-.539v-.33h4.466v.33c-.513.073-.854.161-1.023.264-.168.102-.253.278-.253.528 0 .19.125.623.374 1.298l1.848 4.928 1.98-4.884c.25-.616.374-1.1.374-1.452 0-.191-.066-.334-.198-.429-.132-.096-.388-.18-.77-.253v-.33h2.706v.33c-.22.073-.377.176-.473.308-.095.132-.238.425-.429.88l-3.036 7.612c-.293.718-.498 1.078-.616 1.078-.117 0-.293-.316-.528-.946l-2.002-5.192-2.464 5.28c-.264.572-.447.858-.55.858-.117 0-.308-.323-.572-.968l-2.97-7.524c-.22-.558-.403-.921-.55-1.089-.146-.169-.352-.268-.616-.297v-.33h3.96v.33c-.381.044-.645.117-.792.22-.146.102-.22.271-.22.506 0 .22.044.44.132.66l2.178 5.742 2.002-4.378m8.196 4.686c0-.264.029-.51.088-.737a1.83 1.83 0 0 1 .308-.638c.147-.198.286-.378.418-.539.132-.162.33-.327.594-.495.264-.169.484-.308.66-.418.176-.11.444-.242.803-.396.359-.154.634-.272.825-.352a103.016 103.016 0 0 1 1.804-.715v-1.342c0-1.218-.557-1.826-1.672-1.826-.44 0-.814.106-1.122.319-.308.212-.462.465-.462.759 0 .117.018.278.055.484.037.205.055.337.055.396a.858.858 0 0 1-.297.649.99.99 0 0 1-.693.275.91.91 0 0 1-.66-.286.906.906 0 0 1-.286-.66c0-.69.356-1.273 1.067-1.749.711-.477 1.588-.715 2.629-.715 1.203 0 2.031.289 2.486.869.455.579.682 1.463.682 2.651v4.29c0 .484.048.817.143 1.001.095.183.268.275.517.275.308 0 .631-.14.968-.418v.572c-.381.425-.715.715-1.001.869a2.031 2.031 0 0 1-.979.231c-.455 0-.788-.125-1.001-.374-.213-.25-.348-.66-.407-1.232-1.261 1.07-2.332 1.606-3.212 1.606-.675 0-1.228-.22-1.661-.66-.433-.44-.649-1.005-.649-1.694m5.5-.572v-3.19c-1.32.484-2.244.953-2.772 1.408-.528.454-.792 1.004-.792 1.65 0 .601.147 1.048.44 1.342.293.293.609.44.946.44.499 0 1.034-.169 1.606-.506.235-.132.389-.272.462-.418.073-.147.11-.389.11-.726m9.408-6.974c.015 0 .132-.074.352-.22h.242l.088 2.992h-.33c-.249-.983-.557-1.68-.924-2.09-.366-.411-.865-.616-1.496-.616-.498 0-.905.139-1.221.418a1.373 1.373 0 0 0-.473 1.078c0 .63.316 1.129.946 1.496l2.376 1.408c.66.396 1.133.795 1.419 1.199.286.403.429.876.429 1.419 0 .762-.304 1.422-.913 1.98-.608.557-1.338.836-2.189.836-.366 0-.858-.066-1.474-.198s-.997-.198-1.144-.198a.572.572 0 0 0-.506.264h-.286v-3.432h.352c.235 1.026.514 1.752.836 2.178.47.601 1.122.902 1.958.902.558 0 1.001-.143 1.331-.429.33-.286.495-.671.495-1.155 0-.66-.381-1.21-1.144-1.65l-1.276-.726c-.938-.528-1.602-1.034-1.991-1.518a2.568 2.568 0 0 1-.583-1.65c0-.792.283-1.441.847-1.947.565-.506 1.28-.759 2.145-.759.484 0 .939.069 1.364.209.426.139.682.209.77.209M300.4 106.228v-.374a57.985 57.985 0 0 0 3.036-.99l.154.044v1.738c.748-.704 1.338-1.177 1.771-1.419a2.854 2.854 0 0 1 1.419-.363c.806 0 1.441.289 1.903.869.462.579.693 1.389.693 2.431v5.038c0 .542.088.905.264 1.089.176.183.535.304 1.078.363v.33h-4.576v-.33c.557-.044.927-.191 1.111-.44.183-.25.275-.719.275-1.408v-4.598c0-1.423-.536-2.134-1.606-2.134-.367 0-.704.084-1.012.253-.308.168-.726.502-1.254 1.001v6.182c0 .396.102.674.308.836.205.161.586.264 1.144.308v.33h-4.664v-.33c.557-.044.924-.173 1.1-.385.176-.213.264-.635.264-1.265v-5.456c0-.543-.059-.913-.176-1.111-.118-.198-.33-.297-.638-.297-.279 0-.477.029-.594.088m11.894.11a6.22 6.22 0 0 0-.924.066v-.33a32.852 32.852 0 0 0 3.41-1.21l.088.066v7.81c0 .792.091 1.294.275 1.507.183.212.634.348 1.353.407v.33h-5.214v-.33c.762-.044 1.243-.176 1.441-.396.198-.22.297-.726.297-1.518v-5.104c0-.484-.055-.822-.165-1.012-.11-.191-.297-.286-.561-.286m1.452-6.38c.322 0 .594.11.814.33.22.22.33.484.33.792 0 .322-.11.59-.33.803a1.13 1.13 0 0 1-.814.319c-.308 0-.569-.11-.781-.33a1.098 1.098 0 0 1-.319-.792c0-.308.11-.572.33-.792.22-.22.476-.33.77-.33m3.513 6.27v-.374a57.985 57.985 0 0 0 3.036-.99l.154.044v1.738c.748-.704 1.338-1.177 1.771-1.419a2.86 2.86 0 0 1 1.419-.363c.807 0 1.441.289 1.903.869.462.579.693 1.389.693 2.431v5.038c0 .542.088.905.264 1.089.176.183.535.304 1.078.363v.33h-4.576v-.33c.557-.044.928-.191 1.111-.44.183-.25.275-.719.275-1.408v-4.598c0-1.423-.535-2.134-1.606-2.134-.367 0-.704.084-1.012.253-.308.168-.726.502-1.254 1.001v6.182c0 .396.103.674.308.836.205.161.587.264 1.144.308v.33h-4.664v-.33c.557-.044.924-.173 1.1-.385.176-.213.264-.635.264-1.265v-5.456c0-.543-.059-.913-.176-1.111-.117-.198-.33-.297-.638-.297-.279 0-.477.029-.594.088M253.6 105.304c.015 0 .132-.074.352-.22h.242l.088 2.992h-.33c-.249-.983-.557-1.68-.924-2.09-.366-.411-.865-.616-1.496-.616-.498 0-.905.139-1.221.418a1.373 1.373 0 0 0-.473 1.078c0 .63.316 1.129.946 1.496l2.376 1.408c.66.396 1.133.795 1.419 1.199.286.403.429.876.429 1.419 0 .762-.304 1.422-.913 1.98-.608.557-1.338.836-2.189.836-.366 0-.858-.066-1.474-.198s-.997-.198-1.144-.198a.572.572 0 0 0-.506.264h-.286v-3.432h.352c.235 1.026.514 1.752.836 2.178.47.601 1.122.902 1.958.902.558 0 1.001-.143 1.331-.429.33-.286.495-.671.495-1.155 0-.66-.381-1.21-1.144-1.65l-1.276-.726c-.938-.528-1.602-1.034-1.991-1.518a2.568 2.568 0 0 1-.583-1.65c0-.792.283-1.441.847-1.947.565-.506 1.28-.759 2.145-.759.484 0 .939.069 1.364.209.426.139.682.209.77.209m2.475 1.034v-.352c.924-.279 1.98-.653 3.168-1.122l.132.044v1.694c.938-1.159 1.994-1.738 3.168-1.738 1.07 0 1.95.44 2.64 1.32.689.88 1.034 2.002 1.034 3.366 0 1.598-.444 2.94-1.331 4.026-.888 1.085-1.984 1.628-3.289 1.628-.47 0-.862-.066-1.177-.198-.316-.132-.664-.382-1.045-.748v3.454c0 .689.117 1.133.352 1.331.234.198.762.304 1.584.319v.396h-5.324v-.374c.645-.059 1.063-.184 1.254-.374.19-.191.286-.572.286-1.144V107.57c0-.514-.059-.851-.176-1.012-.118-.162-.36-.242-.726-.242-.235 0-.418.007-.55.022m3.3 1.298v5.412c0 .322.253.645.759.968.506.322 1.015.484 1.529.484.792 0 1.433-.378 1.925-1.133.491-.756.737-1.742.737-2.959 0-1.276-.246-2.299-.737-3.069-.492-.77-1.148-1.155-1.969-1.155-.514 0-1.016.161-1.507.484-.492.322-.737.645-.737.968m8.756-1.298a6.22 6.22 0 0 0-.924.066v-.33a32.852 32.852 0 0 0 3.41-1.21l.088.066v7.81c0 .792.091 1.294.275 1.507.183.212.634.348 1.353.407v.33h-5.214v-.33c.762-.044 1.243-.176 1.441-.396.198-.22.297-.726.297-1.518v-5.104c0-.484-.055-.822-.165-1.012-.11-.191-.297-.286-.561-.286m1.452-6.38c.322 0 .594.11.814.33.22.22.33.484.33.792 0 .322-.11.59-.33.803a1.13 1.13 0 0 1-.814.319c-.308 0-.569-.11-.781-.33a1.098 1.098 0 0 1-.319-.792c0-.308.11-.572.33-.792.22-.22.476-.33.77-.33m3.513 6.27v-.374a57.985 57.985 0 0 0 3.036-.99l.154.044v1.738c.748-.704 1.338-1.177 1.771-1.419a2.86 2.86 0 0 1 1.419-.363c.807 0 1.441.289 1.903.869.462.579.693 1.389.693 2.431v5.038c0 .542.088.905.264 1.089.176.183.535.304 1.078.363v.33h-4.576v-.33c.557-.044.928-.191 1.111-.44.183-.25.275-.719.275-1.408v-4.598c0-1.423-.535-2.134-1.606-2.134-.367 0-.704.084-1.012.253-.308.168-.726.502-1.254 1.001v6.182c0 .396.103.674.308.836.205.161.587.264 1.144.308v.33h-4.664v-.33c.557-.044.924-.173 1.1-.385.176-.213.264-.635.264-1.265v-5.456c0-.543-.059-.913-.176-1.111-.117-.198-.33-.297-.638-.297-.279 0-.477.029-.594.088M399.74 102.224a.83.83 0 0 1-.605-.253c-.168-.169-.3-.36-.396-.572a1.61 1.61 0 0 0-.44-.572 1.064 1.064 0 0 0-.715-.253c-.836 0-1.254.652-1.254 1.958v2.552h2.706v.704h-2.684v6.908c0 .821.118 1.345.352 1.573.235.227.8.355 1.694.385v.33h-5.72v-.33c.792-.044 1.295-.18 1.507-.407.213-.228.319-.745.319-1.551v-6.908H392.7v-.704h1.804c.03-1.643.338-2.908.924-3.795.587-.888 1.57-1.331 2.948-1.331.66 0 1.207.128 1.639.385.433.256.649.583.649.979a.85.85 0 0 1-.275.638.904.904 0 0 1-.649.264m7.543 4.796c-.22 0-.491-.129-.814-.385-.322-.257-.535-.385-.638-.385-.293 0-.623.212-.99.638-.366.425-.55.814-.55 1.166v4.95c0 .63.125 1.056.374 1.276.25.22.748.344 1.496.374v.33h-5.28v-.33c.704-.132 1.141-.279 1.309-.44.169-.162.253-.521.253-1.078v-5.5c0-.484-.055-.825-.165-1.023-.11-.198-.304-.297-.583-.297-.234 0-.491.029-.77.088v-.352a46.004 46.004 0 0 0 3.256-1.188l.11.044v2.024c.543-.778 1.005-1.317 1.386-1.617.382-.301.8-.451 1.254-.451.382 0 .679.102.891.308.213.205.319.491.319.858 0 .308-.077.55-.231.726-.154.176-.363.264-.627.264m3.091 1.87c.029.924.154 1.719.374 2.387.22.667.506 1.166.858 1.496.352.33.707.564 1.067.704.359.139.737.209 1.133.209.704 0 1.316-.176 1.837-.528.52-.352 1.045-.946 1.573-1.782l.352.154c-.455 1.188-1.086 2.097-1.892 2.728a4.382 4.382 0 0 1-2.772.946c-1.262 0-2.263-.444-3.003-1.331-.741-.888-1.111-2.087-1.111-3.597 0-1.628.429-2.937 1.287-3.927.858-.99 1.961-1.485 3.311-1.485 1.114 0 1.98.333 2.596 1.001.616.667 1.004 1.675 1.166 3.025h-6.776m.044-.704h4.488c-.147-.954-.374-1.614-.682-1.98-.308-.367-.8-.55-1.474-.55-1.32 0-2.098.843-2.332 2.53m9.721.704c.03.924.154 1.719.374 2.387.22.667.506 1.166.858 1.496.352.33.708.564 1.067.704.36.139.737.209 1.133.209.704 0 1.317-.176 1.837-.528.521-.352 1.045-.946 1.573-1.782l.352.154c-.454 1.188-1.085 2.097-1.892 2.728-.806.63-1.73.946-2.772.946-1.261 0-2.262-.444-3.003-1.331-.74-.888-1.111-2.087-1.111-3.597 0-1.628.429-2.937 1.287-3.927.858-.99 1.962-1.485 3.311-1.485 1.115 0 1.98.333 2.596 1.001.616.667 1.005 1.675 1.166 3.025h-6.776m.044-.704h4.488c-.146-.954-.374-1.614-.682-1.98-.308-.367-.799-.55-1.474-.55-1.32 0-2.097.843-2.332 2.53m10.712 6.842l-.176.044a1.941 1.941 0 0 1-.418.044c-.396 0-.711-.099-.946-.297-.235-.198-.352-.473-.352-.825 0-.367.121-.668.363-.902.242-.235.554-.352.935-.352.499 0 .917.187 1.254.561.337.374.506.839.506 1.397 0 .66-.227 1.298-.682 1.914a4.898 4.898 0 0 1-1.782 1.474l-.198-.418c1.203-.822 1.804-1.599 1.804-2.332 0-.206-.103-.308-.308-.308M535.962 108.164c-.396-1.174-.7-1.911-.913-2.211-.212-.301-.561-.481-1.045-.539v-.33h4.466v.33c-.513.073-.854.161-1.023.264-.168.102-.253.278-.253.528 0 .19.125.623.374 1.298l1.848 4.928 1.98-4.884c.25-.616.374-1.1.374-1.452 0-.191-.066-.334-.198-.429-.132-.096-.388-.18-.77-.253v-.33h2.706v.33c-.22.073-.377.176-.473.308-.095.132-.238.425-.429.88l-3.036 7.612c-.293.718-.498 1.078-.616 1.078-.117 0-.293-.316-.528-.946l-2.002-5.192-2.464 5.28c-.264.572-.447.858-.55.858-.117 0-.308-.323-.572-.968l-2.97-7.524c-.22-.558-.403-.921-.55-1.089-.146-.169-.352-.268-.616-.297v-.33h3.96v.33c-.381.044-.645.117-.792.22-.146.102-.22.271-.22.506 0 .22.044.44.132.66l2.178 5.742 2.002-4.378m11.122-.726v5.302c0 .762.088 1.254.264 1.474.176.22.587.366 1.232.44v.33h-4.752v-.33c.631-.088 1.023-.235 1.177-.44.154-.206.231-.697.231-1.474v-10.362c0-.47-.062-.778-.187-.924-.125-.147-.4-.22-.825-.22-.103 0-.227.014-.374.044v-.352a42.727 42.727 0 0 0 3.124-.968l.11.066v6.688c.499-.66 1.001-1.133 1.507-1.419.506-.286 1.082-.429 1.727-.429 1.804 0 2.706 1.166 2.706 3.498v4.378c0 .762.07 1.243.209 1.441.139.198.51.355 1.111.473v.33h-4.664v-.33c.631-.059 1.038-.206 1.221-.44.183-.235.275-.726.275-1.474v-4.356c0-1.555-.55-2.332-1.65-2.332-.425 0-.825.106-1.199.319-.374.212-.788.568-1.243 1.067m12.889-2.574c1.408 0 2.567.469 3.476 1.408.909.938 1.364 2.126 1.364 3.564 0 1.525-.469 2.801-1.408 3.828-.939 1.026-2.097 1.54-3.476 1.54s-2.526-.495-3.443-1.485c-.917-.99-1.375-2.226-1.375-3.707 0-1.511.451-2.747 1.353-3.707.902-.961 2.072-1.441 3.509-1.441m-2.882 4.07c0 1.569.286 2.904.858 4.004.572 1.1 1.32 1.65 2.244 1.65.821 0 1.467-.352 1.936-1.056.469-.704.704-1.68.704-2.926 0-1.511-.293-2.743-.88-3.696-.587-.954-1.342-1.43-2.266-1.43-.777 0-1.404.315-1.881.946-.477.63-.715 1.466-.715 2.508m8.817 3.916c0-.264.029-.51.088-.737a1.83 1.83 0 0 1 .308-.638c.147-.198.286-.378.418-.539.132-.162.33-.327.594-.495.264-.169.484-.308.66-.418.176-.11.444-.242.803-.396.359-.154.634-.272.825-.352a103.016 103.016 0 0 1 1.804-.715v-1.342c0-1.218-.557-1.826-1.672-1.826-.44 0-.814.106-1.122.319-.308.212-.462.465-.462.759 0 .117.018.278.055.484.037.205.055.337.055.396a.858.858 0 0 1-.297.649.99.99 0 0 1-.693.275.91.91 0 0 1-.66-.286.906.906 0 0 1-.286-.66c0-.69.356-1.273 1.067-1.749.711-.477 1.588-.715 2.629-.715 1.203 0 2.031.289 2.486.869.455.579.682 1.463.682 2.651v4.29c0 .484.048.817.143 1.001.095.183.268.275.517.275.308 0 .631-.14.968-.418v.572c-.381.425-.715.715-1.001.869a2.031 2.031 0 0 1-.979.231c-.455 0-.788-.125-1.001-.374-.213-.25-.348-.66-.407-1.232-1.261 1.07-2.332 1.606-3.212 1.606-.675 0-1.228-.22-1.661-.66-.433-.44-.649-1.005-.649-1.694m5.5-.572v-3.19c-1.32.484-2.244.953-2.772 1.408-.528.454-.792 1.004-.792 1.65 0 .601.147 1.048.44 1.342.293.293.609.44.946.44.499 0 1.034-.169 1.606-.506.235-.132.389-.272.462-.418.073-.147.11-.389.11-.726M299.155 266.733c1.408 0 2.566.469 3.476 1.408.909.939 1.364 2.127 1.364 3.564 0 1.525-.47 2.801-1.408 3.828-.939 1.027-2.098 1.54-3.476 1.54-1.379 0-2.527-.495-3.443-1.485-.917-.99-1.375-2.226-1.375-3.707 0-1.511.451-2.746 1.353-3.707.902-.961 2.071-1.441 3.509-1.441m-2.882 4.07c0 1.569.286 2.904.858 4.004.572 1.1 1.32 1.65 2.244 1.65.821 0 1.466-.352 1.936-1.056.469-.704.704-1.679.704-2.926 0-1.511-.294-2.743-.88-3.696-.587-.953-1.342-1.43-2.266-1.43-.778 0-1.405.315-1.881.946-.477.631-.715 1.467-.715 2.508m8.817 3.916c0-.264.029-.51.088-.737a1.82 1.82 0 0 1 .308-.638c.146-.198.286-.378.418-.539.132-.161.33-.326.594-.495.264-.169.484-.308.66-.418a6.23 6.23 0 0 1 .803-.396l.825-.352c.19-.081.491-.202.902-.363.41-.161.711-.279.902-.352v-1.342c0-1.217-.558-1.826-1.672-1.826-.44 0-.814.106-1.122.319-.308.213-.462.466-.462.759 0 .117.018.279.055.484.036.205.055.337.055.396a.857.857 0 0 1-.297.649.99.99 0 0 1-.693.275.903.903 0 0 1-.66-.286.906.906 0 0 1-.286-.66c0-.689.355-1.272 1.067-1.749.711-.477 1.587-.715 2.629-.715 1.202 0 2.031.29 2.486.869.454.579.682 1.463.682 2.651v4.29c0 .484.047.818.143 1.001.095.183.267.275.517.275.308 0 .63-.139.968-.418v.572c-.382.425-.715.715-1.001.869a2.034 2.034 0 0 1-.979.231c-.455 0-.789-.125-1.001-.374-.213-.249-.349-.66-.407-1.232-1.262 1.071-2.332 1.606-3.212 1.606-.675 0-1.229-.22-1.661-.66-.433-.44-.649-1.005-.649-1.694m5.5-.572v-3.19c-1.32.484-2.244.953-2.772 1.408-.528.455-.792 1.005-.792 1.65 0 .601.146 1.049.44 1.342.293.293.608.44.946.44.498 0 1.034-.169 1.606-.506.234-.132.388-.271.462-.418.073-.147.11-.389.11-.726"/><path fill="none" stroke="#000" stroke-width="1.52" stroke-linejoin="bevel" d="M287.848 108.937h8.094M587.919 108.937h8.094M166.765 270.806h8.094"/></svg>