<svg width="611" height="119" xmlns="http://www.w3.org/2000/svg" version="1.2" baseProfile="tiny"><path stroke="#000" stroke-width=".63" stroke-linecap="round" stroke-linejoin="round" fill-rule="evenodd" d="M223.886 16.1c3.573-4.32 14.293-4.32 17.866 0-3.573-2.88-14.293-2.88-17.866 0M282.894 25.104c5.175-4.653 20.699-4.653 25.874 0-5.175-3.213-20.699-3.213-25.874 0M223.886 56.928c3.573 2.881 14.293 2.881 17.866 0-3.573 4.322-14.293 4.322-17.866 0M282.894 65.683c5.175 3.212 20.699 3.212 25.874 0-5.175 4.653-20.699 4.653-25.874 0M358.428 11.554c32.412-20.49 171.01-4.735 197.996 22.507C529.275 8.25 390.678-7.505 358.428 11.554M520.209 36.57c5.032-4.545 20.128-4.545 25.16 0-5.032-3.105-20.128-3.105-25.16 0M520.209 56.761c5.032 3.104 20.128 3.104 25.16 0-5.032 4.545-20.128 4.545-25.16 0"/><path stroke="#000" stroke-width=".72" stroke-linejoin="bevel" d="M2.386 28.66h155.918M2.386 37.662h155.918M2.386 46.665h155.918M2.386 55.668h155.918M2.386 64.67h155.918M158.304 28.66h245.75M158.304 37.662h245.75M158.304 46.665h245.75M158.304 55.668h245.75M158.304 64.67h245.75M404.054 28.66h132.651M404.054 37.662h132.651M404.054 46.665h132.651M404.054 55.668h132.651M404.054 64.67h132.651M536.705 28.66h72.579M536.705 37.662h72.579M536.705 46.665h72.579M536.705 55.668h72.579M536.705 64.67h72.579"/><path stroke="#000" stroke-width="1.44" stroke-linejoin="bevel" d="M157.583 28.66v36.01M403.334 28.66v36.01M535.985 28.66v36.01M608.564 28.66v36.01"/><path stroke="#000" stroke-width="1.44" stroke-linecap="square" stroke-linejoin="bevel" d="M207.91 19.657h17.255M240.474 19.657h17.254M349.801 19.657h17.254"/><path stroke="#000" stroke-width="1.17" stroke-linecap="round" stroke-linejoin="bevel" d="M123.35 30.35v41.073M100.337 30.35v43.324M211.196 21.348v57.684M180.086 25.849v50.075M270.204 30.35v54.577M243.76 21.348v60.938M353.087 21.348v46.699M310.776 30.35v54.577M443.774 30.35v41.073M415.443 25.849v45.574M507.519 43.855v34.32M489.812 30.35v34.32M472.105 34.852v32.07"/><path d="M130.678 23.701c1.125 0 2.075.293 2.848.88.727.632 1.09 1.43 1.09 2.39 0 1.618-.832 3.13-2.496 4.537-1.689 1.407-3.494 2.11-5.416 2.11-1.126 0-2.075-.293-2.849-.879-.727-.633-1.09-1.43-1.09-2.391 0-1.618.844-3.13 2.532-4.537 1.641-1.407 3.435-2.11 5.38-2.11M130.678 37.205c1.125 0 2.075.293 2.848.88.727.632 1.09 1.43 1.09 2.39 0 1.618-.832 3.13-2.496 4.537-1.689 1.407-3.494 2.11-5.416 2.11-1.126 0-2.075-.293-2.849-.879-.727-.633-1.09-1.43-1.09-2.391 0-1.618.844-3.13 2.532-4.537 1.641-1.406 3.435-2.11 5.38-2.11M107.665 23.701c1.125 0 2.075.293 2.848.88.727.632 1.09 1.43 1.09 2.39 0 1.618-.832 3.13-2.496 4.537-1.689 1.407-3.494 2.11-5.416 2.11-1.126 0-2.075-.293-2.849-.879-.727-.633-1.09-1.43-1.09-2.391 0-1.618.844-3.13 2.532-4.537 1.641-1.407 3.435-2.11 5.38-2.11M107.665 37.205c1.125 0 2.075.293 2.848.88.727.632 1.09 1.43 1.09 2.39 0 1.618-.832 3.13-2.496 4.537-1.689 1.407-3.494 2.11-5.416 2.11-1.126 0-2.075-.293-2.849-.879-.727-.633-1.09-1.43-1.09-2.391 0-1.618.844-3.13 2.532-4.537 1.641-1.406 3.435-2.11 5.38-2.11M218.524 14.698c1.125 0 2.075.293 2.848.88.727.632 1.09 1.43 1.09 2.39 0 1.618-.832 3.13-2.496 4.537-1.689 1.407-3.494 2.11-5.416 2.11-1.126 0-2.075-.293-2.849-.879-.727-.633-1.09-1.43-1.09-2.391 0-1.618.844-3.13 2.532-4.537 1.641-1.406 3.435-2.11 5.38-2.11M187.414 19.2c1.125 0 2.075.293 2.848.879.727.633 1.09 1.43 1.09 2.391 0 1.618-.832 3.13-2.496 4.537-1.689 1.406-3.494 2.11-5.416 2.11-1.126 0-2.075-.293-2.849-.88-.727-.632-1.09-1.43-1.09-2.39 0-1.618.844-3.13 2.532-4.537 1.641-1.407 3.435-2.11 5.38-2.11M187.414 37.205c1.125 0 2.075.293 2.848.88.727.632 1.09 1.43 1.09 2.39 0 1.618-.832 3.13-2.496 4.537-1.689 1.407-3.494 2.11-5.416 2.11-1.126 0-2.075-.293-2.849-.879-.727-.633-1.09-1.43-1.09-2.391 0-1.618.844-3.13 2.532-4.537 1.641-1.406 3.435-2.11 5.38-2.11M277.532 23.701c1.125 0 2.075.293 2.848.88.727.632 1.09 1.43 1.09 2.39 0 1.618-.832 3.13-2.496 4.537-1.689 1.407-3.494 2.11-5.416 2.11-1.126 0-2.075-.293-2.849-.879-.727-.633-1.09-1.43-1.09-2.391 0-1.618.844-3.13 2.532-4.537 1.641-1.407 3.435-2.11 5.38-2.11M251.088 14.698c1.125 0 2.075.293 2.848.88.727.632 1.09 1.43 1.09 2.39 0 1.618-.832 3.13-2.496 4.537-1.689 1.407-3.494 2.11-5.416 2.11-1.126 0-2.075-.293-2.849-.879-.727-.633-1.09-1.43-1.09-2.391 0-1.618.844-3.13 2.532-4.537 1.641-1.406 3.435-2.11 5.38-2.11M218.524 46.208c1.125 0 2.075.293 2.848.88.727.632 1.09 1.43 1.09 2.39 0 1.618-.832 3.13-2.496 4.537-1.689 1.407-3.494 2.11-5.416 2.11-1.126 0-2.075-.293-2.849-.879-.727-.633-1.09-1.43-1.09-2.391 0-1.618.844-3.13 2.532-4.537 1.641-1.407 3.435-2.11 5.38-2.11M277.532 55.21c1.125 0 2.075.294 2.848.88.727.633 1.09 1.43 1.09 2.391 0 1.618-.832 3.13-2.496 4.537-1.689 1.407-3.494 2.11-5.416 2.11-1.126 0-2.075-.293-2.849-.88-.727-.632-1.09-1.43-1.09-2.39 0-1.618.844-3.13 2.532-4.537 1.641-1.407 3.435-2.11 5.38-2.11M251.088 46.208c1.125 0 2.075.293 2.848.88.727.632 1.09 1.43 1.09 2.39 0 1.618-.832 3.13-2.496 4.537-1.689 1.407-3.494 2.11-5.416 2.11-1.126 0-2.075-.293-2.849-.879-.727-.633-1.09-1.43-1.09-2.391 0-1.618.844-3.13 2.532-4.537 1.641-1.407 3.435-2.11 5.38-2.11M360.414 14.698c1.125 0 2.075.293 2.848.88.727.632 1.09 1.43 1.09 2.39 0 1.618-.832 3.13-2.496 4.537-1.689 1.407-3.494 2.11-5.416 2.11-1.126 0-2.075-.293-2.849-.879-.727-.633-1.09-1.43-1.09-2.391 0-1.618.844-3.13 2.532-4.537 1.641-1.406 3.435-2.11 5.38-2.11"/><path d="M360.414 23.701c1.125 0 2.075.293 2.848.88.727.632 1.09 1.43 1.09 2.39 0 1.618-.832 3.13-2.496 4.537-1.689 1.407-3.494 2.11-5.416 2.11-1.126 0-2.075-.293-2.849-.879-.727-.633-1.09-1.43-1.09-2.391 0-1.618.844-3.13 2.532-4.537 1.641-1.407 3.435-2.11 5.38-2.11"/><path d="M360.414 32.704c1.125 0 2.075.293 2.848.879.727.633 1.09 1.43 1.09 2.391 0 1.618-.832 3.13-2.496 4.537-1.689 1.407-3.494 2.11-5.416 2.11-1.126 0-2.075-.293-2.849-.88-.727-.632-1.09-1.43-1.09-2.39 0-1.618.844-3.13 2.532-4.537 1.641-1.407 3.435-2.11 5.38-2.11M318.104 23.701c1.125 0 2.075.293 2.848.88.727.632 1.09 1.43 1.09 2.39 0 1.618-.832 3.13-2.496 4.537-1.689 1.407-3.494 2.11-5.416 2.11-1.126 0-2.075-.293-2.849-.879-.727-.633-1.09-1.43-1.09-2.391 0-1.618.844-3.13 2.532-4.537 1.641-1.407 3.435-2.11 5.38-2.11M451.102 23.701c1.125 0 2.075.293 2.848.88.727.632 1.09 1.43 1.09 2.39 0 1.618-.832 3.13-2.496 4.537-1.689 1.407-3.494 2.11-5.416 2.11-1.126 0-2.075-.293-2.849-.879-.727-.633-1.09-1.43-1.09-2.391 0-1.618.844-3.13 2.532-4.537 1.641-1.407 3.435-2.11 5.38-2.11M451.102 37.205c1.125 0 2.075.293 2.848.88.727.632 1.09 1.43 1.09 2.39 0 1.618-.832 3.13-2.496 4.537-1.689 1.407-3.494 2.11-5.416 2.11-1.126 0-2.075-.293-2.849-.879-.727-.633-1.09-1.43-1.09-2.391 0-1.618.844-3.13 2.532-4.537 1.641-1.406 3.435-2.11 5.38-2.11M422.77 19.2c1.126 0 2.076.293 2.85.879.726.633 1.09 1.43 1.09 2.391 0 1.618-.833 3.13-2.497 4.537-1.689 1.406-3.494 2.11-5.416 2.11-1.126 0-2.075-.293-2.849-.88-.727-.632-1.09-1.43-1.09-2.39 0-1.618.844-3.13 2.532-4.537 1.641-1.407 3.435-2.11 5.38-2.11"/><path d="M422.77 28.202c1.126 0 2.076.293 2.85.88.726.633 1.09 1.43 1.09 2.391 0 1.618-.833 3.13-2.497 4.537-1.689 1.406-3.494 2.11-5.416 2.11-1.126 0-2.075-.293-2.849-.88-.727-.633-1.09-1.43-1.09-2.391 0-1.618.844-3.13 2.532-4.537 1.641-1.406 3.435-2.11 5.38-2.11"/><path d="M422.77 37.205c1.126 0 2.076.293 2.85.88.726.632 1.09 1.43 1.09 2.39 0 1.618-.833 3.13-2.497 4.537-1.689 1.407-3.494 2.11-5.416 2.11-1.126 0-2.075-.293-2.849-.879-.727-.633-1.09-1.43-1.09-2.391 0-1.618.844-3.13 2.532-4.537 1.641-1.406 3.435-2.11 5.38-2.11M514.847 37.205c1.125 0 2.075.293 2.848.88.727.632 1.09 1.43 1.09 2.39 0 1.618-.832 3.13-2.496 4.537-1.689 1.407-3.494 2.11-5.416 2.11-1.126 0-2.075-.293-2.849-.879-.727-.633-1.09-1.43-1.09-2.391 0-1.618.844-3.13 2.532-4.537 1.641-1.406 3.435-2.11 5.38-2.11M497.14 23.701c1.125 0 2.075.293 2.848.88.727.632 1.09 1.43 1.09 2.39 0 1.618-.832 3.13-2.496 4.537-1.689 1.407-3.494 2.11-5.416 2.11-1.126 0-2.075-.293-2.849-.879-.727-.633-1.09-1.43-1.09-2.391 0-1.618.844-3.13 2.532-4.537 1.641-1.407 3.435-2.11 5.38-2.11"/><path d="M497.14 32.704c1.125 0 2.075.293 2.848.879.727.633 1.09 1.43 1.09 2.391 0 1.618-.832 3.13-2.496 4.537-1.689 1.407-3.494 2.11-5.416 2.11-1.126 0-2.075-.293-2.849-.88-.727-.632-1.09-1.43-1.09-2.39 0-1.618.844-3.13 2.532-4.537 1.641-1.407 3.435-2.11 5.38-2.11M479.433 28.202c1.125 0 2.075.293 2.848.88.727.633 1.09 1.43 1.09 2.391 0 1.618-.832 3.13-2.496 4.537-1.689 1.406-3.494 2.11-5.416 2.11-1.126 0-2.075-.293-2.849-.88-.727-.633-1.09-1.43-1.09-2.391 0-1.618.844-3.13 2.532-4.537 1.641-1.406 3.435-2.11 5.38-2.11"/><path d="M479.433 37.205c1.125 0 2.075.293 2.848.88.727.632 1.09 1.43 1.09 2.39 0 1.618-.832 3.13-2.496 4.537-1.689 1.407-3.494 2.11-5.416 2.11-1.126 0-2.075-.293-2.849-.879-.727-.633-1.09-1.43-1.09-2.391 0-1.618.844-3.13 2.532-4.537 1.641-1.406 3.435-2.11 5.38-2.11M555.245 38.12c-.844 0-1.454.293-1.829.879-.422.562-.633 1.324-.633 2.286 0 1.102.293 2.051.88 2.848.585.774 1.23 1.313 1.934 1.618a4.563 4.563 0 0 0 2.004.457c.82 0 1.442-.293 1.864-.88.398-.585.598-1.347.598-2.285 0-1.102-.293-2.051-.88-2.849-.586-.75-1.219-1.29-1.898-1.617a4.95 4.95 0 0 0-2.04-.457m1.196-.915c2.532 0 4.642.493 6.33 1.477 1.711.985 2.567 2.145 2.567 3.482 0 1.43-.88 2.602-2.638 3.517-1.758.96-3.845 1.441-6.26 1.441-2.485 0-4.595-.492-6.33-1.477-1.735-.984-2.602-2.145-2.602-3.481 0-1.43.89-2.603 2.673-3.517 1.758-.961 3.845-1.442 6.26-1.442M318.104 55.21c1.125 0 2.075.294 2.848.88.727.633 1.09 1.43 1.09 2.391 0 1.618-.832 3.13-2.496 4.537-1.689 1.407-3.494 2.11-5.416 2.11-1.126 0-2.075-.293-2.849-.88-.727-.632-1.09-1.43-1.09-2.39 0-1.618.844-3.13 2.532-4.537 1.641-1.407 3.435-2.11 5.38-2.11M514.847 46.208c1.125 0 2.075.293 2.848.88.727.632 1.09 1.43 1.09 2.39 0 1.618-.832 3.13-2.496 4.537-1.689 1.407-3.494 2.11-5.416 2.11-1.126 0-2.075-.293-2.849-.879-.727-.633-1.09-1.43-1.09-2.391 0-1.618.844-3.13 2.532-4.537 1.641-1.407 3.435-2.11 5.38-2.11"/><path d="M555.245 47.122c-.844 0-1.454.294-1.829.88-.422.562-.633 1.324-.633 2.286 0 1.101.293 2.05.88 2.848.585.774 1.23 1.313 1.934 1.618a4.563 4.563 0 0 0 2.004.457c.82 0 1.442-.293 1.864-.88.398-.585.598-1.347.598-2.285 0-1.102-.293-2.052-.88-2.849-.586-.75-1.219-1.29-1.898-1.617a4.95 4.95 0 0 0-2.04-.458m1.196-.914c2.532 0 4.642.492 6.33 1.477 1.711.985 2.567 2.145 2.567 3.482 0 1.43-.88 2.602-2.638 3.516-1.758.962-3.845 1.442-6.26 1.442-2.485 0-4.595-.492-6.33-1.477-1.735-.984-2.602-2.145-2.602-3.481 0-1.43.89-2.603 2.673-3.517 1.758-.961 3.845-1.442 6.26-1.442M21.371 46.454h.211c.094-.023.176-.035.246-.035 2.626 0 4.783.926 6.471 2.778 1.688 1.829 2.532 3.962 2.532 6.4 0 3.025-1.254 5.487-3.763 7.386-.656.516-1.512.938-2.567 1.266.117 1.524.176 2.755.176 3.693 0 .187-.024.867-.07 2.04-.094 2.18-.844 4.067-2.251 5.661-1.36 1.57-3.048 2.356-5.064 2.356-1.9 0-3.517-.668-4.853-2.004-1.337-1.36-2.005-3.001-2.005-4.924 0-1.008.387-1.863 1.16-2.567a4.07 4.07 0 0 1 2.779-1.055c.938 0 1.723.364 2.356 1.09.656.68.985 1.524.985 2.532 0 .915-.329 1.7-.985 2.357-.656.656-1.442.984-2.356.984a2.91 2.91 0 0 1-1.09-.21c1.031 1.523 2.403 2.285 4.114 2.285 1.618 0 2.943-.656 3.974-1.97 1.079-1.359 1.665-2.942 1.758-4.747.047-1.125.07-1.77.07-1.934 0-1.313-.046-2.391-.14-3.235-1.172.187-2.215.281-3.13.281-3.259 0-6.037-1.29-8.334-3.868-2.251-2.603-3.376-5.698-3.376-9.285 0-.75.07-1.512.21-2.286.141-.633.317-1.324.528-2.074.117-.422.434-1.102.95-2.04.187-.281.398-.633.633-1.055.234-.422.398-.703.492-.844.234-.469.692-1.102 1.371-1.9.188-.21.381-.445.58-.703.2-.257.37-.468.51-.633.141-.164.247-.293.317-.386.07-.094.598-.715 1.583-1.864.234-.235.463-.487.685-.756.223-.27.405-.481.546-.633.14-.153.246-.264.316-.334-.844-2.79-1.372-5.018-1.582-6.682-.165-1.337-.247-3.165-.247-5.486 0-2.04.47-3.95 1.407-5.733.914-1.852 2.192-3.364 3.833-4.536a.678.678 0 0 1 .352-.106c.164 0 .281.035.352.106 1.266 1.524 2.356 3.505 3.27 5.943.938 2.438 1.407 4.654 1.407 6.647 0 2.25-.54 4.36-1.618 6.33-1.219 2.086-2.79 4.243-4.712 6.47.492 1.548 1.149 3.975 1.97 7.28m2.988 16.353c1.22-.445 2.169-1.207 2.849-2.286a5.774 5.774 0 0 0 1.125-3.481c0-1.665-.562-3.142-1.688-4.431-1.149-1.337-2.614-2.087-4.396-2.251 1.008 4.947 1.712 9.096 2.11 12.45m-13.61-8.125c0 2.321.938 4.361 2.814 6.12 1.922 1.711 4.08 2.567 6.47 2.567.985 0 1.947-.07 2.884-.211-.375-3.564-1.113-7.83-2.215-12.801-1.336.14-2.403.61-3.2 1.407-.774.82-1.16 1.746-1.16 2.778 0 1.782.949 3.223 2.848 4.325.164.164.246.34.246.528 0 .187-.082.363-.246.527a.666.666 0 0 1-.528.247c-.023 0-.129-.024-.316-.07-1.337-.728-2.368-1.665-3.095-2.814-.68-1.22-1.02-2.45-1.02-3.693 0-1.617.504-3.083 1.512-4.396 1.055-1.313 2.427-2.157 4.115-2.532-.657-2.626-1.196-4.677-1.618-6.154-.375.422-.826.932-1.354 1.53-.527.598-.838.955-.932 1.072a152.68 152.68 0 0 0-1.934 2.568c-.797 1.101-1.383 2.051-1.758 2.848-.399.891-.75 1.864-1.055 2.919a11.126 11.126 0 0 0-.457 3.235m11.745-35.765c-1.758.868-3.141 2.11-4.15 3.728-1.03 1.664-1.547 3.458-1.547 5.38 0 1.689.422 3.963 1.266 6.823 1.688-2.04 2.954-3.927 3.798-5.662a12.932 12.932 0 0 0 1.337-5.732c0-1.5-.235-3.013-.704-4.537M37.178 45.188v2.778c0 .985.047 1.77.14 2.357.774-.657 1.325-1.15 1.654-1.477.375-.375.75-.891 1.125-1.548.375-.656.563-1.313.563-1.97 0-.656-.141-1.218-.422-1.687-.282-.469-.657-.703-1.126-.703-.562 0-1.031.21-1.406.633a2.624 2.624 0 0 0-.528 1.617m-1.477 6.436l-.457-21.417a1.97 1.97 0 0 1 .985-.281c.328 0 .656.093.984.281l-.281 12.414c.961-.82 2.063-1.23 3.306-1.23.914 0 1.676.374 2.286 1.125.61.75.914 1.606.914 2.567 0 .61-.2 1.254-.598 1.934-.375.633-.774 1.125-1.196 1.477-.234.188-.832.656-1.793 1.407a86.25 86.25 0 0 1-1.002.738c-.387.282-.628.457-.721.528-.165.093-.317.281-.458.562a2.743 2.743 0 0 1-.562.598.887.887 0 0 1-.598.211.704.704 0 0 1-.563-.246c-.164-.164-.246-.387-.246-.668M56.19 29.117c.703 0 1.3-.082 1.793-.246.492-.165.809-.247.95-.247.164 0 .293.047.386.141.07.07.118.152.141.246a.54.54 0 0 1-.07.211L49.156 41.11h6.014v-4.713c0-.304.082-.562.246-.773.281-.235.516-.375.703-.422.305-.141.68-.47 1.126-.985.375-.422.82-1.16 1.336-2.216.07-.14.176-.21.316-.21.282 0 .446.164.493.492v8.827h2.567c.328 0 .516.176.563.527 0 .352-.188.528-.563.528H59.39v.281c0 .938.234 1.735.703 2.392.54.656 1.172.984 1.9.984.28 0 .421.14.421.422s-.14.422-.422.422c-.492 0-1.29-.07-2.391-.21-1.008-.165-1.794-.247-2.356-.247-.587 0-1.372.082-2.357.246-1.055.14-1.84.211-2.356.211-.281 0-.422-.14-.422-.422 0-.281.14-.422.422-.422.727 0 1.36-.328 1.9-.984.492-.657.738-1.454.738-2.392v-.281h-6.014c-.398 0-.68-.094-.844-.282a.668.668 0 0 1-.281-.562c0-.07.176-.317.527-.739a17.42 17.42 0 0 0 1.266-1.723 42.707 42.707 0 0 0 1.477-2.462c.516-.96.926-2.063 1.231-3.305.352-1.266.528-2.556.528-3.869 0-.375.164-.562.492-.562.07 0 .223.035.457.105.07.023.217.059.44.106.223.046.404.093.545.14.422.07.82.106 1.196.106"/><path d="M56.19 47.122c.703 0 1.3-.082 1.793-.246.492-.164.809-.246.95-.246.164 0 .293.047.386.14.07.071.118.153.141.247a.54.54 0 0 1-.07.21L49.156 59.115h6.014v-4.712c0-.305.082-.563.246-.774.281-.234.516-.375.703-.422.305-.14.68-.469 1.126-.984.375-.422.82-1.16 1.336-2.216.07-.14.176-.21.316-.21.282 0 .446.163.493.491v8.827h2.567c.328 0 .516.176.563.528 0 .352-.188.528-.563.528H59.39v.28c0 .939.234 1.736.703 2.392.54.657 1.172.985 1.9.985.28 0 .421.14.421.422 0 .281-.14.422-.422.422-.492 0-1.29-.07-2.391-.211-1.008-.164-1.794-.246-2.356-.246-.587 0-1.372.082-2.357.246-1.055.14-1.84.211-2.356.211-.281 0-.422-.14-.422-.422 0-.281.14-.422.422-.422.727 0 1.36-.328 1.9-.985.492-.656.738-1.453.738-2.391v-.281h-6.014c-.398 0-.68-.094-.844-.282a.668.668 0 0 1-.281-.562c0-.07.176-.317.527-.739a17.42 17.42 0 0 0 1.266-1.723 42.707 42.707 0 0 0 1.477-2.462c.516-.961.926-2.063 1.231-3.306.352-1.266.528-2.555.528-3.868 0-.375.164-.563.492-.563.07 0 .223.035.457.106.07.023.217.058.44.105.223.047.404.094.545.14.422.071.82.106 1.196.106M80.973 39.28c.68 0 1.195.188 1.547.563.352.422.54.82.563 1.196.047.351.164.75.351 1.195.211.375.481.563.81.563.257 0 .644-.293 1.16-.88.469-.515.809-.972 1.02-1.37.117-.235.28-.352.492-.352h.035c.235.023.399.14.492.351l-4.43 15.122c-.235.235-.563.352-.985.352-.422 0-.75-.117-.985-.352l4.22-11.746c-1.5.54-2.766.81-3.798.81-.844 0-1.57-.27-2.18-.81-.633-.516-.95-1.195-.95-2.04 0-.726.258-1.336.774-1.828a2.54 2.54 0 0 1 1.864-.774"/><path fill-rule="evenodd" d="M179.501 73.674l91.288 9.12v4.5l-91.288-9.119v-4.501M471.52 64.67l18.877-2.398v4.5l-18.877 2.4v-4.501"/><path d="M107.946 47.615c.54 0 1.114.879 1.723 2.637.586 1.735.88 3.388.88 4.959 0 1.336-.329 2.66-.985 3.974-.68 1.407-1.489 2.626-2.427 3.657l-2.884 3.236c-.89 1.031-1.688 2.227-2.39 3.587-.657 1.313-.986 2.649-.986 4.009h-1.125V64.67h1.125a78.344 78.344 0 0 0 2.814-1.9c.562-.421 1.406-1.124 2.532-2.11.914-.843 1.606-1.71 2.075-2.602.492-.937.738-1.887.738-2.848 0-2.227-.645-4.443-1.934-6.647v-.14c0-.211.07-.387.211-.528a.874.874 0 0 1 .633-.281M120.563 107.987c-.36-1.067-.636-1.737-.83-2.01-.193-.274-.51-.437-.95-.49v-.3h4.06v.3c-.466.066-.776.146-.93.24-.153.093-.23.253-.23.48 0 .173.114.566.34 1.18l1.68 4.48 1.8-4.44c.227-.56.34-1 .34-1.32 0-.174-.06-.304-.18-.39-.12-.087-.353-.164-.7-.23v-.3h2.46v.3c-.2.066-.343.16-.43.28-.086.12-.216.386-.39.8l-2.76 6.92c-.266.653-.453.98-.56.98-.106 0-.266-.287-.48-.86l-1.82-4.72-2.24 4.8c-.24.52-.406.78-.5.78-.106 0-.28-.294-.52-.88l-2.7-6.84c-.2-.507-.366-.837-.5-.99-.133-.154-.32-.244-.56-.27v-.3h3.6v.3c-.346.04-.586.106-.72.2-.133.093-.2.246-.2.46 0 .2.04.4.12.6l1.98 5.22 1.82-3.98m7.457 4.26c0-.24.026-.464.08-.67.053-.207.146-.4.28-.58.133-.18.26-.344.38-.49.12-.147.3-.297.54-.45.24-.154.44-.28.6-.38.16-.1.403-.22.73-.36.326-.14.576-.247.75-.32a80.189 80.189 0 0 1 1.64-.65v-1.22c0-1.107-.507-1.66-1.52-1.66-.4 0-.74.096-1.02.29-.28.193-.42.423-.42.69 0 .106.016.253.05.44.033.186.05.306.05.36a.78.78 0 0 1-.27.59.901.901 0 0 1-.63.25.824.824 0 0 1-.6-.26.824.824 0 0 1-.26-.6c0-.627.323-1.157.97-1.59.646-.434 1.443-.65 2.39-.65 1.093 0 1.846.263 2.26.79.413.526.62 1.33.62 2.41v3.9c0 .44.043.743.13.91.086.166.243.25.47.25.28 0 .573-.127.88-.38v.52c-.347.386-.65.65-.91.79s-.557.21-.89.21c-.414 0-.717-.114-.91-.34-.194-.227-.317-.6-.37-1.12-1.147.973-2.12 1.46-2.92 1.46-.614 0-1.117-.2-1.51-.6-.394-.4-.59-.914-.59-1.54m5-.52v-2.9c-1.2.44-2.04.866-2.52 1.28-.48.413-.72.913-.72 1.5 0 .546.133.953.4 1.22.266.266.553.4.86.4.453 0 .94-.154 1.46-.46.213-.12.353-.247.42-.38.066-.134.1-.354.1-.66m8.547-6.34c.013 0 .12-.067.32-.2h.22l.08 2.72h-.3c-.227-.894-.507-1.527-.84-1.9-.333-.374-.787-.56-1.36-.56-.453 0-.823.126-1.11.38-.287.253-.43.58-.43.98 0 .573.287 1.026.86 1.36l2.16 1.28c.6.36 1.03.723 1.29 1.09.26.366.39.796.39 1.29 0 .693-.277 1.293-.83 1.8-.553.506-1.217.76-1.99.76-.333 0-.78-.06-1.34-.18s-.907-.18-1.04-.18a.52.52 0 0 0-.46.24h-.26v-3.12h.32c.213.933.467 1.593.76 1.98.427.546 1.02.82 1.78.82.507 0 .91-.13 1.21-.39.3-.26.45-.61.45-1.05 0-.6-.347-1.1-1.04-1.5l-1.16-.66c-.853-.48-1.457-.94-1.81-1.38-.353-.44-.53-.94-.53-1.5 0-.72.257-1.31.77-1.77.513-.46 1.163-.69 1.95-.69.44 0 .853.063 1.24.19.387.126.62.19.7.19M104.653 112.007v-8.88c0-.734-.11-1.204-.33-1.41-.22-.207-.757-.337-1.61-.39v-.38h5.94v.38c-.84.04-1.377.166-1.61.38-.234.213-.35.686-.35 1.42v8.88c0 .733.12 1.21.36 1.43.24.22.773.343 1.6.37v.38h-5.94v-.38c.84-.027 1.373-.147 1.6-.36.226-.214.34-.694.34-1.44M204.206 106.227v-.34a53.008 53.008 0 0 0 2.76-.9l.14.04v1.58c.68-.64 1.217-1.07 1.61-1.29.393-.22.823-.33 1.29-.33.733 0 1.31.263 1.73.79.42.526.63 1.263.63 2.21v4.58c0 .493.08.823.24.99.16.166.487.276.98.33v.3h-4.16v-.3c.507-.04.843-.174 1.01-.4.167-.227.25-.654.25-1.28v-4.18c0-1.294-.487-1.94-1.46-1.94-.333 0-.64.076-.92.23-.28.153-.66.456-1.14.91v5.62c0 .36.093.613.28.76.187.146.533.24 1.04.28v.3h-4.24v-.3c.507-.04.84-.157 1-.35.16-.194.24-.577.24-1.15v-4.96c0-.494-.053-.83-.16-1.01-.107-.18-.3-.27-.58-.27-.253 0-.433.026-.54.08m10.806.1c-.294 0-.574.02-.84.06v-.3a29.895 29.895 0 0 0 3.1-1.1l.08.06v7.1c0 .72.083 1.176.25 1.37.166.193.576.316 1.23.37v.3h-4.74v-.3c.693-.04 1.13-.16 1.31-.36.18-.2.27-.66.27-1.38v-4.64c0-.44-.05-.747-.15-.92-.1-.174-.27-.26-.51-.26m1.32-5.8c.293 0 .54.1.74.3.2.2.3.44.3.72 0 .293-.1.536-.3.73-.2.193-.447.29-.74.29-.28 0-.517-.1-.71-.3a.996.996 0 0 1-.29-.72c0-.28.1-.52.3-.72.2-.2.433-.3.7-.3m3.187 5.7v-.34a53.638 53.638 0 0 0 2.76-.9l.14.04v1.58c.68-.64 1.216-1.07 1.61-1.29.393-.22.823-.33 1.29-.33.733 0 1.31.263 1.73.79.42.526.63 1.263.63 2.21v4.58c0 .493.08.823.24.99.16.166.486.276.98.33v.3h-4.16v-.3c.506-.04.843-.174 1.01-.4.166-.227.25-.654.25-1.28v-4.18c0-1.294-.487-1.94-1.46-1.94-.334 0-.64.076-.92.23-.28.153-.66.456-1.14.91v5.62c0 .36.093.613.28.76.186.146.533.24 1.04.28v.3h-4.24v-.3c.506-.04.84-.157 1-.35.16-.194.24-.577.24-1.15v-4.96c0-.494-.054-.83-.16-1.01-.107-.18-.3-.27-.58-.27-.254 0-.434.026-.54.08M174.475 105.387c.013 0 .12-.067.32-.2h.22l.08 2.72h-.3c-.227-.894-.507-1.527-.84-1.9-.334-.374-.787-.56-1.36-.56-.454 0-.824.126-1.11.38-.287.253-.43.58-.43.98 0 .573.286 1.026.86 1.36l2.16 1.28c.6.36 1.03.723 1.29 1.09.26.366.39.796.39 1.29 0 .693-.277 1.293-.83 1.8-.554.506-1.217.76-1.99.76-.334 0-.78-.06-1.34-.18s-.907-.18-1.04-.18c-.2 0-.354.08-.46.24h-.26v-3.12h.32c.213.933.466 1.593.76 1.98.426.546 1.02.82 1.78.82.506 0 .91-.13 1.21-.39.3-.26.45-.61.45-1.05 0-.6-.347-1.1-1.04-1.5l-1.16-.66c-.854-.48-1.457-.94-1.81-1.38-.354-.44-.53-.94-.53-1.5 0-.72.256-1.31.77-1.77.513-.46 1.163-.69 1.95-.69.44 0 .853.063 1.24.19.386.126.62.19.7.19m2.248.94v-.32c.84-.254 1.8-.594 2.88-1.02l.12.04v1.54c.853-1.054 1.813-1.58 2.88-1.58.973 0 1.773.4 2.4 1.2.627.8.94 1.82.94 3.06 0 1.453-.403 2.673-1.21 3.66-.807.986-1.803 1.48-2.99 1.48-.427 0-.783-.06-1.07-.18-.287-.12-.603-.347-.95-.68v3.14c0 .626.107 1.03.32 1.21.213.18.693.276 1.44.29v.36h-4.84v-.34c.587-.054.967-.167 1.14-.34.173-.174.26-.52.26-1.04v-9.36c0-.467-.053-.774-.16-.92-.107-.147-.327-.22-.66-.22-.213 0-.38.006-.5.02m3 1.18v4.92c0 .293.23.586.69.88.46.293.923.44 1.39.44.72 0 1.303-.344 1.75-1.03.447-.687.67-1.584.67-2.69 0-1.16-.223-2.09-.67-2.79-.447-.7-1.043-1.05-1.79-1.05-.467 0-.923.146-1.37.44-.447.293-.67.586-.67.88m7.96-1.18c-.293 0-.573.02-.84.06v-.3a29.813 29.813 0 0 0 3.1-1.1l.08.06v7.1c0 .72.083 1.176.25 1.37.167.193.577.316 1.23.37v.3h-4.74v-.3c.693-.04 1.13-.16 1.31-.36.18-.2.27-.66.27-1.38v-4.64c0-.44-.05-.747-.15-.92-.1-.174-.27-.26-.51-.26m1.32-5.8c.293 0 .54.1.74.3.2.2.3.44.3.72 0 .293-.1.536-.3.73-.2.193-.447.29-.74.29-.28 0-.517-.1-.71-.3a1 1 0 0 1-.29-.72c0-.28.1-.52.3-.72.2-.2.433-.3.7-.3m3.187 5.7v-.34a53.638 53.638 0 0 0 2.76-.9l.14.04v1.58c.68-.64 1.216-1.07 1.61-1.29.393-.22.823-.33 1.29-.33.733 0 1.31.263 1.73.79.42.526.63 1.263.63 2.21v4.58c0 .493.08.823.24.99.16.166.486.276.98.33v.3h-4.16v-.3c.506-.04.843-.174 1.01-.4.166-.227.25-.654.25-1.28v-4.18c0-1.294-.487-1.94-1.46-1.94-.334 0-.64.076-.92.23-.28.153-.66.456-1.14.91v5.62c0 .36.093.613.28.76.186.146.533.24 1.04.28v.3h-4.24v-.3c.506-.04.84-.157 1-.35.16-.194.24-.577.24-1.15v-4.96c0-.494-.054-.83-.16-1.01-.107-.18-.3-.27-.58-.27-.254 0-.434.026-.54.08M265.619 102.587a.75.75 0 0 1-.55-.23 1.722 1.722 0 0 1-.36-.52 1.47 1.47 0 0 0-.4-.52.966.966 0 0 0-.65-.23c-.76 0-1.14.593-1.14 1.78v2.32h2.46v.64h-2.44v6.28c0 .746.106 1.223.32 1.43.213.206.726.323 1.54.35v.3h-5.2v-.3c.72-.04 1.176-.164 1.37-.37.193-.207.29-.677.29-1.41v-6.28h-1.64v-.64h1.64c.026-1.494.306-2.644.84-3.45.533-.807 1.426-1.21 2.68-1.21.6 0 1.096.116 1.49.35.393.233.59.53.59.89 0 .226-.084.42-.25.58a.825.825 0 0 1-.59.24m6.853 4.36c-.2 0-.447-.117-.74-.35-.294-.234-.487-.35-.58-.35-.267 0-.567.193-.9.58-.334.386-.5.74-.5 1.06v4.5c0 .573.113.96.34 1.16.226.2.68.313 1.36.34v.3h-4.8v-.3c.64-.12 1.036-.254 1.19-.4.153-.147.23-.474.23-.98v-5c0-.44-.05-.75-.15-.93-.1-.18-.277-.27-.53-.27-.214 0-.447.026-.7.08v-.32a41.899 41.899 0 0 0 2.96-1.08l.1.04v1.84c.493-.707.913-1.197 1.26-1.47.346-.274.726-.41 1.14-.41.346 0 .616.093.81.28.193.186.29.446.29.78 0 .28-.07.5-.21.66-.14.16-.33.24-.57.24m2.81 1.7c.027.84.14 1.563.34 2.17.2.606.46 1.06.78 1.36.32.3.644.513.97.64.327.126.67.19 1.03.19.64 0 1.197-.16 1.67-.48.474-.32.95-.86 1.43-1.62l.32.14c-.413 1.08-.986 1.906-1.72 2.48a3.98 3.98 0 0 1-2.52.86c-1.146 0-2.056-.404-2.73-1.21-.673-.807-1.01-1.897-1.01-3.27 0-1.48.39-2.67 1.17-3.57.78-.9 1.784-1.35 3.01-1.35 1.014 0 1.8.303 2.36.91.56.606.914 1.523 1.06 2.75h-6.16m.04-.64h4.08c-.133-.867-.34-1.467-.62-1.8-.28-.334-.726-.5-1.34-.5-1.2 0-1.906.766-2.12 2.3m8.835.64c.027.84.14 1.563.34 2.17.2.606.46 1.06.78 1.36.32.3.644.513.97.64.327.126.67.19 1.03.19.64 0 1.197-.16 1.67-.48.474-.32.95-.86 1.43-1.62l.32.14c-.413 1.08-.986 1.906-1.72 2.48a3.98 3.98 0 0 1-2.52.86c-1.146 0-2.056-.404-2.73-1.21-.673-.807-1.01-1.897-1.01-3.27 0-1.48.39-2.67 1.17-3.57.78-.9 1.784-1.35 3.01-1.35 1.014 0 1.8.303 2.36.91.56.606.914 1.523 1.06 2.75h-6.16m.04-.64h4.08c-.133-.867-.34-1.467-.62-1.8-.28-.334-.726-.5-1.34-.5-1.2 0-1.906.766-2.12 2.3m9.735 6.22l-.16.04c-.12.026-.246.04-.38.04-.36 0-.646-.09-.86-.27-.213-.18-.32-.43-.32-.75 0-.334.11-.607.33-.82.22-.214.504-.32.85-.32.454 0 .834.17 1.14.51.307.34.46.763.46 1.27 0 .6-.206 1.18-.62 1.74a4.446 4.446 0 0 1-1.62 1.34l-.18-.38c1.094-.747 1.64-1.454 1.64-2.12 0-.187-.093-.28-.28-.28M358.209 107.987c-.36-1.067-.636-1.737-.83-2.01-.193-.274-.51-.437-.95-.49v-.3h4.06v.3c-.466.066-.776.146-.93.24-.153.093-.23.253-.23.48 0 .173.114.566.34 1.18l1.68 4.48 1.8-4.44c.227-.56.34-1 .34-1.32 0-.174-.06-.304-.18-.39-.12-.087-.353-.164-.7-.23v-.3h2.46v.3c-.2.066-.343.16-.43.28-.086.12-.216.386-.39.8l-2.76 6.92c-.266.653-.453.98-.56.98-.106 0-.266-.287-.48-.86l-1.82-4.72-2.24 4.8c-.24.52-.406.78-.5.78-.106 0-.28-.294-.52-.88l-2.7-6.84c-.2-.507-.366-.837-.5-.99-.133-.154-.32-.244-.56-.27v-.3h3.6v.3c-.346.04-.586.106-.72.2-.133.093-.2.246-.2.46 0 .2.04.4.12.6l1.98 5.22 1.82-3.98m10.117-.66v4.82c0 .693.08 1.14.24 1.34.16.2.533.333 1.12.4v.3h-4.32v-.3c.573-.08.93-.214 1.07-.4.14-.187.21-.634.21-1.34v-9.42c0-.427-.057-.707-.17-.84-.114-.134-.364-.2-.75-.2-.094 0-.207.013-.34.04v-.32a39.216 39.216 0 0 0 2.84-.88l.1.06v6.08c.453-.6.91-1.03 1.37-1.29.46-.26.983-.39 1.57-.39 1.64 0 2.46 1.06 2.46 3.18v3.98c0 .693.063 1.13.19 1.31.126.18.463.323 1.01.43v.3h-4.24v-.3c.573-.054.943-.187 1.11-.4.166-.214.25-.66.25-1.34v-3.96c0-1.414-.5-2.12-1.5-2.12-.387 0-.75.096-1.09.29-.34.193-.717.516-1.13.97m11.713-2.34c1.28 0 2.333.426 3.16 1.28.826.853 1.24 1.933 1.24 3.24 0 1.386-.427 2.546-1.28 3.48-.854.933-1.907 1.4-3.16 1.4-1.254 0-2.297-.45-3.13-1.35-.834-.9-1.25-2.024-1.25-3.37 0-1.374.41-2.497 1.23-3.37.82-.874 1.883-1.31 3.19-1.31m-2.62 3.7c0 1.426.26 2.64.78 3.64s1.2 1.5 2.04 1.5c.746 0 1.333-.32 1.76-.96.426-.64.64-1.527.64-2.66 0-1.374-.267-2.494-.8-3.36-.534-.867-1.22-1.3-2.06-1.3-.707 0-1.277.286-1.71.86-.434.573-.65 1.333-.65 2.28m8.012 3.56c0-.24.027-.464.08-.67.054-.207.147-.4.28-.58.134-.18.26-.344.38-.49.12-.147.3-.297.54-.45.24-.154.44-.28.6-.38.16-.1.404-.22.73-.36l.75-.32a104.564 104.564 0 0 1 1.64-.65v-1.22c0-1.107-.506-1.66-1.52-1.66-.4 0-.74.096-1.02.29-.28.193-.42.423-.42.69 0 .106.017.253.05.44.034.186.05.306.05.36a.78.78 0 0 1-.27.59.901.901 0 0 1-.63.25.828.828 0 0 1-.6-.26.828.828 0 0 1-.26-.6c0-.627.324-1.157.97-1.59.647-.434 1.444-.65 2.39-.65 1.094 0 1.847.263 2.26.79.414.526.62 1.33.62 2.41v3.9c0 .44.044.743.13.91.087.166.244.25.47.25.28 0 .574-.127.88-.38v.52c-.346.386-.65.65-.91.79s-.556.21-.89.21c-.413 0-.716-.114-.91-.34-.193-.227-.316-.6-.37-1.12-1.146.973-2.12 1.46-2.92 1.46-.613 0-1.116-.2-1.51-.6-.393-.4-.59-.914-.59-1.54m5-.52v-2.9c-1.2.44-2.04.866-2.52 1.28-.48.413-.72.913-.72 1.5 0 .546.134.953.4 1.22.267.266.554.4.86.4.454 0 .94-.154 1.46-.46.214-.12.354-.247.42-.38.067-.134.1-.354.1-.66M508.53 104.987c1.28 0 2.333.426 3.16 1.28.827.853 1.24 1.933 1.24 3.24 0 1.386-.427 2.546-1.28 3.48-.853.933-1.907 1.4-3.16 1.4-1.253 0-2.297-.45-3.13-1.35-.833-.9-1.25-2.024-1.25-3.37 0-1.374.41-2.497 1.23-3.37.82-.874 1.883-1.31 3.19-1.31m-2.62 3.7c0 1.426.26 2.64.78 3.64s1.2 1.5 2.04 1.5c.747 0 1.333-.32 1.76-.96.427-.64.64-1.527.64-2.66 0-1.374-.267-2.494-.8-3.36-.533-.867-1.22-1.3-2.06-1.3-.707 0-1.277.286-1.71.86-.433.573-.65 1.333-.65 2.28m8.012 3.56c0-.24.027-.464.08-.67.054-.207.147-.4.28-.58.134-.18.26-.344.38-.49.12-.147.3-.297.54-.45.24-.154.44-.28.6-.38.16-.1.404-.22.73-.36l.75-.32a104.564 104.564 0 0 1 1.64-.65v-1.22c0-1.107-.506-1.66-1.52-1.66-.4 0-.74.096-1.02.29-.28.193-.42.423-.42.69 0 .106.017.253.05.44.034.186.05.306.05.36a.78.78 0 0 1-.27.59.901.901 0 0 1-.63.25.828.828 0 0 1-.6-.26.828.828 0 0 1-.26-.6c0-.627.324-1.157.97-1.59.647-.434 1.444-.65 2.39-.65 1.094 0 1.847.263 2.26.79.414.526.62 1.33.62 2.41v3.9c0 .44.044.743.13.91.087.166.244.25.47.25.28 0 .574-.127.88-.38v.52c-.346.386-.65.65-.91.79s-.556.21-.89.21c-.413 0-.716-.114-.91-.34-.193-.227-.316-.6-.37-1.12-1.146.973-2.12 1.46-2.92 1.46-.613 0-1.116-.2-1.51-.6-.393-.4-.59-.914-.59-1.54m5-.52v-2.9c-1.2.44-2.04.866-2.52 1.28-.48.413-.72.913-.72 1.5 0 .546.134.953.4 1.22.267.266.554.4.86.4.454 0 .94-.154 1.46-.46.214-.12.354-.247.42-.38.067-.134.1-.354.1-.66"/><path fill="none" stroke="#000" stroke-width="1.35" stroke-linejoin="bevel" d="M445.009 108.694h7.203"/></svg>