 <svg version="1.0" xmlns="http://www.w3.org/2000/svg" width="700.000000pt" height="769.000000pt" viewBox="0 0 700.000000 769.000000" preserveAspectRatio="xMidYMid meet">
<metadata>
Created by potrace 1.12, written by Peter Selinger 2001-2015
</metadata>
<g transform="translate(0.000000,769.000000) scale(0.100000,-0.100000)" fill="#000000" stroke="none">
<path d="M4579 7597 c-58 -51 -220 -189 -360 -309 -140 -119 -353 -301 -475
-405 -121 -103 -324 -276 -450 -383 -126 -107 -245 -209 -264 -226 -19 -18
-116 -101 -216 -185 -197 -168 -577 -492 -884 -754 -249 -214 -634 -542 -915
-781 -306 -259 -375 -323 -375 -344 0 -10 12 -28 27 -40 32 -25 30 -26 308 35
476 104 814 178 1000 220 110 24 335 74 500 110 165 36 317 69 338 74 36 9 59
0 37 -14 -6 -4 -91 -25 -188 -46 -390 -88 -539 -121 -817 -184 -159 -36 -362
-81 -450 -101 -88 -19 -263 -59 -390 -87 l-230 -52 -5 -310 c-5 -271 -8 -316
-24 -359 -25 -65 -70 -130 -109 -160 -18 -13 -147 -71 -287 -129 -140 -58
-269 -117 -286 -131 -55 -43 -59 -80 -45 -399 15 -338 11 -328 125 -326 44 0
102 -8 151 -21 73 -20 439 -114 630 -162 44 -11 85 -27 92 -35 6 -8 14 -51 17
-96 7 -80 42 -381 92 -767 24 -189 25 -196 54 -222 31 -29 85 -44 122 -34 13
3 37 18 54 34 l31 28 6 184 c4 101 7 320 7 487 0 166 2 303 5 303 2 0 53 -11
112 -25 60 -13 243 -54 408 -90 165 -36 345 -76 400 -89 55 -14 145 -34 200
-45 55 -11 183 -39 285 -61 102 -23 275 -61 385 -85 255 -55 534 -117 700
-155 72 -16 224 -50 340 -75 115 -25 213 -49 217 -53 4 -4 13 -77 19 -162 6
-85 24 -321 40 -525 16 -203 29 -399 30 -435 0 -36 4 -85 7 -110 6 -40 12 -47
52 -69 59 -33 131 -33 191 0 24 13 49 35 55 49 8 16 21 222 39 595 14 314 26
575 25 581 0 7 26 27 58 46 31 20 188 118 347 218 409 258 485 304 491 298 3
-3 9 -75 15 -159 5 -85 17 -259 28 -387 16 -203 21 -235 37 -247 18 -13 64
-20 108 -15 26 3 93 48 101 68 9 22 45 620 45 743 0 53 3 124 6 158 l7 61 201
124 c470 289 430 261 438 309 3 23 7 328 7 677 l1 635 25 53 c14 30 25 59 25
66 0 6 14 13 31 14 17 1 40 7 51 13 51 28 75 130 42 178 -9 13 -32 29 -50 37
-19 8 -34 18 -34 22 -8 120 -22 150 -93 195 -28 19 -80 61 -114 93 -66 62 -79
95 -45 113 10 5 40 42 67 81 44 67 47 75 41 118 -12 89 -45 166 -96 228 -84
99 -127 171 -161 266 -18 50 -42 105 -54 123 -23 32 -85 167 -112 240 -8 22
-40 73 -71 113 -31 41 -75 98 -98 128 -22 29 -52 63 -66 74 -14 11 -43 46 -63
77 -70 107 -130 201 -165 258 -43 71 -196 220 -270 263 -30 18 -74 46 -97 63
l-43 30 21 37 c35 65 159 226 243 316 21 22 51 58 66 79 16 21 44 50 62 65 51
41 209 219 251 283 43 65 46 93 14 139 -46 70 -17 66 -740 105 -362 19 -664
35 -670 34 -7 0 -60 -42 -118 -92z m442 -928 c10 -5 31 -9 47 -9 34 0 70 -11
167 -50 39 -15 108 -40 155 -55 47 -15 94 -35 105 -45 11 -9 52 -37 90 -62 74
-48 191 -162 218 -213 21 -41 160 -253 189 -290 13 -16 37 -52 53 -80 16 -27
68 -90 116 -140 69 -71 89 -98 95 -129 11 -61 81 -232 113 -279 15 -23 48 -80
71 -127 46 -92 128 -220 141 -220 12 0 65 -84 77 -121 30 -98 15 -148 -63
-217 -42 -37 -48 -48 -53 -90 -5 -57 14 -85 111 -159 34 -25 71 -54 82 -64 11
-10 35 -30 52 -44 27 -22 32 -31 26 -53 -9 -39 -34 -68 -95 -110 -29 -20 -78
-63 -109 -95 -35 -35 -81 -69 -120 -88 -35 -17 -73 -39 -84 -50 -11 -10 -47
-43 -80 -75 -33 -31 -73 -62 -90 -70 -27 -12 -48 -29 -167 -140 -20 -20 -72
-50 -115 -69 -63 -27 -86 -33 -120 -28 -52 7 -63 19 -65 69 -1 40 -19 86 -46
117 -20 23 -55 22 -139 -7 l-70 -24 -174 19 c-96 11 -421 49 -724 84 -302 35
-716 82 -920 105 -203 22 -380 43 -393 45 -22 5 -57 53 -157 210 -22 35 -48
72 -58 83 -11 12 -24 36 -31 54 -7 18 -19 49 -28 68 -35 78 -77 210 -94 294
-20 105 -15 344 9 436 8 30 17 75 21 100 17 118 68 262 110 309 7 9 21 32 31
51 26 53 138 218 187 277 109 130 252 290 279 313 16 14 53 48 82 75 61 59
158 141 205 173 59 42 296 154 395 189 55 18 124 44 155 57 46 19 275 68 417
90 43 6 175 -3 196 -15z m-2024 -2447 c17 -37 43 -79 56 -94 14 -15 31 -44 38
-65 6 -20 25 -55 40 -77 39 -53 38 -68 -3 -61 -29 4 -647 76 -1038 120 -80 9
-147 18 -149 21 -9 9 68 29 289 75 129 28 336 72 460 98 124 27 236 49 250 50
22 1 30 -8 57 -67z m3927 -133 c31 -25 33 -57 5 -93 -28 -36 -57 -34 -73 7
-29 69 -29 75 1 91 36 20 36 20 67 -5z m-156 -52 c6 -7 16 -42 22 -79 10 -56
9 -70 -4 -97 -11 -20 -21 -28 -31 -25 -8 4 -15 10 -15 16 0 5 -12 35 -27 66
-29 61 -30 72 -6 109 17 25 45 30 61 10z m-133 -134 c10 -16 29 -39 42 -53 33
-33 25 -74 -22 -118 -27 -25 -41 -31 -58 -26 -27 8 -37 22 -37 50 0 12 -7 27
-15 34 -8 7 -15 27 -15 46 0 26 7 38 33 55 17 13 34 27 35 31 7 15 20 8 37
-19z m-169 -158 c45 -43 46 -46 40 -87 -4 -23 -14 -50 -22 -59 -18 -20 -102
-35 -116 -21 -6 6 -17 41 -24 79 l-15 68 38 32 c21 18 41 33 45 33 4 0 29 -20
54 -45z m-146 -187 c0 -28 -32 -62 -72 -77 -23 -9 -30 -7 -43 12 -8 12 -15 28
-15 36 0 8 -5 29 -12 48 -11 29 -10 35 9 52 11 10 29 21 39 23 26 6 94 -62 94
-94z m-167 -65 c15 -28 24 -58 21 -67 -8 -21 -50 -31 -68 -17 -18 15 -29 111
-14 128 17 21 31 11 61 -44z m-110 -72 c15 -14 27 -35 27 -47 0 -17 -8 -23
-37 -29 -21 -3 -45 -16 -54 -27 -26 -34 -66 -18 -79 33 -15 55 -10 73 22 77
14 2 34 12 43 23 20 21 23 19 78 -30z m-5223 -510 c0 -59 69 -77 148 -37 28
14 53 26 56 26 3 0 6 -15 8 -32 2 -25 10 -36 32 -47 26 -12 35 -11 100 15 39
16 74 30 78 32 4 2 8 -14 10 -34 3 -34 7 -39 44 -51 40 -13 46 -12 183 36 113
39 141 46 136 33 -16 -38 -27 -92 -21 -107 7 -19 124 -20 179 -1 l37 14 0 -34
c0 -39 24 -54 84 -54 29 0 198 55 334 109 73 29 84 26 30 -8 -47 -30 -52 -38
-63 -102 -6 -34 -5 -37 26 -48 47 -16 62 -14 139 20 39 18 73 29 76 26 3 -3 0
-21 -7 -40 -18 -51 -9 -64 53 -70 43 -3 65 1 117 24 76 35 83 35 81 7 -4 -49
0 -57 38 -67 20 -6 48 -11 62 -11 13 0 109 34 213 76 103 42 191 74 193 71 3
-3 -8 -13 -25 -21 -40 -21 -58 -50 -66 -107 -12 -84 27 -91 182 -35 96 35 97
34 89 -17 -6 -36 -3 -46 13 -62 32 -28 91 -14 289 66 116 47 185 69 206 67
l31 -3 -44 -25 c-36 -20 -47 -33 -57 -70 -27 -91 -17 -120 48 -127 38 -4 56 1
140 46 93 48 97 49 88 25 -6 -14 -10 -45 -10 -70 0 -39 3 -46 26 -54 47 -18
84 -10 183 40 l99 49 -5 -54 -6 -54 38 -15 c21 -9 48 -16 62 -16 13 0 110 39
215 87 l190 86 94 -22 c52 -13 96 -26 99 -31 3 -4 -94 -78 -215 -165 l-220
-157 0 -129 c0 -71 -4 -129 -8 -129 -4 0 -379 74 -832 164 -454 90 -1237 246
-1740 345 -1442 286 -1614 322 -1622 334 -4 7 -8 53 -8 104 l0 91 43 16 c23 9
107 41 187 70 80 30 151 55 158 55 7 1 12 -11 12 -28z"></path>
<path d="M5953 5699 c-41 -12 -94 -74 -117 -138 -13 -38 -17 -72 -15 -134 4
-76 8 -92 49 -172 l45 -88 60 -19 c33 -10 68 -18 78 -18 30 0 80 -30 114 -69
18 -20 33 -39 33 -43 0 -3 19 -20 42 -37 42 -31 84 -39 136 -25 32 9 62 76 62
137 0 56 -28 114 -88 181 -42 48 -67 102 -83 186 -15 76 -79 191 -123 223 -35
24 -138 33 -193 16z"></path>
<path d="M5278 5209 c-64 -25 -94 -45 -170 -115 -51 -46 -96 -92 -99 -102 -4
-10 -14 -24 -23 -31 -20 -17 -78 -138 -112 -232 -13 -37 -26 -102 -30 -146 -8
-97 7 -136 73 -190 24 -20 50 -50 58 -67 22 -50 66 -92 124 -121 47 -24 64
-27 144 -26 181 3 230 28 381 191 13 14 26 35 30 48 4 12 27 62 51 110 61 122
64 163 27 287 -58 191 -79 231 -167 320 -44 44 -93 86 -108 93 -44 19 -96 14
-179 -19z"></path>
<path d="M5987 5054 c-40 -40 -55 -90 -38 -122 6 -12 11 -58 11 -104 1 -50 7
-99 16 -123 9 -22 22 -62 29 -90 8 -27 25 -86 39 -130 14 -44 26 -85 26 -91 0
-6 16 -37 34 -69 34 -55 56 -73 163 -127 30 -15 78 6 100 42 9 16 26 33 37 38
12 5 39 37 60 71 32 53 37 69 35 114 -1 28 -10 68 -19 87 -10 19 -48 96 -85
170 -55 112 -74 141 -111 170 -25 19 -53 44 -62 54 -9 11 -44 48 -76 83 -73
78 -103 83 -159 27z"></path>
</g>
</svg>